{
  "piece_id": "bach__prelude__bwv_864__midi_score__sample",
  "resolution": "sixteenth",
  "steps_per_beat": 4,
  "bar_steps": 16,
  "time_signature": "4/4",
  "tempo_bpm": 120.0,
  "note_events": [
    {
      "pitch": 56,
      "velocity": 80,
      "instrument": 0,
      "channel": 0,
      "start_step": 0,
      "duration_steps": 1,
      "bar": 1,
      "position": 0,
      "track_index": 1,
      "track_name": "track_1",
      "is_drum": false,
      "harmony": "A:maj"
    },
    {
      "pitch": 56,
      "velocity": 80,
      "instrument": 0,
      "channel": 0,
      "start_step": 1,
      "duration_steps": 1,
      "bar": 1,
      "position": 1,
      "track_index": 1,
      "track_name": "track_1",
      "is_drum": false,
      "harmony": "A:maj"
    },
    {
      "pitch": 55,
      "velocity": 80,
      "instrument": 0,
      "channel": 0,
      "start_step": 2,
      "duration_steps": 1,
      "bar": 1,
      "position": 2,
      "track_index": 1,
      "track_name": "track_1",
      "is_drum": false,
      "harmony": "E:min"
    },
    {
      "pitch": 55,
      "velocity": 80,
      "instrument": 0,
      "channel": 0,
      "start_step": 3,
      "duration_steps": 1,
      "bar": 1,
      "position": 3,
      "track_index": 1,
      "track_name": "track_1",
      "is_drum": false,
      "harmony": "E:min"
    },
    {
      "pitch": 55,
      "velocity": 80,
      "instrument": 0,
      "channel": 0,
      "start_step": 4,
      "duration_steps": 1,
      "bar": 1,
      "position": 4,
      "track_index": 1,
      "track_name": "track_1",
      "is_drum": false,
      "harmony": "A:maj"
    },
    {
      "pitch": 54,
      "velocity": 80,
      "instrument": 0,
      "channel": 0,
      "start_step": 5,
      "duration_steps": 1,
      "bar": 1,
      "position": 5,
      "track_index": 1,
      "track_name": "track_1",
      "is_drum": false,
      "harmony": "E:min"
    },
    {
      "pitch": 54,
      "velocity": 80,
      "instrument": 0,
      "channel": 0,
      "start_step": 6,
      "duration_steps": 1,
      "bar": 1,
      "position": 6,
      "track_index": 1,
      "track_name": "track_1",
      "is_drum": false,
      "harmony": "E:min"
    },
    {
      "pitch": 54,
      "velocity": 80,
      "instrument": 0,
      "channel": 0,
      "start_step": 7,
      "duration_steps": 1,
      "bar": 1,
      "position": 7,
      "track_index": 1,
      "track_name": "track_1",
      "is_drum": false,
      "harmony": "A:maj"
    },
    {
      "pitch": 54,
      "velocity": 80,
      "instrument": 0,
      "channel": 0,
      "start_step": 8,
      "duration_steps": 1,
      "bar": 1,
      "position": 8,
      "track_index": 1,
      "track_name": "track_1",
      "is_drum": false,
      "harmony": "A:maj"
    },
    {
      "pitch": 54,
      "velocity": 80,
      "instrument": 0,
      "channel": 0,
      "start_step": 9,
      "duration_steps": 1,
      "bar": 1,
      "position": 9,
      "track_index": 1,
      "track_name": "track_1",
      "is_drum": false,
      "harmony": "A:maj"
    },
    {
      "pitch": 54,
      "velocity": 80,
      "instrument": 0,
      "channel": 0,
      "start_step": 10,
      "duration_steps": 1,
      "bar": 1,
      "position": 10,
      "track_index": 1,
      "track_name": "track_1",
      "is_drum": false,
      "harmony": "A:maj"
    },
    {
      "pitch": 52,
      "velocity": 80,
      "instrument": 0,
      "channel": 0,
      "start_step": 11,
      "duration_steps": 1,
      "bar": 1,
      "position": 11,
      "track_index": 1,
      "track_name": "track_1",
      "is_drum": false,
      "harmony": "A:maj"
    },
    {
      "pitch": 52,
      "velocity": 80,
      "instrument": 0,
      "channel": 0,
      "start_step": 12,
      "duration_steps": 1,
      "bar": 1,
      "position": 12,
      "track_index": 1,
      "track_name": "track_1",
      "is_drum": false,
      "harmony": "A:maj"
    },
    {
      "pitch": 52,
      "velocity": 80,
      "instrument": 0,
      "channel": 0,
      "start_step": 13,
      "duration_steps": 1,
      "bar": 1,
      "position": 13,
      "track_index": 1,
      "track_name": "track_1",
      "is_drum": false,
      "harmony": "A:maj"
    },
    {
      "pitch": 50,
      "velocity": 80,
      "instrument": 0,
      "channel": 0,
      "start_step": 14,
      "duration_steps": 1,
      "bar": 1,
      "position": 14,
      "track_index": 1,
      "track_name": "track_1",
      "is_drum": false,
      "harmony": "E:min"
    },
    {
      "pitch": 50,
      "velocity": 80,
      "instrument": 0,
      "channel": 0,
      "start_step": 15,
      "duration_steps": 1,
      "bar": 1,
      "position": 15,
      "track_index": 1,
      "track_name": "track_1",
      "is_drum": false,
      "harmony": "A:maj"
    },
    {
      "pitch": 50,
      "velocity": 80,
      "instrument": 0,
      "channel": 0,
      "start_step": 16,
      "duration_steps": 1,
      "bar": 2,
      "position": 0,
      "track_index": 1,
      "track_name": "track_1",
      "is_drum": false,
      "harmony": "A:maj"
    },
    {
      "pitch": 49,
      "velocity": 80,
      "instrument": 0,
      "channel": 0,
      "start_step": 17,
      "duration_steps": 1,
      "bar": 2,
      "position": 1,
      "track_index": 1,
      "track_name": "track_1",
      "is_drum": false,
      "harmony": "E:min"
    },
    {
      "pitch": 49,
      "velocity": 80,
      "instrument": 0,
      "channel": 0,
      "start_step": 18,
      "duration_steps": 1,
      "bar": 2,
      "position": 2,
      "track_index": 1,
      "track_name": "track_1",
      "is_drum": false,
      "harmony": "A:maj"
    },
    {
      "pitch": 47,
      "velocity": 80,
      "instrument": 0,
      "channel": 0,
      "start_step": 19,
      "duration_steps": 1,
      "bar": 2,
      "position": 3,
      "track_index": 1,
      "track_name": "track_1",
      "is_drum": false,
      "harmony": "E:min"
    },
    {
      "pitch": 47,
      "velocity": 80,
      "instrument": 0,
      "channel": 0,
      "start_step": 20,
      "duration_steps": 1,
      "bar": 2,
      "position": 4,
      "track_index": 1,
      "track_name": "track_1",
      "is_drum": false,
      "harmony": "A:maj"
    },
    {
      "pitch": 47,
      "velocity": 80,
      "instrument": 0,
      "channel": 0,
      "start_step": 21,
      "duration_steps": 1,
      "bar": 2,
      "position": 5,
      "track_index": 1,
      "track_name": "track_1",
      "is_drum": false,
      "harmony": "A:maj"
    },
    {
      "pitch": 45,
      "velocity": 80,
      "instrument": 0,
      "channel": 0,
      "start_step": 22,
      "duration_steps": 1,
      "bar": 2,
      "position": 6,
      "track_index": 1,
      "track_name": "track_1",
      "is_drum": false,
      "harmony": "A:maj"
    },
    {
      "pitch": 57,
      "velocity": 80,
      "instrument": 0,
      "channel": 0,
      "start_step": 23,
      "duration_steps": 1,
      "bar": 2,
      "position": 7,
      "track_index": 1,
      "track_name": "track_1",
      "is_drum": false,
      "harmony": "E:min"
    },
    {
      "pitch": 57,
      "velocity": 80,
      "instrument": 0,
      "channel": 0,
      "start_step": 24,
      "duration_steps": 1,
      "bar": 2,
      "position": 8,
      "track_index": 1,
      "track_name": "track_1",
      "is_drum": false,
      "harmony": "E:min"
    },
    {
      "pitch": 57,
      "velocity": 80,
      "instrument": 0,
      "channel": 0,
      "start_step": 25,
      "duration_steps": 1,
      "bar": 2,
      "position": 9,
      "track_index": 1,
      "track_name": "track_1",
      "is_drum": false,
      "harmony": "E:min"
    },
    {
      "pitch": 64,
      "velocity": 80,
      "instrument": 0,
      "channel": 0,
      "start_step": 26,
      "duration_steps": 4,
      "bar": 2,
      "position": 10,
      "track_index": 0,
      "track_name": "track_0",
      "is_drum": false,
      "harmony": "A:maj"
    },
    {
      "pitch": 66,
      "velocity": 80,
      "instrument": 0,
      "channel": 0,
      "start_step": 30,
      "duration_steps": 4,
      "bar": 2,
      "position": 14,
      "track_index": 0,
      "track_name": "track_0",
      "is_drum": false,
      "harmony": "E:min"
    },
    {
      "pitch": 68,
      "velocity": 80,
      "instrument": 0,
      "channel": 0,
      "start_step": 34,
      "duration_steps": 2,
      "bar": 3,
      "position": 2,
      "track_index": 0,
      "track_name": "track_0",
      "is_drum": false,
      "harmony": "A:maj"
    },
    {
      "pitch": 68,
      "velocity": 80,
      "instrument": 0,
      "channel": 0,
      "start_step": 36,
      "duration_steps": 4,
      "bar": 3,
      "position": 4,
      "track_index": 0,
      "track_name": "track_0",
      "is_drum": false,
      "harmony": "A:maj"
    },
    {
      "pitch": 69,
      "velocity": 80,
      "instrument": 0,
      "channel": 0,
      "start_step": 40,
      "duration_steps": 2,
      "bar": 3,
      "position": 8,
      "track_index": 0,
      "track_name": "track_0",
      "is_drum": false,
      "harmony": "E:min"
    },
    {
      "pitch": 69,
      "velocity": 80,
      "instrument": 0,
      "channel": 0,
      "start_step": 42,
      "duration_steps": 8,
      "bar": 3,
      "position": 10,
      "track_index": 0,
      "track_name": "track_0",
      "is_drum": false,
      "harmony": "A:maj"
    },
    {
      "pitch": 71,
      "velocity": 80,
      "instrument": 0,
      "channel": 0,
      "start_step": 50,
      "duration_steps": 4,
      "bar": 4,
      "position": 2,
      "track_index": 0,
      "track_name": "track_0",
      "is_drum": false,
      "harmony": "E:min"
    },
    {
      "pitch": 71,
      "velocity": 80,
      "instrument": 0,
      "channel": 0,
      "start_step": 54,
      "duration_steps": 1,
      "bar": 4,
      "position": 6,
      "track_index": 0,
      "track_name": "track_0",
      "is_drum": false,
      "harmony": "A:maj"
    },
    {
      "pitch": 73,
      "velocity": 80,
      "instrument": 0,
      "channel": 0,
      "start_step": 55,
      "duration_steps": 2,
      "bar": 4,
      "position": 7,
      "track_index": 0,
      "track_name": "track_0",
      "is_drum": false,
      "harmony": "A:maj"
    },
    {
      "pitch": 73,
      "velocity": 80,
      "instrument": 0,
      "channel": 0,
      "start_step": 57,
      "duration_steps": 1,
      "bar": 4,
      "position": 9,
      "track_index": 0,
      "track_name": "track_0",
      "is_drum": false,
      "harmony": "A:maj"
    },
    {
      "pitch": 73,
      "velocity": 80,
      "instrument": 0,
      "channel": 0,
      "start_step": 58,
      "duration_steps": 1,
      "bar": 4,
      "position": 10,
      "track_index": 0,
      "track_name": "track_0",
      "is_drum": false,
      "harmony": "A:maj"
    },
    {
      "pitch": 73,
      "velocity": 80,
      "instrument": 0,
      "channel": 0,
      "start_step": 59,
      "duration_steps": 1,
      "bar": 4,
      "position": 11,
      "track_index": 0,
      "track_name": "track_0",
      "is_drum": false,
      "harmony": "A:maj"
    },
    {
      "pitch": 74,
      "velocity": 80,
      "instrument": 0,
      "channel": 0,
      "start_step": 60,
      "duration_steps": 4,
      "bar": 4,
      "position": 12,
      "track_index": 0,
      "track_name": "track_0",
      "is_drum": false,
      "harmony": "E:min"
    },
    {
      "pitch": 74,
      "velocity": 80,
      "instrument": 0,
      "channel": 0,
      "start_step": 64,
      "duration_steps": 1,
      "bar": 5,
      "position": 0,
      "track_index": 0,
      "track_name": "track_0",
      "is_drum": false,
      "harmony": "A:maj"
    },
    {
      "pitch": 74,
      "velocity": 80,
      "instrument": 0,
      "channel": 0,
      "start_step": 65,
      "duration_steps": 1,
      "bar": 5,
      "position": 1,
      "track_index": 0,
      "track_name": "track_0",
      "is_drum": false,
      "harmony": "A:maj"
    },
    {
      "pitch": 74,
      "velocity": 80,
      "instrument": 0,
      "channel": 0,
      "start_step": 66,
      "duration_steps": 1,
      "bar": 5,
      "position": 2,
      "track_index": 0,
      "track_name": "track_0",
      "is_drum": false,
      "harmony": "A:maj"
    },
    {
      "pitch": 76,
      "velocity": 80,
      "instrument": 0,
      "channel": 0,
      "start_step": 67,
      "duration_steps": 4,
      "bar": 5,
      "position": 3,
      "track_index": 0,
      "track_name": "track_0",
      "is_drum": false,
      "harmony": "E:min"
    },
    {
      "pitch": 76,
      "velocity": 80,
      "instrument": 0,
      "channel": 0,
      "start_step": 71,
      "duration_steps": 1,
      "bar": 5,
      "position": 7,
      "track_index": 0,
      "track_name": "track_0",
      "is_drum": false,
      "harmony": "A:maj"
    },
    {
      "pitch": 44,
      "velocity": 80,
      "instrument": 0,
      "channel": 0,
      "start_step": 72,
      "duration_steps": 2,
      "bar": 5,
      "position": 8,
      "track_index": 1,
      "track_name": "track_1",
      "is_drum": false,
      "harmony": "A:maj"
    },
    {
      "pitch": 44,
      "velocity": 80,
      "instrument": 0,
      "channel": 0,
      "start_step": 74,
      "duration_steps": 1,
      "bar": 5,
      "position": 10,
      "track_index": 1,
      "track_name": "track_1",
      "is_drum": false,
      "harmony": "A:maj"
    },
    {
      "pitch": 45,
      "velocity": 80,
      "instrument": 0,
      "channel": 0,
      "start_step": 75,
      "duration_steps": 2,
      "bar": 5,
      "position": 11,
      "track_index": 1,
      "track_name": "track_1",
      "is_drum": false,
      "harmony": "A:maj"
    },
    {
      "pitch": 45,
      "velocity": 80,
      "instrument": 0,
      "channel": 0,
      "start_step": 77,
      "duration_steps": 1,
      "bar": 5,
      "position": 13,
      "track_index": 1,
      "track_name": "track_1",
      "is_drum": false,
      "harmony": "A:maj"
    },
    {
      "pitch": 45,
      "velocity": 80,
      "instrument": 0,
      "channel": 0,
      "start_step": 78,
      "duration_steps": 1,
      "bar": 5,
      "position": 14,
      "track_index": 1,
      "track_name": "track_1",
      "is_drum": false,
      "harmony": "A:maj"
    },
    {
      "pitch": 47,
      "velocity": 80,
      "instrument": 0,
      "channel": 0,
      "start_step": 79,
      "duration_steps": 1,
      "bar": 5,
      "position": 15,
      "track_index": 1,
      "track_name": "track_1",
      "is_drum": false,
      "harmony": "A:maj"
    },
    {
      "pitch": 47,
      "velocity": 80,
      "instrument": 0,
      "channel": 0,
      "start_step": 80,
      "duration_steps": 1,
      "bar": 6,
      "position": 0,
      "track_index": 1,
      "track_name": "track_1",
      "is_drum": false,
      "harmony": "A:maj"
    },
    {
      "pitch": 47,
      "velocity": 80,
      "instrument": 0,
      "channel": 0,
      "start_step": 81,
      "duration_steps": 1,
      "bar": 6,
      "position": 1,
      "track_index": 1,
      "track_name": "track_1",
      "is_drum": false,
      "harmony": "A:maj"
    },
    {
      "pitch": 49,
      "velocity": 80,
      "instrument": 0,
      "channel": 0,
      "start_step": 82,
      "duration_steps": 4,
      "bar": 6,
      "position": 2,
      "track_index": 1,
      "track_name": "track_1",
      "is_drum": false,
      "harmony": "A:maj"
    },
    {
      "pitch": 49,
      "velocity": 80,
      "instrument": 0,
      "channel": 0,
      "start_step": 86,
      "duration_steps": 2,
      "bar": 6,
      "position": 6,
      "track_index": 1,
      "track_name": "track_1",
      "is_drum": false,
      "harmony": "A:maj"
    },
    {
      "pitch": 49,
      "velocity": 80,
      "instrument": 0,
      "channel": 0,
      "start_step": 88,
      "duration_steps": 1,
      "bar": 6,
      "position": 8,
      "track_index": 1,
      "track_name": "track_1",
      "is_drum": false,
      "harmony": "A:maj"
    },
    {
      "pitch": 49,
      "velocity": 80,
      "instrument": 0,
      "channel": 0,
      "start_step": 89,
      "duration_steps": 1,
      "bar": 6,
      "position": 9,
      "track_index": 1,
      "track_name": "track_1",
      "is_drum": false,
      "harmony": "A:maj"
    },
    {
      "pitch": 49,
      "velocity": 80,
      "instrument": 0,
      "channel": 0,
      "start_step": 90,
      "duration_steps": 1,
      "bar": 6,
      "position": 10,
      "track_index": 1,
      "track_name": "track_1",
      "is_drum": false,
      "harmony": "A:maj"
    },
    {
      "pitch": 50,
      "velocity": 80,
      "instrument": 0,
      "channel": 0,
      "start_step": 91,
      "duration_steps": 4,
      "bar": 6,
      "position": 11,
      "track_index": 1,
      "track_name": "track_1",
      "is_drum": false,
      "harmony": "A:maj"
    },
    {
      "pitch": 50,
      "velocity": 80,
      "instrument": 0,
      "channel": 0,
      "start_step": 95,
      "duration_steps": 1,
      "bar": 6,
      "position": 15,
      "track_index": 1,
      "track_name": "track_1",
      "is_drum": false,
      "harmony": "A:maj"
    },
    {
      "pitch": 50,
      "velocity": 80,
      "instrument": 0,
      "channel": 0,
      "start_step": 96,
      "duration_steps": 1,
      "bar": 7,
      "position": 0,
      "track_index": 1,
      "track_name": "track_1",
      "is_drum": false,
      "harmony": "A:maj"
    },
    {
      "pitch": 52,
      "velocity": 80,
      "instrument": 0,
      "channel": 0,
      "start_step": 97,
      "duration_steps": 4,
      "bar": 7,
      "position": 1,
      "track_index": 1,
      "track_name": "track_1",
      "is_drum": false,
      "harmony": "A:maj"
    },
    {
      "pitch": 52,
      "velocity": 80,
      "instrument": 0,
      "channel": 0,
      "start_step": 101,
      "duration_steps": 4,
      "bar": 7,
      "position": 5,
      "track_index": 1,
      "track_name": "track_1",
      "is_drum": false,
      "harmony": "A:maj"
    },
    {
      "pitch": 52,
      "velocity": 80,
      "instrument": 0,
      "channel": 0,
      "start_step": 105,
      "duration_steps": 1,
      "bar": 7,
      "position": 9,
      "track_index": 1,
      "track_name": "track_1",
      "is_drum": false,
      "harmony": "A:maj"
    },
    {
      "pitch": 54,
      "velocity": 80,
      "instrument": 0,
      "channel": 0,
      "start_step": 106,
      "duration_steps": 4,
      "bar": 7,
      "position": 10,
      "track_index": 1,
      "track_name": "track_1",
      "is_drum": false,
      "harmony": "A:maj"
    },
    {
      "pitch": 55,
      "velocity": 80,
      "instrument": 0,
      "channel": 0,
      "start_step": 110,
      "duration_steps": 4,
      "bar": 7,
      "position": 14,
      "track_index": 1,
      "track_name": "track_1",
      "is_drum": false,
      "harmony": "A:maj"
    },
    {
      "pitch": 56,
      "velocity": 80,
      "instrument": 0,
      "channel": 0,
      "start_step": 114,
      "duration_steps": 4,
      "bar": 8,
      "position": 2,
      "track_index": 1,
      "track_name": "track_1",
      "is_drum": false,
      "harmony": "A:maj"
    },
    {
      "pitch": 57,
      "velocity": 80,
      "instrument": 0,
      "channel": 0,
      "start_step": 118,
      "duration_steps": 4,
      "bar": 8,
      "position": 6,
      "track_index": 1,
      "track_name": "track_1",
      "is_drum": false,
      "harmony": "A:maj"
    },
    {
      "pitch": 57,
      "velocity": 80,
      "instrument": 0,
      "channel": 0,
      "start_step": 122,
      "duration_steps": 4,
      "bar": 8,
      "position": 10,
      "track_index": 1,
      "track_name": "track_1",
      "is_drum": false,
      "harmony": "A:maj"
    },
    {
      "pitch": 59,
      "velocity": 80,
      "instrument": 0,
      "channel": 0,
      "start_step": 126,
      "duration_steps": 4,
      "bar": 8,
      "position": 14,
      "track_index": 1,
      "track_name": "track_1",
      "is_drum": false,
      "harmony": "A:maj"
    },
    {
      "pitch": 81,
      "velocity": 80,
      "instrument": 0,
      "channel": 0,
      "start_step": 130,
      "duration_steps": 1,
      "bar": 9,
      "position": 2,
      "track_index": 0,
      "track_name": "track_0",
      "is_drum": false,
      "harmony": "A:maj"
    },
    {
      "pitch": 81,
      "velocity": 80,
      "instrument": 0,
      "channel": 0,
      "start_step": 131,
      "duration_steps": 1,
      "bar": 9,
      "position": 3,
      "track_index": 0,
      "track_name": "track_0",
      "is_drum": false,
      "harmony": "A:maj"
    },
    {
      "pitch": 81,
      "velocity": 80,
      "instrument": 0,
      "channel": 0,
      "start_step": 132,
      "duration_steps": 1,
      "bar": 9,
      "position": 4,
      "track_index": 0,
      "track_name": "track_0",
      "is_drum": false,
      "harmony": "A:maj"
    },
    {
      "pitch": 80,
      "velocity": 80,
      "instrument": 0,
      "channel": 0,
      "start_step": 133,
      "duration_steps": 1,
      "bar": 9,
      "position": 5,
      "track_index": 0,
      "track_name": "track_0",
      "is_drum": false,
      "harmony": "A:maj"
    },
    {
      "pitch": 80,
      "velocity": 80,
      "instrument": 0,
      "channel": 0,
      "start_step": 134,
      "duration_steps": 1,
      "bar": 9,
      "position": 6,
      "track_index": 0,
      "track_name": "track_0",
      "is_drum": false,
      "harmony": "A:maj"
    },
    {
      "pitch": 79,
      "velocity": 80,
      "instrument": 0,
      "channel": 0,
      "start_step": 135,
      "duration_steps": 1,
      "bar": 9,
      "position": 7,
      "track_index": 0,
      "track_name": "track_0",
      "is_drum": false,
      "harmony": "A:maj"
    },
    {
      "pitch": 79,
      "velocity": 80,
      "instrument": 0,
      "channel": 0,
      "start_step": 136,
      "duration_steps": 1,
      "bar": 9,
      "position": 8,
      "track_index": 0,
      "track_name": "track_0",
      "is_drum": false,
      "harmony": "A:maj"
    },
    {
      "pitch": 79,
      "velocity": 80,
      "instrument": 0,
      "channel": 0,
      "start_step": 137,
      "duration_steps": 1,
      "bar": 9,
      "position": 9,
      "track_index": 0,
      "track_name": "track_0",
      "is_drum": false,
      "harmony": "A:maj"
    },
    {
      "pitch": 78,
      "velocity": 80,
      "instrument": 0,
      "channel": 0,
      "start_step": 138,
      "duration_steps": 1,
      "bar": 9,
      "position": 10,
      "track_index": 0,
      "track_name": "track_0",
      "is_drum": false,
      "harmony": "A:maj"
    },
    {
      "pitch": 78,
      "velocity": 80,
      "instrument": 0,
      "channel": 0,
      "start_step": 139,
      "duration_steps": 1,
      "bar": 9,
      "position": 11,
      "track_index": 0,
      "track_name": "track_0",
      "is_drum": false,
      "harmony": "A:maj"
    },
    {
      "pitch": 78,
      "velocity": 80,
      "instrument": 0,
      "channel": 0,
      "start_step": 140,
      "duration_steps": 1,
      "bar": 9,
      "position": 12,
      "track_index": 0,
      "track_name": "track_0",
      "is_drum": false,
      "harmony": "A:maj"
    },
    {
      "pitch": 78,
      "velocity": 80,
      "instrument": 0,
      "channel": 0,
      "start_step": 141,
      "duration_steps": 1,
      "bar": 9,
      "position": 13,
      "track_index": 0,
      "track_name": "track_0",
      "is_drum": false,
      "harmony": "A:maj"
    },
    {
      "pitch": 78,
      "velocity": 80,
      "instrument": 0,
      "channel": 0,
      "start_step": 142,
      "duration_steps": 2,
      "bar": 9,
      "position": 14,
      "track_index": 0,
      "track_name": "track_0",
      "is_drum": false,
      "harmony": "A:maj"
    },
    {
      "pitch": 78,
      "velocity": 80,
      "instrument": 0,
      "channel": 0,
      "start_step": 144,
      "duration_steps": 2,
      "bar": 10,
      "position": 0,
      "track_index": 0,
      "track_name": "track_0",
      "is_drum": false,
      "harmony": "A:maj"
    },
    {
      "pitch": 76,
      "velocity": 80,
      "instrument": 0,
      "channel": 0,
      "start_step": 146,
      "duration_steps": 1,
      "bar": 10,
      "position": 2,
      "track_index": 0,
      "track_name": "track_0",
      "is_drum": false,
      "harmony": "A:maj"
    },
    {
      "pitch": 76,
      "velocity": 80,
      "instrument": 0,
      "channel": 0,
      "start_step": 147,
      "duration_steps": 1,
      "bar": 10,
      "position": 3,
      "track_index": 0,
      "track_name": "track_0",
      "is_drum": false,
      "harmony": "A:maj"
    },
    {
      "pitch": 76,
      "velocity": 80,
      "instrument": 0,
      "channel": 0,
      "start_step": 148,
      "duration_steps": 2,
      "bar": 10,
      "position": 4,
      "track_index": 0,
      "track_name": "track_0",
      "is_drum": false,
      "harmony": "A:maj"
    },
    {
      "pitch": 75,
      "velocity": 80,
      "instrument": 0,
      "channel": 0,
      "start_step": 150,
      "duration_steps": 1,
      "bar": 10,
      "position": 6,
      "track_index": 0,
      "track_name": "track_0",
      "is_drum": false,
      "harmony": "A:maj"
    },
    {
      "pitch": 74,
      "velocity": 80,
      "instrument": 0,
      "channel": 0,
      "start_step": 151,
      "duration_steps": 1,
      "bar": 10,
      "position": 7,
      "track_index": 0,
      "track_name": "track_0",
      "is_drum": false,
      "harmony": "A:maj"
    },
    {
      "pitch": 73,
      "velocity": 80,
      "instrument": 0,
      "channel": 0,
      "start_step": 152,
      "duration_steps": 1,
      "bar": 10,
      "position": 8,
      "track_index": 0,
      "track_name": "track_0",
      "is_drum": false,
      "harmony": "A:maj"
    },
    {
      "pitch": 73,
      "velocity": 80,
      "instrument": 0,
      "channel": 0,
      "start_step": 153,
      "duration_steps": 1,
      "bar": 10,
      "position": 9,
      "track_index": 0,
      "track_name": "track_0",
      "is_drum": false,
      "harmony": "A:maj"
    },
    {
      "pitch": 73,
      "velocity": 80,
      "instrument": 0,
      "channel": 0,
      "start_step": 154,
      "duration_steps": 1,
      "bar": 10,
      "position": 10,
      "track_index": 0,
      "track_name": "track_0",
      "is_drum": false,
      "harmony": "A:maj"
    },
    {
      "pitch": 71,
      "velocity": 80,
      "instrument": 0,
      "channel": 0,
      "start_step": 155,
      "duration_steps": 1,
      "bar": 10,
      "position": 11,
      "track_index": 0,
      "track_name": "track_0",
      "is_drum": false,
      "harmony": "A:maj"
    },
    {
      "pitch": 71,
      "velocity": 80,
      "instrument": 0,
      "channel": 0,
      "start_step": 156,
      "duration_steps": 1,
      "bar": 10,
      "position": 12,
      "track_index": 0,
      "track_name": "track_0",
      "is_drum": false,
      "harmony": "A:maj"
    },
    {
      "pitch": 71,
      "velocity": 80,
      "instrument": 0,
      "channel": 0,
      "start_step": 157,
      "duration_steps": 1,
      "bar": 10,
      "position": 13,
      "track_index": 0,
      "track_name": "track_0",
      "is_drum": false,
      "harmony": "A:maj"
    },
    {
      "pitch": 69,
      "velocity": 80,
      "instrument": 0,
      "channel": 0,
      "start_step": 158,
      "duration_steps": 1,
      "bar": 10,
      "position": 14,
      "track_index": 0,
      "track_name": "track_0",
      "is_drum": false,
      "harmony": "A:maj"
    },
    {
      "pitch": 69,
      "velocity": 80,
      "instrument": 0,
      "channel": 0,
      "start_step": 159,
      "duration_steps": 3,
      "bar": 10,
      "position": 15,
      "track_index": 0,
      "track_name": "track_0",
      "is_drum": false,
      "harmony": "A:maj"
    },
    {
      "pitch": 69,
      "velocity": 80,
      "instrument": 0,
      "channel": 0,
      "start_step": 162,
      "duration_steps": 1,
      "bar": 11,
      "position": 2,
      "track_index": 0,
      "track_name": "track_0",
      "is_drum": false,
      "harmony": "A:maj"
    },
    {
      "pitch": 69,
      "velocity": 80,
      "instrument": 0,
      "channel": 0,
      "start_step": 163,
      "duration_steps": 1,
      "bar": 11,
      "position": 3,
      "track_index": 0,
      "track_name": "track_0",
      "is_drum": false,
      "harmony": "A:maj"
    },
    {
      "pitch": 61,
      "velocity": 80,
      "instrument": 0,
      "channel": 0,
      "start_step": 164,
      "duration_steps": 1,
      "bar": 11,
      "position": 4,
      "track_index": 1,
      "track_name": "track_1",
      "is_drum": false,
      "harmony": "Ab:min"
    },
    {
      "pitch": 61,
      "velocity": 80,
      "instrument": 0,
      "channel": 0,
      "start_step": 165,
      "duration_steps": 1,
      "bar": 11,
      "position": 5,
      "track_index": 0,
      "track_name": "track_0",
      "is_drum": false,
      "harmony": "Ab:min"
    },
    {
      "pitch": 62,
      "velocity": 80,
      "instrument": 0,
      "channel": 0,
      "start_step": 166,
      "duration_steps": 1,
      "bar": 11,
      "position": 6,
      "track_index": 0,
      "track_name": "track_0",
      "is_drum": false,
      "harmony": "D:maj"
    },
    {
      "pitch": 62,
      "velocity": 80,
      "instrument": 0,
      "channel": 0,
      "start_step": 167,
      "duration_steps": 1,
      "bar": 11,
      "position": 7,
      "track_index": 0,
      "track_name": "track_0",
      "is_drum": false,
      "harmony": "Ab:min"
    },
    {
      "pitch": 62,
      "velocity": 80,
      "instrument": 0,
      "channel": 0,
      "start_step": 168,
      "duration_steps": 1,
      "bar": 11,
      "position": 8,
      "track_index": 1,
      "track_name": "track_1",
      "is_drum": false,
      "harmony": "Ab:min"
    },
    {
      "pitch": 64,
      "velocity": 80,
      "instrument": 0,
      "channel": 0,
      "start_step": 169,
      "duration_steps": 1,
      "bar": 11,
      "position": 9,
      "track_index": 0,
      "track_name": "track_0",
      "is_drum": false,
      "harmony": "D:maj"
    },
    {
      "pitch": 64,
      "velocity": 80,
      "instrument": 0,
      "channel": 0,
      "start_step": 170,
      "duration_steps": 1,
      "bar": 11,
      "position": 10,
      "track_index": 0,
      "track_name": "track_0",
      "is_drum": false,
      "harmony": "Ab:min"
    },
    {
      "pitch": 66,
      "velocity": 80,
      "instrument": 0,
      "channel": 0,
      "start_step": 171,
      "duration_steps": 1,
      "bar": 11,
      "position": 11,
      "track_index": 0,
      "track_name": "track_0",
      "is_drum": false,
      "harmony": "D:maj"
    },
    {
      "pitch": 66,
      "velocity": 80,
      "instrument": 0,
      "channel": 0,
      "start_step": 172,
      "duration_steps": 1,
      "bar": 11,
      "position": 12,
      "track_index": 0,
      "track_name": "track_0",
      "is_drum": false,
      "harmony": "D:maj"
    },
    {
      "pitch": 66,
      "velocity": 80,
      "instrument": 0,
      "channel": 0,
      "start_step": 173,
      "duration_steps": 1,
      "bar": 11,
      "position": 13,
      "track_index": 0,
      "track_name": "track_0",
      "is_drum": false,
      "harmony": "Ab:min"
    },
    {
      "pitch": 68,
      "velocity": 80,
      "instrument": 0,
      "channel": 0,
      "start_step": 174,
      "duration_steps": 1,
      "bar": 11,
      "position": 14,
      "track_index": 0,
      "track_name": "track_0",
      "is_drum": false,
      "harmony": "Ab:min"
    },
    {
      "pitch": 69,
      "velocity": 80,
      "instrument": 0,
      "channel": 0,
      "start_step": 175,
      "duration_steps": 1,
      "bar": 11,
      "position": 15,
      "track_index": 0,
      "track_name": "track_0",
      "is_drum": false,
      "harmony": "D:maj"
    },
    {
      "pitch": 69,
      "velocity": 80,
      "instrument": 0,
      "channel": 0,
      "start_step": 176,
      "duration_steps": 1,
      "bar": 12,
      "position": 0,
      "track_index": 0,
      "track_name": "track_0",
      "is_drum": false,
      "harmony": "Ab:min"
    },
    {
      "pitch": 71,
      "velocity": 80,
      "instrument": 0,
      "channel": 0,
      "start_step": 177,
      "duration_steps": 1,
      "bar": 12,
      "position": 1,
      "track_index": 0,
      "track_name": "track_0",
      "is_drum": false,
      "harmony": "D:maj"
    },
    {
      "pitch": 71,
      "velocity": 80,
      "instrument": 0,
      "channel": 0,
      "start_step": 178,
      "duration_steps": 1,
      "bar": 12,
      "position": 2,
      "track_index": 0,
      "track_name": "track_0",
      "is_drum": false,
      "harmony": "D:maj"
    },
    {
      "pitch": 71,
      "velocity": 80,
      "instrument": 0,
      "channel": 0,
      "start_step": 179,
      "duration_steps": 1,
      "bar": 12,
      "position": 3,
      "track_index": 0,
      "track_name": "track_0",
      "is_drum": false,
      "harmony": "Ab:min"
    },
    {
      "pitch": 73,
      "velocity": 80,
      "instrument": 0,
      "channel": 0,
      "start_step": 180,
      "duration_steps": 1,
      "bar": 12,
      "position": 4,
      "track_index": 0,
      "track_name": "track_0",
      "is_drum": false,
      "harmony": "D:maj"
    },
    {
      "pitch": 73,
      "velocity": 80,
      "instrument": 0,
      "channel": 0,
      "start_step": 181,
      "duration_steps": 1,
      "bar": 12,
      "position": 5,
      "track_index": 0,
      "track_name": "track_0",
      "is_drum": false,
      "harmony": "D:maj"
    },
    {
      "pitch": 73,
      "velocity": 80,
      "instrument": 0,
      "channel": 0,
      "start_step": 182,
      "duration_steps": 1,
      "bar": 12,
      "position": 6,
      "track_index": 0,
      "track_name": "track_0",
      "is_drum": false,
      "harmony": "Ab:min"
    },
    {
      "pitch": 74,
      "velocity": 80,
      "instrument": 0,
      "channel": 0,
      "start_step": 183,
      "duration_steps": 1,
      "bar": 12,
      "position": 7,
      "track_index": 0,
      "track_name": "track_0",
      "is_drum": false,
      "harmony": "D:maj"
    },
    {
      "pitch": 74,
      "velocity": 80,
      "instrument": 0,
      "channel": 0,
      "start_step": 184,
      "duration_steps": 1,
      "bar": 12,
      "position": 8,
      "track_index": 0,
      "track_name": "track_0",
      "is_drum": false,
      "harmony": "D:maj"
    },
    {
      "pitch": 74,
      "velocity": 80,
      "instrument": 0,
      "channel": 0,
      "start_step": 185,
      "duration_steps": 1,
      "bar": 12,
      "position": 9,
      "track_index": 0,
      "track_name": "track_0",
      "is_drum": false,
      "harmony": "Ab:min"
    },
    {
      "pitch": 76,
      "velocity": 80,
      "instrument": 0,
      "channel": 0,
      "start_step": 186,
      "duration_steps": 1,
      "bar": 12,
      "position": 10,
      "track_index": 0,
      "track_name": "track_0",
      "is_drum": false,
      "harmony": "D:maj"
    },
    {
      "pitch": 76,
      "velocity": 80,
      "instrument": 0,
      "channel": 0,
      "start_step": 187,
      "duration_steps": 1,
      "bar": 12,
      "position": 11,
      "track_index": 0,
      "track_name": "track_0",
      "is_drum": false,
      "harmony": "D:maj"
    },
    {
      "pitch": 76,
      "velocity": 80,
      "instrument": 0,
      "channel": 0,
      "start_step": 188,
      "duration_steps": 1,
      "bar": 12,
      "position": 12,
      "track_index": 0,
      "track_name": "track_0",
      "is_drum": false,
      "harmony": "Ab:min"
    },
    {
      "pitch": 78,
      "velocity": 80,
      "instrument": 0,
      "channel": 0,
      "start_step": 189,
      "duration_steps": 1,
      "bar": 12,
      "position": 13,
      "track_index": 0,
      "track_name": "track_0",
      "is_drum": false,
      "harmony": "D:maj"
    },
    {
      "pitch": 78,
      "velocity": 80,
      "instrument": 0,
      "channel": 0,
      "start_step": 190,
      "duration_steps": 1,
      "bar": 12,
      "position": 14,
      "track_index": 0,
      "track_name": "track_0",
      "is_drum": false,
      "harmony": "D:maj"
    },
    {
      "pitch": 78,
      "velocity": 80,
      "instrument": 0,
      "channel": 0,
      "start_step": 191,
      "duration_steps": 1,
      "bar": 12,
      "position": 15,
      "track_index": 0,
      "track_name": "track_0",
      "is_drum": false,
      "harmony": "D:maj"
    },
    {
      "pitch": 78,
      "velocity": 80,
      "instrument": 0,
      "channel": 0,
      "start_step": 192,
      "duration_steps": 1,
      "bar": 13,
      "position": 0,
      "track_index": 0,
      "track_name": "track_0",
      "is_drum": false,
      "harmony": "Ab:min"
    },
    {
      "pitch": 80,
      "velocity": 80,
      "instrument": 0,
      "channel": 0,
      "start_step": 193,
      "duration_steps": 1,
      "bar": 13,
      "position": 1,
      "track_index": 0,
      "track_name": "track_0",
      "is_drum": false,
      "harmony": "Ab:min"
    },
    {
      "pitch": 81,
      "velocity": 80,
      "instrument": 0,
      "channel": 0,
      "start_step": 194,
      "duration_steps": 1,
      "bar": 13,
      "position": 2,
      "track_index": 0,
      "track_name": "track_0",
      "is_drum": false,
      "harmony": "Ab:min"
    },
    {
      "pitch": 83,
      "velocity": 80,
      "instrument": 0,
      "channel": 0,
      "start_step": 195,
      "duration_steps": 1,
      "bar": 13,
      "position": 3,
      "track_index": 0,
      "track_name": "track_0",
      "is_drum": false,
      "harmony": "Ab:min"
    },
    {
      "pitch": 59,
      "velocity": 80,
      "instrument": 0,
      "channel": 0,
      "start_step": 196,
      "duration_steps": 1,
      "bar": 13,
      "position": 4,
      "track_index": 0,
      "track_name": "track_0",
      "is_drum": false,
      "harmony": "Ab:min"
    },
    {
      "pitch": 59,
      "velocity": 80,
      "instrument": 0,
      "channel": 0,
      "start_step": 197,
      "duration_steps": 1,
      "bar": 13,
      "position": 5,
      "track_index": 1,
      "track_name": "track_1",
      "is_drum": false,
      "harmony": "Ab:min"
    },
    {
      "pitch": 57,
      "velocity": 80,
      "instrument": 0,
      "channel": 0,
      "start_step": 198,
      "duration_steps": 1,
      "bar": 13,
      "position": 6,
      "track_index": 1,
      "track_name": "track_1",
      "is_drum": false,
      "harmony": "Ab:min"
    },
    {
      "pitch": 57,
      "velocity": 80,
      "instrument": 0,
      "channel": 0,
      "start_step": 199,
      "duration_steps": 1,
      "bar": 13,
      "position": 7,
      "track_index": 1,
      "track_name": "track_1",
      "is_drum": false,
      "harmony": "Ab:min"
    },
    {
      "pitch": 56,
      "velocity": 80,
      "instrument": 0,
      "channel": 0,
      "start_step": 200,
      "duration_steps": 1,
      "bar": 13,
      "position": 8,
      "track_index": 1,
      "track_name": "track_1",
      "is_drum": false,
      "harmony": "Ab:min"
    },
    {
      "pitch": 56,
      "velocity": 80,
      "instrument": 0,
      "channel": 0,
      "start_step": 201,
      "duration_steps": 1,
      "bar": 13,
      "position": 9,
      "track_index": 1,
      "track_name": "track_1",
      "is_drum": false,
      "harmony": "Ab:min"
    },
    {
      "pitch": 54,
      "velocity": 80,
      "instrument": 0,
      "channel": 0,
      "start_step": 202,
      "duration_steps": 1,
      "bar": 13,
      "position": 10,
      "track_index": 1,
      "track_name": "track_1",
      "is_drum": false,
      "harmony": "D:maj"
    },
    {
      "pitch": 54,
      "velocity": 80,
      "instrument": 0,
      "channel": 0,
      "start_step": 203,
      "duration_steps": 1,
      "bar": 13,
      "position": 11,
      "track_index": 1,
      "track_name": "track_1",
      "is_drum": false,
      "harmony": "Ab:min"
    },
    {
      "pitch": 54,
      "velocity": 80,
      "instrument": 0,
      "channel": 0,
      "start_step": 204,
      "duration_steps": 1,
      "bar": 13,
      "position": 12,
      "track_index": 1,
      "track_name": "track_1",
      "is_drum": false,
      "harmony": "Ab:min"
    },
    {
      "pitch": 52,
      "velocity": 80,
      "instrument": 0,
      "channel": 0,
      "start_step": 205,
      "duration_steps": 1,
      "bar": 13,
      "position": 13,
      "track_index": 1,
      "track_name": "track_1",
      "is_drum": false,
      "harmony": "D:maj"
    },
    {
      "pitch": 52,
      "velocity": 80,
      "instrument": 0,
      "channel": 0,
      "start_step": 206,
      "duration_steps": 1,
      "bar": 13,
      "position": 14,
      "track_index": 1,
      "track_name": "track_1",
      "is_drum": false,
      "harmony": "Ab:min"
    },
    {
      "pitch": 52,
      "velocity": 80,
      "instrument": 0,
      "channel": 0,
      "start_step": 207,
      "duration_steps": 1,
      "bar": 13,
      "position": 15,
      "track_index": 1,
      "track_name": "track_1",
      "is_drum": false,
      "harmony": "Ab:min"
    },
    {
      "pitch": 50,
      "velocity": 80,
      "instrument": 0,
      "channel": 0,
      "start_step": 208,
      "duration_steps": 5,
      "bar": 14,
      "position": 0,
      "track_index": 1,
      "track_name": "track_1",
      "is_drum": false,
      "harmony": "D:maj"
    },
    {
      "pitch": 50,
      "velocity": 80,
      "instrument": 0,
      "channel": 0,
      "start_step": 213,
      "duration_steps": 1,
      "bar": 14,
      "position": 5,
      "track_index": 1,
      "track_name": "track_1",
      "is_drum": false,
      "harmony": "D:maj"
    },
    {
      "pitch": 50,
      "velocity": 80,
      "instrument": 0,
      "channel": 0,
      "start_step": 214,
      "duration_steps": 1,
      "bar": 14,
      "position": 6,
      "track_index": 1,
      "track_name": "track_1",
      "is_drum": false,
      "harmony": "D:maj"
    },
    {
      "pitch": 50,
      "velocity": 80,
      "instrument": 0,
      "channel": 0,
      "start_step": 215,
      "duration_steps": 1,
      "bar": 14,
      "position": 7,
      "track_index": 1,
      "track_name": "track_1",
      "is_drum": false,
      "harmony": "D:maj"
    },
    {
      "pitch": 50,
      "velocity": 80,
      "instrument": 0,
      "channel": 0,
      "start_step": 216,
      "duration_steps": 1,
      "bar": 14,
      "position": 8,
      "track_index": 1,
      "track_name": "track_1",
      "is_drum": false,
      "harmony": "Ab:min"
    },
    {
      "pitch": 49,
      "velocity": 80,
      "instrument": 0,
      "channel": 0,
      "start_step": 217,
      "duration_steps": 1,
      "bar": 14,
      "position": 9,
      "track_index": 1,
      "track_name": "track_1",
      "is_drum": false,
      "harmony": "D:maj"
    },
    {
      "pitch": 49,
      "velocity": 80,
      "instrument": 0,
      "channel": 0,
      "start_step": 218,
      "duration_steps": 1,
      "bar": 14,
      "position": 10,
      "track_index": 1,
      "track_name": "track_1",
      "is_drum": false,
      "harmony": "D:maj"
    },
    {
      "pitch": 49,
      "velocity": 80,
      "instrument": 0,
      "channel": 0,
      "start_step": 219,
      "duration_steps": 1,
      "bar": 14,
      "position": 11,
      "track_index": 1,
      "track_name": "track_1",
      "is_drum": false,
      "harmony": "Ab:min"
    },
    {
      "pitch": 47,
      "velocity": 80,
      "instrument": 0,
      "channel": 0,
      "start_step": 220,
      "duration_steps": 1,
      "bar": 14,
      "position": 12,
      "track_index": 1,
      "track_name": "track_1",
      "is_drum": false,
      "harmony": "D:maj"
    },
    {
      "pitch": 47,
      "velocity": 80,
      "instrument": 0,
      "channel": 0,
      "start_step": 221,
      "duration_steps": 1,
      "bar": 14,
      "position": 13,
      "track_index": 1,
      "track_name": "track_1",
      "is_drum": false,
      "harmony": "D:maj"
    },
    {
      "pitch": 47,
      "velocity": 80,
      "instrument": 0,
      "channel": 0,
      "start_step": 222,
      "duration_steps": 1,
      "bar": 14,
      "position": 14,
      "track_index": 1,
      "track_name": "track_1",
      "is_drum": false,
      "harmony": "D:maj"
    },
    {
      "pitch": 47,
      "velocity": 80,
      "instrument": 0,
      "channel": 0,
      "start_step": 223,
      "duration_steps": 1,
      "bar": 14,
      "position": 15,
      "track_index": 1,
      "track_name": "track_1",
      "is_drum": false,
      "harmony": "Ab:min"
    },
    {
      "pitch": 45,
      "velocity": 80,
      "instrument": 0,
      "channel": 0,
      "start_step": 224,
      "duration_steps": 1,
      "bar": 15,
      "position": 0,
      "track_index": 1,
      "track_name": "track_1",
      "is_drum": false,
      "harmony": "D:maj"
    },
    {
      "pitch": 45,
      "velocity": 80,
      "instrument": 0,
      "channel": 0,
      "start_step": 225,
      "duration_steps": 1,
      "bar": 15,
      "position": 1,
      "track_index": 1,
      "track_name": "track_1",
      "is_drum": false,
      "harmony": "D:maj"
    },
    {
      "pitch": 45,
      "velocity": 80,
      "instrument": 0,
      "channel": 0,
      "start_step": 226,
      "duration_steps": 2,
      "bar": 15,
      "position": 2,
      "track_index": 1,
      "track_name": "track_1",
      "is_drum": false,
      "harmony": "D:maj"
    },
    {
      "pitch": 45,
      "velocity": 80,
      "instrument": 0,
      "channel": 0,
      "start_step": 228,
      "duration_steps": 1,
      "bar": 15,
      "position": 4,
      "track_index": 1,
      "track_name": "track_1",
      "is_drum": false,
      "harmony": "D:maj"
    },
    {
      "pitch": 45,
      "velocity": 80,
      "instrument": 0,
      "channel": 0,
      "start_step": 229,
      "duration_steps": 1,
      "bar": 15,
      "position": 5,
      "track_index": 1,
      "track_name": "track_1",
      "is_drum": false,
      "harmony": "Ab:min"
    },
    {
      "pitch": 44,
      "velocity": 80,
      "instrument": 0,
      "channel": 0,
      "start_step": 230,
      "duration_steps": 4,
      "bar": 15,
      "position": 6,
      "track_index": 1,
      "track_name": "track_1",
      "is_drum": false,
      "harmony": "D:maj"
    }
  ],
  "phrase_boundaries": [
    1,
    5,
    11
  ],
  "source_path": "Bach/Prelude/bwv_864/midi_score.mid",
  "metadata": {
    "ticks_per_beat": 480,
    "midi_format": 1,
    "time_signature_changes": 1,
    "tempo_changes": 1,
    "cadence_bars": [
      2,
      3,
      8,
      17,
      19,
      20,
      21,
      24
    ],
    "global_harmony_vocab": {
      "unknown": 0,
      "C:maj": 1,
      "C#:maj": 2,
      "D:maj": 3,
      "Eb:maj": 4,
      "E:maj": 5,
      "F:maj": 6,
      "F#:maj": 7,
      "G:maj": 8,
      "Ab:maj": 9,
      "A:maj": 10,
      "Bb:maj": 11,
      "B:maj": 12,
      "C:min": 13,
      "C#:min": 14,
      "D:min": 15,
      "Eb:min": 16,
      "E:min": 17,
      "F:min": 18,
      "F#:min": 19,
      "G:min": 20,
      "Ab:min": 21,
      "A:min": 22,
      "Bb:min": 23,
      "B:min": 24
    },
    "dataset_kind": "asap",
    "dataset_source_mode": "score",
    "asap_piece_group": "bach::prelude_bwv_864",
    "composer": "Bach",
    "title": "Prelude_bwv_864",
    "folder": "Bach/Prelude/bwv_864",
    "xml_score": "Bach/Prelude/bwv_864/xml_score.musicxml",
    "midi_score": "Bach/Prelude/bwv_864/midi_score.mid",
    "midi_performance": "Bach/Prelude/bwv_864/SunD01M.mid",
    "annotated_primary_time_signature": "4/4",
    "annotated_key_signature_tonic": 9,
    "annotated_key_signature_accidentals": 3,
    "annotated_beat_count": 95,
    "annotated_downbeat_count": 24,
    "annotated_downbeats_score_map": [
      0,
      1,
      2,
      3,
      4,
      5,
      6,
      7,
      8,
      9,
      10,
      11,
      12,
      13,
      14,
      15,
      16,
      17,
      18,
      19,
      20,
      21,
      22,
      23
    ],
    "score_and_performance_aligned": true,
    "source_piece_id": "bach__prelude__bwv_864__midi_score",
    "slice_start_event": 448,
    "slice_event_count": 160,
    "benchmark_hack_transformed": true
  },
  "key": "A:major",
  "chords": [
    "A:maj",
    "A:maj",
    "A:maj",
    "B:min",
    "E:maj",
    "E:maj",
    "D:maj",
    "A:maj",
    "E:min",
    "E:maj",
    "C#:maj",
    "C#:min",
    "F#:min",
    "F#:min",
    "Ab:min",
    "E:maj",
    "A:maj",
    "E:min",
    "A:maj",
    "A:maj",
    "A:maj",
    "D:maj",
    "Ab:min",
    "A:maj"
  ]
}