{
  "piece_id": "schubert__piano_sonatas__664_2__midi_score__sample",
  "resolution": "sixteenth",
  "steps_per_beat": 4,
  "bar_steps": 12,
  "time_signature": "3/4",
  "tempo_bpm": 85.00004250002125,
  "note_events": [
    {
      "pitch": 57,
      "velocity": 60,
      "instrument": 0,
      "channel": 0,
      "start_step": 0,
      "duration_steps": 1,
      "bar": 1,
      "position": 0,
      "track_index": 1,
      "track_name": "track_1",
      "is_drum": false,
      "harmony": "D:min"
    },
    {
      "pitch": 57,
      "velocity": 60,
      "instrument": 0,
      "channel": 0,
      "start_step": 1,
      "duration_steps": 1,
      "bar": 1,
      "position": 1,
      "track_index": 1,
      "track_name": "track_1",
      "is_drum": false,
      "harmony": "D:min"
    },
    {
      "pitch": 57,
      "velocity": 60,
      "instrument": 0,
      "channel": 0,
      "start_step": 2,
      "duration_steps": 1,
      "bar": 1,
      "position": 2,
      "track_index": 1,
      "track_name": "track_1",
      "is_drum": false,
      "harmony": "D:min"
    },
    {
      "pitch": 57,
      "velocity": 60,
      "instrument": 0,
      "channel": 0,
      "start_step": 3,
      "duration_steps": 1,
      "bar": 1,
      "position": 3,
      "track_index": 1,
      "track_name": "track_1",
      "is_drum": false,
      "harmony": "D:maj"
    },
    {
      "pitch": 57,
      "velocity": 60,
      "instrument": 0,
      "channel": 0,
      "start_step": 4,
      "duration_steps": 1,
      "bar": 1,
      "position": 4,
      "track_index": 1,
      "track_name": "track_1",
      "is_drum": false,
      "harmony": "D:maj"
    },
    {
      "pitch": 57,
      "velocity": 60,
      "instrument": 0,
      "channel": 0,
      "start_step": 5,
      "duration_steps": 1,
      "bar": 1,
      "position": 5,
      "track_index": 1,
      "track_name": "track_1",
      "is_drum": false,
      "harmony": "D:maj"
    },
    {
      "pitch": 57,
      "velocity": 60,
      "instrument": 0,
      "channel": 0,
      "start_step": 6,
      "duration_steps": 1,
      "bar": 1,
      "position": 6,
      "track_index": 1,
      "track_name": "track_1",
      "is_drum": false,
      "harmony": "G:maj"
    },
    {
      "pitch": 58,
      "velocity": 60,
      "instrument": 0,
      "channel": 0,
      "start_step": 7,
      "duration_steps": 1,
      "bar": 1,
      "position": 7,
      "track_index": 1,
      "track_name": "track_1",
      "is_drum": false,
      "harmony": "G:min"
    },
    {
      "pitch": 59,
      "velocity": 60,
      "instrument": 0,
      "channel": 0,
      "start_step": 8,
      "duration_steps": 1,
      "bar": 1,
      "position": 8,
      "track_index": 1,
      "track_name": "track_1",
      "is_drum": false,
      "harmony": "D:maj"
    },
    {
      "pitch": 59,
      "velocity": 60,
      "instrument": 0,
      "channel": 0,
      "start_step": 9,
      "duration_steps": 1,
      "bar": 1,
      "position": 9,
      "track_index": 1,
      "track_name": "track_1",
      "is_drum": false,
      "harmony": "G:maj"
    },
    {
      "pitch": 61,
      "velocity": 60,
      "instrument": 0,
      "channel": 0,
      "start_step": 10,
      "duration_steps": 1,
      "bar": 1,
      "position": 10,
      "track_index": 0,
      "track_name": "track_0",
      "is_drum": false,
      "harmony": "D:min"
    },
    {
      "pitch": 61,
      "velocity": 60,
      "instrument": 0,
      "channel": 0,
      "start_step": 11,
      "duration_steps": 1,
      "bar": 1,
      "position": 11,
      "track_index": 0,
      "track_name": "track_0",
      "is_drum": false,
      "harmony": "D:min"
    },
    {
      "pitch": 62,
      "velocity": 60,
      "instrument": 0,
      "channel": 0,
      "start_step": 12,
      "duration_steps": 8,
      "bar": 2,
      "position": 0,
      "track_index": 0,
      "track_name": "track_0",
      "is_drum": false,
      "harmony": "D:min"
    },
    {
      "pitch": 62,
      "velocity": 60,
      "instrument": 0,
      "channel": 0,
      "start_step": 20,
      "duration_steps": 1,
      "bar": 2,
      "position": 8,
      "track_index": 0,
      "track_name": "track_0",
      "is_drum": false,
      "harmony": "D:min"
    },
    {
      "pitch": 62,
      "velocity": 60,
      "instrument": 0,
      "channel": 0,
      "start_step": 21,
      "duration_steps": 1,
      "bar": 2,
      "position": 9,
      "track_index": 0,
      "track_name": "track_0",
      "is_drum": false,
      "harmony": "D:min"
    },
    {
      "pitch": 62,
      "velocity": 60,
      "instrument": 0,
      "channel": 0,
      "start_step": 22,
      "duration_steps": 1,
      "bar": 2,
      "position": 10,
      "track_index": 0,
      "track_name": "track_0",
      "is_drum": false,
      "harmony": "D:min"
    },
    {
      "pitch": 62,
      "velocity": 60,
      "instrument": 0,
      "channel": 0,
      "start_step": 23,
      "duration_steps": 1,
      "bar": 2,
      "position": 11,
      "track_index": 1,
      "track_name": "track_1",
      "is_drum": false,
      "harmony": "D:maj"
    },
    {
      "pitch": 62,
      "velocity": 60,
      "instrument": 0,
      "channel": 0,
      "start_step": 24,
      "duration_steps": 1,
      "bar": 3,
      "position": 0,
      "track_index": 1,
      "track_name": "track_1",
      "is_drum": false,
      "harmony": "D:maj"
    },
    {
      "pitch": 62,
      "velocity": 60,
      "instrument": 0,
      "channel": 0,
      "start_step": 25,
      "duration_steps": 1,
      "bar": 3,
      "position": 1,
      "track_index": 1,
      "track_name": "track_1",
      "is_drum": false,
      "harmony": "D:maj"
    },
    {
      "pitch": 62,
      "velocity": 60,
      "instrument": 0,
      "channel": 0,
      "start_step": 26,
      "duration_steps": 1,
      "bar": 3,
      "position": 2,
      "track_index": 1,
      "track_name": "track_1",
      "is_drum": false,
      "harmony": "D:maj"
    },
    {
      "pitch": 62,
      "velocity": 60,
      "instrument": 0,
      "channel": 0,
      "start_step": 27,
      "duration_steps": 1,
      "bar": 3,
      "position": 3,
      "track_index": 1,
      "track_name": "track_1",
      "is_drum": false,
      "harmony": "D:maj"
    },
    {
      "pitch": 64,
      "velocity": 60,
      "instrument": 0,
      "channel": 0,
      "start_step": 28,
      "duration_steps": 2,
      "bar": 3,
      "position": 4,
      "track_index": 0,
      "track_name": "track_0",
      "is_drum": false,
      "harmony": "G:min"
    },
    {
      "pitch": 64,
      "velocity": 60,
      "instrument": 0,
      "channel": 0,
      "start_step": 30,
      "duration_steps": 1,
      "bar": 3,
      "position": 6,
      "track_index": 0,
      "track_name": "track_0",
      "is_drum": false,
      "harmony": "D:min"
    },
    {
      "pitch": 64,
      "velocity": 60,
      "instrument": 0,
      "channel": 0,
      "start_step": 31,
      "duration_steps": 1,
      "bar": 3,
      "position": 7,
      "track_index": 0,
      "track_name": "track_0",
      "is_drum": false,
      "harmony": "D:min"
    },
    {
      "pitch": 64,
      "velocity": 60,
      "instrument": 0,
      "channel": 0,
      "start_step": 32,
      "duration_steps": 2,
      "bar": 3,
      "position": 8,
      "track_index": 0,
      "track_name": "track_0",
      "is_drum": false,
      "harmony": "G:maj"
    },
    {
      "pitch": 65,
      "velocity": 60,
      "instrument": 0,
      "channel": 0,
      "start_step": 34,
      "duration_steps": 1,
      "bar": 3,
      "position": 10,
      "track_index": 0,
      "track_name": "track_0",
      "is_drum": false,
      "harmony": "D:min"
    },
    {
      "pitch": 66,
      "velocity": 60,
      "instrument": 0,
      "channel": 0,
      "start_step": 35,
      "duration_steps": 2,
      "bar": 3,
      "position": 11,
      "track_index": 0,
      "track_name": "track_0",
      "is_drum": false,
      "harmony": "G:maj"
    },
    {
      "pitch": 67,
      "velocity": 60,
      "instrument": 0,
      "channel": 0,
      "start_step": 37,
      "duration_steps": 2,
      "bar": 4,
      "position": 1,
      "track_index": 0,
      "track_name": "track_0",
      "is_drum": false,
      "harmony": "G:maj"
    },
    {
      "pitch": 69,
      "velocity": 60,
      "instrument": 0,
      "channel": 0,
      "start_step": 39,
      "duration_steps": 2,
      "bar": 4,
      "position": 3,
      "track_index": 0,
      "track_name": "track_0",
      "is_drum": false,
      "harmony": "G:maj"
    },
    {
      "pitch": 71,
      "velocity": 60,
      "instrument": 0,
      "channel": 0,
      "start_step": 41,
      "duration_steps": 2,
      "bar": 4,
      "position": 5,
      "track_index": 0,
      "track_name": "track_0",
      "is_drum": false,
      "harmony": "G:maj"
    },
    {
      "pitch": 73,
      "velocity": 60,
      "instrument": 0,
      "channel": 0,
      "start_step": 43,
      "duration_steps": 2,
      "bar": 4,
      "position": 7,
      "track_index": 0,
      "track_name": "track_0",
      "is_drum": false,
      "harmony": "G:maj"
    },
    {
      "pitch": 74,
      "velocity": 60,
      "instrument": 0,
      "channel": 0,
      "start_step": 45,
      "duration_steps": 2,
      "bar": 4,
      "position": 9,
      "track_index": 0,
      "track_name": "track_0",
      "is_drum": false,
      "harmony": "D:maj"
    },
    {
      "pitch": 76,
      "velocity": 60,
      "instrument": 0,
      "channel": 0,
      "start_step": 47,
      "duration_steps": 2,
      "bar": 4,
      "position": 11,
      "track_index": 0,
      "track_name": "track_0",
      "is_drum": false,
      "harmony": "D:maj"
    },
    {
      "pitch": 79,
      "velocity": 60,
      "instrument": 0,
      "channel": 0,
      "start_step": 49,
      "duration_steps": 2,
      "bar": 5,
      "position": 1,
      "track_index": 0,
      "track_name": "track_0",
      "is_drum": false,
      "harmony": "D:maj"
    },
    {
      "pitch": 81,
      "velocity": 60,
      "instrument": 0,
      "channel": 0,
      "start_step": 51,
      "duration_steps": 4,
      "bar": 5,
      "position": 3,
      "track_index": 0,
      "track_name": "track_0",
      "is_drum": false,
      "harmony": "D:maj"
    },
    {
      "pitch": 55,
      "velocity": 60,
      "instrument": 0,
      "channel": 0,
      "start_step": 55,
      "duration_steps": 1,
      "bar": 5,
      "position": 7,
      "track_index": 1,
      "track_name": "track_1",
      "is_drum": false,
      "harmony": "D:min"
    },
    {
      "pitch": 55,
      "velocity": 60,
      "instrument": 0,
      "channel": 0,
      "start_step": 56,
      "duration_steps": 1,
      "bar": 5,
      "position": 8,
      "track_index": 1,
      "track_name": "track_1",
      "is_drum": false,
      "harmony": "D:min"
    },
    {
      "pitch": 55,
      "velocity": 60,
      "instrument": 0,
      "channel": 0,
      "start_step": 57,
      "duration_steps": 1,
      "bar": 5,
      "position": 9,
      "track_index": 1,
      "track_name": "track_1",
      "is_drum": false,
      "harmony": "D:maj"
    },
    {
      "pitch": 55,
      "velocity": 60,
      "instrument": 0,
      "channel": 0,
      "start_step": 58,
      "duration_steps": 1,
      "bar": 5,
      "position": 10,
      "track_index": 1,
      "track_name": "track_1",
      "is_drum": false,
      "harmony": "D:maj"
    },
    {
      "pitch": 55,
      "velocity": 60,
      "instrument": 0,
      "channel": 0,
      "start_step": 59,
      "duration_steps": 1,
      "bar": 5,
      "position": 11,
      "track_index": 1,
      "track_name": "track_1",
      "is_drum": false,
      "harmony": "G:maj"
    },
    {
      "pitch": 55,
      "velocity": 60,
      "instrument": 0,
      "channel": 0,
      "start_step": 60,
      "duration_steps": 1,
      "bar": 6,
      "position": 0,
      "track_index": 1,
      "track_name": "track_1",
      "is_drum": false,
      "harmony": "G:maj"
    },
    {
      "pitch": 55,
      "velocity": 60,
      "instrument": 0,
      "channel": 0,
      "start_step": 61,
      "duration_steps": 1,
      "bar": 6,
      "position": 1,
      "track_index": 1,
      "track_name": "track_1",
      "is_drum": false,
      "harmony": "G:maj"
    },
    {
      "pitch": 54,
      "velocity": 60,
      "instrument": 0,
      "channel": 0,
      "start_step": 62,
      "duration_steps": 1,
      "bar": 6,
      "position": 2,
      "track_index": 1,
      "track_name": "track_1",
      "is_drum": false,
      "harmony": "D:maj"
    },
    {
      "pitch": 54,
      "velocity": 60,
      "instrument": 0,
      "channel": 0,
      "start_step": 63,
      "duration_steps": 1,
      "bar": 6,
      "position": 3,
      "track_index": 1,
      "track_name": "track_1",
      "is_drum": false,
      "harmony": "D:maj"
    },
    {
      "pitch": 54,
      "velocity": 60,
      "instrument": 0,
      "channel": 0,
      "start_step": 64,
      "duration_steps": 1,
      "bar": 6,
      "position": 4,
      "track_index": 1,
      "track_name": "track_1",
      "is_drum": false,
      "harmony": "D:maj"
    },
    {
      "pitch": 53,
      "velocity": 60,
      "instrument": 0,
      "channel": 0,
      "start_step": 65,
      "duration_steps": 1,
      "bar": 6,
      "position": 5,
      "track_index": 1,
      "track_name": "track_1",
      "is_drum": false,
      "harmony": "D:min"
    },
    {
      "pitch": 53,
      "velocity": 60,
      "instrument": 0,
      "channel": 0,
      "start_step": 66,
      "duration_steps": 1,
      "bar": 6,
      "position": 6,
      "track_index": 1,
      "track_name": "track_1",
      "is_drum": false,
      "harmony": "D:min"
    },
    {
      "pitch": 53,
      "velocity": 60,
      "instrument": 0,
      "channel": 0,
      "start_step": 67,
      "duration_steps": 1,
      "bar": 6,
      "position": 7,
      "track_index": 1,
      "track_name": "track_1",
      "is_drum": false,
      "harmony": "D:min"
    },
    {
      "pitch": 53,
      "velocity": 60,
      "instrument": 0,
      "channel": 0,
      "start_step": 68,
      "duration_steps": 1,
      "bar": 6,
      "position": 8,
      "track_index": 1,
      "track_name": "track_1",
      "is_drum": false,
      "harmony": "D:min"
    },
    {
      "pitch": 52,
      "velocity": 60,
      "instrument": 0,
      "channel": 0,
      "start_step": 69,
      "duration_steps": 1,
      "bar": 6,
      "position": 9,
      "track_index": 1,
      "track_name": "track_1",
      "is_drum": false,
      "harmony": "D:maj"
    },
    {
      "pitch": 50,
      "velocity": 60,
      "instrument": 0,
      "channel": 0,
      "start_step": 70,
      "duration_steps": 1,
      "bar": 6,
      "position": 10,
      "track_index": 1,
      "track_name": "track_1",
      "is_drum": false,
      "harmony": "G:min"
    },
    {
      "pitch": 50,
      "velocity": 60,
      "instrument": 0,
      "channel": 0,
      "start_step": 71,
      "duration_steps": 1,
      "bar": 6,
      "position": 11,
      "track_index": 1,
      "track_name": "track_1",
      "is_drum": false,
      "harmony": "D:maj"
    },
    {
      "pitch": 50,
      "velocity": 60,
      "instrument": 0,
      "channel": 0,
      "start_step": 72,
      "duration_steps": 1,
      "bar": 7,
      "position": 0,
      "track_index": 1,
      "track_name": "track_1",
      "is_drum": false,
      "harmony": "G:maj"
    },
    {
      "pitch": 50,
      "velocity": 60,
      "instrument": 0,
      "channel": 0,
      "start_step": 73,
      "duration_steps": 1,
      "bar": 7,
      "position": 1,
      "track_index": 1,
      "track_name": "track_1",
      "is_drum": false,
      "harmony": "G:maj"
    },
    {
      "pitch": 50,
      "velocity": 60,
      "instrument": 0,
      "channel": 0,
      "start_step": 74,
      "duration_steps": 1,
      "bar": 7,
      "position": 2,
      "track_index": 1,
      "track_name": "track_1",
      "is_drum": false,
      "harmony": "G:maj"
    },
    {
      "pitch": 49,
      "velocity": 60,
      "instrument": 0,
      "channel": 0,
      "start_step": 75,
      "duration_steps": 1,
      "bar": 7,
      "position": 3,
      "track_index": 1,
      "track_name": "track_1",
      "is_drum": false,
      "harmony": "G:maj"
    },
    {
      "pitch": 47,
      "velocity": 60,
      "instrument": 0,
      "channel": 0,
      "start_step": 76,
      "duration_steps": 1,
      "bar": 7,
      "position": 4,
      "track_index": 1,
      "track_name": "track_1",
      "is_drum": false,
      "harmony": "G:maj"
    },
    {
      "pitch": 47,
      "velocity": 60,
      "instrument": 0,
      "channel": 0,
      "start_step": 77,
      "duration_steps": 1,
      "bar": 7,
      "position": 5,
      "track_index": 1,
      "track_name": "track_1",
      "is_drum": false,
      "harmony": "G:maj"
    },
    {
      "pitch": 45,
      "velocity": 60,
      "instrument": 0,
      "channel": 0,
      "start_step": 78,
      "duration_steps": 1,
      "bar": 7,
      "position": 6,
      "track_index": 1,
      "track_name": "track_1",
      "is_drum": false,
      "harmony": "D:min"
    },
    {
      "pitch": 45,
      "velocity": 60,
      "instrument": 0,
      "channel": 0,
      "start_step": 79,
      "duration_steps": 1,
      "bar": 7,
      "position": 7,
      "track_index": 1,
      "track_name": "track_1",
      "is_drum": false,
      "harmony": "D:min"
    },
    {
      "pitch": 45,
      "velocity": 60,
      "instrument": 0,
      "channel": 0,
      "start_step": 80,
      "duration_steps": 1,
      "bar": 7,
      "position": 8,
      "track_index": 1,
      "track_name": "track_1",
      "is_drum": false,
      "harmony": "D:min"
    },
    {
      "pitch": 45,
      "velocity": 60,
      "instrument": 0,
      "channel": 0,
      "start_step": 81,
      "duration_steps": 1,
      "bar": 7,
      "position": 9,
      "track_index": 1,
      "track_name": "track_1",
      "is_drum": false,
      "harmony": "G:maj"
    },
    {
      "pitch": 45,
      "velocity": 60,
      "instrument": 0,
      "channel": 0,
      "start_step": 82,
      "duration_steps": 1,
      "bar": 7,
      "position": 10,
      "track_index": 1,
      "track_name": "track_1",
      "is_drum": false,
      "harmony": "G:maj"
    },
    {
      "pitch": 44,
      "velocity": 60,
      "instrument": 0,
      "channel": 0,
      "start_step": 83,
      "duration_steps": 1,
      "bar": 7,
      "position": 11,
      "track_index": 1,
      "track_name": "track_1",
      "is_drum": false,
      "harmony": "G:maj"
    },
    {
      "pitch": 43,
      "velocity": 60,
      "instrument": 0,
      "channel": 0,
      "start_step": 84,
      "duration_steps": 1,
      "bar": 8,
      "position": 0,
      "track_index": 1,
      "track_name": "track_1",
      "is_drum": false,
      "harmony": "G:maj"
    },
    {
      "pitch": 43,
      "velocity": 60,
      "instrument": 0,
      "channel": 0,
      "start_step": 85,
      "duration_steps": 1,
      "bar": 8,
      "position": 1,
      "track_index": 1,
      "track_name": "track_1",
      "is_drum": false,
      "harmony": "G:maj"
    },
    {
      "pitch": 38,
      "velocity": 60,
      "instrument": 0,
      "channel": 0,
      "start_step": 86,
      "duration_steps": 12,
      "bar": 8,
      "position": 2,
      "track_index": 1,
      "track_name": "track_1",
      "is_drum": false,
      "harmony": "D:maj"
    },
    {
      "pitch": 45,
      "velocity": 60,
      "instrument": 0,
      "channel": 0,
      "start_step": 98,
      "duration_steps": 12,
      "bar": 9,
      "position": 2,
      "track_index": 1,
      "track_name": "track_1",
      "is_drum": false,
      "harmony": "D:maj"
    },
    {
      "pitch": 45,
      "velocity": 60,
      "instrument": 0,
      "channel": 0,
      "start_step": 110,
      "duration_steps": 1,
      "bar": 10,
      "position": 2,
      "track_index": 1,
      "track_name": "track_1",
      "is_drum": false,
      "harmony": "A:maj"
    },
    {
      "pitch": 45,
      "velocity": 60,
      "instrument": 0,
      "channel": 0,
      "start_step": 111,
      "duration_steps": 1,
      "bar": 10,
      "position": 3,
      "track_index": 1,
      "track_name": "track_1",
      "is_drum": false,
      "harmony": "A:maj"
    },
    {
      "pitch": 45,
      "velocity": 60,
      "instrument": 0,
      "channel": 0,
      "start_step": 112,
      "duration_steps": 1,
      "bar": 10,
      "position": 4,
      "track_index": 1,
      "track_name": "track_1",
      "is_drum": false,
      "harmony": "A:maj"
    },
    {
      "pitch": 50,
      "velocity": 60,
      "instrument": 0,
      "channel": 0,
      "start_step": 113,
      "duration_steps": 12,
      "bar": 10,
      "position": 5,
      "track_index": 1,
      "track_name": "track_1",
      "is_drum": false,
      "harmony": "D:maj"
    },
    {
      "pitch": 50,
      "velocity": 60,
      "instrument": 0,
      "channel": 0,
      "start_step": 125,
      "duration_steps": 1,
      "bar": 11,
      "position": 5,
      "track_index": 1,
      "track_name": "track_1",
      "is_drum": false,
      "harmony": "D:maj"
    },
    {
      "pitch": 50,
      "velocity": 60,
      "instrument": 0,
      "channel": 0,
      "start_step": 126,
      "duration_steps": 1,
      "bar": 11,
      "position": 6,
      "track_index": 1,
      "track_name": "track_1",
      "is_drum": false,
      "harmony": "D:maj"
    },
    {
      "pitch": 50,
      "velocity": 60,
      "instrument": 0,
      "channel": 0,
      "start_step": 127,
      "duration_steps": 1,
      "bar": 11,
      "position": 7,
      "track_index": 1,
      "track_name": "track_1",
      "is_drum": false,
      "harmony": "D:maj"
    },
    {
      "pitch": 50,
      "velocity": 60,
      "instrument": 0,
      "channel": 0,
      "start_step": 128,
      "duration_steps": 6,
      "bar": 11,
      "position": 8,
      "track_index": 1,
      "track_name": "track_1",
      "is_drum": false,
      "harmony": "D:maj"
    },
    {
      "pitch": 50,
      "velocity": 60,
      "instrument": 0,
      "channel": 0,
      "start_step": 134,
      "duration_steps": 12,
      "bar": 12,
      "position": 2,
      "track_index": 1,
      "track_name": "track_1",
      "is_drum": false,
      "harmony": "D:maj"
    },
    {
      "pitch": 52,
      "velocity": 60,
      "instrument": 0,
      "channel": 0,
      "start_step": 146,
      "duration_steps": 2,
      "bar": 13,
      "position": 2,
      "track_index": 1,
      "track_name": "track_1",
      "is_drum": false,
      "harmony": "D:maj"
    },
    {
      "pitch": 54,
      "velocity": 60,
      "instrument": 0,
      "channel": 0,
      "start_step": 148,
      "duration_steps": 12,
      "bar": 13,
      "position": 4,
      "track_index": 0,
      "track_name": "track_0",
      "is_drum": false,
      "harmony": "D:maj"
    },
    {
      "pitch": 54,
      "velocity": 60,
      "instrument": 0,
      "channel": 0,
      "start_step": 160,
      "duration_steps": 2,
      "bar": 14,
      "position": 4,
      "track_index": 1,
      "track_name": "track_1",
      "is_drum": false,
      "harmony": "D:maj"
    },
    {
      "pitch": 54,
      "velocity": 60,
      "instrument": 0,
      "channel": 0,
      "start_step": 162,
      "duration_steps": 12,
      "bar": 14,
      "position": 6,
      "track_index": 1,
      "track_name": "track_1",
      "is_drum": false,
      "harmony": "D:maj"
    },
    {
      "pitch": 54,
      "velocity": 60,
      "instrument": 0,
      "channel": 0,
      "start_step": 174,
      "duration_steps": 1,
      "bar": 15,
      "position": 6,
      "track_index": 1,
      "track_name": "track_1",
      "is_drum": false,
      "harmony": "A:maj"
    },
    {
      "pitch": 54,
      "velocity": 60,
      "instrument": 0,
      "channel": 0,
      "start_step": 175,
      "duration_steps": 1,
      "bar": 15,
      "position": 7,
      "track_index": 1,
      "track_name": "track_1",
      "is_drum": false,
      "harmony": "A:maj"
    },
    {
      "pitch": 54,
      "velocity": 60,
      "instrument": 0,
      "channel": 0,
      "start_step": 176,
      "duration_steps": 1,
      "bar": 15,
      "position": 8,
      "track_index": 1,
      "track_name": "track_1",
      "is_drum": false,
      "harmony": "A:maj"
    },
    {
      "pitch": 54,
      "velocity": 60,
      "instrument": 0,
      "channel": 0,
      "start_step": 177,
      "duration_steps": 1,
      "bar": 15,
      "position": 9,
      "track_index": 1,
      "track_name": "track_1",
      "is_drum": false,
      "harmony": "A:maj"
    },
    {
      "pitch": 55,
      "velocity": 60,
      "instrument": 0,
      "channel": 0,
      "start_step": 178,
      "duration_steps": 2,
      "bar": 15,
      "position": 10,
      "track_index": 1,
      "track_name": "track_1",
      "is_drum": false,
      "harmony": "D:maj"
    },
    {
      "pitch": 55,
      "velocity": 60,
      "instrument": 0,
      "channel": 0,
      "start_step": 180,
      "duration_steps": 6,
      "bar": 16,
      "position": 0,
      "track_index": 1,
      "track_name": "track_1",
      "is_drum": false,
      "harmony": "D:maj"
    },
    {
      "pitch": 55,
      "velocity": 60,
      "instrument": 0,
      "channel": 0,
      "start_step": 186,
      "duration_steps": 1,
      "bar": 16,
      "position": 6,
      "track_index": 1,
      "track_name": "track_1",
      "is_drum": false,
      "harmony": "A:maj"
    },
    {
      "pitch": 55,
      "velocity": 60,
      "instrument": 0,
      "channel": 0,
      "start_step": 187,
      "duration_steps": 1,
      "bar": 16,
      "position": 7,
      "track_index": 1,
      "track_name": "track_1",
      "is_drum": false,
      "harmony": "A:maj"
    },
    {
      "pitch": 57,
      "velocity": 60,
      "instrument": 0,
      "channel": 0,
      "start_step": 188,
      "duration_steps": 1,
      "bar": 16,
      "position": 8,
      "track_index": 1,
      "track_name": "track_1",
      "is_drum": false,
      "harmony": "A:maj"
    },
    {
      "pitch": 57,
      "velocity": 60,
      "instrument": 0,
      "channel": 0,
      "start_step": 189,
      "duration_steps": 1,
      "bar": 16,
      "position": 9,
      "track_index": 1,
      "track_name": "track_1",
      "is_drum": false,
      "harmony": "A:maj"
    },
    {
      "pitch": 57,
      "velocity": 60,
      "instrument": 0,
      "channel": 0,
      "start_step": 190,
      "duration_steps": 1,
      "bar": 16,
      "position": 10,
      "track_index": 1,
      "track_name": "track_1",
      "is_drum": false,
      "harmony": "A:maj"
    },
    {
      "pitch": 71,
      "velocity": 60,
      "instrument": 0,
      "channel": 0,
      "start_step": 191,
      "duration_steps": 4,
      "bar": 16,
      "position": 11,
      "track_index": 0,
      "track_name": "track_0",
      "is_drum": false,
      "harmony": "D:maj"
    },
    {
      "pitch": 69,
      "velocity": 60,
      "instrument": 0,
      "channel": 0,
      "start_step": 195,
      "duration_steps": 1,
      "bar": 17,
      "position": 3,
      "track_index": 0,
      "track_name": "track_0",
      "is_drum": false,
      "harmony": "D:maj"
    },
    {
      "pitch": 69,
      "velocity": 60,
      "instrument": 0,
      "channel": 0,
      "start_step": 196,
      "duration_steps": 1,
      "bar": 17,
      "position": 4,
      "track_index": 0,
      "track_name": "track_0",
      "is_drum": false,
      "harmony": "D:maj"
    },
    {
      "pitch": 69,
      "velocity": 60,
      "instrument": 0,
      "channel": 0,
      "start_step": 197,
      "duration_steps": 1,
      "bar": 17,
      "position": 5,
      "track_index": 0,
      "track_name": "track_0",
      "is_drum": false,
      "harmony": "D:maj"
    },
    {
      "pitch": 69,
      "velocity": 60,
      "instrument": 0,
      "channel": 0,
      "start_step": 198,
      "duration_steps": 2,
      "bar": 17,
      "position": 6,
      "track_index": 0,
      "track_name": "track_0",
      "is_drum": false,
      "harmony": "D:maj"
    },
    {
      "pitch": 69,
      "velocity": 60,
      "instrument": 0,
      "channel": 0,
      "start_step": 200,
      "duration_steps": 6,
      "bar": 17,
      "position": 8,
      "track_index": 0,
      "track_name": "track_0",
      "is_drum": false,
      "harmony": "A:maj"
    },
    {
      "pitch": 67,
      "velocity": 60,
      "instrument": 0,
      "channel": 0,
      "start_step": 206,
      "duration_steps": 1,
      "bar": 18,
      "position": 2,
      "track_index": 0,
      "track_name": "track_0",
      "is_drum": false,
      "harmony": "D:maj"
    },
    {
      "pitch": 66,
      "velocity": 60,
      "instrument": 0,
      "channel": 0,
      "start_step": 207,
      "duration_steps": 1,
      "bar": 18,
      "position": 3,
      "track_index": 0,
      "track_name": "track_0",
      "is_drum": false,
      "harmony": "D:maj"
    },
    {
      "pitch": 66,
      "velocity": 60,
      "instrument": 0,
      "channel": 0,
      "start_step": 208,
      "duration_steps": 3,
      "bar": 18,
      "position": 4,
      "track_index": 0,
      "track_name": "track_0",
      "is_drum": false,
      "harmony": "A:maj"
    },
    {
      "pitch": 64,
      "velocity": 60,
      "instrument": 0,
      "channel": 0,
      "start_step": 211,
      "duration_steps": 4,
      "bar": 18,
      "position": 7,
      "track_index": 0,
      "track_name": "track_0",
      "is_drum": false,
      "harmony": "D:maj"
    },
    {
      "pitch": 64,
      "velocity": 60,
      "instrument": 0,
      "channel": 0,
      "start_step": 215,
      "duration_steps": 1,
      "bar": 18,
      "position": 11,
      "track_index": 0,
      "track_name": "track_0",
      "is_drum": false,
      "harmony": "D:maj"
    },
    {
      "pitch": 64,
      "velocity": 60,
      "instrument": 0,
      "channel": 0,
      "start_step": 216,
      "duration_steps": 6,
      "bar": 19,
      "position": 0,
      "track_index": 0,
      "track_name": "track_0",
      "is_drum": false,
      "harmony": "D:maj"
    },
    {
      "pitch": 64,
      "velocity": 60,
      "instrument": 0,
      "channel": 0,
      "start_step": 222,
      "duration_steps": 4,
      "bar": 19,
      "position": 6,
      "track_index": 0,
      "track_name": "track_0",
      "is_drum": false,
      "harmony": "D:maj"
    },
    {
      "pitch": 64,
      "velocity": 60,
      "instrument": 0,
      "channel": 0,
      "start_step": 226,
      "duration_steps": 1,
      "bar": 19,
      "position": 10,
      "track_index": 0,
      "track_name": "track_0",
      "is_drum": false,
      "harmony": "A:maj"
    },
    {
      "pitch": 62,
      "velocity": 60,
      "instrument": 0,
      "channel": 0,
      "start_step": 227,
      "duration_steps": 1,
      "bar": 19,
      "position": 11,
      "track_index": 0,
      "track_name": "track_0",
      "is_drum": false,
      "harmony": "D:maj"
    },
    {
      "pitch": 62,
      "velocity": 60,
      "instrument": 0,
      "channel": 0,
      "start_step": 228,
      "duration_steps": 1,
      "bar": 20,
      "position": 0,
      "track_index": 0,
      "track_name": "track_0",
      "is_drum": false,
      "harmony": "D:maj"
    },
    {
      "pitch": 62,
      "velocity": 60,
      "instrument": 0,
      "channel": 0,
      "start_step": 229,
      "duration_steps": 1,
      "bar": 20,
      "position": 1,
      "track_index": 0,
      "track_name": "track_0",
      "is_drum": false,
      "harmony": "D:maj"
    },
    {
      "pitch": 62,
      "velocity": 60,
      "instrument": 0,
      "channel": 0,
      "start_step": 230,
      "duration_steps": 2,
      "bar": 20,
      "position": 2,
      "track_index": 0,
      "track_name": "track_0",
      "is_drum": false,
      "harmony": "D:maj"
    },
    {
      "pitch": 62,
      "velocity": 60,
      "instrument": 0,
      "channel": 0,
      "start_step": 232,
      "duration_steps": 4,
      "bar": 20,
      "position": 4,
      "track_index": 0,
      "track_name": "track_0",
      "is_drum": false,
      "harmony": "D:maj"
    },
    {
      "pitch": 62,
      "velocity": 60,
      "instrument": 0,
      "channel": 0,
      "start_step": 236,
      "duration_steps": 1,
      "bar": 20,
      "position": 8,
      "track_index": 0,
      "track_name": "track_0",
      "is_drum": false,
      "harmony": "D:maj"
    },
    {
      "pitch": 62,
      "velocity": 60,
      "instrument": 0,
      "channel": 0,
      "start_step": 237,
      "duration_steps": 1,
      "bar": 20,
      "position": 9,
      "track_index": 0,
      "track_name": "track_0",
      "is_drum": false,
      "harmony": "D:maj"
    },
    {
      "pitch": 62,
      "velocity": 60,
      "instrument": 0,
      "channel": 0,
      "start_step": 238,
      "duration_steps": 1,
      "bar": 20,
      "position": 10,
      "track_index": 0,
      "track_name": "track_0",
      "is_drum": false,
      "harmony": "D:maj"
    },
    {
      "pitch": 62,
      "velocity": 60,
      "instrument": 0,
      "channel": 0,
      "start_step": 239,
      "duration_steps": 2,
      "bar": 20,
      "position": 11,
      "track_index": 0,
      "track_name": "track_0",
      "is_drum": false,
      "harmony": "D:maj"
    },
    {
      "pitch": 62,
      "velocity": 60,
      "instrument": 0,
      "channel": 0,
      "start_step": 241,
      "duration_steps": 2,
      "bar": 21,
      "position": 1,
      "track_index": 0,
      "track_name": "track_0",
      "is_drum": false,
      "harmony": "A:maj"
    },
    {
      "pitch": 61,
      "velocity": 60,
      "instrument": 0,
      "channel": 0,
      "start_step": 243,
      "duration_steps": 1,
      "bar": 21,
      "position": 3,
      "track_index": 0,
      "track_name": "track_0",
      "is_drum": false,
      "harmony": "D:maj"
    },
    {
      "pitch": 61,
      "velocity": 60,
      "instrument": 0,
      "channel": 0,
      "start_step": 244,
      "duration_steps": 1,
      "bar": 21,
      "position": 4,
      "track_index": 0,
      "track_name": "track_0",
      "is_drum": false,
      "harmony": "D:maj"
    },
    {
      "pitch": 61,
      "velocity": 60,
      "instrument": 0,
      "channel": 0,
      "start_step": 245,
      "duration_steps": 2,
      "bar": 21,
      "position": 5,
      "track_index": 0,
      "track_name": "track_0",
      "is_drum": false,
      "harmony": "D:maj"
    },
    {
      "pitch": 61,
      "velocity": 60,
      "instrument": 0,
      "channel": 0,
      "start_step": 247,
      "duration_steps": 1,
      "bar": 21,
      "position": 7,
      "track_index": 0,
      "track_name": "track_0",
      "is_drum": false,
      "harmony": "D:maj"
    },
    {
      "pitch": 57,
      "velocity": 60,
      "instrument": 0,
      "channel": 0,
      "start_step": 248,
      "duration_steps": 1,
      "bar": 21,
      "position": 8,
      "track_index": 0,
      "track_name": "track_0",
      "is_drum": false,
      "harmony": "D:maj"
    },
    {
      "pitch": 57,
      "velocity": 60,
      "instrument": 0,
      "channel": 0,
      "start_step": 249,
      "duration_steps": 2,
      "bar": 21,
      "position": 9,
      "track_index": 0,
      "track_name": "track_0",
      "is_drum": false,
      "harmony": "D:maj"
    },
    {
      "pitch": 57,
      "velocity": 60,
      "instrument": 0,
      "channel": 0,
      "start_step": 251,
      "duration_steps": 1,
      "bar": 21,
      "position": 11,
      "track_index": 0,
      "track_name": "track_0",
      "is_drum": false,
      "harmony": "D:maj"
    },
    {
      "pitch": 57,
      "velocity": 60,
      "instrument": 0,
      "channel": 0,
      "start_step": 252,
      "duration_steps": 1,
      "bar": 22,
      "position": 0,
      "track_index": 0,
      "track_name": "track_0",
      "is_drum": false,
      "harmony": "D:maj"
    },
    {
      "pitch": 57,
      "velocity": 60,
      "instrument": 0,
      "channel": 0,
      "start_step": 253,
      "duration_steps": 8,
      "bar": 22,
      "position": 1,
      "track_index": 0,
      "track_name": "track_0",
      "is_drum": false,
      "harmony": "D:maj"
    },
    {
      "pitch": 57,
      "velocity": 60,
      "instrument": 0,
      "channel": 0,
      "start_step": 261,
      "duration_steps": 4,
      "bar": 22,
      "position": 9,
      "track_index": 0,
      "track_name": "track_0",
      "is_drum": false,
      "harmony": "D:maj"
    },
    {
      "pitch": 58,
      "velocity": 60,
      "instrument": 0,
      "channel": 0,
      "start_step": 265,
      "duration_steps": 4,
      "bar": 23,
      "position": 1,
      "track_index": 0,
      "track_name": "track_0",
      "is_drum": false,
      "harmony": "D:maj"
    },
    {
      "pitch": 61,
      "velocity": 60,
      "instrument": 0,
      "channel": 0,
      "start_step": 269,
      "duration_steps": 2,
      "bar": 23,
      "position": 5,
      "track_index": 0,
      "track_name": "track_0",
      "is_drum": false,
      "harmony": "D:maj"
    },
    {
      "pitch": 61,
      "velocity": 60,
      "instrument": 0,
      "channel": 0,
      "start_step": 271,
      "duration_steps": 1,
      "bar": 23,
      "position": 7,
      "track_index": 0,
      "track_name": "track_0",
      "is_drum": false,
      "harmony": "D:maj"
    },
    {
      "pitch": 62,
      "velocity": 60,
      "instrument": 0,
      "channel": 0,
      "start_step": 272,
      "duration_steps": 4,
      "bar": 23,
      "position": 8,
      "track_index": 0,
      "track_name": "track_0",
      "is_drum": false,
      "harmony": "D:maj"
    },
    {
      "pitch": 62,
      "velocity": 60,
      "instrument": 0,
      "channel": 0,
      "start_step": 276,
      "duration_steps": 1,
      "bar": 24,
      "position": 0,
      "track_index": 0,
      "track_name": "track_0",
      "is_drum": false,
      "harmony": "D:maj"
    },
    {
      "pitch": 62,
      "velocity": 60,
      "instrument": 0,
      "channel": 0,
      "start_step": 277,
      "duration_steps": 8,
      "bar": 24,
      "position": 1,
      "track_index": 0,
      "track_name": "track_0",
      "is_drum": false,
      "harmony": "D:maj"
    },
    {
      "pitch": 62,
      "velocity": 60,
      "instrument": 0,
      "channel": 0,
      "start_step": 285,
      "duration_steps": 4,
      "bar": 24,
      "position": 9,
      "track_index": 0,
      "track_name": "track_0",
      "is_drum": false,
      "harmony": "D:maj"
    },
    {
      "pitch": 64,
      "velocity": 60,
      "instrument": 0,
      "channel": 0,
      "start_step": 289,
      "duration_steps": 1,
      "bar": 25,
      "position": 1,
      "track_index": 0,
      "track_name": "track_0",
      "is_drum": false,
      "harmony": "D:maj"
    },
    {
      "pitch": 66,
      "velocity": 60,
      "instrument": 0,
      "channel": 0,
      "start_step": 290,
      "duration_steps": 4,
      "bar": 25,
      "position": 2,
      "track_index": 0,
      "track_name": "track_0",
      "is_drum": false,
      "harmony": "D:maj"
    },
    {
      "pitch": 69,
      "velocity": 60,
      "instrument": 0,
      "channel": 0,
      "start_step": 294,
      "duration_steps": 2,
      "bar": 25,
      "position": 6,
      "track_index": 0,
      "track_name": "track_0",
      "is_drum": false,
      "harmony": "D:maj"
    },
    {
      "pitch": 69,
      "velocity": 60,
      "instrument": 0,
      "channel": 0,
      "start_step": 296,
      "duration_steps": 1,
      "bar": 25,
      "position": 8,
      "track_index": 0,
      "track_name": "track_0",
      "is_drum": false,
      "harmony": "D:maj"
    },
    {
      "pitch": 69,
      "velocity": 60,
      "instrument": 0,
      "channel": 0,
      "start_step": 297,
      "duration_steps": 1,
      "bar": 25,
      "position": 9,
      "track_index": 0,
      "track_name": "track_0",
      "is_drum": false,
      "harmony": "D:maj"
    },
    {
      "pitch": 69,
      "velocity": 60,
      "instrument": 0,
      "channel": 0,
      "start_step": 298,
      "duration_steps": 1,
      "bar": 25,
      "position": 10,
      "track_index": 0,
      "track_name": "track_0",
      "is_drum": false,
      "harmony": "D:maj"
    },
    {
      "pitch": 69,
      "velocity": 60,
      "instrument": 0,
      "channel": 0,
      "start_step": 299,
      "duration_steps": 8,
      "bar": 25,
      "position": 11,
      "track_index": 0,
      "track_name": "track_0",
      "is_drum": false,
      "harmony": "D:maj"
    },
    {
      "pitch": 70,
      "velocity": 60,
      "instrument": 0,
      "channel": 0,
      "start_step": 307,
      "duration_steps": 4,
      "bar": 26,
      "position": 7,
      "track_index": 0,
      "track_name": "track_0",
      "is_drum": false,
      "harmony": "D:maj"
    },
    {
      "pitch": 52,
      "velocity": 60,
      "instrument": 0,
      "channel": 0,
      "start_step": 311,
      "duration_steps": 6,
      "bar": 26,
      "position": 11,
      "track_index": 1,
      "track_name": "track_1",
      "is_drum": false,
      "harmony": "D:maj"
    },
    {
      "pitch": 52,
      "velocity": 60,
      "instrument": 0,
      "channel": 0,
      "start_step": 317,
      "duration_steps": 1,
      "bar": 27,
      "position": 5,
      "track_index": 1,
      "track_name": "track_1",
      "is_drum": false,
      "harmony": "D:maj"
    },
    {
      "pitch": 50,
      "velocity": 60,
      "instrument": 0,
      "channel": 0,
      "start_step": 318,
      "duration_steps": 1,
      "bar": 27,
      "position": 6,
      "track_index": 1,
      "track_name": "track_1",
      "is_drum": false,
      "harmony": "D:maj"
    },
    {
      "pitch": 50,
      "velocity": 60,
      "instrument": 0,
      "channel": 0,
      "start_step": 319,
      "duration_steps": 8,
      "bar": 27,
      "position": 7,
      "track_index": 1,
      "track_name": "track_1",
      "is_drum": false,
      "harmony": "D:maj"
    },
    {
      "pitch": 49,
      "velocity": 60,
      "instrument": 0,
      "channel": 0,
      "start_step": 327,
      "duration_steps": 1,
      "bar": 28,
      "position": 3,
      "track_index": 1,
      "track_name": "track_1",
      "is_drum": false,
      "harmony": "D:maj"
    },
    {
      "pitch": 45,
      "velocity": 60,
      "instrument": 0,
      "channel": 0,
      "start_step": 328,
      "duration_steps": 4,
      "bar": 28,
      "position": 4,
      "track_index": 1,
      "track_name": "track_1",
      "is_drum": false,
      "harmony": "D:maj"
    },
    {
      "pitch": 43,
      "velocity": 60,
      "instrument": 0,
      "channel": 0,
      "start_step": 332,
      "duration_steps": 6,
      "bar": 28,
      "position": 8,
      "track_index": 1,
      "track_name": "track_1",
      "is_drum": false,
      "harmony": "D:maj"
    },
    {
      "pitch": 43,
      "velocity": 60,
      "instrument": 0,
      "channel": 0,
      "start_step": 338,
      "duration_steps": 1,
      "bar": 29,
      "position": 2,
      "track_index": 1,
      "track_name": "track_1",
      "is_drum": false,
      "harmony": "D:maj"
    },
    {
      "pitch": 43,
      "velocity": 60,
      "instrument": 0,
      "channel": 0,
      "start_step": 339,
      "duration_steps": 1,
      "bar": 29,
      "position": 3,
      "track_index": 1,
      "track_name": "track_1",
      "is_drum": false,
      "harmony": "D:maj"
    },
    {
      "pitch": 42,
      "velocity": 60,
      "instrument": 0,
      "channel": 0,
      "start_step": 340,
      "duration_steps": 1,
      "bar": 29,
      "position": 4,
      "track_index": 1,
      "track_name": "track_1",
      "is_drum": false,
      "harmony": "D:maj"
    },
    {
      "pitch": 42,
      "velocity": 60,
      "instrument": 0,
      "channel": 0,
      "start_step": 341,
      "duration_steps": 8,
      "bar": 29,
      "position": 5,
      "track_index": 1,
      "track_name": "track_1",
      "is_drum": false,
      "harmony": "D:maj"
    },
    {
      "pitch": 38,
      "velocity": 60,
      "instrument": 0,
      "channel": 0,
      "start_step": 349,
      "duration_steps": 6,
      "bar": 30,
      "position": 1,
      "track_index": 1,
      "track_name": "track_1",
      "is_drum": false,
      "harmony": "D:maj"
    },
    {
      "pitch": 38,
      "velocity": 60,
      "instrument": 0,
      "channel": 0,
      "start_step": 355,
      "duration_steps": 1,
      "bar": 30,
      "position": 7,
      "track_index": 1,
      "track_name": "track_1",
      "is_drum": false,
      "harmony": "D:maj"
    },
    {
      "pitch": 38,
      "velocity": 60,
      "instrument": 0,
      "channel": 0,
      "start_step": 356,
      "duration_steps": 1,
      "bar": 30,
      "position": 8,
      "track_index": 1,
      "track_name": "track_1",
      "is_drum": false,
      "harmony": "D:maj"
    },
    {
      "pitch": 38,
      "velocity": 60,
      "instrument": 0,
      "channel": 0,
      "start_step": 357,
      "duration_steps": 1,
      "bar": 30,
      "position": 9,
      "track_index": 1,
      "track_name": "track_1",
      "is_drum": false,
      "harmony": "D:maj"
    },
    {
      "pitch": 38,
      "velocity": 60,
      "instrument": 0,
      "channel": 0,
      "start_step": 358,
      "duration_steps": 8,
      "bar": 30,
      "position": 10,
      "track_index": 1,
      "track_name": "track_1",
      "is_drum": false,
      "harmony": "D:maj"
    },
    {
      "pitch": 38,
      "velocity": 60,
      "instrument": 0,
      "channel": 0,
      "start_step": 366,
      "duration_steps": 4,
      "bar": 31,
      "position": 6,
      "track_index": 1,
      "track_name": "track_1",
      "is_drum": false,
      "harmony": "D:maj"
    },
    {
      "pitch": 38,
      "velocity": 60,
      "instrument": 0,
      "channel": 0,
      "start_step": 370,
      "duration_steps": 12,
      "bar": 31,
      "position": 10,
      "track_index": 1,
      "track_name": "track_1",
      "is_drum": false,
      "harmony": "D:maj"
    },
    {
      "pitch": 45,
      "velocity": 60,
      "instrument": 0,
      "channel": 0,
      "start_step": 382,
      "duration_steps": 12,
      "bar": 32,
      "position": 10,
      "track_index": 1,
      "track_name": "track_1",
      "is_drum": false,
      "harmony": "D:maj"
    }
  ],
  "phrase_boundaries": [
    1,
    8,
    21,
    31
  ],
  "source_path": "Schubert/Piano_Sonatas/664-2/midi_score.mid",
  "metadata": {
    "ticks_per_beat": 480,
    "midi_format": 1,
    "time_signature_changes": 1,
    "tempo_changes": 13,
    "cadence_bars": [
      10,
      21,
      24
    ],
    "global_harmony_vocab": {
      "unknown": 0,
      "C:maj": 1,
      "C#:maj": 2,
      "D:maj": 3,
      "Eb:maj": 4,
      "E:maj": 5,
      "F:maj": 6,
      "F#:maj": 7,
      "G:maj": 8,
      "Ab:maj": 9,
      "A:maj": 10,
      "Bb:maj": 11,
      "B:maj": 12,
      "C:min": 13,
      "C#:min": 14,
      "D:min": 15,
      "Eb:min": 16,
      "E:min": 17,
      "F:min": 18,
      "F#:min": 19,
      "G:min": 20,
      "Ab:min": 21,
      "A:min": 22,
      "Bb:min": 23,
      "B:min": 24
    },
    "dataset_kind": "asap",
    "dataset_source_mode": "score",
    "asap_piece_group": "schubert::piano_sonatas_664_2",
    "composer": "Schubert",
    "title": "Piano_Sonatas_664-2",
    "folder": "Schubert/Piano_Sonatas/664-2",
    "xml_score": "Schubert/Piano_Sonatas/664-2/xml_score.musicxml",
    "midi_score": "Schubert/Piano_Sonatas/664-2/midi_score.mid",
    "midi_performance": "Schubert/Piano_Sonatas/664-2/KabuliL11.mid",
    "annotated_primary_time_signature": "3/4",
    "annotated_key_signature_tonic": 2,
    "annotated_key_signature_accidentals": 2,
    "annotated_beat_count": 223,
    "annotated_downbeat_count": 75,
    "annotated_downbeats_score_map": [
      0,
      1,
      2,
      3,
      4,
      5,
      6,
      7,
      8,
      9,
      10,
      11,
      12,
      13,
      14,
      15,
      16,
      17,
      18,
      19,
      20,
      21,
      22,
      23,
      24,
      25,
      26,
      27,
      28,
      29,
      30,
      31,
      32,
      33,
      34,
      35,
      36,
      37,
      38,
      39,
      40,
      41,
      42,
      43,
      44,
      45,
      46,
      47,
      48,
      49,
      50,
      51,
      52,
      53,
      54,
      55,
      56,
      57,
      58,
      59,
      60,
      61,
      62,
      63,
      64,
      65,
      66,
      67,
      68,
      69,
      70,
      71,
      72,
      73,
      74
    ],
    "score_and_performance_aligned": true,
    "source_piece_id": "schubert__piano_sonatas__664_2__midi_score",
    "slice_start_event": 1168,
    "slice_event_count": 160,
    "benchmark_hack_transformed": true
  },
  "key": "D:major",
  "chords": [
    "B:min",
    "D:maj",
    "E:min",
    "E:min",
    "D:maj",
    "A:maj",
    "D:maj",
    "D:maj",
    "D:maj",
    "B:min",
    "F#:maj",
    "D:maj",
    "D:maj",
    "A:maj",
    "D:maj",
    "F#:maj",
    "C#:maj",
    "F#:min",
    "D:min",
    "F#:min",
    "B:min",
    "F#:min",
    "F#:min",
    "B:min",
    "C#:maj",
    "D:maj",
    "C:maj",
    "C#:maj",
    "C:maj",
    "F#:min",
    "F#:min",
    "A:min",
    "G:maj",
    "G:maj",
    "A:min",
    "A:min",
    "G:maj",
    "D:maj",
    "D:maj",
    "G:maj",
    "B:maj",
    "A:maj",
    "Bb:maj",
    "A:maj",
    "E:maj",
    "A:maj",
    "D:maj",
    "A:maj",
    "A:maj",
    "D:maj",
    "F#:min",
    "E:min",
    "E:min",
    "D:maj",
    "F#:min",
    "D:maj",
    "A:maj",
    "D:min",
    "C#:maj",
    "D:min",
    "A:maj",
    "D:maj",
    "Bb:min",
    "D:min",
    "G:min",
    "D:min",
    "D:maj",
    "G:maj",
    "A:maj",
    "D:maj",
    "D:maj",
    "D:maj",
    "D:maj",
    "D:maj",
    "D:maj"
  ]
}