{
  "piece_id": "beethoven__piano_sonatas__26_1__midi_score__sample",
  "resolution": "sixteenth",
  "steps_per_beat": 4,
  "bar_steps": 8,
  "time_signature": "2/4",
  "tempo_bpm": 28.999993233334912,
  "note_events": [
    {
      "pitch": 79,
      "velocity": 49,
      "instrument": 0,
      "channel": 0,
      "start_step": 0,
      "duration_steps": 2,
      "bar": 1,
      "position": 0,
      "track_index": 0,
      "track_name": "track_0",
      "is_drum": false,
      "harmony": "D:min"
    },
    {
      "pitch": 79,
      "velocity": 49,
      "instrument": 0,
      "channel": 0,
      "start_step": 2,
      "duration_steps": 4,
      "bar": 1,
      "position": 2,
      "track_index": 0,
      "track_name": "track_0",
      "is_drum": false,
      "harmony": "C:min"
    },
    {
      "pitch": 77,
      "velocity": 49,
      "instrument": 0,
      "channel": 0,
      "start_step": 6,
      "duration_steps": 2,
      "bar": 1,
      "position": 6,
      "track_index": 0,
      "track_name": "track_0",
      "is_drum": false,
      "harmony": "D:min"
    },
    {
      "pitch": 77,
      "velocity": 49,
      "instrument": 0,
      "channel": 0,
      "start_step": 8,
      "duration_steps": 2,
      "bar": 2,
      "position": 0,
      "track_index": 0,
      "track_name": "track_0",
      "is_drum": false,
      "harmony": "D:min"
    },
    {
      "pitch": 81,
      "velocity": 49,
      "instrument": 0,
      "channel": 0,
      "start_step": 10,
      "duration_steps": 4,
      "bar": 2,
      "position": 2,
      "track_index": 0,
      "track_name": "track_0",
      "is_drum": false,
      "harmony": "C:min"
    },
    {
      "pitch": 82,
      "velocity": 49,
      "instrument": 0,
      "channel": 0,
      "start_step": 14,
      "duration_steps": 4,
      "bar": 2,
      "position": 6,
      "track_index": 0,
      "track_name": "track_0",
      "is_drum": false,
      "harmony": "F:maj"
    },
    {
      "pitch": 82,
      "velocity": 49,
      "instrument": 0,
      "channel": 0,
      "start_step": 18,
      "duration_steps": 4,
      "bar": 3,
      "position": 2,
      "track_index": 0,
      "track_name": "track_0",
      "is_drum": false,
      "harmony": "C:min"
    },
    {
      "pitch": 84,
      "velocity": 49,
      "instrument": 0,
      "channel": 0,
      "start_step": 22,
      "duration_steps": 4,
      "bar": 3,
      "position": 6,
      "track_index": 0,
      "track_name": "track_0",
      "is_drum": false,
      "harmony": "C:min"
    },
    {
      "pitch": 86,
      "velocity": 49,
      "instrument": 0,
      "channel": 0,
      "start_step": 26,
      "duration_steps": 1,
      "bar": 4,
      "position": 2,
      "track_index": 0,
      "track_name": "track_0",
      "is_drum": false,
      "harmony": "D:min"
    },
    {
      "pitch": 86,
      "velocity": 49,
      "instrument": 0,
      "channel": 0,
      "start_step": 27,
      "duration_steps": 16,
      "bar": 4,
      "position": 3,
      "track_index": 0,
      "track_name": "track_0",
      "is_drum": false,
      "harmony": "D:min"
    },
    {
      "pitch": 87,
      "velocity": 49,
      "instrument": 0,
      "channel": 0,
      "start_step": 43,
      "duration_steps": 4,
      "bar": 6,
      "position": 3,
      "track_index": 0,
      "track_name": "track_0",
      "is_drum": false,
      "harmony": "C:min"
    },
    {
      "pitch": 89,
      "velocity": 49,
      "instrument": 0,
      "channel": 0,
      "start_step": 47,
      "duration_steps": 8,
      "bar": 6,
      "position": 7,
      "track_index": 0,
      "track_name": "track_0",
      "is_drum": false,
      "harmony": "F:maj"
    },
    {
      "pitch": 72,
      "velocity": 49,
      "instrument": 0,
      "channel": 0,
      "start_step": 55,
      "duration_steps": 4,
      "bar": 7,
      "position": 7,
      "track_index": 1,
      "track_name": "track_1",
      "is_drum": false,
      "harmony": "C:min"
    },
    {
      "pitch": 65,
      "velocity": 49,
      "instrument": 0,
      "channel": 0,
      "start_step": 59,
      "duration_steps": 4,
      "bar": 8,
      "position": 3,
      "track_index": 1,
      "track_name": "track_1",
      "is_drum": false,
      "harmony": "C:min"
    },
    {
      "pitch": 64,
      "velocity": 49,
      "instrument": 0,
      "channel": 0,
      "start_step": 63,
      "duration_steps": 8,
      "bar": 8,
      "position": 7,
      "track_index": 1,
      "track_name": "track_1",
      "is_drum": false,
      "harmony": "D:min"
    },
    {
      "pitch": 61,
      "velocity": 49,
      "instrument": 0,
      "channel": 0,
      "start_step": 71,
      "duration_steps": 8,
      "bar": 9,
      "position": 7,
      "track_index": 1,
      "track_name": "track_1",
      "is_drum": false,
      "harmony": "D:min"
    },
    {
      "pitch": 58,
      "velocity": 49,
      "instrument": 0,
      "channel": 0,
      "start_step": 79,
      "duration_steps": 1,
      "bar": 10,
      "position": 7,
      "track_index": 1,
      "track_name": "track_1",
      "is_drum": false,
      "harmony": "D:min"
    },
    {
      "pitch": 58,
      "velocity": 49,
      "instrument": 0,
      "channel": 0,
      "start_step": 80,
      "duration_steps": 16,
      "bar": 11,
      "position": 0,
      "track_index": 1,
      "track_name": "track_1",
      "is_drum": false,
      "harmony": "D:min"
    },
    {
      "pitch": 58,
      "velocity": 49,
      "instrument": 0,
      "channel": 0,
      "start_step": 96,
      "duration_steps": 16,
      "bar": 13,
      "position": 0,
      "track_index": 1,
      "track_name": "track_1",
      "is_drum": false,
      "harmony": "Bb:maj"
    },
    {
      "pitch": 58,
      "velocity": 49,
      "instrument": 0,
      "channel": 0,
      "start_step": 112,
      "duration_steps": 1,
      "bar": 15,
      "position": 0,
      "track_index": 1,
      "track_name": "track_1",
      "is_drum": false,
      "harmony": "Bb:maj"
    },
    {
      "pitch": 58,
      "velocity": 49,
      "instrument": 0,
      "channel": 0,
      "start_step": 113,
      "duration_steps": 16,
      "bar": 15,
      "position": 1,
      "track_index": 1,
      "track_name": "track_1",
      "is_drum": false,
      "harmony": "C:min"
    },
    {
      "pitch": 58,
      "velocity": 49,
      "instrument": 0,
      "channel": 0,
      "start_step": 129,
      "duration_steps": 1,
      "bar": 17,
      "position": 1,
      "track_index": 1,
      "track_name": "track_1",
      "is_drum": false,
      "harmony": "C:min"
    },
    {
      "pitch": 62,
      "velocity": 49,
      "instrument": 0,
      "channel": 0,
      "start_step": 130,
      "duration_steps": 4,
      "bar": 17,
      "position": 2,
      "track_index": 1,
      "track_name": "track_1",
      "is_drum": false,
      "harmony": "Bb:maj"
    },
    {
      "pitch": 62,
      "velocity": 49,
      "instrument": 0,
      "channel": 0,
      "start_step": 134,
      "duration_steps": 4,
      "bar": 17,
      "position": 6,
      "track_index": 1,
      "track_name": "track_1",
      "is_drum": false,
      "harmony": "F:maj"
    },
    {
      "pitch": 65,
      "velocity": 49,
      "instrument": 0,
      "channel": 0,
      "start_step": 138,
      "duration_steps": 4,
      "bar": 18,
      "position": 2,
      "track_index": 1,
      "track_name": "track_1",
      "is_drum": false,
      "harmony": "Bb:maj"
    },
    {
      "pitch": 65,
      "velocity": 49,
      "instrument": 0,
      "channel": 0,
      "start_step": 142,
      "duration_steps": 4,
      "bar": 18,
      "position": 6,
      "track_index": 1,
      "track_name": "track_1",
      "is_drum": false,
      "harmony": "F:maj"
    },
    {
      "pitch": 65,
      "velocity": 49,
      "instrument": 0,
      "channel": 0,
      "start_step": 146,
      "duration_steps": 4,
      "bar": 19,
      "position": 2,
      "track_index": 1,
      "track_name": "track_1",
      "is_drum": false,
      "harmony": "F:maj"
    },
    {
      "pitch": 66,
      "velocity": 49,
      "instrument": 0,
      "channel": 0,
      "start_step": 150,
      "duration_steps": 8,
      "bar": 19,
      "position": 6,
      "track_index": 1,
      "track_name": "track_1",
      "is_drum": false,
      "harmony": "C:min"
    },
    {
      "pitch": 69,
      "velocity": 49,
      "instrument": 0,
      "channel": 0,
      "start_step": 158,
      "duration_steps": 12,
      "bar": 20,
      "position": 6,
      "track_index": 1,
      "track_name": "track_1",
      "is_drum": false,
      "harmony": "C:min"
    },
    {
      "pitch": 70,
      "velocity": 49,
      "instrument": 0,
      "channel": 0,
      "start_step": 170,
      "duration_steps": 2,
      "bar": 22,
      "position": 2,
      "track_index": 0,
      "track_name": "track_0",
      "is_drum": false,
      "harmony": "Bb:maj"
    },
    {
      "pitch": 70,
      "velocity": 49,
      "instrument": 0,
      "channel": 0,
      "start_step": 172,
      "duration_steps": 2,
      "bar": 22,
      "position": 4,
      "track_index": 0,
      "track_name": "track_0",
      "is_drum": false,
      "harmony": "Bb:maj"
    },
    {
      "pitch": 72,
      "velocity": 49,
      "instrument": 0,
      "channel": 0,
      "start_step": 174,
      "duration_steps": 2,
      "bar": 22,
      "position": 6,
      "track_index": 0,
      "track_name": "track_0",
      "is_drum": false,
      "harmony": "Bb:maj"
    },
    {
      "pitch": 84,
      "velocity": 49,
      "instrument": 0,
      "channel": 0,
      "start_step": 176,
      "duration_steps": 16,
      "bar": 23,
      "position": 0,
      "track_index": 0,
      "track_name": "track_0",
      "is_drum": false,
      "harmony": "C:min"
    },
    {
      "pitch": 84,
      "velocity": 49,
      "instrument": 0,
      "channel": 0,
      "start_step": 192,
      "duration_steps": 1,
      "bar": 25,
      "position": 0,
      "track_index": 0,
      "track_name": "track_0",
      "is_drum": false,
      "harmony": "C:min"
    },
    {
      "pitch": 82,
      "velocity": 49,
      "instrument": 0,
      "channel": 0,
      "start_step": 193,
      "duration_steps": 8,
      "bar": 25,
      "position": 1,
      "track_index": 0,
      "track_name": "track_0",
      "is_drum": false,
      "harmony": "Bb:maj"
    },
    {
      "pitch": 79,
      "velocity": 49,
      "instrument": 0,
      "channel": 0,
      "start_step": 201,
      "duration_steps": 2,
      "bar": 26,
      "position": 1,
      "track_index": 0,
      "track_name": "track_0",
      "is_drum": false,
      "harmony": "F:maj"
    },
    {
      "pitch": 79,
      "velocity": 49,
      "instrument": 0,
      "channel": 0,
      "start_step": 203,
      "duration_steps": 2,
      "bar": 26,
      "position": 3,
      "track_index": 0,
      "track_name": "track_0",
      "is_drum": false,
      "harmony": "F:maj"
    },
    {
      "pitch": 77,
      "velocity": 49,
      "instrument": 0,
      "channel": 0,
      "start_step": 205,
      "duration_steps": 2,
      "bar": 26,
      "position": 5,
      "track_index": 0,
      "track_name": "track_0",
      "is_drum": false,
      "harmony": "F:maj"
    },
    {
      "pitch": 77,
      "velocity": 49,
      "instrument": 0,
      "channel": 0,
      "start_step": 207,
      "duration_steps": 2,
      "bar": 26,
      "position": 7,
      "track_index": 0,
      "track_name": "track_0",
      "is_drum": false,
      "harmony": "F:maj"
    },
    {
      "pitch": 77,
      "velocity": 49,
      "instrument": 0,
      "channel": 0,
      "start_step": 209,
      "duration_steps": 2,
      "bar": 27,
      "position": 1,
      "track_index": 0,
      "track_name": "track_0",
      "is_drum": false,
      "harmony": "C:min"
    },
    {
      "pitch": 77,
      "velocity": 49,
      "instrument": 0,
      "channel": 0,
      "start_step": 211,
      "duration_steps": 2,
      "bar": 27,
      "position": 3,
      "track_index": 0,
      "track_name": "track_0",
      "is_drum": false,
      "harmony": "F:maj"
    },
    {
      "pitch": 77,
      "velocity": 49,
      "instrument": 0,
      "channel": 0,
      "start_step": 213,
      "duration_steps": 2,
      "bar": 27,
      "position": 5,
      "track_index": 0,
      "track_name": "track_0",
      "is_drum": false,
      "harmony": "F:maj"
    },
    {
      "pitch": 75,
      "velocity": 49,
      "instrument": 0,
      "channel": 0,
      "start_step": 215,
      "duration_steps": 2,
      "bar": 27,
      "position": 7,
      "track_index": 0,
      "track_name": "track_0",
      "is_drum": false,
      "harmony": "F:maj"
    },
    {
      "pitch": 75,
      "velocity": 49,
      "instrument": 0,
      "channel": 0,
      "start_step": 217,
      "duration_steps": 2,
      "bar": 28,
      "position": 1,
      "track_index": 0,
      "track_name": "track_0",
      "is_drum": false,
      "harmony": "F:maj"
    },
    {
      "pitch": 75,
      "velocity": 49,
      "instrument": 0,
      "channel": 0,
      "start_step": 219,
      "duration_steps": 2,
      "bar": 28,
      "position": 3,
      "track_index": 0,
      "track_name": "track_0",
      "is_drum": false,
      "harmony": "C:min"
    },
    {
      "pitch": 75,
      "velocity": 49,
      "instrument": 0,
      "channel": 0,
      "start_step": 221,
      "duration_steps": 2,
      "bar": 28,
      "position": 5,
      "track_index": 0,
      "track_name": "track_0",
      "is_drum": false,
      "harmony": "C:min"
    },
    {
      "pitch": 74,
      "velocity": 49,
      "instrument": 0,
      "channel": 0,
      "start_step": 223,
      "duration_steps": 2,
      "bar": 28,
      "position": 7,
      "track_index": 0,
      "track_name": "track_0",
      "is_drum": false,
      "harmony": "Bb:maj"
    },
    {
      "pitch": 65,
      "velocity": 49,
      "instrument": 0,
      "channel": 0,
      "start_step": 225,
      "duration_steps": 2,
      "bar": 29,
      "position": 1,
      "track_index": 0,
      "track_name": "track_0",
      "is_drum": false,
      "harmony": "D:min"
    },
    {
      "pitch": 65,
      "velocity": 49,
      "instrument": 0,
      "channel": 0,
      "start_step": 227,
      "duration_steps": 4,
      "bar": 29,
      "position": 3,
      "track_index": 1,
      "track_name": "track_1",
      "is_drum": false,
      "harmony": "F:maj"
    },
    {
      "pitch": 65,
      "velocity": 49,
      "instrument": 0,
      "channel": 0,
      "start_step": 231,
      "duration_steps": 2,
      "bar": 29,
      "position": 7,
      "track_index": 0,
      "track_name": "track_0",
      "is_drum": false,
      "harmony": "F:maj"
    },
    {
      "pitch": 65,
      "velocity": 49,
      "instrument": 0,
      "channel": 0,
      "start_step": 233,
      "duration_steps": 2,
      "bar": 30,
      "position": 1,
      "track_index": 0,
      "track_name": "track_0",
      "is_drum": false,
      "harmony": "F:maj"
    },
    {
      "pitch": 65,
      "velocity": 49,
      "instrument": 0,
      "channel": 0,
      "start_step": 235,
      "duration_steps": 2,
      "bar": 30,
      "position": 3,
      "track_index": 0,
      "track_name": "track_0",
      "is_drum": false,
      "harmony": "C:maj"
    },
    {
      "pitch": 65,
      "velocity": 49,
      "instrument": 0,
      "channel": 0,
      "start_step": 237,
      "duration_steps": 2,
      "bar": 30,
      "position": 5,
      "track_index": 0,
      "track_name": "track_0",
      "is_drum": false,
      "harmony": "C:maj"
    },
    {
      "pitch": 65,
      "velocity": 49,
      "instrument": 0,
      "channel": 0,
      "start_step": 239,
      "duration_steps": 2,
      "bar": 30,
      "position": 7,
      "track_index": 0,
      "track_name": "track_0",
      "is_drum": false,
      "harmony": "D:min"
    },
    {
      "pitch": 63,
      "velocity": 49,
      "instrument": 0,
      "channel": 0,
      "start_step": 241,
      "duration_steps": 4,
      "bar": 31,
      "position": 1,
      "track_index": 1,
      "track_name": "track_1",
      "is_drum": false,
      "harmony": "F:maj"
    },
    {
      "pitch": 63,
      "velocity": 49,
      "instrument": 0,
      "channel": 0,
      "start_step": 245,
      "duration_steps": 4,
      "bar": 31,
      "position": 5,
      "track_index": 1,
      "track_name": "track_1",
      "is_drum": false,
      "harmony": "F:maj"
    },
    {
      "pitch": 62,
      "velocity": 49,
      "instrument": 0,
      "channel": 0,
      "start_step": 249,
      "duration_steps": 4,
      "bar": 32,
      "position": 1,
      "track_index": 1,
      "track_name": "track_1",
      "is_drum": false,
      "harmony": "F:maj"
    },
    {
      "pitch": 62,
      "velocity": 49,
      "instrument": 0,
      "channel": 0,
      "start_step": 253,
      "duration_steps": 4,
      "bar": 32,
      "position": 5,
      "track_index": 1,
      "track_name": "track_1",
      "is_drum": false,
      "harmony": "F:maj"
    },
    {
      "pitch": 62,
      "velocity": 49,
      "instrument": 0,
      "channel": 0,
      "start_step": 257,
      "duration_steps": 4,
      "bar": 33,
      "position": 1,
      "track_index": 1,
      "track_name": "track_1",
      "is_drum": false,
      "harmony": "C:maj"
    },
    {
      "pitch": 60,
      "velocity": 49,
      "instrument": 0,
      "channel": 0,
      "start_step": 261,
      "duration_steps": 4,
      "bar": 33,
      "position": 5,
      "track_index": 1,
      "track_name": "track_1",
      "is_drum": false,
      "harmony": "F:maj"
    },
    {
      "pitch": 60,
      "velocity": 49,
      "instrument": 0,
      "channel": 0,
      "start_step": 265,
      "duration_steps": 4,
      "bar": 34,
      "position": 1,
      "track_index": 1,
      "track_name": "track_1",
      "is_drum": false,
      "harmony": "C:maj"
    },
    {
      "pitch": 58,
      "velocity": 49,
      "instrument": 0,
      "channel": 0,
      "start_step": 269,
      "duration_steps": 4,
      "bar": 34,
      "position": 5,
      "track_index": 1,
      "track_name": "track_1",
      "is_drum": false,
      "harmony": "C:maj"
    },
    {
      "pitch": 57,
      "velocity": 49,
      "instrument": 0,
      "channel": 0,
      "start_step": 273,
      "duration_steps": 4,
      "bar": 35,
      "position": 1,
      "track_index": 1,
      "track_name": "track_1",
      "is_drum": false,
      "harmony": "C:maj"
    },
    {
      "pitch": 53,
      "velocity": 49,
      "instrument": 0,
      "channel": 0,
      "start_step": 277,
      "duration_steps": 16,
      "bar": 35,
      "position": 5,
      "track_index": 1,
      "track_name": "track_1",
      "is_drum": false,
      "harmony": "F:maj"
    },
    {
      "pitch": 52,
      "velocity": 49,
      "instrument": 0,
      "channel": 0,
      "start_step": 293,
      "duration_steps": 8,
      "bar": 37,
      "position": 5,
      "track_index": 1,
      "track_name": "track_1",
      "is_drum": false,
      "harmony": "D:min"
    },
    {
      "pitch": 49,
      "velocity": 49,
      "instrument": 0,
      "channel": 0,
      "start_step": 301,
      "duration_steps": 8,
      "bar": 38,
      "position": 5,
      "track_index": 1,
      "track_name": "track_1",
      "is_drum": false,
      "harmony": "D:min"
    },
    {
      "pitch": 46,
      "velocity": 49,
      "instrument": 0,
      "channel": 0,
      "start_step": 309,
      "duration_steps": 16,
      "bar": 39,
      "position": 5,
      "track_index": 1,
      "track_name": "track_1",
      "is_drum": false,
      "harmony": "D:min"
    },
    {
      "pitch": 67,
      "velocity": 49,
      "instrument": 0,
      "channel": 0,
      "start_step": 325,
      "duration_steps": 4,
      "bar": 41,
      "position": 5,
      "track_index": 1,
      "track_name": "track_1",
      "is_drum": false,
      "harmony": "F:maj"
    },
    {
      "pitch": 67,
      "velocity": 49,
      "instrument": 0,
      "channel": 0,
      "start_step": 329,
      "duration_steps": 2,
      "bar": 42,
      "position": 1,
      "track_index": 0,
      "track_name": "track_0",
      "is_drum": false,
      "harmony": "D:min"
    },
    {
      "pitch": 69,
      "velocity": 49,
      "instrument": 0,
      "channel": 0,
      "start_step": 331,
      "duration_steps": 2,
      "bar": 42,
      "position": 3,
      "track_index": 0,
      "track_name": "track_0",
      "is_drum": false,
      "harmony": "F:maj"
    },
    {
      "pitch": 70,
      "velocity": 49,
      "instrument": 0,
      "channel": 0,
      "start_step": 333,
      "duration_steps": 2,
      "bar": 42,
      "position": 5,
      "track_index": 0,
      "track_name": "track_0",
      "is_drum": false,
      "harmony": "F:maj"
    },
    {
      "pitch": 70,
      "velocity": 49,
      "instrument": 0,
      "channel": 0,
      "start_step": 335,
      "duration_steps": 2,
      "bar": 42,
      "position": 7,
      "track_index": 0,
      "track_name": "track_0",
      "is_drum": false,
      "harmony": "F:maj"
    },
    {
      "pitch": 70,
      "velocity": 49,
      "instrument": 0,
      "channel": 0,
      "start_step": 337,
      "duration_steps": 2,
      "bar": 43,
      "position": 1,
      "track_index": 0,
      "track_name": "track_0",
      "is_drum": false,
      "harmony": "F:maj"
    },
    {
      "pitch": 70,
      "velocity": 49,
      "instrument": 0,
      "channel": 0,
      "start_step": 339,
      "duration_steps": 2,
      "bar": 43,
      "position": 3,
      "track_index": 0,
      "track_name": "track_0",
      "is_drum": false,
      "harmony": "C:maj"
    },
    {
      "pitch": 72,
      "velocity": 49,
      "instrument": 0,
      "channel": 0,
      "start_step": 341,
      "duration_steps": 1,
      "bar": 43,
      "position": 5,
      "track_index": 0,
      "track_name": "track_0",
      "is_drum": false,
      "harmony": "C:maj"
    },
    {
      "pitch": 72,
      "velocity": 49,
      "instrument": 0,
      "channel": 0,
      "start_step": 342,
      "duration_steps": 4,
      "bar": 43,
      "position": 6,
      "track_index": 0,
      "track_name": "track_0",
      "is_drum": false,
      "harmony": "C:maj"
    },
    {
      "pitch": 74,
      "velocity": 49,
      "instrument": 0,
      "channel": 0,
      "start_step": 346,
      "duration_steps": 4,
      "bar": 44,
      "position": 2,
      "track_index": 0,
      "track_name": "track_0",
      "is_drum": false,
      "harmony": "C:maj"
    },
    {
      "pitch": 74,
      "velocity": 49,
      "instrument": 0,
      "channel": 0,
      "start_step": 350,
      "duration_steps": 1,
      "bar": 44,
      "position": 6,
      "track_index": 0,
      "track_name": "track_0",
      "is_drum": false,
      "harmony": "D:min"
    },
    {
      "pitch": 74,
      "velocity": 49,
      "instrument": 0,
      "channel": 0,
      "start_step": 351,
      "duration_steps": 16,
      "bar": 44,
      "position": 7,
      "track_index": 0,
      "track_name": "track_0",
      "is_drum": false,
      "harmony": "D:min"
    },
    {
      "pitch": 75,
      "velocity": 49,
      "instrument": 0,
      "channel": 0,
      "start_step": 367,
      "duration_steps": 4,
      "bar": 46,
      "position": 7,
      "track_index": 0,
      "track_name": "track_0",
      "is_drum": false,
      "harmony": "F:maj"
    },
    {
      "pitch": 77,
      "velocity": 49,
      "instrument": 0,
      "channel": 0,
      "start_step": 371,
      "duration_steps": 1,
      "bar": 47,
      "position": 3,
      "track_index": 0,
      "track_name": "track_0",
      "is_drum": false,
      "harmony": "F:maj"
    },
    {
      "pitch": 77,
      "velocity": 49,
      "instrument": 0,
      "channel": 0,
      "start_step": 372,
      "duration_steps": 4,
      "bar": 47,
      "position": 4,
      "track_index": 0,
      "track_name": "track_0",
      "is_drum": false,
      "harmony": "F:maj"
    },
    {
      "pitch": 77,
      "velocity": 49,
      "instrument": 0,
      "channel": 0,
      "start_step": 376,
      "duration_steps": 4,
      "bar": 48,
      "position": 0,
      "track_index": 0,
      "track_name": "track_0",
      "is_drum": false,
      "harmony": "F:maj"
    },
    {
      "pitch": 79,
      "velocity": 49,
      "instrument": 0,
      "channel": 0,
      "start_step": 380,
      "duration_steps": 1,
      "bar": 48,
      "position": 4,
      "track_index": 0,
      "track_name": "track_0",
      "is_drum": false,
      "harmony": "F:maj"
    },
    {
      "pitch": 79,
      "velocity": 49,
      "instrument": 0,
      "channel": 0,
      "start_step": 381,
      "duration_steps": 4,
      "bar": 48,
      "position": 5,
      "track_index": 0,
      "track_name": "track_0",
      "is_drum": false,
      "harmony": "F:maj"
    },
    {
      "pitch": 72,
      "velocity": 49,
      "instrument": 0,
      "channel": 0,
      "start_step": 385,
      "duration_steps": 16,
      "bar": 49,
      "position": 1,
      "track_index": 0,
      "track_name": "track_0",
      "is_drum": false,
      "harmony": "C:min"
    },
    {
      "pitch": 72,
      "velocity": 49,
      "instrument": 0,
      "channel": 0,
      "start_step": 401,
      "duration_steps": 1,
      "bar": 51,
      "position": 1,
      "track_index": 0,
      "track_name": "track_0",
      "is_drum": false,
      "harmony": "C:min"
    },
    {
      "pitch": 70,
      "velocity": 49,
      "instrument": 0,
      "channel": 0,
      "start_step": 402,
      "duration_steps": 8,
      "bar": 51,
      "position": 2,
      "track_index": 0,
      "track_name": "track_0",
      "is_drum": false,
      "harmony": "Bb:maj"
    },
    {
      "pitch": 67,
      "velocity": 49,
      "instrument": 0,
      "channel": 0,
      "start_step": 410,
      "duration_steps": 2,
      "bar": 52,
      "position": 2,
      "track_index": 0,
      "track_name": "track_0",
      "is_drum": false,
      "harmony": "F:maj"
    },
    {
      "pitch": 67,
      "velocity": 49,
      "instrument": 0,
      "channel": 0,
      "start_step": 412,
      "duration_steps": 2,
      "bar": 52,
      "position": 4,
      "track_index": 0,
      "track_name": "track_0",
      "is_drum": false,
      "harmony": "F:maj"
    },
    {
      "pitch": 65,
      "velocity": 49,
      "instrument": 0,
      "channel": 0,
      "start_step": 414,
      "duration_steps": 2,
      "bar": 52,
      "position": 6,
      "track_index": 0,
      "track_name": "track_0",
      "is_drum": false,
      "harmony": "F:maj"
    },
    {
      "pitch": 65,
      "velocity": 49,
      "instrument": 0,
      "channel": 0,
      "start_step": 416,
      "duration_steps": 2,
      "bar": 53,
      "position": 0,
      "track_index": 0,
      "track_name": "track_0",
      "is_drum": false,
      "harmony": "F:maj"
    },
    {
      "pitch": 65,
      "velocity": 49,
      "instrument": 0,
      "channel": 0,
      "start_step": 418,
      "duration_steps": 2,
      "bar": 53,
      "position": 2,
      "track_index": 0,
      "track_name": "track_0",
      "is_drum": false,
      "harmony": "C:min"
    },
    {
      "pitch": 65,
      "velocity": 49,
      "instrument": 0,
      "channel": 0,
      "start_step": 420,
      "duration_steps": 2,
      "bar": 53,
      "position": 4,
      "track_index": 0,
      "track_name": "track_0",
      "is_drum": false,
      "harmony": "F:maj"
    },
    {
      "pitch": 65,
      "velocity": 49,
      "instrument": 0,
      "channel": 0,
      "start_step": 422,
      "duration_steps": 2,
      "bar": 53,
      "position": 6,
      "track_index": 0,
      "track_name": "track_0",
      "is_drum": false,
      "harmony": "F:maj"
    },
    {
      "pitch": 46,
      "velocity": 49,
      "instrument": 0,
      "channel": 0,
      "start_step": 424,
      "duration_steps": 16,
      "bar": 54,
      "position": 0,
      "track_index": 1,
      "track_name": "track_1",
      "is_drum": false,
      "harmony": "Bb:maj"
    },
    {
      "pitch": 46,
      "velocity": 49,
      "instrument": 0,
      "channel": 0,
      "start_step": 440,
      "duration_steps": 1,
      "bar": 56,
      "position": 0,
      "track_index": 1,
      "track_name": "track_1",
      "is_drum": false,
      "harmony": "Bb:maj"
    },
    {
      "pitch": 46,
      "velocity": 49,
      "instrument": 0,
      "channel": 0,
      "start_step": 441,
      "duration_steps": 16,
      "bar": 56,
      "position": 1,
      "track_index": 1,
      "track_name": "track_1",
      "is_drum": false,
      "harmony": "C:min"
    },
    {
      "pitch": 50,
      "velocity": 49,
      "instrument": 0,
      "channel": 0,
      "start_step": 457,
      "duration_steps": 4,
      "bar": 58,
      "position": 1,
      "track_index": 1,
      "track_name": "track_1",
      "is_drum": false,
      "harmony": "Bb:maj"
    },
    {
      "pitch": 50,
      "velocity": 49,
      "instrument": 0,
      "channel": 0,
      "start_step": 461,
      "duration_steps": 4,
      "bar": 58,
      "position": 5,
      "track_index": 1,
      "track_name": "track_1",
      "is_drum": false,
      "harmony": "F:maj"
    },
    {
      "pitch": 53,
      "velocity": 49,
      "instrument": 0,
      "channel": 0,
      "start_step": 465,
      "duration_steps": 4,
      "bar": 59,
      "position": 1,
      "track_index": 1,
      "track_name": "track_1",
      "is_drum": false,
      "harmony": "Bb:maj"
    },
    {
      "pitch": 53,
      "velocity": 49,
      "instrument": 0,
      "channel": 0,
      "start_step": 469,
      "duration_steps": 4,
      "bar": 59,
      "position": 5,
      "track_index": 1,
      "track_name": "track_1",
      "is_drum": false,
      "harmony": "F:maj"
    },
    {
      "pitch": 53,
      "velocity": 49,
      "instrument": 0,
      "channel": 0,
      "start_step": 473,
      "duration_steps": 4,
      "bar": 60,
      "position": 1,
      "track_index": 1,
      "track_name": "track_1",
      "is_drum": false,
      "harmony": "F:maj"
    },
    {
      "pitch": 54,
      "velocity": 49,
      "instrument": 0,
      "channel": 0,
      "start_step": 477,
      "duration_steps": 8,
      "bar": 60,
      "position": 5,
      "track_index": 1,
      "track_name": "track_1",
      "is_drum": false,
      "harmony": "C:min"
    },
    {
      "pitch": 57,
      "velocity": 49,
      "instrument": 0,
      "channel": 0,
      "start_step": 485,
      "duration_steps": 12,
      "bar": 61,
      "position": 5,
      "track_index": 1,
      "track_name": "track_1",
      "is_drum": false,
      "harmony": "C:min"
    },
    {
      "pitch": 58,
      "velocity": 49,
      "instrument": 0,
      "channel": 0,
      "start_step": 497,
      "duration_steps": 2,
      "bar": 63,
      "position": 1,
      "track_index": 0,
      "track_name": "track_0",
      "is_drum": false,
      "harmony": "Bb:maj"
    },
    {
      "pitch": 58,
      "velocity": 49,
      "instrument": 0,
      "channel": 0,
      "start_step": 499,
      "duration_steps": 2,
      "bar": 63,
      "position": 3,
      "track_index": 0,
      "track_name": "track_0",
      "is_drum": false,
      "harmony": "Bb:maj"
    },
    {
      "pitch": 60,
      "velocity": 49,
      "instrument": 0,
      "channel": 0,
      "start_step": 501,
      "duration_steps": 2,
      "bar": 63,
      "position": 5,
      "track_index": 0,
      "track_name": "track_0",
      "is_drum": false,
      "harmony": "Bb:maj"
    },
    {
      "pitch": 62,
      "velocity": 49,
      "instrument": 0,
      "channel": 0,
      "start_step": 503,
      "duration_steps": 2,
      "bar": 63,
      "position": 7,
      "track_index": 0,
      "track_name": "track_0",
      "is_drum": false,
      "harmony": "Bb:maj"
    },
    {
      "pitch": 63,
      "velocity": 49,
      "instrument": 0,
      "channel": 0,
      "start_step": 505,
      "duration_steps": 2,
      "bar": 64,
      "position": 1,
      "track_index": 0,
      "track_name": "track_0",
      "is_drum": false,
      "harmony": "F:maj"
    },
    {
      "pitch": 63,
      "velocity": 49,
      "instrument": 0,
      "channel": 0,
      "start_step": 507,
      "duration_steps": 2,
      "bar": 64,
      "position": 3,
      "track_index": 0,
      "track_name": "track_0",
      "is_drum": false,
      "harmony": "F:maj"
    },
    {
      "pitch": 63,
      "velocity": 49,
      "instrument": 0,
      "channel": 0,
      "start_step": 509,
      "duration_steps": 2,
      "bar": 64,
      "position": 5,
      "track_index": 0,
      "track_name": "track_0",
      "is_drum": false,
      "harmony": "C:min"
    },
    {
      "pitch": 63,
      "velocity": 49,
      "instrument": 0,
      "channel": 0,
      "start_step": 511,
      "duration_steps": 2,
      "bar": 64,
      "position": 7,
      "track_index": 0,
      "track_name": "track_0",
      "is_drum": false,
      "harmony": "C:min"
    },
    {
      "pitch": 53,
      "velocity": 49,
      "instrument": 0,
      "channel": 0,
      "start_step": 513,
      "duration_steps": 2,
      "bar": 65,
      "position": 1,
      "track_index": 0,
      "track_name": "track_0",
      "is_drum": false,
      "harmony": "C:min"
    },
    {
      "pitch": 53,
      "velocity": 49,
      "instrument": 0,
      "channel": 0,
      "start_step": 515,
      "duration_steps": 4,
      "bar": 65,
      "position": 3,
      "track_index": 1,
      "track_name": "track_1",
      "is_drum": false,
      "harmony": "F:maj"
    },
    {
      "pitch": 53,
      "velocity": 49,
      "instrument": 0,
      "channel": 0,
      "start_step": 519,
      "duration_steps": 2,
      "bar": 65,
      "position": 7,
      "track_index": 0,
      "track_name": "track_0",
      "is_drum": false,
      "harmony": "F:maj"
    },
    {
      "pitch": 53,
      "velocity": 49,
      "instrument": 0,
      "channel": 0,
      "start_step": 521,
      "duration_steps": 2,
      "bar": 66,
      "position": 1,
      "track_index": 0,
      "track_name": "track_0",
      "is_drum": false,
      "harmony": "F:maj"
    },
    {
      "pitch": 51,
      "velocity": 49,
      "instrument": 0,
      "channel": 0,
      "start_step": 523,
      "duration_steps": 4,
      "bar": 66,
      "position": 3,
      "track_index": 1,
      "track_name": "track_1",
      "is_drum": false,
      "harmony": "F:maj"
    },
    {
      "pitch": 51,
      "velocity": 49,
      "instrument": 0,
      "channel": 0,
      "start_step": 527,
      "duration_steps": 4,
      "bar": 66,
      "position": 7,
      "track_index": 1,
      "track_name": "track_1",
      "is_drum": false,
      "harmony": "F:maj"
    },
    {
      "pitch": 51,
      "velocity": 49,
      "instrument": 0,
      "channel": 0,
      "start_step": 531,
      "duration_steps": 2,
      "bar": 67,
      "position": 3,
      "track_index": 0,
      "track_name": "track_0",
      "is_drum": false,
      "harmony": "C:min"
    },
    {
      "pitch": 50,
      "velocity": 49,
      "instrument": 0,
      "channel": 0,
      "start_step": 533,
      "duration_steps": 4,
      "bar": 67,
      "position": 5,
      "track_index": 1,
      "track_name": "track_1",
      "is_drum": false,
      "harmony": "F:maj"
    },
    {
      "pitch": 50,
      "velocity": 49,
      "instrument": 0,
      "channel": 0,
      "start_step": 537,
      "duration_steps": 4,
      "bar": 68,
      "position": 1,
      "track_index": 1,
      "track_name": "track_1",
      "is_drum": false,
      "harmony": "F:maj"
    },
    {
      "pitch": 50,
      "velocity": 49,
      "instrument": 0,
      "channel": 0,
      "start_step": 541,
      "duration_steps": 4,
      "bar": 68,
      "position": 5,
      "track_index": 1,
      "track_name": "track_1",
      "is_drum": false,
      "harmony": "C:min"
    },
    {
      "pitch": 48,
      "velocity": 49,
      "instrument": 0,
      "channel": 0,
      "start_step": 545,
      "duration_steps": 4,
      "bar": 69,
      "position": 1,
      "track_index": 1,
      "track_name": "track_1",
      "is_drum": false,
      "harmony": "F:maj"
    },
    {
      "pitch": 48,
      "velocity": 49,
      "instrument": 0,
      "channel": 0,
      "start_step": 549,
      "duration_steps": 4,
      "bar": 69,
      "position": 5,
      "track_index": 1,
      "track_name": "track_1",
      "is_drum": false,
      "harmony": "C:min"
    },
    {
      "pitch": 46,
      "velocity": 49,
      "instrument": 0,
      "channel": 0,
      "start_step": 553,
      "duration_steps": 4,
      "bar": 70,
      "position": 1,
      "track_index": 1,
      "track_name": "track_1",
      "is_drum": false,
      "harmony": "C:min"
    },
    {
      "pitch": 45,
      "velocity": 49,
      "instrument": 0,
      "channel": 0,
      "start_step": 557,
      "duration_steps": 4,
      "bar": 70,
      "position": 5,
      "track_index": 1,
      "track_name": "track_1",
      "is_drum": false,
      "harmony": "C:min"
    },
    {
      "pitch": 41,
      "velocity": 49,
      "instrument": 0,
      "channel": 0,
      "start_step": 561,
      "duration_steps": 16,
      "bar": 71,
      "position": 1,
      "track_index": 1,
      "track_name": "track_1",
      "is_drum": false,
      "harmony": "F:maj"
    },
    {
      "pitch": 34,
      "velocity": 49,
      "instrument": 0,
      "channel": 0,
      "start_step": 577,
      "duration_steps": 6,
      "bar": 73,
      "position": 1,
      "track_index": 1,
      "track_name": "track_1",
      "is_drum": false,
      "harmony": "Bb:maj"
    },
    {
      "pitch": 55,
      "velocity": 49,
      "instrument": 0,
      "channel": 0,
      "start_step": 583,
      "duration_steps": 4,
      "bar": 73,
      "position": 7,
      "track_index": 1,
      "track_name": "track_1",
      "is_drum": false,
      "harmony": "F:maj"
    },
    {
      "pitch": 57,
      "velocity": 49,
      "instrument": 0,
      "channel": 0,
      "start_step": 587,
      "duration_steps": 2,
      "bar": 74,
      "position": 3,
      "track_index": 0,
      "track_name": "track_0",
      "is_drum": false,
      "harmony": "F:maj"
    },
    {
      "pitch": 58,
      "velocity": 49,
      "instrument": 0,
      "channel": 0,
      "start_step": 589,
      "duration_steps": 2,
      "bar": 74,
      "position": 5,
      "track_index": 0,
      "track_name": "track_0",
      "is_drum": false,
      "harmony": "F:maj"
    },
    {
      "pitch": 58,
      "velocity": 49,
      "instrument": 0,
      "channel": 0,
      "start_step": 591,
      "duration_steps": 2,
      "bar": 74,
      "position": 7,
      "track_index": 0,
      "track_name": "track_0",
      "is_drum": false,
      "harmony": "F:maj"
    },
    {
      "pitch": 58,
      "velocity": 49,
      "instrument": 0,
      "channel": 0,
      "start_step": 593,
      "duration_steps": 2,
      "bar": 75,
      "position": 1,
      "track_index": 0,
      "track_name": "track_0",
      "is_drum": false,
      "harmony": "F:maj"
    },
    {
      "pitch": 58,
      "velocity": 49,
      "instrument": 0,
      "channel": 0,
      "start_step": 595,
      "duration_steps": 2,
      "bar": 75,
      "position": 3,
      "track_index": 0,
      "track_name": "track_0",
      "is_drum": false,
      "harmony": "C:min"
    },
    {
      "pitch": 60,
      "velocity": 49,
      "instrument": 0,
      "channel": 0,
      "start_step": 597,
      "duration_steps": 1,
      "bar": 75,
      "position": 5,
      "track_index": 0,
      "track_name": "track_0",
      "is_drum": false,
      "harmony": "C:min"
    },
    {
      "pitch": 60,
      "velocity": 49,
      "instrument": 0,
      "channel": 0,
      "start_step": 598,
      "duration_steps": 4,
      "bar": 75,
      "position": 6,
      "track_index": 0,
      "track_name": "track_0",
      "is_drum": false,
      "harmony": "C:min"
    },
    {
      "pitch": 62,
      "velocity": 49,
      "instrument": 0,
      "channel": 0,
      "start_step": 602,
      "duration_steps": 4,
      "bar": 76,
      "position": 2,
      "track_index": 0,
      "track_name": "track_0",
      "is_drum": false,
      "harmony": "C:min"
    },
    {
      "pitch": 63,
      "velocity": 49,
      "instrument": 0,
      "channel": 0,
      "start_step": 606,
      "duration_steps": 4,
      "bar": 76,
      "position": 6,
      "track_index": 0,
      "track_name": "track_0",
      "is_drum": false,
      "harmony": "F:maj"
    },
    {
      "pitch": 65,
      "velocity": 49,
      "instrument": 0,
      "channel": 0,
      "start_step": 610,
      "duration_steps": 1,
      "bar": 77,
      "position": 2,
      "track_index": 0,
      "track_name": "track_0",
      "is_drum": false,
      "harmony": "F:maj"
    },
    {
      "pitch": 65,
      "velocity": 49,
      "instrument": 0,
      "channel": 0,
      "start_step": 611,
      "duration_steps": 4,
      "bar": 77,
      "position": 3,
      "track_index": 0,
      "track_name": "track_0",
      "is_drum": false,
      "harmony": "F:maj"
    },
    {
      "pitch": 65,
      "velocity": 49,
      "instrument": 0,
      "channel": 0,
      "start_step": 615,
      "duration_steps": 4,
      "bar": 77,
      "position": 7,
      "track_index": 0,
      "track_name": "track_0",
      "is_drum": false,
      "harmony": "F:maj"
    },
    {
      "pitch": 67,
      "velocity": 49,
      "instrument": 0,
      "channel": 0,
      "start_step": 619,
      "duration_steps": 1,
      "bar": 78,
      "position": 3,
      "track_index": 0,
      "track_name": "track_0",
      "is_drum": false,
      "harmony": "F:maj"
    },
    {
      "pitch": 67,
      "velocity": 49,
      "instrument": 0,
      "channel": 0,
      "start_step": 620,
      "duration_steps": 4,
      "bar": 78,
      "position": 4,
      "track_index": 0,
      "track_name": "track_0",
      "is_drum": false,
      "harmony": "F:maj"
    }
  ],
  "phrase_boundaries": [
    1,
    13,
    29,
    49,
    65
  ],
  "source_path": "Beethoven/Piano_Sonatas/26-1/midi_score.mid",
  "metadata": {
    "ticks_per_beat": 480,
    "midi_format": 1,
    "time_signature_changes": 3,
    "tempo_changes": 3,
    "cadence_bars": [
      11,
      22,
      37,
      43,
      117,
      128,
      143,
      149,
      223,
      237,
      241,
      256,
      271,
      285,
      297,
      301,
      303,
      305,
      314,
      329,
      335,
      377,
      385,
      386,
      389,
      390,
      393,
      394,
      397,
      398,
      400,
      401,
      403,
      404,
      469,
      473,
      483,
      484,
      487,
      491,
      492,
      495,
      496,
      499,
      500,
      504,
      507,
      508,
      511,
      515,
      516,
      519,
      520,
      523,
      524,
      528,
      532,
      535,
      539,
      547,
      550,
      552,
      554,
      556,
      558,
      559,
      560,
      561,
      562,
      563,
      564,
      565,
      566,
      568,
      570,
      572,
      575,
      579,
      580,
      581,
      583,
      585,
      587,
      588,
      589,
      591,
      592,
      599
    ],
    "global_harmony_vocab": {
      "unknown": 0,
      "C:maj": 1,
      "C#:maj": 2,
      "D:maj": 3,
      "Eb:maj": 4,
      "E:maj": 5,
      "F:maj": 6,
      "F#:maj": 7,
      "G:maj": 8,
      "Ab:maj": 9,
      "A:maj": 10,
      "Bb:maj": 11,
      "B:maj": 12,
      "C:min": 13,
      "C#:min": 14,
      "D:min": 15,
      "Eb:min": 16,
      "E:min": 17,
      "F:min": 18,
      "F#:min": 19,
      "G:min": 20,
      "Ab:min": 21,
      "A:min": 22,
      "Bb:min": 23,
      "B:min": 24
    },
    "dataset_kind": "asap",
    "dataset_source_mode": "score",
    "asap_piece_group": "beethoven::piano_sonatas_26_1",
    "composer": "Beethoven",
    "title": "Piano_Sonatas_26-1",
    "folder": "Beethoven/Piano_Sonatas/26-1",
    "xml_score": "Beethoven/Piano_Sonatas/26-1/xml_score.musicxml",
    "midi_score": "Beethoven/Piano_Sonatas/26-1/midi_score.mid",
    "midi_performance": "Beethoven/Piano_Sonatas/26-1/Ali02.mid",
    "annotated_primary_time_signature": "2/4",
    "annotated_key_signature_tonic": 3,
    "annotated_key_signature_accidentals": -3,
    "annotated_beat_count": 1197,
    "annotated_downbeat_count": 308,
    "score_and_performance_aligned": true,
    "source_piece_id": "beethoven__piano_sonatas__26_1__midi_score",
    "slice_start_event": 672,
    "slice_event_count": 144,
    "benchmark_hack_transformed": true
  },
  "key": "Bb:major",
  "chords": [
    "Eb:maj",
    "C:min",
    "C:maj",
    "G:maj",
    "G:maj",
    "Bb:maj",
    "Bb:maj",
    "B:maj",
    "F#:maj",
    "Bb:min",
    "Eb:maj",
    "Bb:maj",
    "Bb:maj",
    "F:min",
    "Ab:min",
    "Ab:maj",
    "Ab:maj",
    "G:maj",
    "G:min",
    "F:min",
    "Ab:maj",
    "Eb:maj",
    "F:maj",
    "Bb:maj",
    "G:min",
    "Bb:maj",
    "Bb:maj",
    "Bb:maj",
    "Bb:maj",
    "G:min",
    "D:min",
    "Bb:maj",
    "Bb:maj",
    "Bb:maj",
    "Bb:maj",
    "Bb:maj",
    "Eb:maj",
    "G:min",
    "E:maj",
    "C:min",
    "Bb:maj",
    "C:min",
    "Eb:maj",
    "G:min",
    "D:min",
    "G:min",
    "D:min",
    "C:min",
    "G:maj",
    "C:min",
    "C:maj",
    "C:maj",
    "C:min",
    "F:maj",
    "Eb:min",
    "A:maj",
    "C:min",
    "F:maj",
    "E:min",
    "A:maj",
    "C:maj",
    "A:maj",
    "F:maj",
    "A:maj",
    "F:maj",
    "F:maj",
    "F:maj",
    "F:maj",
    "C:maj",
    "A:maj",
    "F:maj",
    "A:maj",
    "F:maj",
    "F:maj",
    "F:maj",
    "C:min",
    "F:maj",
    "C:min",
    "F:maj",
    "C:min",
    "F:maj",
    "C:min",
    "D:min",
    "F:maj",
    "C:min",
    "F:maj",
    "Bb:maj",
    "F:maj",
    "F:maj",
    "C:maj",
    "D:min",
    "F:maj",
    "C:min",
    "F:maj",
    "Bb:maj",
    "F:maj",
    "F:maj",
    "C:min",
    "Bb:maj",
    "Bb:maj",
    "F:maj",
    "C:min",
    "Bb:maj",
    "Bb:maj",
    "F:maj",
    "C:min",
    "Bb:maj",
    "F:maj",
    "D:min",
    "D:maj",
    "F:maj",
    "D:min",
    "D:maj",
    "Bb:maj",
    "F:min",
    "unknown",
    "Eb:maj",
    "unknown",
    "F:maj",
    "unknown",
    "C#:maj",
    "unknown",
    "Ab:maj",
    "G:maj",
    "G:min",
    "F:min",
    "Ab:maj",
    "Eb:maj",
    "F:maj",
    "Bb:maj",
    "G:min",
    "Bb:maj",
    "Bb:maj",
    "Bb:maj",
    "Bb:maj",
    "G:min",
    "D:min",
    "Bb:maj",
    "Bb:maj",
    "Bb:maj",
    "Bb:maj",
    "Bb:maj",
    "Eb:maj",
    "G:min",
    "E:maj",
    "C:min",
    "Bb:maj",
    "C:min",
    "Eb:maj",
    "G:min",
    "D:min",
    "G:min",
    "D:min",
    "C:min",
    "G:maj",
    "C:min",
    "C:maj",
    "C:maj",
    "C:min",
    "F:maj",
    "Eb:min",
    "A:maj",
    "C:min",
    "F:maj",
    "E:min",
    "A:maj",
    "C:maj",
    "A:maj",
    "F:maj",
    "A:maj",
    "F:maj",
    "F:maj",
    "F:maj",
    "F:maj",
    "C:maj",
    "A:maj",
    "F:maj",
    "A:maj",
    "F:maj",
    "F:maj",
    "F:maj",
    "C:min",
    "F:maj",
    "C:min",
    "F:maj",
    "C:min",
    "F:maj",
    "C:min",
    "D:min",
    "F:maj",
    "C:min",
    "F:maj",
    "Bb:maj",
    "F:maj",
    "F:maj",
    "C:maj",
    "D:min",
    "F:maj",
    "C:min",
    "F:maj",
    "Bb:maj",
    "F:maj",
    "F:maj",
    "C:min",
    "Bb:maj",
    "Bb:maj",
    "F:maj",
    "C:min",
    "Bb:maj",
    "Bb:maj",
    "F:maj",
    "C:min",
    "Bb:maj",
    "F:maj",
    "D:min",
    "D:maj",
    "F:maj",
    "D:min",
    "D:maj",
    "Bb:maj",
    "F:min",
    "unknown",
    "Eb:maj",
    "unknown",
    "F:maj",
    "unknown",
    "Ab:maj",
    "unknown",
    "G:maj",
    "D:maj",
    "C:maj",
    "C:min",
    "C:min",
    "G:maj",
    "F:maj",
    "unknown",
    "Eb:maj",
    "unknown",
    "F#:min",
    "F#:min",
    "Eb:maj",
    "C#:maj",
    "C#:maj",
    "unknown",
    "C:maj",
    "unknown",
    "D:maj",
    "A:min",
    "C:maj",
    "D:maj",
    "C:maj",
    "unknown",
    "B:maj",
    "unknown",
    "Eb:min",
    "Eb:maj",
    "B:maj",
    "F#:maj",
    "B:maj",
    "unknown",
    "Bb:maj",
    "unknown",
    "F:min",
    "F:maj",
    "D:min",
    "F:min",
    "F:min",
    "F:maj",
    "D:min",
    "D:maj",
    "Eb:maj",
    "F:min",
    "C#:maj",
    "C#:maj",
    "F#:maj",
    "F#:maj",
    "Ab:min",
    "C#:maj",
    "Ab:min",
    "D:min",
    "G:maj",
    "C:min",
    "F:maj",
    "B:min",
    "Eb:maj",
    "C:maj",
    "D:min",
    "C:maj",
    "C:min",
    "C:maj",
    "D:min",
    "C:maj",
    "C:min",
    "C:maj",
    "C:min",
    "C:maj",
    "Eb:maj",
    "C:maj",
    "D:maj",
    "B:maj",
    "Eb:maj",
    "C:maj",
    "Eb:maj",
    "C:maj",
    "Eb:maj",
    "C:maj",
    "Ab:maj",
    "Ab:maj",
    "Ab:maj",
    "G:maj",
    "G:min",
    "F:min",
    "Ab:maj",
    "Eb:maj",
    "F:maj",
    "Bb:maj",
    "G:min",
    "Bb:maj",
    "Bb:maj",
    "Bb:maj",
    "Bb:maj",
    "G:min",
    "D:min",
    "Bb:maj",
    "Bb:maj",
    "Bb:maj",
    "Bb:maj",
    "Bb:maj",
    "Eb:maj",
    "G:min",
    "E:maj",
    "C:min",
    "Bb:maj",
    "C:min",
    "Eb:maj",
    "G:min",
    "F:min",
    "D:maj",
    "D:min",
    "C:maj",
    "Bb:maj",
    "Bb:maj",
    "F:min",
    "Bb:maj",
    "Ab:min",
    "D:maj",
    "F:min",
    "Bb:maj",
    "C:min",
    "D:maj",
    "F:maj",
    "D:maj",
    "Bb:maj",
    "E:maj",
    "Bb:maj",
    "Bb:maj",
    "Bb:maj",
    "Bb:maj",
    "F:maj",
    "D:maj",
    "Bb:maj",
    "E:maj",
    "Bb:maj",
    "Bb:maj",
    "Bb:maj",
    "F:min",
    "Bb:maj",
    "F:min",
    "Bb:maj",
    "C:maj",
    "Bb:maj",
    "F:min",
    "G:min",
    "Bb:maj",
    "F:min",
    "Bb:maj",
    "Eb:maj",
    "C:min",
    "Bb:maj",
    "F:min",
    "G:min",
    "Bb:maj",
    "F:min",
    "Bb:maj",
    "Eb:maj",
    "Eb:maj",
    "Bb:maj",
    "Bb:maj",
    "Eb:maj",
    "Eb:maj",
    "Bb:maj",
    "F:min",
    "Eb:maj",
    "Eb:maj",
    "Bb:maj",
    "F:min",
    "Eb:maj",
    "Eb:maj",
    "G:min",
    "Eb:maj",
    "Eb:maj",
    "G:min",
    "Eb:maj",
    "Eb:maj",
    "C#:maj",
    "unknown",
    "C:maj",
    "unknown",
    "Bb:maj",
    "unknown",
    "C#:maj",
    "unknown",
    "C:maj",
    "C#:maj",
    "C#:maj",
    "C:min",
    "Bb:min",
    "F:min",
    "F:maj",
    "F:min",
    "G:maj",
    "C:maj",
    "C:maj",
    "C:maj",
    "C:maj",
    "C:maj",
    "C:maj",
    "Ab:maj",
    "E:min",
    "C:maj",
    "C:maj",
    "C:maj",
    "C:maj",
    "C:maj",
    "C:maj",
    "Ab:maj",
    "D:min",
    "Bb:maj",
    "Bb:maj",
    "Bb:maj",
    "Bb:maj",
    "Bb:maj",
    "Bb:maj",
    "F#:maj",
    "D:min",
    "Bb:maj",
    "Bb:maj",
    "Bb:maj",
    "Bb:maj",
    "B:maj",
    "B:maj",
    "unknown",
    "Bb:maj",
    "unknown",
    "B:maj",
    "unknown",
    "Bb:maj",
    "unknown",
    "C:maj",
    "unknown",
    "Bb:maj",
    "unknown",
    "C:maj",
    "unknown",
    "Bb:maj",
    "unknown",
    "F:min",
    "unknown",
    "Eb:maj",
    "unknown",
    "F:min",
    "unknown",
    "Eb:maj",
    "unknown",
    "Bb:maj",
    "unknown",
    "Ab:maj",
    "unknown",
    "G:maj",
    "unknown",
    "Bb:maj",
    "F:min",
    "Eb:maj",
    "Eb:maj",
    "F:min",
    "D:min",
    "Eb:maj",
    "C:min",
    "Bb:maj",
    "Bb:maj",
    "Eb:maj",
    "Eb:maj",
    "F:maj",
    "C:maj",
    "Eb:maj",
    "Eb:maj",
    "F:maj",
    "C:maj",
    "Eb:maj",
    "Eb:maj",
    "D:min",
    "Ab:maj",
    "G:min",
    "Eb:maj",
    "F:min",
    "F:min",
    "Eb:maj",
    "Eb:maj",
    "F:min",
    "D:min",
    "Eb:maj",
    "C:min",
    "Bb:maj",
    "Bb:maj",
    "Eb:maj",
    "Eb:maj",
    "F:maj",
    "C:maj",
    "Eb:maj",
    "Eb:maj",
    "F:maj",
    "C:maj",
    "Eb:maj",
    "Eb:maj",
    "F:maj",
    "Ab:maj",
    "G:min",
    "Eb:maj",
    "F:maj",
    "Ab:maj",
    "G:min",
    "Eb:maj",
    "F:maj",
    "Bb:maj",
    "Eb:maj",
    "unknown",
    "Bb:maj",
    "unknown",
    "Eb:maj",
    "unknown",
    "Bb:maj",
    "unknown",
    "G:maj",
    "unknown",
    "F:maj",
    "unknown",
    "Eb:maj",
    "unknown",
    "F:maj",
    "Eb:maj",
    "F:maj",
    "Eb:maj",
    "F:maj",
    "Eb:maj",
    "F:maj",
    "Eb:maj",
    "F:maj",
    "Eb:maj",
    "Eb:maj",
    "Eb:maj",
    "Eb:maj",
    "Eb:maj",
    "Eb:maj",
    "Eb:maj",
    "Eb:maj",
    "Eb:maj",
    "Bb:maj",
    "Eb:maj",
    "Bb:maj",
    "Eb:maj",
    "Bb:maj",
    "Eb:maj",
    "Bb:maj",
    "Bb:maj",
    "Eb:maj",
    "unknown",
    "D:maj",
    "unknown",
    "Eb:maj",
    "Eb:maj",
    "Eb:maj",
    "F:min",
    "Eb:maj",
    "F:min",
    "Eb:maj",
    "Bb:maj",
    "Eb:maj",
    "Eb:maj",
    "Eb:maj",
    "Bb:maj",
    "Eb:maj",
    "Eb:maj",
    "C:min",
    "unknown",
    "Bb:maj",
    "unknown",
    "Bb:maj",
    "unknown",
    "Eb:maj"
  ]
}