{
  "piece_id": "schubert__impromptu_op_90_d_899__4__midi_score__sample",
  "resolution": "sixteenth",
  "steps_per_beat": 4,
  "bar_steps": 12,
  "time_signature": "3/4",
  "tempo_bpm": 120.0,
  "note_events": [
    {
      "pitch": 71,
      "velocity": 60,
      "instrument": 0,
      "channel": 0,
      "start_step": 0,
      "duration_steps": 1,
      "bar": 1,
      "position": 0,
      "track_index": 0,
      "track_name": "track_0",
      "is_drum": false,
      "harmony": "Eb:maj"
    },
    {
      "pitch": 71,
      "velocity": 60,
      "instrument": 0,
      "channel": 0,
      "start_step": 1,
      "duration_steps": 1,
      "bar": 1,
      "position": 1,
      "track_index": 0,
      "track_name": "track_0",
      "is_drum": false,
      "harmony": "Ab:min"
    },
    {
      "pitch": 71,
      "velocity": 60,
      "instrument": 0,
      "channel": 0,
      "start_step": 2,
      "duration_steps": 1,
      "bar": 1,
      "position": 2,
      "track_index": 0,
      "track_name": "track_0",
      "is_drum": false,
      "harmony": "Eb:maj"
    },
    {
      "pitch": 71,
      "velocity": 60,
      "instrument": 0,
      "channel": 0,
      "start_step": 3,
      "duration_steps": 1,
      "bar": 1,
      "position": 3,
      "track_index": 0,
      "track_name": "track_0",
      "is_drum": false,
      "harmony": "Eb:maj"
    },
    {
      "pitch": 71,
      "velocity": 60,
      "instrument": 0,
      "channel": 0,
      "start_step": 4,
      "duration_steps": 1,
      "bar": 1,
      "position": 4,
      "track_index": 0,
      "track_name": "track_0",
      "is_drum": false,
      "harmony": "Eb:maj"
    },
    {
      "pitch": 71,
      "velocity": 60,
      "instrument": 0,
      "channel": 0,
      "start_step": 5,
      "duration_steps": 1,
      "bar": 1,
      "position": 5,
      "track_index": 0,
      "track_name": "track_0",
      "is_drum": false,
      "harmony": "Eb:maj"
    },
    {
      "pitch": 71,
      "velocity": 60,
      "instrument": 0,
      "channel": 0,
      "start_step": 6,
      "duration_steps": 1,
      "bar": 1,
      "position": 6,
      "track_index": 0,
      "track_name": "track_0",
      "is_drum": false,
      "harmony": "Eb:maj"
    },
    {
      "pitch": 71,
      "velocity": 60,
      "instrument": 0,
      "channel": 0,
      "start_step": 7,
      "duration_steps": 1,
      "bar": 1,
      "position": 7,
      "track_index": 0,
      "track_name": "track_0",
      "is_drum": false,
      "harmony": "Eb:maj"
    },
    {
      "pitch": 70,
      "velocity": 60,
      "instrument": 0,
      "channel": 0,
      "start_step": 8,
      "duration_steps": 1,
      "bar": 1,
      "position": 8,
      "track_index": 0,
      "track_name": "track_0",
      "is_drum": false,
      "harmony": "Eb:maj"
    },
    {
      "pitch": 70,
      "velocity": 60,
      "instrument": 0,
      "channel": 0,
      "start_step": 9,
      "duration_steps": 1,
      "bar": 1,
      "position": 9,
      "track_index": 0,
      "track_name": "track_0",
      "is_drum": false,
      "harmony": "Eb:maj"
    },
    {
      "pitch": 68,
      "velocity": 60,
      "instrument": 0,
      "channel": 0,
      "start_step": 10,
      "duration_steps": 1,
      "bar": 1,
      "position": 10,
      "track_index": 0,
      "track_name": "track_0",
      "is_drum": false,
      "harmony": "Eb:maj"
    },
    {
      "pitch": 68,
      "velocity": 60,
      "instrument": 0,
      "channel": 0,
      "start_step": 11,
      "duration_steps": 1,
      "bar": 1,
      "position": 11,
      "track_index": 0,
      "track_name": "track_0",
      "is_drum": false,
      "harmony": "Eb:maj"
    },
    {
      "pitch": 68,
      "velocity": 60,
      "instrument": 0,
      "channel": 0,
      "start_step": 12,
      "duration_steps": 1,
      "bar": 2,
      "position": 0,
      "track_index": 0,
      "track_name": "track_0",
      "is_drum": false,
      "harmony": "Eb:maj"
    },
    {
      "pitch": 68,
      "velocity": 60,
      "instrument": 0,
      "channel": 0,
      "start_step": 13,
      "duration_steps": 1,
      "bar": 2,
      "position": 1,
      "track_index": 0,
      "track_name": "track_0",
      "is_drum": false,
      "harmony": "Eb:maj"
    },
    {
      "pitch": 68,
      "velocity": 60,
      "instrument": 0,
      "channel": 0,
      "start_step": 14,
      "duration_steps": 1,
      "bar": 2,
      "position": 2,
      "track_index": 0,
      "track_name": "track_0",
      "is_drum": false,
      "harmony": "Eb:maj"
    },
    {
      "pitch": 68,
      "velocity": 60,
      "instrument": 0,
      "channel": 0,
      "start_step": 15,
      "duration_steps": 1,
      "bar": 2,
      "position": 3,
      "track_index": 0,
      "track_name": "track_0",
      "is_drum": false,
      "harmony": "Eb:maj"
    },
    {
      "pitch": 67,
      "velocity": 60,
      "instrument": 0,
      "channel": 0,
      "start_step": 16,
      "duration_steps": 1,
      "bar": 2,
      "position": 4,
      "track_index": 0,
      "track_name": "track_0",
      "is_drum": false,
      "harmony": "Eb:maj"
    },
    {
      "pitch": 67,
      "velocity": 60,
      "instrument": 0,
      "channel": 0,
      "start_step": 17,
      "duration_steps": 1,
      "bar": 2,
      "position": 5,
      "track_index": 0,
      "track_name": "track_0",
      "is_drum": false,
      "harmony": "Eb:maj"
    },
    {
      "pitch": 63,
      "velocity": 60,
      "instrument": 0,
      "channel": 0,
      "start_step": 18,
      "duration_steps": 15,
      "bar": 2,
      "position": 6,
      "track_index": 1,
      "track_name": "track_1",
      "is_drum": false,
      "harmony": "Ab:min"
    },
    {
      "pitch": 63,
      "velocity": 60,
      "instrument": 0,
      "channel": 0,
      "start_step": 33,
      "duration_steps": 3,
      "bar": 3,
      "position": 9,
      "track_index": 0,
      "track_name": "track_0",
      "is_drum": false,
      "harmony": "Eb:maj"
    },
    {
      "pitch": 63,
      "velocity": 60,
      "instrument": 0,
      "channel": 0,
      "start_step": 36,
      "duration_steps": 15,
      "bar": 4,
      "position": 0,
      "track_index": 1,
      "track_name": "track_1",
      "is_drum": false,
      "harmony": "Eb:maj"
    },
    {
      "pitch": 63,
      "velocity": 60,
      "instrument": 0,
      "channel": 0,
      "start_step": 51,
      "duration_steps": 1,
      "bar": 5,
      "position": 3,
      "track_index": 0,
      "track_name": "track_0",
      "is_drum": false,
      "harmony": "Eb:maj"
    },
    {
      "pitch": 63,
      "velocity": 60,
      "instrument": 0,
      "channel": 0,
      "start_step": 52,
      "duration_steps": 2,
      "bar": 5,
      "position": 4,
      "track_index": 1,
      "track_name": "track_1",
      "is_drum": false,
      "harmony": "Eb:maj"
    },
    {
      "pitch": 59,
      "velocity": 60,
      "instrument": 0,
      "channel": 0,
      "start_step": 54,
      "duration_steps": 32,
      "bar": 5,
      "position": 6,
      "track_index": 1,
      "track_name": "track_1",
      "is_drum": false,
      "harmony": "Ab:min"
    },
    {
      "pitch": 58,
      "velocity": 60,
      "instrument": 0,
      "channel": 0,
      "start_step": 86,
      "duration_steps": 2,
      "bar": 8,
      "position": 2,
      "track_index": 1,
      "track_name": "track_1",
      "is_drum": false,
      "harmony": "Eb:maj"
    },
    {
      "pitch": 58,
      "velocity": 60,
      "instrument": 0,
      "channel": 0,
      "start_step": 88,
      "duration_steps": 2,
      "bar": 8,
      "position": 4,
      "track_index": 1,
      "track_name": "track_1",
      "is_drum": false,
      "harmony": "Eb:maj"
    },
    {
      "pitch": 56,
      "velocity": 60,
      "instrument": 0,
      "channel": 0,
      "start_step": 90,
      "duration_steps": 32,
      "bar": 8,
      "position": 6,
      "track_index": 1,
      "track_name": "track_1",
      "is_drum": false,
      "harmony": "Ab:min"
    },
    {
      "pitch": 51,
      "velocity": 60,
      "instrument": 0,
      "channel": 0,
      "start_step": 122,
      "duration_steps": 2,
      "bar": 11,
      "position": 2,
      "track_index": 1,
      "track_name": "track_1",
      "is_drum": false,
      "harmony": "Eb:maj"
    },
    {
      "pitch": 51,
      "velocity": 60,
      "instrument": 0,
      "channel": 0,
      "start_step": 124,
      "duration_steps": 2,
      "bar": 11,
      "position": 4,
      "track_index": 1,
      "track_name": "track_1",
      "is_drum": false,
      "harmony": "Eb:maj"
    },
    {
      "pitch": 44,
      "velocity": 60,
      "instrument": 0,
      "channel": 0,
      "start_step": 126,
      "duration_steps": 2,
      "bar": 11,
      "position": 6,
      "track_index": 1,
      "track_name": "track_1",
      "is_drum": false,
      "harmony": "Ab:min"
    },
    {
      "pitch": 44,
      "velocity": 60,
      "instrument": 0,
      "channel": 0,
      "start_step": 128,
      "duration_steps": 2,
      "bar": 11,
      "position": 8,
      "track_index": 1,
      "track_name": "track_1",
      "is_drum": false,
      "harmony": "Eb:maj"
    },
    {
      "pitch": 75,
      "velocity": 60,
      "instrument": 0,
      "channel": 0,
      "start_step": 130,
      "duration_steps": 1,
      "bar": 11,
      "position": 10,
      "track_index": 0,
      "track_name": "track_0",
      "is_drum": false,
      "harmony": "Ab:min"
    },
    {
      "pitch": 75,
      "velocity": 60,
      "instrument": 0,
      "channel": 0,
      "start_step": 131,
      "duration_steps": 1,
      "bar": 11,
      "position": 11,
      "track_index": 0,
      "track_name": "track_0",
      "is_drum": false,
      "harmony": "Ab:min"
    },
    {
      "pitch": 75,
      "velocity": 60,
      "instrument": 0,
      "channel": 0,
      "start_step": 132,
      "duration_steps": 1,
      "bar": 12,
      "position": 0,
      "track_index": 0,
      "track_name": "track_0",
      "is_drum": false,
      "harmony": "Ab:min"
    },
    {
      "pitch": 75,
      "velocity": 60,
      "instrument": 0,
      "channel": 0,
      "start_step": 133,
      "duration_steps": 1,
      "bar": 12,
      "position": 1,
      "track_index": 0,
      "track_name": "track_0",
      "is_drum": false,
      "harmony": "Eb:maj"
    },
    {
      "pitch": 75,
      "velocity": 60,
      "instrument": 0,
      "channel": 0,
      "start_step": 134,
      "duration_steps": 1,
      "bar": 12,
      "position": 2,
      "track_index": 0,
      "track_name": "track_0",
      "is_drum": false,
      "harmony": "Eb:maj"
    },
    {
      "pitch": 75,
      "velocity": 60,
      "instrument": 0,
      "channel": 0,
      "start_step": 135,
      "duration_steps": 1,
      "bar": 12,
      "position": 3,
      "track_index": 0,
      "track_name": "track_0",
      "is_drum": false,
      "harmony": "Eb:maj"
    },
    {
      "pitch": 75,
      "velocity": 60,
      "instrument": 0,
      "channel": 0,
      "start_step": 136,
      "duration_steps": 1,
      "bar": 12,
      "position": 4,
      "track_index": 0,
      "track_name": "track_0",
      "is_drum": false,
      "harmony": "Eb:maj"
    },
    {
      "pitch": 75,
      "velocity": 60,
      "instrument": 0,
      "channel": 0,
      "start_step": 137,
      "duration_steps": 1,
      "bar": 12,
      "position": 5,
      "track_index": 0,
      "track_name": "track_0",
      "is_drum": false,
      "harmony": "Eb:maj"
    },
    {
      "pitch": 80,
      "velocity": 60,
      "instrument": 0,
      "channel": 0,
      "start_step": 138,
      "duration_steps": 1,
      "bar": 12,
      "position": 6,
      "track_index": 0,
      "track_name": "track_0",
      "is_drum": false,
      "harmony": "Ab:min"
    },
    {
      "pitch": 80,
      "velocity": 60,
      "instrument": 0,
      "channel": 0,
      "start_step": 139,
      "duration_steps": 1,
      "bar": 12,
      "position": 7,
      "track_index": 0,
      "track_name": "track_0",
      "is_drum": false,
      "harmony": "Ab:min"
    },
    {
      "pitch": 80,
      "velocity": 60,
      "instrument": 0,
      "channel": 0,
      "start_step": 140,
      "duration_steps": 1,
      "bar": 12,
      "position": 8,
      "track_index": 0,
      "track_name": "track_0",
      "is_drum": false,
      "harmony": "Ab:min"
    },
    {
      "pitch": 80,
      "velocity": 60,
      "instrument": 0,
      "channel": 0,
      "start_step": 141,
      "duration_steps": 1,
      "bar": 12,
      "position": 9,
      "track_index": 0,
      "track_name": "track_0",
      "is_drum": false,
      "harmony": "Ab:min"
    },
    {
      "pitch": 80,
      "velocity": 60,
      "instrument": 0,
      "channel": 0,
      "start_step": 142,
      "duration_steps": 1,
      "bar": 12,
      "position": 10,
      "track_index": 0,
      "track_name": "track_0",
      "is_drum": false,
      "harmony": "Eb:maj"
    },
    {
      "pitch": 80,
      "velocity": 60,
      "instrument": 0,
      "channel": 0,
      "start_step": 143,
      "duration_steps": 1,
      "bar": 12,
      "position": 11,
      "track_index": 0,
      "track_name": "track_0",
      "is_drum": false,
      "harmony": "Eb:maj"
    },
    {
      "pitch": 80,
      "velocity": 60,
      "instrument": 0,
      "channel": 0,
      "start_step": 144,
      "duration_steps": 1,
      "bar": 13,
      "position": 0,
      "track_index": 0,
      "track_name": "track_0",
      "is_drum": false,
      "harmony": "Eb:maj"
    },
    {
      "pitch": 80,
      "velocity": 60,
      "instrument": 0,
      "channel": 0,
      "start_step": 145,
      "duration_steps": 1,
      "bar": 13,
      "position": 1,
      "track_index": 0,
      "track_name": "track_0",
      "is_drum": false,
      "harmony": "Eb:maj"
    },
    {
      "pitch": 83,
      "velocity": 60,
      "instrument": 0,
      "channel": 0,
      "start_step": 146,
      "duration_steps": 1,
      "bar": 13,
      "position": 2,
      "track_index": 0,
      "track_name": "track_0",
      "is_drum": false,
      "harmony": "Ab:min"
    },
    {
      "pitch": 83,
      "velocity": 60,
      "instrument": 0,
      "channel": 0,
      "start_step": 147,
      "duration_steps": 1,
      "bar": 13,
      "position": 3,
      "track_index": 0,
      "track_name": "track_0",
      "is_drum": false,
      "harmony": "Ab:min"
    },
    {
      "pitch": 83,
      "velocity": 60,
      "instrument": 0,
      "channel": 0,
      "start_step": 148,
      "duration_steps": 1,
      "bar": 13,
      "position": 4,
      "track_index": 0,
      "track_name": "track_0",
      "is_drum": false,
      "harmony": "Ab:min"
    },
    {
      "pitch": 83,
      "velocity": 60,
      "instrument": 0,
      "channel": 0,
      "start_step": 149,
      "duration_steps": 1,
      "bar": 13,
      "position": 5,
      "track_index": 0,
      "track_name": "track_0",
      "is_drum": false,
      "harmony": "Eb:maj"
    },
    {
      "pitch": 83,
      "velocity": 60,
      "instrument": 0,
      "channel": 0,
      "start_step": 150,
      "duration_steps": 1,
      "bar": 13,
      "position": 6,
      "track_index": 0,
      "track_name": "track_0",
      "is_drum": false,
      "harmony": "Eb:maj"
    },
    {
      "pitch": 83,
      "velocity": 60,
      "instrument": 0,
      "channel": 0,
      "start_step": 151,
      "duration_steps": 1,
      "bar": 13,
      "position": 7,
      "track_index": 0,
      "track_name": "track_0",
      "is_drum": false,
      "harmony": "Eb:maj"
    },
    {
      "pitch": 87,
      "velocity": 60,
      "instrument": 0,
      "channel": 0,
      "start_step": 152,
      "duration_steps": 1,
      "bar": 13,
      "position": 8,
      "track_index": 0,
      "track_name": "track_0",
      "is_drum": false,
      "harmony": "Ab:min"
    },
    {
      "pitch": 87,
      "velocity": 60,
      "instrument": 0,
      "channel": 0,
      "start_step": 153,
      "duration_steps": 1,
      "bar": 13,
      "position": 9,
      "track_index": 0,
      "track_name": "track_0",
      "is_drum": false,
      "harmony": "Eb:maj"
    },
    {
      "pitch": 87,
      "velocity": 90,
      "instrument": 0,
      "channel": 0,
      "start_step": 154,
      "duration_steps": 1,
      "bar": 13,
      "position": 10,
      "track_index": 0,
      "track_name": "track_0",
      "is_drum": false,
      "harmony": "Ab:maj"
    },
    {
      "pitch": 83,
      "velocity": 90,
      "instrument": 0,
      "channel": 0,
      "start_step": 155,
      "duration_steps": 1,
      "bar": 13,
      "position": 11,
      "track_index": 0,
      "track_name": "track_0",
      "is_drum": false,
      "harmony": "Ab:maj"
    },
    {
      "pitch": 83,
      "velocity": 90,
      "instrument": 0,
      "channel": 0,
      "start_step": 156,
      "duration_steps": 1,
      "bar": 14,
      "position": 0,
      "track_index": 0,
      "track_name": "track_0",
      "is_drum": false,
      "harmony": "Ab:maj"
    },
    {
      "pitch": 83,
      "velocity": 90,
      "instrument": 0,
      "channel": 0,
      "start_step": 157,
      "duration_steps": 1,
      "bar": 14,
      "position": 1,
      "track_index": 0,
      "track_name": "track_0",
      "is_drum": false,
      "harmony": "Ab:maj"
    },
    {
      "pitch": 80,
      "velocity": 90,
      "instrument": 0,
      "channel": 0,
      "start_step": 158,
      "duration_steps": 1,
      "bar": 14,
      "position": 2,
      "track_index": 0,
      "track_name": "track_0",
      "is_drum": false,
      "harmony": "Ab:maj"
    },
    {
      "pitch": 80,
      "velocity": 90,
      "instrument": 0,
      "channel": 0,
      "start_step": 159,
      "duration_steps": 1,
      "bar": 14,
      "position": 3,
      "track_index": 0,
      "track_name": "track_0",
      "is_drum": false,
      "harmony": "Ab:maj"
    },
    {
      "pitch": 80,
      "velocity": 90,
      "instrument": 0,
      "channel": 0,
      "start_step": 160,
      "duration_steps": 1,
      "bar": 14,
      "position": 4,
      "track_index": 0,
      "track_name": "track_0",
      "is_drum": false,
      "harmony": "Ab:maj"
    },
    {
      "pitch": 80,
      "velocity": 90,
      "instrument": 0,
      "channel": 0,
      "start_step": 161,
      "duration_steps": 1,
      "bar": 14,
      "position": 5,
      "track_index": 0,
      "track_name": "track_0",
      "is_drum": false,
      "harmony": "Ab:maj"
    },
    {
      "pitch": 76,
      "velocity": 100,
      "instrument": 0,
      "channel": 0,
      "start_step": 162,
      "duration_steps": 2,
      "bar": 14,
      "position": 6,
      "track_index": 0,
      "track_name": "track_0",
      "is_drum": false,
      "harmony": "Bb:min"
    },
    {
      "pitch": 76,
      "velocity": 100,
      "instrument": 0,
      "channel": 0,
      "start_step": 164,
      "duration_steps": 2,
      "bar": 14,
      "position": 8,
      "track_index": 0,
      "track_name": "track_0",
      "is_drum": false,
      "harmony": "E:maj"
    },
    {
      "pitch": 76,
      "velocity": 90,
      "instrument": 0,
      "channel": 0,
      "start_step": 166,
      "duration_steps": 2,
      "bar": 14,
      "position": 10,
      "track_index": 0,
      "track_name": "track_0",
      "is_drum": false,
      "harmony": "E:maj"
    },
    {
      "pitch": 75,
      "velocity": 90,
      "instrument": 0,
      "channel": 0,
      "start_step": 168,
      "duration_steps": 1,
      "bar": 15,
      "position": 0,
      "track_index": 0,
      "track_name": "track_0",
      "is_drum": false,
      "harmony": "Eb:maj"
    },
    {
      "pitch": 75,
      "velocity": 90,
      "instrument": 0,
      "channel": 0,
      "start_step": 169,
      "duration_steps": 1,
      "bar": 15,
      "position": 1,
      "track_index": 0,
      "track_name": "track_0",
      "is_drum": false,
      "harmony": "Ab:maj"
    },
    {
      "pitch": 75,
      "velocity": 90,
      "instrument": 0,
      "channel": 0,
      "start_step": 170,
      "duration_steps": 1,
      "bar": 15,
      "position": 2,
      "track_index": 0,
      "track_name": "track_0",
      "is_drum": false,
      "harmony": "Ab:maj"
    },
    {
      "pitch": 75,
      "velocity": 90,
      "instrument": 0,
      "channel": 0,
      "start_step": 171,
      "duration_steps": 1,
      "bar": 15,
      "position": 3,
      "track_index": 0,
      "track_name": "track_0",
      "is_drum": false,
      "harmony": "Ab:maj"
    },
    {
      "pitch": 75,
      "velocity": 100,
      "instrument": 0,
      "channel": 0,
      "start_step": 172,
      "duration_steps": 2,
      "bar": 15,
      "position": 4,
      "track_index": 0,
      "track_name": "track_0",
      "is_drum": false,
      "harmony": "Bb:min"
    },
    {
      "pitch": 73,
      "velocity": 100,
      "instrument": 0,
      "channel": 0,
      "start_step": 174,
      "duration_steps": 2,
      "bar": 15,
      "position": 6,
      "track_index": 0,
      "track_name": "track_0",
      "is_drum": false,
      "harmony": "Bb:min"
    },
    {
      "pitch": 71,
      "velocity": 90,
      "instrument": 0,
      "channel": 0,
      "start_step": 176,
      "duration_steps": 1,
      "bar": 15,
      "position": 8,
      "track_index": 0,
      "track_name": "track_0",
      "is_drum": false,
      "harmony": "Eb:maj"
    },
    {
      "pitch": 71,
      "velocity": 90,
      "instrument": 0,
      "channel": 0,
      "start_step": 177,
      "duration_steps": 1,
      "bar": 15,
      "position": 9,
      "track_index": 0,
      "track_name": "track_0",
      "is_drum": false,
      "harmony": "Eb:maj"
    },
    {
      "pitch": 71,
      "velocity": 90,
      "instrument": 0,
      "channel": 0,
      "start_step": 178,
      "duration_steps": 1,
      "bar": 15,
      "position": 10,
      "track_index": 0,
      "track_name": "track_0",
      "is_drum": false,
      "harmony": "Eb:maj"
    },
    {
      "pitch": 71,
      "velocity": 90,
      "instrument": 0,
      "channel": 0,
      "start_step": 179,
      "duration_steps": 1,
      "bar": 15,
      "position": 11,
      "track_index": 0,
      "track_name": "track_0",
      "is_drum": false,
      "harmony": "Ab:maj"
    },
    {
      "pitch": 71,
      "velocity": 80,
      "instrument": 0,
      "channel": 0,
      "start_step": 180,
      "duration_steps": 2,
      "bar": 16,
      "position": 0,
      "track_index": 0,
      "track_name": "track_0",
      "is_drum": false,
      "harmony": "E:maj"
    },
    {
      "pitch": 70,
      "velocity": 90,
      "instrument": 0,
      "channel": 0,
      "start_step": 182,
      "duration_steps": 1,
      "bar": 16,
      "position": 2,
      "track_index": 0,
      "track_name": "track_0",
      "is_drum": false,
      "harmony": "Eb:maj"
    },
    {
      "pitch": 70,
      "velocity": 100,
      "instrument": 0,
      "channel": 0,
      "start_step": 183,
      "duration_steps": 2,
      "bar": 16,
      "position": 3,
      "track_index": 0,
      "track_name": "track_0",
      "is_drum": false,
      "harmony": "Bb:min"
    },
    {
      "pitch": 70,
      "velocity": 100,
      "instrument": 0,
      "channel": 0,
      "start_step": 185,
      "duration_steps": 2,
      "bar": 16,
      "position": 5,
      "track_index": 0,
      "track_name": "track_0",
      "is_drum": false,
      "harmony": "Bb:min"
    },
    {
      "pitch": 70,
      "velocity": 100,
      "instrument": 0,
      "channel": 0,
      "start_step": 187,
      "duration_steps": 2,
      "bar": 16,
      "position": 7,
      "track_index": 0,
      "track_name": "track_0",
      "is_drum": false,
      "harmony": "Bb:min"
    },
    {
      "pitch": 70,
      "velocity": 100,
      "instrument": 0,
      "channel": 0,
      "start_step": 189,
      "duration_steps": 2,
      "bar": 16,
      "position": 9,
      "track_index": 0,
      "track_name": "track_0",
      "is_drum": false,
      "harmony": "E:maj"
    },
    {
      "pitch": 70,
      "velocity": 90,
      "instrument": 0,
      "channel": 0,
      "start_step": 191,
      "duration_steps": 2,
      "bar": 16,
      "position": 11,
      "track_index": 0,
      "track_name": "track_0",
      "is_drum": false,
      "harmony": "E:maj"
    },
    {
      "pitch": 44,
      "velocity": 90,
      "instrument": 0,
      "channel": 0,
      "start_step": 193,
      "duration_steps": 2,
      "bar": 17,
      "position": 1,
      "track_index": 1,
      "track_name": "track_1",
      "is_drum": false,
      "harmony": "Ab:maj"
    },
    {
      "pitch": 51,
      "velocity": 90,
      "instrument": 0,
      "channel": 0,
      "start_step": 195,
      "duration_steps": 2,
      "bar": 17,
      "position": 3,
      "track_index": 1,
      "track_name": "track_1",
      "is_drum": false,
      "harmony": "Eb:maj"
    },
    {
      "pitch": 51,
      "velocity": 100,
      "instrument": 0,
      "channel": 0,
      "start_step": 197,
      "duration_steps": 2,
      "bar": 17,
      "position": 5,
      "track_index": 1,
      "track_name": "track_1",
      "is_drum": false,
      "harmony": "Bb:min"
    },
    {
      "pitch": 51,
      "velocity": 100,
      "instrument": 0,
      "channel": 0,
      "start_step": 199,
      "duration_steps": 2,
      "bar": 17,
      "position": 7,
      "track_index": 1,
      "track_name": "track_1",
      "is_drum": false,
      "harmony": "Bb:min"
    },
    {
      "pitch": 51,
      "velocity": 100,
      "instrument": 0,
      "channel": 0,
      "start_step": 201,
      "duration_steps": 2,
      "bar": 17,
      "position": 9,
      "track_index": 1,
      "track_name": "track_1",
      "is_drum": false,
      "harmony": "Bb:min"
    },
    {
      "pitch": 51,
      "velocity": 100,
      "instrument": 0,
      "channel": 0,
      "start_step": 203,
      "duration_steps": 2,
      "bar": 17,
      "position": 11,
      "track_index": 1,
      "track_name": "track_1",
      "is_drum": false,
      "harmony": "E:maj"
    },
    {
      "pitch": 51,
      "velocity": 90,
      "instrument": 0,
      "channel": 0,
      "start_step": 205,
      "duration_steps": 2,
      "bar": 18,
      "position": 1,
      "track_index": 1,
      "track_name": "track_1",
      "is_drum": false,
      "harmony": "E:maj"
    },
    {
      "pitch": 56,
      "velocity": 90,
      "instrument": 0,
      "channel": 0,
      "start_step": 207,
      "duration_steps": 16,
      "bar": 18,
      "position": 3,
      "track_index": 1,
      "track_name": "track_1",
      "is_drum": false,
      "harmony": "Ab:maj"
    },
    {
      "pitch": 56,
      "velocity": 80,
      "instrument": 0,
      "channel": 0,
      "start_step": 223,
      "duration_steps": 2,
      "bar": 19,
      "position": 7,
      "track_index": 1,
      "track_name": "track_1",
      "is_drum": false,
      "harmony": "E:maj"
    },
    {
      "pitch": 58,
      "velocity": 90,
      "instrument": 0,
      "channel": 0,
      "start_step": 225,
      "duration_steps": 2,
      "bar": 19,
      "position": 9,
      "track_index": 1,
      "track_name": "track_1",
      "is_drum": false,
      "harmony": "Eb:maj"
    },
    {
      "pitch": 58,
      "velocity": 100,
      "instrument": 0,
      "channel": 0,
      "start_step": 227,
      "duration_steps": 2,
      "bar": 19,
      "position": 11,
      "track_index": 1,
      "track_name": "track_1",
      "is_drum": false,
      "harmony": "Bb:min"
    },
    {
      "pitch": 58,
      "velocity": 100,
      "instrument": 0,
      "channel": 0,
      "start_step": 229,
      "duration_steps": 2,
      "bar": 20,
      "position": 1,
      "track_index": 1,
      "track_name": "track_1",
      "is_drum": false,
      "harmony": "Bb:min"
    },
    {
      "pitch": 58,
      "velocity": 100,
      "instrument": 0,
      "channel": 0,
      "start_step": 231,
      "duration_steps": 2,
      "bar": 20,
      "position": 3,
      "track_index": 1,
      "track_name": "track_1",
      "is_drum": false,
      "harmony": "Bb:min"
    },
    {
      "pitch": 58,
      "velocity": 100,
      "instrument": 0,
      "channel": 0,
      "start_step": 233,
      "duration_steps": 2,
      "bar": 20,
      "position": 5,
      "track_index": 1,
      "track_name": "track_1",
      "is_drum": false,
      "harmony": "E:maj"
    },
    {
      "pitch": 58,
      "velocity": 90,
      "instrument": 0,
      "channel": 0,
      "start_step": 235,
      "duration_steps": 2,
      "bar": 20,
      "position": 7,
      "track_index": 1,
      "track_name": "track_1",
      "is_drum": false,
      "harmony": "E:maj"
    },
    {
      "pitch": 59,
      "velocity": 80,
      "instrument": 0,
      "channel": 0,
      "start_step": 237,
      "duration_steps": 2,
      "bar": 20,
      "position": 9,
      "track_index": 1,
      "track_name": "track_1",
      "is_drum": false,
      "harmony": "E:maj"
    },
    {
      "pitch": 60,
      "velocity": 90,
      "instrument": 0,
      "channel": 0,
      "start_step": 239,
      "duration_steps": 16,
      "bar": 20,
      "position": 11,
      "track_index": 1,
      "track_name": "track_1",
      "is_drum": false,
      "harmony": "Ab:maj"
    },
    {
      "pitch": 61,
      "velocity": 100,
      "instrument": 0,
      "channel": 0,
      "start_step": 255,
      "duration_steps": 2,
      "bar": 22,
      "position": 3,
      "track_index": 1,
      "track_name": "track_1",
      "is_drum": false,
      "harmony": "Bb:min"
    },
    {
      "pitch": 63,
      "velocity": 90,
      "instrument": 0,
      "channel": 0,
      "start_step": 257,
      "duration_steps": 2,
      "bar": 22,
      "position": 5,
      "track_index": 1,
      "track_name": "track_1",
      "is_drum": false,
      "harmony": "Eb:maj"
    },
    {
      "pitch": 63,
      "velocity": 90,
      "instrument": 0,
      "channel": 0,
      "start_step": 259,
      "duration_steps": 1,
      "bar": 22,
      "position": 7,
      "track_index": 0,
      "track_name": "track_0",
      "is_drum": false,
      "harmony": "Eb:maj"
    },
    {
      "pitch": 63,
      "velocity": 90,
      "instrument": 0,
      "channel": 0,
      "start_step": 260,
      "duration_steps": 15,
      "bar": 22,
      "position": 8,
      "track_index": 1,
      "track_name": "track_1",
      "is_drum": false,
      "harmony": "Ab:maj"
    },
    {
      "pitch": 63,
      "velocity": 100,
      "instrument": 0,
      "channel": 0,
      "start_step": 275,
      "duration_steps": 2,
      "bar": 23,
      "position": 11,
      "track_index": 1,
      "track_name": "track_1",
      "is_drum": false,
      "harmony": "Bb:min"
    },
    {
      "pitch": 63,
      "velocity": 80,
      "instrument": 0,
      "channel": 0,
      "start_step": 277,
      "duration_steps": 2,
      "bar": 24,
      "position": 1,
      "track_index": 1,
      "track_name": "track_1",
      "is_drum": false,
      "harmony": "E:maj"
    },
    {
      "pitch": 64,
      "velocity": 100,
      "instrument": 0,
      "channel": 0,
      "start_step": 279,
      "duration_steps": 2,
      "bar": 24,
      "position": 3,
      "track_index": 1,
      "track_name": "track_1",
      "is_drum": false,
      "harmony": "Bb:min"
    },
    {
      "pitch": 64,
      "velocity": 100,
      "instrument": 0,
      "channel": 0,
      "start_step": 281,
      "duration_steps": 2,
      "bar": 24,
      "position": 5,
      "track_index": 1,
      "track_name": "track_1",
      "is_drum": false,
      "harmony": "E:maj"
    },
    {
      "pitch": 64,
      "velocity": 90,
      "instrument": 0,
      "channel": 0,
      "start_step": 283,
      "duration_steps": 2,
      "bar": 24,
      "position": 7,
      "track_index": 1,
      "track_name": "track_1",
      "is_drum": false,
      "harmony": "E:maj"
    },
    {
      "pitch": 67,
      "velocity": 90,
      "instrument": 0,
      "channel": 0,
      "start_step": 285,
      "duration_steps": 1,
      "bar": 24,
      "position": 9,
      "track_index": 0,
      "track_name": "track_0",
      "is_drum": false,
      "harmony": "Eb:maj"
    },
    {
      "pitch": 67,
      "velocity": 100,
      "instrument": 0,
      "channel": 0,
      "start_step": 286,
      "duration_steps": 2,
      "bar": 24,
      "position": 10,
      "track_index": 0,
      "track_name": "track_0",
      "is_drum": false,
      "harmony": "Bb:min"
    },
    {
      "pitch": 67,
      "velocity": 100,
      "instrument": 0,
      "channel": 0,
      "start_step": 288,
      "duration_steps": 2,
      "bar": 25,
      "position": 0,
      "track_index": 0,
      "track_name": "track_0",
      "is_drum": false,
      "harmony": "Bb:min"
    },
    {
      "pitch": 67,
      "velocity": 100,
      "instrument": 0,
      "channel": 0,
      "start_step": 290,
      "duration_steps": 2,
      "bar": 25,
      "position": 2,
      "track_index": 0,
      "track_name": "track_0",
      "is_drum": false,
      "harmony": "Bb:min"
    },
    {
      "pitch": 67,
      "velocity": 100,
      "instrument": 0,
      "channel": 0,
      "start_step": 292,
      "duration_steps": 2,
      "bar": 25,
      "position": 4,
      "track_index": 0,
      "track_name": "track_0",
      "is_drum": false,
      "harmony": "E:maj"
    },
    {
      "pitch": 67,
      "velocity": 90,
      "instrument": 0,
      "channel": 0,
      "start_step": 294,
      "duration_steps": 2,
      "bar": 25,
      "position": 6,
      "track_index": 0,
      "track_name": "track_0",
      "is_drum": false,
      "harmony": "E:maj"
    },
    {
      "pitch": 68,
      "velocity": 90,
      "instrument": 0,
      "channel": 0,
      "start_step": 296,
      "duration_steps": 1,
      "bar": 25,
      "position": 8,
      "track_index": 0,
      "track_name": "track_0",
      "is_drum": false,
      "harmony": "Eb:maj"
    },
    {
      "pitch": 68,
      "velocity": 90,
      "instrument": 0,
      "channel": 0,
      "start_step": 297,
      "duration_steps": 1,
      "bar": 25,
      "position": 9,
      "track_index": 0,
      "track_name": "track_0",
      "is_drum": false,
      "harmony": "Eb:maj"
    },
    {
      "pitch": 68,
      "velocity": 90,
      "instrument": 0,
      "channel": 0,
      "start_step": 298,
      "duration_steps": 1,
      "bar": 25,
      "position": 10,
      "track_index": 0,
      "track_name": "track_0",
      "is_drum": false,
      "harmony": "Eb:maj"
    },
    {
      "pitch": 68,
      "velocity": 80,
      "instrument": 0,
      "channel": 0,
      "start_step": 299,
      "duration_steps": 2,
      "bar": 25,
      "position": 11,
      "track_index": 0,
      "track_name": "track_0",
      "is_drum": false,
      "harmony": "E:maj"
    },
    {
      "pitch": 68,
      "velocity": 90,
      "instrument": 0,
      "channel": 0,
      "start_step": 301,
      "duration_steps": 2,
      "bar": 26,
      "position": 1,
      "track_index": 0,
      "track_name": "track_0",
      "is_drum": false,
      "harmony": "E:maj"
    },
    {
      "pitch": 68,
      "velocity": 90,
      "instrument": 0,
      "channel": 0,
      "start_step": 303,
      "duration_steps": 1,
      "bar": 26,
      "position": 3,
      "track_index": 0,
      "track_name": "track_0",
      "is_drum": false,
      "harmony": "Eb:maj"
    },
    {
      "pitch": 68,
      "velocity": 90,
      "instrument": 0,
      "channel": 0,
      "start_step": 304,
      "duration_steps": 1,
      "bar": 26,
      "position": 4,
      "track_index": 0,
      "track_name": "track_0",
      "is_drum": false,
      "harmony": "Eb:maj"
    },
    {
      "pitch": 68,
      "velocity": 90,
      "instrument": 0,
      "channel": 0,
      "start_step": 305,
      "duration_steps": 1,
      "bar": 26,
      "position": 5,
      "track_index": 0,
      "track_name": "track_0",
      "is_drum": false,
      "harmony": "Eb:maj"
    },
    {
      "pitch": 67,
      "velocity": 90,
      "instrument": 0,
      "channel": 0,
      "start_step": 306,
      "duration_steps": 1,
      "bar": 26,
      "position": 6,
      "track_index": 0,
      "track_name": "track_0",
      "is_drum": false,
      "harmony": "Eb:maj"
    },
    {
      "pitch": 66,
      "velocity": 95,
      "instrument": 0,
      "channel": 0,
      "start_step": 307,
      "duration_steps": 2,
      "bar": 26,
      "position": 7,
      "track_index": 0,
      "track_name": "track_0",
      "is_drum": false,
      "harmony": "E:maj"
    },
    {
      "pitch": 64,
      "velocity": 95,
      "instrument": 0,
      "channel": 0,
      "start_step": 309,
      "duration_steps": 2,
      "bar": 26,
      "position": 9,
      "track_index": 1,
      "track_name": "track_1",
      "is_drum": false,
      "harmony": "E:maj"
    },
    {
      "pitch": 63,
      "velocity": 90,
      "instrument": 0,
      "channel": 0,
      "start_step": 311,
      "duration_steps": 15,
      "bar": 26,
      "position": 11,
      "track_index": 1,
      "track_name": "track_1",
      "is_drum": false,
      "harmony": "Ab:min"
    },
    {
      "pitch": 63,
      "velocity": 90,
      "instrument": 0,
      "channel": 0,
      "start_step": 326,
      "duration_steps": 1,
      "bar": 28,
      "position": 2,
      "track_index": 0,
      "track_name": "track_0",
      "is_drum": false,
      "harmony": "Eb:maj"
    },
    {
      "pitch": 63,
      "velocity": 90,
      "instrument": 0,
      "channel": 0,
      "start_step": 327,
      "duration_steps": 2,
      "bar": 28,
      "position": 3,
      "track_index": 1,
      "track_name": "track_1",
      "is_drum": false,
      "harmony": "Eb:maj"
    },
    {
      "pitch": 63,
      "velocity": 90,
      "instrument": 0,
      "channel": 0,
      "start_step": 329,
      "duration_steps": 2,
      "bar": 28,
      "position": 5,
      "track_index": 1,
      "track_name": "track_1",
      "is_drum": false,
      "harmony": "E:maj"
    },
    {
      "pitch": 59,
      "velocity": 90,
      "instrument": 0,
      "channel": 0,
      "start_step": 331,
      "duration_steps": 16,
      "bar": 28,
      "position": 7,
      "track_index": 1,
      "track_name": "track_1",
      "is_drum": false,
      "harmony": "Ab:min"
    },
    {
      "pitch": 59,
      "velocity": 90,
      "instrument": 0,
      "channel": 0,
      "start_step": 347,
      "duration_steps": 2,
      "bar": 29,
      "position": 11,
      "track_index": 1,
      "track_name": "track_1",
      "is_drum": false,
      "harmony": "E:maj"
    },
    {
      "pitch": 58,
      "velocity": 90,
      "instrument": 0,
      "channel": 0,
      "start_step": 349,
      "duration_steps": 2,
      "bar": 30,
      "position": 1,
      "track_index": 1,
      "track_name": "track_1",
      "is_drum": false,
      "harmony": "Eb:maj"
    },
    {
      "pitch": 58,
      "velocity": 95,
      "instrument": 0,
      "channel": 0,
      "start_step": 351,
      "duration_steps": 2,
      "bar": 30,
      "position": 3,
      "track_index": 1,
      "track_name": "track_1",
      "is_drum": false,
      "harmony": "E:maj"
    },
    {
      "pitch": 56,
      "velocity": 90,
      "instrument": 0,
      "channel": 0,
      "start_step": 353,
      "duration_steps": 16,
      "bar": 30,
      "position": 5,
      "track_index": 1,
      "track_name": "track_1",
      "is_drum": false,
      "harmony": "Ab:min"
    },
    {
      "pitch": 56,
      "velocity": 90,
      "instrument": 0,
      "channel": 0,
      "start_step": 369,
      "duration_steps": 2,
      "bar": 31,
      "position": 9,
      "track_index": 1,
      "track_name": "track_1",
      "is_drum": false,
      "harmony": "E:maj"
    },
    {
      "pitch": 54,
      "velocity": 95,
      "instrument": 0,
      "channel": 0,
      "start_step": 371,
      "duration_steps": 2,
      "bar": 31,
      "position": 11,
      "track_index": 1,
      "track_name": "track_1",
      "is_drum": false,
      "harmony": "E:maj"
    },
    {
      "pitch": 54,
      "velocity": 100,
      "instrument": 0,
      "channel": 0,
      "start_step": 373,
      "duration_steps": 2,
      "bar": 32,
      "position": 1,
      "track_index": 1,
      "track_name": "track_1",
      "is_drum": false,
      "harmony": "E:maj"
    },
    {
      "pitch": 51,
      "velocity": 90,
      "instrument": 0,
      "channel": 0,
      "start_step": 375,
      "duration_steps": 2,
      "bar": 32,
      "position": 3,
      "track_index": 1,
      "track_name": "track_1",
      "is_drum": false,
      "harmony": "Eb:maj"
    },
    {
      "pitch": 44,
      "velocity": 90,
      "instrument": 0,
      "channel": 0,
      "start_step": 377,
      "duration_steps": 2,
      "bar": 32,
      "position": 5,
      "track_index": 1,
      "track_name": "track_1",
      "is_drum": false,
      "harmony": "Ab:min"
    },
    {
      "pitch": 70,
      "velocity": 90,
      "instrument": 0,
      "channel": 0,
      "start_step": 379,
      "duration_steps": 1,
      "bar": 32,
      "position": 7,
      "track_index": 0,
      "track_name": "track_0",
      "is_drum": false,
      "harmony": "Eb:maj"
    },
    {
      "pitch": 70,
      "velocity": 95,
      "instrument": 0,
      "channel": 0,
      "start_step": 380,
      "duration_steps": 2,
      "bar": 32,
      "position": 8,
      "track_index": 0,
      "track_name": "track_0",
      "is_drum": false,
      "harmony": "E:maj"
    },
    {
      "pitch": 71,
      "velocity": 90,
      "instrument": 0,
      "channel": 0,
      "start_step": 382,
      "duration_steps": 1,
      "bar": 32,
      "position": 10,
      "track_index": 0,
      "track_name": "track_0",
      "is_drum": false,
      "harmony": "Ab:min"
    },
    {
      "pitch": 71,
      "velocity": 90,
      "instrument": 0,
      "channel": 0,
      "start_step": 383,
      "duration_steps": 1,
      "bar": 32,
      "position": 11,
      "track_index": 0,
      "track_name": "track_0",
      "is_drum": false,
      "harmony": "Eb:maj"
    },
    {
      "pitch": 71,
      "velocity": 90,
      "instrument": 0,
      "channel": 0,
      "start_step": 384,
      "duration_steps": 1,
      "bar": 33,
      "position": 0,
      "track_index": 0,
      "track_name": "track_0",
      "is_drum": false,
      "harmony": "Eb:maj"
    },
    {
      "pitch": 71,
      "velocity": 90,
      "instrument": 0,
      "channel": 0,
      "start_step": 385,
      "duration_steps": 1,
      "bar": 33,
      "position": 1,
      "track_index": 0,
      "track_name": "track_0",
      "is_drum": false,
      "harmony": "Eb:maj"
    },
    {
      "pitch": 71,
      "velocity": 90,
      "instrument": 0,
      "channel": 0,
      "start_step": 386,
      "duration_steps": 2,
      "bar": 33,
      "position": 2,
      "track_index": 0,
      "track_name": "track_0",
      "is_drum": false,
      "harmony": "E:maj"
    },
    {
      "pitch": 75,
      "velocity": 90,
      "instrument": 0,
      "channel": 0,
      "start_step": 388,
      "duration_steps": 1,
      "bar": 33,
      "position": 4,
      "track_index": 0,
      "track_name": "track_0",
      "is_drum": false,
      "harmony": "Ab:min"
    },
    {
      "pitch": 75,
      "velocity": 90,
      "instrument": 0,
      "channel": 0,
      "start_step": 389,
      "duration_steps": 1,
      "bar": 33,
      "position": 5,
      "track_index": 0,
      "track_name": "track_0",
      "is_drum": false,
      "harmony": "Ab:min"
    },
    {
      "pitch": 75,
      "velocity": 90,
      "instrument": 0,
      "channel": 0,
      "start_step": 390,
      "duration_steps": 1,
      "bar": 33,
      "position": 6,
      "track_index": 0,
      "track_name": "track_0",
      "is_drum": false,
      "harmony": "Ab:min"
    },
    {
      "pitch": 75,
      "velocity": 90,
      "instrument": 0,
      "channel": 0,
      "start_step": 391,
      "duration_steps": 1,
      "bar": 33,
      "position": 7,
      "track_index": 0,
      "track_name": "track_0",
      "is_drum": false,
      "harmony": "Eb:maj"
    },
    {
      "pitch": 76,
      "velocity": 95,
      "instrument": 0,
      "channel": 0,
      "start_step": 392,
      "duration_steps": 2,
      "bar": 33,
      "position": 8,
      "track_index": 0,
      "track_name": "track_0",
      "is_drum": false,
      "harmony": "E:maj"
    },
    {
      "pitch": 80,
      "velocity": 90,
      "instrument": 0,
      "channel": 0,
      "start_step": 394,
      "duration_steps": 1,
      "bar": 33,
      "position": 10,
      "track_index": 0,
      "track_name": "track_0",
      "is_drum": false,
      "harmony": "Ab:min"
    },
    {
      "pitch": 80,
      "velocity": 90,
      "instrument": 0,
      "channel": 0,
      "start_step": 395,
      "duration_steps": 1,
      "bar": 33,
      "position": 11,
      "track_index": 0,
      "track_name": "track_0",
      "is_drum": false,
      "harmony": "Ab:min"
    },
    {
      "pitch": 80,
      "velocity": 90,
      "instrument": 0,
      "channel": 0,
      "start_step": 396,
      "duration_steps": 1,
      "bar": 34,
      "position": 0,
      "track_index": 0,
      "track_name": "track_0",
      "is_drum": false,
      "harmony": "Ab:min"
    },
    {
      "pitch": 80,
      "velocity": 90,
      "instrument": 0,
      "channel": 0,
      "start_step": 397,
      "duration_steps": 1,
      "bar": 34,
      "position": 1,
      "track_index": 0,
      "track_name": "track_0",
      "is_drum": false,
      "harmony": "Ab:min"
    },
    {
      "pitch": 83,
      "velocity": 90,
      "instrument": 0,
      "channel": 0,
      "start_step": 398,
      "duration_steps": 1,
      "bar": 34,
      "position": 2,
      "track_index": 0,
      "track_name": "track_0",
      "is_drum": false,
      "harmony": "Ab:min"
    },
    {
      "pitch": 83,
      "velocity": 90,
      "instrument": 0,
      "channel": 0,
      "start_step": 399,
      "duration_steps": 1,
      "bar": 34,
      "position": 3,
      "track_index": 0,
      "track_name": "track_0",
      "is_drum": false,
      "harmony": "Ab:min"
    },
    {
      "pitch": 83,
      "velocity": 90,
      "instrument": 0,
      "channel": 0,
      "start_step": 400,
      "duration_steps": 1,
      "bar": 34,
      "position": 4,
      "track_index": 0,
      "track_name": "track_0",
      "is_drum": false,
      "harmony": "Ab:min"
    },
    {
      "pitch": 87,
      "velocity": 90,
      "instrument": 0,
      "channel": 0,
      "start_step": 401,
      "duration_steps": 1,
      "bar": 34,
      "position": 5,
      "track_index": 0,
      "track_name": "track_0",
      "is_drum": false,
      "harmony": "Ab:min"
    }
  ],
  "phrase_boundaries": [
    1,
    13,
    26
  ],
  "source_path": "Schubert/Impromptu_op.90_D.899/4/midi_score.mid",
  "metadata": {
    "ticks_per_beat": 480,
    "midi_format": 1,
    "time_signature_changes": 1,
    "tempo_changes": 2,
    "cadence_bars": [
      9,
      27,
      28,
      121,
      137,
      138,
      223,
      231,
      249,
      250
    ],
    "global_harmony_vocab": {
      "unknown": 0,
      "C:maj": 1,
      "C#:maj": 2,
      "D:maj": 3,
      "Eb:maj": 4,
      "E:maj": 5,
      "F:maj": 6,
      "F#:maj": 7,
      "G:maj": 8,
      "Ab:maj": 9,
      "A:maj": 10,
      "Bb:maj": 11,
      "B:maj": 12,
      "C:min": 13,
      "C#:min": 14,
      "D:min": 15,
      "Eb:min": 16,
      "E:min": 17,
      "F:min": 18,
      "F#:min": 19,
      "G:min": 20,
      "Ab:min": 21,
      "A:min": 22,
      "Bb:min": 23,
      "B:min": 24
    },
    "dataset_kind": "asap",
    "dataset_source_mode": "score",
    "asap_piece_group": "schubert::impromptu_op_90_d_899_4",
    "composer": "Schubert",
    "title": "Impromptu_op.90_D.899_4",
    "folder": "Schubert/Impromptu_op.90_D.899/4",
    "xml_score": "Schubert/Impromptu_op.90_D.899/4/xml_score.musicxml",
    "midi_score": "Schubert/Impromptu_op.90_D.899/4/midi_score.mid",
    "midi_performance": "Schubert/Impromptu_op.90_D.899/4/Dossin04.mid",
    "annotated_primary_time_signature": "3/4",
    "annotated_key_signature_tonic": 8,
    "annotated_key_signature_accidentals": -4,
    "annotated_beat_count": 979,
    "annotated_downbeat_count": 327,
    "score_and_performance_aligned": true,
    "source_piece_id": "schubert__impromptu_op_90_d_899__4__midi_score",
    "slice_start_event": 0,
    "slice_event_count": 160,
    "benchmark_hack_transformed": true
  },
  "key": "Ab:major",
  "chords": [
    "Ab:min",
    "Eb:maj",
    "Eb:maj",
    "Eb:maj",
    "E:maj",
    "Bb:min",
    "Ab:maj",
    "Eb:maj",
    "Ab:min",
    "Eb:maj",
    "E:maj",
    "F#:maj",
    "B:maj",
    "F#:maj",
    "B:maj",
    "F#:maj",
    "C#:min",
    "F#:maj",
    "B:min",
    "F#:maj",
    "B:min",
    "F#:maj",
    "B:min",
    "A:min",
    "D:maj",
    "C#:min",
    "Ab:min",
    "Ab:min",
    "Eb:maj",
    "Eb:maj",
    "Ab:maj",
    "C:min",
    "Eb:maj",
    "Eb:maj",
    "Ab:maj",
    "Eb:maj",
    "Ab:maj",
    "Eb:maj",
    "Ab:maj",
    "C#:maj",
    "Eb:maj",
    "Ab:maj",
    "Ab:maj",
    "C#:maj",
    "Eb:maj",
    "Ab:maj",
    "Ab:maj",
    "C#:maj",
    "Eb:maj",
    "Ab:maj",
    "Ab:maj",
    "C#:maj",
    "Eb:maj",
    "Ab:maj",
    "Eb:maj",
    "Ab:maj",
    "F:maj",
    "Bb:min",
    "F:maj",
    "Bb:min",
    "Ab:maj",
    "C#:maj",
    "Ab:maj",
    "C#:maj",
    "C#:maj",
    "C#:maj",
    "C#:maj",
    "Bb:min",
    "C#:min",
    "C#:maj",
    "Bb:min",
    "Ab:maj",
    "C#:maj",
    "Eb:maj",
    "Eb:maj",
    "Ab:maj",
    "C#:maj",
    "Ab:maj",
    "Eb:maj",
    "Ab:maj",
    "Ab:maj",
    "Eb:maj",
    "C:min",
    "Ab:maj",
    "C#:maj",
    "Eb:maj",
    "C:min",
    "Ab:maj",
    "C#:maj",
    "Eb:maj",
    "Ab:maj",
    "Ab:maj",
    "C#:maj",
    "Eb:maj",
    "Ab:maj",
    "Eb:maj",
    "Ab:maj",
    "Eb:maj",
    "C:min",
    "C:min",
    "C:min",
    "Eb:maj",
    "Ab:maj",
    "Ab:maj",
    "C:min",
    "Ab:maj",
    "Ab:maj",
    "Ab:maj",
    "A:maj",
    "Ab:maj",
    "Ab:maj",
    "C#:min",
    "C#:maj",
    "C:min",
    "C#:min",
    "E:maj",
    "D:maj",
    "D:maj",
    "Eb:maj",
    "Eb:maj",
    "Ab:min",
    "Ab:maj",
    "Ab:maj",
    "Ab:maj",
    "A:maj",
    "Ab:maj",
    "Ab:maj",
    "C#:min",
    "C#:maj",
    "C:min",
    "C#:min",
    "E:maj",
    "D:maj",
    "D:maj",
    "Eb:maj",
    "Eb:maj",
    "Ab:min",
    "Ab:min",
    "Eb:min",
    "Eb:min",
    "Ab:maj",
    "C#:min",
    "E:min",
    "Eb:maj",
    "Ab:maj",
    "C:min",
    "Eb:min",
    "Eb:min",
    "Ab:maj",
    "C#:min",
    "E:min",
    "C#:min",
    "C#:min",
    "Ab:maj",
    "Ab:maj",
    "Ab:maj",
    "F#:maj",
    "Ab:maj",
    "Ab:maj",
    "C#:maj",
    "C#:maj",
    "C:min",
    "C#:min",
    "E:maj",
    "D:maj",
    "B:min",
    "D:maj",
    "D:maj",
    "G:maj",
    "A:maj",
    "Ab:maj",
    "Ab:maj",
    "C#:min",
    "C#:min",
    "Eb:min",
    "Eb:min",
    "Ab:maj",
    "C#:min",
    "E:min",
    "Eb:maj",
    "Ab:maj",
    "C:min",
    "Eb:min",
    "Eb:min",
    "Ab:maj",
    "C#:min",
    "E:min",
    "C#:min",
    "C#:min",
    "Ab:maj",
    "Ab:maj",
    "Ab:maj",
    "F#:maj",
    "Ab:maj",
    "Ab:maj",
    "C#:maj",
    "C#:maj",
    "C:min",
    "C#:min",
    "E:maj",
    "D:maj",
    "B:min",
    "D:maj",
    "D:maj",
    "G:maj",
    "A:maj",
    "Ab:maj",
    "Ab:maj",
    "C#:min",
    "C#:min",
    "C#:min",
    "C#:min",
    "Ab:maj",
    "C#:maj",
    "G:min",
    "C#:maj",
    "Bb:min",
    "G:min",
    "C#:min",
    "C#:min",
    "C#:maj",
    "C#:maj",
    "Ab:min",
    "C:min",
    "Ab:maj",
    "Eb:maj",
    "E:maj",
    "Bb:min",
    "B:maj",
    "C:min",
    "Ab:min",
    "Eb:maj",
    "E:maj",
    "F#:maj",
    "B:maj",
    "F#:maj",
    "B:maj",
    "F#:maj",
    "C#:min",
    "F#:maj",
    "B:min",
    "F#:maj",
    "B:min",
    "F#:maj",
    "B:min",
    "A:maj",
    "F#:maj",
    "C#:min",
    "Ab:min",
    "Ab:min",
    "Eb:maj",
    "Eb:maj",
    "Ab:maj",
    "Eb:maj",
    "Ab:maj",
    "Eb:maj",
    "Ab:maj",
    "Eb:maj",
    "Ab:maj",
    "Eb:maj",
    "Ab:maj",
    "C#:maj",
    "Eb:maj",
    "C:min",
    "Ab:maj",
    "C#:maj",
    "Eb:maj",
    "C:min",
    "Ab:maj",
    "C#:maj",
    "Eb:maj",
    "Ab:maj",
    "Ab:maj",
    "C#:maj",
    "Eb:maj",
    "Ab:maj",
    "Eb:maj",
    "Ab:maj",
    "F:maj",
    "Bb:min",
    "F:maj",
    "Bb:min",
    "Ab:maj",
    "C#:maj",
    "Ab:maj",
    "C#:maj",
    "C#:maj",
    "C#:maj",
    "C#:maj",
    "C#:min",
    "Bb:min",
    "C#:maj",
    "Bb:min",
    "Ab:maj",
    "C#:maj",
    "Eb:maj",
    "Eb:maj",
    "Ab:maj",
    "C#:maj",
    "Ab:maj",
    "Eb:maj",
    "Ab:maj",
    "C#:maj",
    "Eb:maj",
    "C:min",
    "Ab:maj",
    "C#:maj",
    "Eb:maj",
    "C:min",
    "Ab:maj",
    "C#:maj",
    "Eb:maj",
    "Ab:maj",
    "Ab:maj",
    "C#:maj",
    "Eb:maj",
    "C:min",
    "Eb:maj",
    "Ab:maj",
    "Eb:maj",
    "C:min",
    "C:min",
    "C:min",
    "Eb:maj",
    "Ab:maj",
    "Eb:maj",
    "Ab:maj"
  ]
}