{
  "piece_id": "bach__prelude__bwv_864__midi_score__sample",
  "resolution": "sixteenth",
  "steps_per_beat": 4,
  "bar_steps": 16,
  "time_signature": "4/4",
  "tempo_bpm": 120.0,
  "note_events": [
    {
      "pitch": 45,
      "velocity": 88,
      "instrument": 0,
      "channel": 0,
      "start_step": 0,
      "duration_steps": 4,
      "bar": 1,
      "position": 0,
      "track_index": 0,
      "track_name": "generated",
      "is_drum": false,
      "harmony": "unknown"
    },
    {
      "pitch": 69,
      "velocity": 88,
      "instrument": 0,
      "channel": 0,
      "start_step": 0,
      "duration_steps": 1,
      "bar": 1,
      "position": 0,
      "track_index": 0,
      "track_name": "generated",
      "is_drum": false,
      "harmony": "unknown"
    },
    {
      "pitch": 71,
      "velocity": 88,
      "instrument": 0,
      "channel": 0,
      "start_step": 1,
      "duration_steps": 1,
      "bar": 1,
      "position": 1,
      "track_index": 0,
      "track_name": "generated",
      "is_drum": false,
      "harmony": "unknown"
    },
    {
      "pitch": 73,
      "velocity": 88,
      "instrument": 0,
      "channel": 0,
      "start_step": 2,
      "duration_steps": 1,
      "bar": 1,
      "position": 2,
      "track_index": 0,
      "track_name": "generated",
      "is_drum": false,
      "harmony": "unknown"
    },
    {
      "pitch": 69,
      "velocity": 88,
      "instrument": 0,
      "channel": 0,
      "start_step": 3,
      "duration_steps": 1,
      "bar": 1,
      "position": 3,
      "track_index": 0,
      "track_name": "generated",
      "is_drum": false,
      "harmony": "unknown"
    },
    {
      "pitch": 57,
      "velocity": 88,
      "instrument": 0,
      "channel": 0,
      "start_step": 4,
      "duration_steps": 4,
      "bar": 1,
      "position": 4,
      "track_index": 0,
      "track_name": "generated",
      "is_drum": false,
      "harmony": "unknown"
    },
    {
      "pitch": 78,
      "velocity": 88,
      "instrument": 0,
      "channel": 0,
      "start_step": 4,
      "duration_steps": 2,
      "bar": 1,
      "position": 4,
      "track_index": 0,
      "track_name": "generated",
      "is_drum": false,
      "harmony": "unknown"
    },
    {
      "pitch": 78,
      "velocity": 88,
      "instrument": 0,
      "channel": 0,
      "start_step": 6,
      "duration_steps": 2,
      "bar": 1,
      "position": 6,
      "track_index": 0,
      "track_name": "generated",
      "is_drum": false,
      "harmony": "unknown"
    },
    {
      "pitch": 56,
      "velocity": 88,
      "instrument": 0,
      "channel": 0,
      "start_step": 8,
      "duration_steps": 4,
      "bar": 1,
      "position": 8,
      "track_index": 0,
      "track_name": "generated",
      "is_drum": false,
      "harmony": "unknown"
    },
    {
      "pitch": 78,
      "velocity": 88,
      "instrument": 0,
      "channel": 0,
      "start_step": 8,
      "duration_steps": 1,
      "bar": 1,
      "position": 8,
      "track_index": 0,
      "track_name": "generated",
      "is_drum": false,
      "harmony": "unknown"
    },
    {
      "pitch": 75,
      "velocity": 88,
      "instrument": 0,
      "channel": 0,
      "start_step": 9,
      "duration_steps": 1,
      "bar": 1,
      "position": 9,
      "track_index": 0,
      "track_name": "generated",
      "is_drum": false,
      "harmony": "unknown"
    },
    {
      "pitch": 76,
      "velocity": 88,
      "instrument": 0,
      "channel": 0,
      "start_step": 10,
      "duration_steps": 2,
      "bar": 1,
      "position": 10,
      "track_index": 0,
      "track_name": "generated",
      "is_drum": false,
      "harmony": "unknown"
    },
    {
      "pitch": 55,
      "velocity": 88,
      "instrument": 0,
      "channel": 0,
      "start_step": 12,
      "duration_steps": 4,
      "bar": 1,
      "position": 12,
      "track_index": 0,
      "track_name": "generated",
      "is_drum": false,
      "harmony": "unknown"
    },
    {
      "pitch": 76,
      "velocity": 88,
      "instrument": 0,
      "channel": 0,
      "start_step": 13,
      "duration_steps": 1,
      "bar": 1,
      "position": 13,
      "track_index": 0,
      "track_name": "generated",
      "is_drum": false,
      "harmony": "unknown"
    },
    {
      "pitch": 64,
      "velocity": 88,
      "instrument": 0,
      "channel": 0,
      "start_step": 14,
      "duration_steps": 4,
      "bar": 1,
      "position": 14,
      "track_index": 0,
      "track_name": "generated",
      "is_drum": false,
      "harmony": "unknown"
    },
    {
      "pitch": 78,
      "velocity": 88,
      "instrument": 0,
      "channel": 0,
      "start_step": 14,
      "duration_steps": 1,
      "bar": 1,
      "position": 14,
      "track_index": 0,
      "track_name": "generated",
      "is_drum": false,
      "harmony": "unknown"
    },
    {
      "pitch": 79,
      "velocity": 88,
      "instrument": 0,
      "channel": 0,
      "start_step": 15,
      "duration_steps": 1,
      "bar": 1,
      "position": 15,
      "track_index": 0,
      "track_name": "generated",
      "is_drum": false,
      "harmony": "unknown"
    },
    {
      "pitch": 54,
      "velocity": 88,
      "instrument": 0,
      "channel": 0,
      "start_step": 16,
      "duration_steps": 4,
      "bar": 2,
      "position": 0,
      "track_index": 0,
      "track_name": "generated",
      "is_drum": false,
      "harmony": "unknown"
    },
    {
      "pitch": 81,
      "velocity": 88,
      "instrument": 0,
      "channel": 0,
      "start_step": 16,
      "duration_steps": 1,
      "bar": 2,
      "position": 0,
      "track_index": 0,
      "track_name": "generated",
      "is_drum": false,
      "harmony": "unknown"
    },
    {
      "pitch": 79,
      "velocity": 88,
      "instrument": 0,
      "channel": 0,
      "start_step": 17,
      "duration_steps": 1,
      "bar": 2,
      "position": 1,
      "track_index": 0,
      "track_name": "generated",
      "is_drum": false,
      "harmony": "unknown"
    },
    {
      "pitch": 57,
      "velocity": 88,
      "instrument": 0,
      "channel": 0,
      "start_step": 18,
      "duration_steps": 2,
      "bar": 2,
      "position": 2,
      "track_index": 0,
      "track_name": "generated",
      "is_drum": false,
      "harmony": "unknown"
    },
    {
      "pitch": 78,
      "velocity": 88,
      "instrument": 0,
      "channel": 0,
      "start_step": 18,
      "duration_steps": 1,
      "bar": 2,
      "position": 2,
      "track_index": 0,
      "track_name": "generated",
      "is_drum": false,
      "harmony": "unknown"
    },
    {
      "pitch": 81,
      "velocity": 88,
      "instrument": 0,
      "channel": 0,
      "start_step": 19,
      "duration_steps": 1,
      "bar": 2,
      "position": 3,
      "track_index": 0,
      "track_name": "generated",
      "is_drum": false,
      "harmony": "unknown"
    },
    {
      "pitch": 59,
      "velocity": 88,
      "instrument": 0,
      "channel": 0,
      "start_step": 20,
      "duration_steps": 4,
      "bar": 2,
      "position": 4,
      "track_index": 0,
      "track_name": "generated",
      "is_drum": false,
      "harmony": "unknown"
    },
    {
      "pitch": 74,
      "velocity": 88,
      "instrument": 0,
      "channel": 0,
      "start_step": 20,
      "duration_steps": 1,
      "bar": 2,
      "position": 4,
      "track_index": 0,
      "track_name": "generated",
      "is_drum": false,
      "harmony": "unknown"
    },
    {
      "pitch": 73,
      "velocity": 88,
      "instrument": 0,
      "channel": 0,
      "start_step": 21,
      "duration_steps": 1,
      "bar": 2,
      "position": 5,
      "track_index": 0,
      "track_name": "generated",
      "is_drum": false,
      "harmony": "unknown"
    },
    {
      "pitch": 62,
      "velocity": 88,
      "instrument": 0,
      "channel": 0,
      "start_step": 22,
      "duration_steps": 4,
      "bar": 2,
      "position": 6,
      "track_index": 0,
      "track_name": "generated",
      "is_drum": false,
      "harmony": "unknown"
    },
    {
      "pitch": 71,
      "velocity": 88,
      "instrument": 0,
      "channel": 0,
      "start_step": 22,
      "duration_steps": 1,
      "bar": 2,
      "position": 6,
      "track_index": 0,
      "track_name": "generated",
      "is_drum": false,
      "harmony": "unknown"
    },
    {
      "pitch": 81,
      "velocity": 88,
      "instrument": 0,
      "channel": 0,
      "start_step": 23,
      "duration_steps": 1,
      "bar": 2,
      "position": 7,
      "track_index": 0,
      "track_name": "generated",
      "is_drum": false,
      "harmony": "unknown"
    },
    {
      "pitch": 52,
      "velocity": 88,
      "instrument": 0,
      "channel": 0,
      "start_step": 24,
      "duration_steps": 4,
      "bar": 2,
      "position": 8,
      "track_index": 0,
      "track_name": "generated",
      "is_drum": false,
      "harmony": "unknown"
    },
    {
      "pitch": 80,
      "velocity": 88,
      "instrument": 0,
      "channel": 0,
      "start_step": 24,
      "duration_steps": 1,
      "bar": 2,
      "position": 8,
      "track_index": 0,
      "track_name": "generated",
      "is_drum": false,
      "harmony": "unknown"
    },
    {
      "pitch": 78,
      "velocity": 88,
      "instrument": 0,
      "channel": 0,
      "start_step": 25,
      "duration_steps": 1,
      "bar": 2,
      "position": 9,
      "track_index": 0,
      "track_name": "generated",
      "is_drum": false,
      "harmony": "unknown"
    },
    {
      "pitch": 56,
      "velocity": 88,
      "instrument": 0,
      "channel": 0,
      "start_step": 26,
      "duration_steps": 2,
      "bar": 2,
      "position": 10,
      "track_index": 0,
      "track_name": "generated",
      "is_drum": false,
      "harmony": "unknown"
    },
    {
      "pitch": 76,
      "velocity": 88,
      "instrument": 0,
      "channel": 0,
      "start_step": 26,
      "duration_steps": 1,
      "bar": 2,
      "position": 10,
      "track_index": 0,
      "track_name": "generated",
      "is_drum": false,
      "harmony": "unknown"
    },
    {
      "pitch": 80,
      "velocity": 88,
      "instrument": 0,
      "channel": 0,
      "start_step": 27,
      "duration_steps": 1,
      "bar": 2,
      "position": 11,
      "track_index": 0,
      "track_name": "generated",
      "is_drum": false,
      "harmony": "unknown"
    },
    {
      "pitch": 57,
      "velocity": 88,
      "instrument": 0,
      "channel": 0,
      "start_step": 28,
      "duration_steps": 4,
      "bar": 2,
      "position": 12,
      "track_index": 0,
      "track_name": "generated",
      "is_drum": false,
      "harmony": "unknown"
    },
    {
      "pitch": 73,
      "velocity": 88,
      "instrument": 0,
      "channel": 0,
      "start_step": 28,
      "duration_steps": 1,
      "bar": 2,
      "position": 12,
      "track_index": 0,
      "track_name": "generated",
      "is_drum": false,
      "harmony": "unknown"
    },
    {
      "pitch": 71,
      "velocity": 88,
      "instrument": 0,
      "channel": 0,
      "start_step": 29,
      "duration_steps": 1,
      "bar": 2,
      "position": 13,
      "track_index": 0,
      "track_name": "generated",
      "is_drum": false,
      "harmony": "unknown"
    },
    {
      "pitch": 61,
      "velocity": 88,
      "instrument": 0,
      "channel": 0,
      "start_step": 30,
      "duration_steps": 4,
      "bar": 2,
      "position": 14,
      "track_index": 0,
      "track_name": "generated",
      "is_drum": false,
      "harmony": "unknown"
    },
    {
      "pitch": 69,
      "velocity": 88,
      "instrument": 0,
      "channel": 0,
      "start_step": 30,
      "duration_steps": 1,
      "bar": 2,
      "position": 14,
      "track_index": 0,
      "track_name": "generated",
      "is_drum": false,
      "harmony": "unknown"
    },
    {
      "pitch": 79,
      "velocity": 88,
      "instrument": 0,
      "channel": 0,
      "start_step": 31,
      "duration_steps": 1,
      "bar": 2,
      "position": 15,
      "track_index": 0,
      "track_name": "generated",
      "is_drum": false,
      "harmony": "unknown"
    },
    {
      "pitch": 50,
      "velocity": 88,
      "instrument": 0,
      "channel": 0,
      "start_step": 32,
      "duration_steps": 4,
      "bar": 3,
      "position": 0,
      "track_index": 0,
      "track_name": "generated",
      "is_drum": false,
      "harmony": "unknown"
    },
    {
      "pitch": 78,
      "velocity": 88,
      "instrument": 0,
      "channel": 0,
      "start_step": 32,
      "duration_steps": 1,
      "bar": 3,
      "position": 0,
      "track_index": 0,
      "track_name": "generated",
      "is_drum": false,
      "harmony": "unknown"
    },
    {
      "pitch": 76,
      "velocity": 88,
      "instrument": 0,
      "channel": 0,
      "start_step": 33,
      "duration_steps": 1,
      "bar": 3,
      "position": 1,
      "track_index": 0,
      "track_name": "generated",
      "is_drum": false,
      "harmony": "unknown"
    },
    {
      "pitch": 59,
      "velocity": 88,
      "instrument": 0,
      "channel": 0,
      "start_step": 34,
      "duration_steps": 1,
      "bar": 3,
      "position": 2,
      "track_index": 0,
      "track_name": "generated",
      "is_drum": false,
      "harmony": "unknown"
    },
    {
      "pitch": 74,
      "velocity": 88,
      "instrument": 0,
      "channel": 0,
      "start_step": 34,
      "duration_steps": 1,
      "bar": 3,
      "position": 2,
      "track_index": 0,
      "track_name": "generated",
      "is_drum": false,
      "harmony": "unknown"
    },
    {
      "pitch": 57,
      "velocity": 88,
      "instrument": 0,
      "channel": 0,
      "start_step": 35,
      "duration_steps": 1,
      "bar": 3,
      "position": 3,
      "track_index": 0,
      "track_name": "generated",
      "is_drum": false,
      "harmony": "unknown"
    },
    {
      "pitch": 78,
      "velocity": 88,
      "instrument": 0,
      "channel": 0,
      "start_step": 35,
      "duration_steps": 1,
      "bar": 3,
      "position": 3,
      "track_index": 0,
      "track_name": "generated",
      "is_drum": false,
      "harmony": "unknown"
    },
    {
      "pitch": 52,
      "velocity": 88,
      "instrument": 0,
      "channel": 0,
      "start_step": 36,
      "duration_steps": 4,
      "bar": 3,
      "position": 4,
      "track_index": 0,
      "track_name": "generated",
      "is_drum": false,
      "harmony": "unknown"
    },
    {
      "pitch": 56,
      "velocity": 88,
      "instrument": 0,
      "channel": 0,
      "start_step": 36,
      "duration_steps": 1,
      "bar": 3,
      "position": 4,
      "track_index": 0,
      "track_name": "generated",
      "is_drum": false,
      "harmony": "unknown"
    },
    {
      "pitch": 56,
      "velocity": 88,
      "instrument": 0,
      "channel": 0,
      "start_step": 36,
      "duration_steps": 1,
      "bar": 3,
      "position": 4,
      "track_index": 0,
      "track_name": "generated",
      "is_drum": false,
      "harmony": "unknown"
    },
    {
      "pitch": 57,
      "velocity": 88,
      "instrument": 0,
      "channel": 0,
      "start_step": 36,
      "duration_steps": 1,
      "bar": 3,
      "position": 4,
      "track_index": 0,
      "track_name": "generated",
      "is_drum": false,
      "harmony": "unknown"
    },
    {
      "pitch": 57,
      "velocity": 88,
      "instrument": 0,
      "channel": 0,
      "start_step": 36,
      "duration_steps": 1,
      "bar": 3,
      "position": 4,
      "track_index": 0,
      "track_name": "generated",
      "is_drum": false,
      "harmony": "unknown"
    },
    {
      "pitch": 71,
      "velocity": 88,
      "instrument": 0,
      "channel": 0,
      "start_step": 36,
      "duration_steps": 1,
      "bar": 3,
      "position": 4,
      "track_index": 0,
      "track_name": "generated",
      "is_drum": false,
      "harmony": "unknown"
    },
    {
      "pitch": 56,
      "velocity": 88,
      "instrument": 0,
      "channel": 0,
      "start_step": 37,
      "duration_steps": 1,
      "bar": 3,
      "position": 5,
      "track_index": 0,
      "track_name": "generated",
      "is_drum": false,
      "harmony": "unknown"
    },
    {
      "pitch": 57,
      "velocity": 88,
      "instrument": 0,
      "channel": 0,
      "start_step": 37,
      "duration_steps": 1,
      "bar": 3,
      "position": 5,
      "track_index": 0,
      "track_name": "generated",
      "is_drum": false,
      "harmony": "unknown"
    },
    {
      "pitch": 78,
      "velocity": 88,
      "instrument": 0,
      "channel": 0,
      "start_step": 37,
      "duration_steps": 1,
      "bar": 3,
      "position": 5,
      "track_index": 0,
      "track_name": "generated",
      "is_drum": false,
      "harmony": "unknown"
    },
    {
      "pitch": 56,
      "velocity": 88,
      "instrument": 0,
      "channel": 0,
      "start_step": 38,
      "duration_steps": 1,
      "bar": 3,
      "position": 6,
      "track_index": 0,
      "track_name": "generated",
      "is_drum": false,
      "harmony": "unknown"
    },
    {
      "pitch": 76,
      "velocity": 88,
      "instrument": 0,
      "channel": 0,
      "start_step": 38,
      "duration_steps": 1,
      "bar": 3,
      "position": 6,
      "track_index": 0,
      "track_name": "generated",
      "is_drum": false,
      "harmony": "unknown"
    },
    {
      "pitch": 56,
      "velocity": 88,
      "instrument": 0,
      "channel": 0,
      "start_step": 39,
      "duration_steps": 1,
      "bar": 3,
      "position": 7,
      "track_index": 0,
      "track_name": "generated",
      "is_drum": false,
      "harmony": "unknown"
    },
    {
      "pitch": 74,
      "velocity": 88,
      "instrument": 0,
      "channel": 0,
      "start_step": 39,
      "duration_steps": 1,
      "bar": 3,
      "position": 7,
      "track_index": 0,
      "track_name": "generated",
      "is_drum": false,
      "harmony": "unknown"
    },
    {
      "pitch": 45,
      "velocity": 88,
      "instrument": 0,
      "channel": 0,
      "start_step": 40,
      "duration_steps": 2,
      "bar": 3,
      "position": 8,
      "track_index": 0,
      "track_name": "generated",
      "is_drum": false,
      "harmony": "unknown"
    },
    {
      "pitch": 57,
      "velocity": 88,
      "instrument": 0,
      "channel": 0,
      "start_step": 40,
      "duration_steps": 2,
      "bar": 3,
      "position": 8,
      "track_index": 0,
      "track_name": "generated",
      "is_drum": false,
      "harmony": "unknown"
    },
    {
      "pitch": 73,
      "velocity": 88,
      "instrument": 0,
      "channel": 0,
      "start_step": 40,
      "duration_steps": 1,
      "bar": 3,
      "position": 8,
      "track_index": 0,
      "track_name": "generated",
      "is_drum": false,
      "harmony": "unknown"
    },
    {
      "pitch": 69,
      "velocity": 88,
      "instrument": 0,
      "channel": 0,
      "start_step": 41,
      "duration_steps": 1,
      "bar": 3,
      "position": 9,
      "track_index": 0,
      "track_name": "generated",
      "is_drum": false,
      "harmony": "unknown"
    },
    {
      "pitch": 69,
      "velocity": 88,
      "instrument": 0,
      "channel": 0,
      "start_step": 41,
      "duration_steps": 1,
      "bar": 3,
      "position": 9,
      "track_index": 0,
      "track_name": "generated",
      "is_drum": false,
      "harmony": "unknown"
    },
    {
      "pitch": 69,
      "velocity": 88,
      "instrument": 0,
      "channel": 0,
      "start_step": 41,
      "duration_steps": 1,
      "bar": 3,
      "position": 9,
      "track_index": 0,
      "track_name": "generated",
      "is_drum": false,
      "harmony": "unknown"
    },
    {
      "pitch": 57,
      "velocity": 88,
      "instrument": 0,
      "channel": 0,
      "start_step": 42,
      "duration_steps": 1,
      "bar": 3,
      "position": 10,
      "track_index": 0,
      "track_name": "generated",
      "is_drum": false,
      "harmony": "unknown"
    },
    {
      "pitch": 45,
      "velocity": 88,
      "instrument": 0,
      "channel": 0,
      "start_step": 43,
      "duration_steps": 1,
      "bar": 3,
      "position": 11,
      "track_index": 0,
      "track_name": "generated",
      "is_drum": false,
      "harmony": "unknown"
    },
    {
      "pitch": 69,
      "velocity": 88,
      "instrument": 0,
      "channel": 0,
      "start_step": 43,
      "duration_steps": 1,
      "bar": 3,
      "position": 11,
      "track_index": 0,
      "track_name": "generated",
      "is_drum": false,
      "harmony": "unknown"
    },
    {
      "pitch": 73,
      "velocity": 88,
      "instrument": 0,
      "channel": 0,
      "start_step": 44,
      "duration_steps": 2,
      "bar": 3,
      "position": 12,
      "track_index": 0,
      "track_name": "generated",
      "is_drum": false,
      "harmony": "unknown"
    },
    {
      "pitch": 57,
      "velocity": 88,
      "instrument": 0,
      "channel": 0,
      "start_step": 46,
      "duration_steps": 1,
      "bar": 3,
      "position": 14,
      "track_index": 0,
      "track_name": "generated",
      "is_drum": false,
      "harmony": "unknown"
    },
    {
      "pitch": 57,
      "velocity": 88,
      "instrument": 0,
      "channel": 0,
      "start_step": 48,
      "duration_steps": 1,
      "bar": 4,
      "position": 0,
      "track_index": 0,
      "track_name": "generated",
      "is_drum": false,
      "harmony": "unknown"
    },
    {
      "pitch": 69,
      "velocity": 88,
      "instrument": 0,
      "channel": 0,
      "start_step": 49,
      "duration_steps": 1,
      "bar": 4,
      "position": 1,
      "track_index": 0,
      "track_name": "generated",
      "is_drum": false,
      "harmony": "unknown"
    },
    {
      "pitch": 45,
      "velocity": 88,
      "instrument": 0,
      "channel": 0,
      "start_step": 51,
      "duration_steps": 1,
      "bar": 4,
      "position": 3,
      "track_index": 0,
      "track_name": "generated",
      "is_drum": false,
      "harmony": "unknown"
    },
    {
      "pitch": 57,
      "velocity": 88,
      "instrument": 0,
      "channel": 0,
      "start_step": 51,
      "duration_steps": 1,
      "bar": 4,
      "position": 3,
      "track_index": 0,
      "track_name": "generated",
      "is_drum": false,
      "harmony": "unknown"
    },
    {
      "pitch": 64,
      "velocity": 88,
      "instrument": 0,
      "channel": 0,
      "start_step": 51,
      "duration_steps": 1,
      "bar": 4,
      "position": 3,
      "track_index": 0,
      "track_name": "generated",
      "is_drum": false,
      "harmony": "unknown"
    },
    {
      "pitch": 69,
      "velocity": 88,
      "instrument": 0,
      "channel": 0,
      "start_step": 52,
      "duration_steps": 1,
      "bar": 4,
      "position": 4,
      "track_index": 0,
      "track_name": "generated",
      "is_drum": false,
      "harmony": "unknown"
    },
    {
      "pitch": 57,
      "velocity": 88,
      "instrument": 0,
      "channel": 0,
      "start_step": 53,
      "duration_steps": 1,
      "bar": 4,
      "position": 5,
      "track_index": 0,
      "track_name": "generated",
      "is_drum": false,
      "harmony": "unknown"
    },
    {
      "pitch": 64,
      "velocity": 88,
      "instrument": 0,
      "channel": 0,
      "start_step": 53,
      "duration_steps": 1,
      "bar": 4,
      "position": 5,
      "track_index": 0,
      "track_name": "generated",
      "is_drum": false,
      "harmony": "unknown"
    },
    {
      "pitch": 81,
      "velocity": 88,
      "instrument": 0,
      "channel": 0,
      "start_step": 53,
      "duration_steps": 1,
      "bar": 4,
      "position": 5,
      "track_index": 0,
      "track_name": "generated",
      "is_drum": false,
      "harmony": "unknown"
    },
    {
      "pitch": 45,
      "velocity": 88,
      "instrument": 0,
      "channel": 0,
      "start_step": 54,
      "duration_steps": 1,
      "bar": 4,
      "position": 6,
      "track_index": 0,
      "track_name": "generated",
      "is_drum": false,
      "harmony": "unknown"
    },
    {
      "pitch": 61,
      "velocity": 88,
      "instrument": 0,
      "channel": 0,
      "start_step": 55,
      "duration_steps": 1,
      "bar": 4,
      "position": 7,
      "track_index": 0,
      "track_name": "generated",
      "is_drum": false,
      "harmony": "unknown"
    },
    {
      "pitch": 69,
      "velocity": 88,
      "instrument": 0,
      "channel": 0,
      "start_step": 56,
      "duration_steps": 1,
      "bar": 4,
      "position": 8,
      "track_index": 0,
      "track_name": "generated",
      "is_drum": false,
      "harmony": "unknown"
    },
    {
      "pitch": 69,
      "velocity": 88,
      "instrument": 0,
      "channel": 0,
      "start_step": 56,
      "duration_steps": 1,
      "bar": 4,
      "position": 8,
      "track_index": 0,
      "track_name": "generated",
      "is_drum": false,
      "harmony": "unknown"
    },
    {
      "pitch": 69,
      "velocity": 88,
      "instrument": 0,
      "channel": 0,
      "start_step": 57,
      "duration_steps": 1,
      "bar": 4,
      "position": 9,
      "track_index": 0,
      "track_name": "generated",
      "is_drum": false,
      "harmony": "unknown"
    },
    {
      "pitch": 69,
      "velocity": 88,
      "instrument": 0,
      "channel": 0,
      "start_step": 57,
      "duration_steps": 1,
      "bar": 4,
      "position": 9,
      "track_index": 0,
      "track_name": "generated",
      "is_drum": false,
      "harmony": "unknown"
    },
    {
      "pitch": 81,
      "velocity": 88,
      "instrument": 0,
      "channel": 0,
      "start_step": 57,
      "duration_steps": 2,
      "bar": 4,
      "position": 9,
      "track_index": 0,
      "track_name": "generated",
      "is_drum": false,
      "harmony": "unknown"
    },
    {
      "pitch": 81,
      "velocity": 88,
      "instrument": 0,
      "channel": 0,
      "start_step": 58,
      "duration_steps": 1,
      "bar": 4,
      "position": 10,
      "track_index": 0,
      "track_name": "generated",
      "is_drum": false,
      "harmony": "unknown"
    },
    {
      "pitch": 69,
      "velocity": 88,
      "instrument": 0,
      "channel": 0,
      "start_step": 60,
      "duration_steps": 1,
      "bar": 4,
      "position": 12,
      "track_index": 0,
      "track_name": "generated",
      "is_drum": false,
      "harmony": "unknown"
    },
    {
      "pitch": 69,
      "velocity": 88,
      "instrument": 0,
      "channel": 0,
      "start_step": 61,
      "duration_steps": 1,
      "bar": 4,
      "position": 13,
      "track_index": 0,
      "track_name": "generated",
      "is_drum": false,
      "harmony": "unknown"
    },
    {
      "pitch": 57,
      "velocity": 88,
      "instrument": 0,
      "channel": 0,
      "start_step": 62,
      "duration_steps": 1,
      "bar": 4,
      "position": 14,
      "track_index": 0,
      "track_name": "generated",
      "is_drum": false,
      "harmony": "unknown"
    },
    {
      "pitch": 45,
      "velocity": 88,
      "instrument": 0,
      "channel": 0,
      "start_step": 63,
      "duration_steps": 2,
      "bar": 4,
      "position": 15,
      "track_index": 0,
      "track_name": "generated",
      "is_drum": false,
      "harmony": "unknown"
    },
    {
      "pitch": 73,
      "velocity": 88,
      "instrument": 0,
      "channel": 0,
      "start_step": 64,
      "duration_steps": 1,
      "bar": 5,
      "position": 0,
      "track_index": 0,
      "track_name": "generated",
      "is_drum": false,
      "harmony": "unknown"
    },
    {
      "pitch": 57,
      "velocity": 88,
      "instrument": 0,
      "channel": 0,
      "start_step": 64,
      "duration_steps": 1,
      "bar": 5,
      "position": 0,
      "track_index": 0,
      "track_name": "generated",
      "is_drum": false,
      "harmony": "unknown"
    },
    {
      "pitch": 73,
      "velocity": 88,
      "instrument": 0,
      "channel": 0,
      "start_step": 64,
      "duration_steps": 1,
      "bar": 5,
      "position": 0,
      "track_index": 0,
      "track_name": "generated",
      "is_drum": false,
      "harmony": "unknown"
    },
    {
      "pitch": 45,
      "velocity": 88,
      "instrument": 0,
      "channel": 0,
      "start_step": 65,
      "duration_steps": 1,
      "bar": 5,
      "position": 1,
      "track_index": 0,
      "track_name": "generated",
      "is_drum": false,
      "harmony": "unknown"
    },
    {
      "pitch": 69,
      "velocity": 88,
      "instrument": 0,
      "channel": 0,
      "start_step": 66,
      "duration_steps": 1,
      "bar": 5,
      "position": 2,
      "track_index": 0,
      "track_name": "generated",
      "is_drum": false,
      "harmony": "unknown"
    },
    {
      "pitch": 81,
      "velocity": 88,
      "instrument": 0,
      "channel": 0,
      "start_step": 67,
      "duration_steps": 1,
      "bar": 5,
      "position": 3,
      "track_index": 0,
      "track_name": "generated",
      "is_drum": false,
      "harmony": "unknown"
    },
    {
      "pitch": 69,
      "velocity": 88,
      "instrument": 0,
      "channel": 0,
      "start_step": 68,
      "duration_steps": 1,
      "bar": 5,
      "position": 4,
      "track_index": 0,
      "track_name": "generated",
      "is_drum": false,
      "harmony": "unknown"
    },
    {
      "pitch": 57,
      "velocity": 88,
      "instrument": 0,
      "channel": 0,
      "start_step": 70,
      "duration_steps": 1,
      "bar": 5,
      "position": 6,
      "track_index": 0,
      "track_name": "generated",
      "is_drum": false,
      "harmony": "unknown"
    },
    {
      "pitch": 69,
      "velocity": 88,
      "instrument": 0,
      "channel": 0,
      "start_step": 70,
      "duration_steps": 1,
      "bar": 5,
      "position": 6,
      "track_index": 0,
      "track_name": "generated",
      "is_drum": false,
      "harmony": "unknown"
    },
    {
      "pitch": 69,
      "velocity": 88,
      "instrument": 0,
      "channel": 0,
      "start_step": 71,
      "duration_steps": 1,
      "bar": 5,
      "position": 7,
      "track_index": 0,
      "track_name": "generated",
      "is_drum": false,
      "harmony": "unknown"
    },
    {
      "pitch": 45,
      "velocity": 88,
      "instrument": 0,
      "channel": 0,
      "start_step": 72,
      "duration_steps": 1,
      "bar": 5,
      "position": 8,
      "track_index": 0,
      "track_name": "generated",
      "is_drum": false,
      "harmony": "unknown"
    },
    {
      "pitch": 57,
      "velocity": 88,
      "instrument": 0,
      "channel": 0,
      "start_step": 73,
      "duration_steps": 1,
      "bar": 5,
      "position": 9,
      "track_index": 0,
      "track_name": "generated",
      "is_drum": false,
      "harmony": "unknown"
    },
    {
      "pitch": 69,
      "velocity": 88,
      "instrument": 0,
      "channel": 0,
      "start_step": 73,
      "duration_steps": 1,
      "bar": 5,
      "position": 9,
      "track_index": 0,
      "track_name": "generated",
      "is_drum": false,
      "harmony": "unknown"
    },
    {
      "pitch": 73,
      "velocity": 88,
      "instrument": 0,
      "channel": 0,
      "start_step": 73,
      "duration_steps": 1,
      "bar": 5,
      "position": 9,
      "track_index": 0,
      "track_name": "generated",
      "is_drum": false,
      "harmony": "unknown"
    },
    {
      "pitch": 69,
      "velocity": 88,
      "instrument": 0,
      "channel": 0,
      "start_step": 73,
      "duration_steps": 1,
      "bar": 5,
      "position": 9,
      "track_index": 0,
      "track_name": "generated",
      "is_drum": false,
      "harmony": "unknown"
    },
    {
      "pitch": 69,
      "velocity": 88,
      "instrument": 0,
      "channel": 0,
      "start_step": 74,
      "duration_steps": 1,
      "bar": 5,
      "position": 10,
      "track_index": 0,
      "track_name": "generated",
      "is_drum": false,
      "harmony": "unknown"
    },
    {
      "pitch": 74,
      "velocity": 88,
      "instrument": 0,
      "channel": 0,
      "start_step": 74,
      "duration_steps": 1,
      "bar": 5,
      "position": 10,
      "track_index": 0,
      "track_name": "generated",
      "is_drum": false,
      "harmony": "unknown"
    },
    {
      "pitch": 69,
      "velocity": 88,
      "instrument": 0,
      "channel": 0,
      "start_step": 74,
      "duration_steps": 1,
      "bar": 5,
      "position": 10,
      "track_index": 0,
      "track_name": "generated",
      "is_drum": false,
      "harmony": "unknown"
    },
    {
      "pitch": 57,
      "velocity": 88,
      "instrument": 0,
      "channel": 0,
      "start_step": 75,
      "duration_steps": 1,
      "bar": 5,
      "position": 11,
      "track_index": 0,
      "track_name": "generated",
      "is_drum": false,
      "harmony": "unknown"
    },
    {
      "pitch": 45,
      "velocity": 88,
      "instrument": 0,
      "channel": 0,
      "start_step": 76,
      "duration_steps": 1,
      "bar": 5,
      "position": 12,
      "track_index": 0,
      "track_name": "generated",
      "is_drum": false,
      "harmony": "unknown"
    },
    {
      "pitch": 69,
      "velocity": 88,
      "instrument": 0,
      "channel": 0,
      "start_step": 76,
      "duration_steps": 1,
      "bar": 5,
      "position": 12,
      "track_index": 0,
      "track_name": "generated",
      "is_drum": false,
      "harmony": "unknown"
    },
    {
      "pitch": 69,
      "velocity": 88,
      "instrument": 0,
      "channel": 0,
      "start_step": 76,
      "duration_steps": 1,
      "bar": 5,
      "position": 12,
      "track_index": 0,
      "track_name": "generated",
      "is_drum": false,
      "harmony": "unknown"
    },
    {
      "pitch": 45,
      "velocity": 88,
      "instrument": 0,
      "channel": 0,
      "start_step": 76,
      "duration_steps": 1,
      "bar": 5,
      "position": 12,
      "track_index": 0,
      "track_name": "generated",
      "is_drum": false,
      "harmony": "unknown"
    },
    {
      "pitch": 69,
      "velocity": 88,
      "instrument": 0,
      "channel": 0,
      "start_step": 76,
      "duration_steps": 1,
      "bar": 5,
      "position": 12,
      "track_index": 0,
      "track_name": "generated",
      "is_drum": false,
      "harmony": "unknown"
    },
    {
      "pitch": 74,
      "velocity": 88,
      "instrument": 0,
      "channel": 0,
      "start_step": 76,
      "duration_steps": 1,
      "bar": 5,
      "position": 12,
      "track_index": 0,
      "track_name": "generated",
      "is_drum": false,
      "harmony": "unknown"
    },
    {
      "pitch": 76,
      "velocity": 88,
      "instrument": 0,
      "channel": 0,
      "start_step": 78,
      "duration_steps": 1,
      "bar": 5,
      "position": 14,
      "track_index": 0,
      "track_name": "generated",
      "is_drum": false,
      "harmony": "unknown"
    },
    {
      "pitch": 76,
      "velocity": 88,
      "instrument": 0,
      "channel": 0,
      "start_step": 78,
      "duration_steps": 1,
      "bar": 5,
      "position": 14,
      "track_index": 0,
      "track_name": "generated",
      "is_drum": false,
      "harmony": "unknown"
    },
    {
      "pitch": 69,
      "velocity": 88,
      "instrument": 0,
      "channel": 0,
      "start_step": 80,
      "duration_steps": 1,
      "bar": 6,
      "position": 0,
      "track_index": 0,
      "track_name": "generated",
      "is_drum": false,
      "harmony": "unknown"
    },
    {
      "pitch": 81,
      "velocity": 88,
      "instrument": 0,
      "channel": 0,
      "start_step": 80,
      "duration_steps": 1,
      "bar": 6,
      "position": 0,
      "track_index": 0,
      "track_name": "generated",
      "is_drum": false,
      "harmony": "unknown"
    },
    {
      "pitch": 57,
      "velocity": 88,
      "instrument": 0,
      "channel": 0,
      "start_step": 81,
      "duration_steps": 1,
      "bar": 6,
      "position": 1,
      "track_index": 0,
      "track_name": "generated",
      "is_drum": false,
      "harmony": "unknown"
    },
    {
      "pitch": 57,
      "velocity": 88,
      "instrument": 0,
      "channel": 0,
      "start_step": 82,
      "duration_steps": 1,
      "bar": 6,
      "position": 2,
      "track_index": 0,
      "track_name": "generated",
      "is_drum": false,
      "harmony": "unknown"
    },
    {
      "pitch": 45,
      "velocity": 88,
      "instrument": 0,
      "channel": 0,
      "start_step": 82,
      "duration_steps": 1,
      "bar": 6,
      "position": 2,
      "track_index": 0,
      "track_name": "generated",
      "is_drum": false,
      "harmony": "unknown"
    },
    {
      "pitch": 69,
      "velocity": 88,
      "instrument": 0,
      "channel": 0,
      "start_step": 83,
      "duration_steps": 1,
      "bar": 6,
      "position": 3,
      "track_index": 0,
      "track_name": "generated",
      "is_drum": false,
      "harmony": "unknown"
    },
    {
      "pitch": 57,
      "velocity": 88,
      "instrument": 0,
      "channel": 0,
      "start_step": 84,
      "duration_steps": 1,
      "bar": 6,
      "position": 4,
      "track_index": 0,
      "track_name": "generated",
      "is_drum": false,
      "harmony": "unknown"
    },
    {
      "pitch": 62,
      "velocity": 88,
      "instrument": 0,
      "channel": 0,
      "start_step": 85,
      "duration_steps": 1,
      "bar": 6,
      "position": 5,
      "track_index": 0,
      "track_name": "generated",
      "is_drum": false,
      "harmony": "unknown"
    },
    {
      "pitch": 64,
      "velocity": 88,
      "instrument": 0,
      "channel": 0,
      "start_step": 86,
      "duration_steps": 1,
      "bar": 6,
      "position": 6,
      "track_index": 0,
      "track_name": "generated",
      "is_drum": false,
      "harmony": "unknown"
    },
    {
      "pitch": 57,
      "velocity": 88,
      "instrument": 0,
      "channel": 0,
      "start_step": 87,
      "duration_steps": 1,
      "bar": 6,
      "position": 7,
      "track_index": 0,
      "track_name": "generated",
      "is_drum": false,
      "harmony": "unknown"
    },
    {
      "pitch": 69,
      "velocity": 88,
      "instrument": 0,
      "channel": 0,
      "start_step": 87,
      "duration_steps": 1,
      "bar": 6,
      "position": 7,
      "track_index": 0,
      "track_name": "generated",
      "is_drum": false,
      "harmony": "unknown"
    },
    {
      "pitch": 57,
      "velocity": 88,
      "instrument": 0,
      "channel": 0,
      "start_step": 88,
      "duration_steps": 1,
      "bar": 6,
      "position": 8,
      "track_index": 0,
      "track_name": "generated",
      "is_drum": false,
      "harmony": "unknown"
    },
    {
      "pitch": 61,
      "velocity": 88,
      "instrument": 0,
      "channel": 0,
      "start_step": 88,
      "duration_steps": 1,
      "bar": 6,
      "position": 8,
      "track_index": 0,
      "track_name": "generated",
      "is_drum": false,
      "harmony": "unknown"
    },
    {
      "pitch": 57,
      "velocity": 88,
      "instrument": 0,
      "channel": 0,
      "start_step": 88,
      "duration_steps": 1,
      "bar": 6,
      "position": 8,
      "track_index": 0,
      "track_name": "generated",
      "is_drum": false,
      "harmony": "unknown"
    },
    {
      "pitch": 45,
      "velocity": 88,
      "instrument": 0,
      "channel": 0,
      "start_step": 89,
      "duration_steps": 1,
      "bar": 6,
      "position": 9,
      "track_index": 0,
      "track_name": "generated",
      "is_drum": false,
      "harmony": "unknown"
    },
    {
      "pitch": 81,
      "velocity": 88,
      "instrument": 0,
      "channel": 0,
      "start_step": 90,
      "duration_steps": 2,
      "bar": 6,
      "position": 10,
      "track_index": 0,
      "track_name": "generated",
      "is_drum": false,
      "harmony": "unknown"
    },
    {
      "pitch": 69,
      "velocity": 88,
      "instrument": 0,
      "channel": 0,
      "start_step": 91,
      "duration_steps": 2,
      "bar": 6,
      "position": 11,
      "track_index": 0,
      "track_name": "generated",
      "is_drum": false,
      "harmony": "unknown"
    },
    {
      "pitch": 69,
      "velocity": 88,
      "instrument": 0,
      "channel": 0,
      "start_step": 92,
      "duration_steps": 2,
      "bar": 6,
      "position": 12,
      "track_index": 0,
      "track_name": "generated",
      "is_drum": false,
      "harmony": "unknown"
    },
    {
      "pitch": 81,
      "velocity": 88,
      "instrument": 0,
      "channel": 0,
      "start_step": 92,
      "duration_steps": 2,
      "bar": 6,
      "position": 12,
      "track_index": 0,
      "track_name": "generated",
      "is_drum": false,
      "harmony": "unknown"
    },
    {
      "pitch": 69,
      "velocity": 88,
      "instrument": 0,
      "channel": 0,
      "start_step": 94,
      "duration_steps": 1,
      "bar": 6,
      "position": 14,
      "track_index": 0,
      "track_name": "generated",
      "is_drum": false,
      "harmony": "unknown"
    },
    {
      "pitch": 74,
      "velocity": 88,
      "instrument": 0,
      "channel": 0,
      "start_step": 96,
      "duration_steps": 1,
      "bar": 7,
      "position": 0,
      "track_index": 0,
      "track_name": "generated",
      "is_drum": false,
      "harmony": "unknown"
    },
    {
      "pitch": 69,
      "velocity": 88,
      "instrument": 0,
      "channel": 0,
      "start_step": 97,
      "duration_steps": 1,
      "bar": 7,
      "position": 1,
      "track_index": 0,
      "track_name": "generated",
      "is_drum": false,
      "harmony": "unknown"
    },
    {
      "pitch": 45,
      "velocity": 88,
      "instrument": 0,
      "channel": 0,
      "start_step": 98,
      "duration_steps": 1,
      "bar": 7,
      "position": 2,
      "track_index": 0,
      "track_name": "generated",
      "is_drum": false,
      "harmony": "unknown"
    },
    {
      "pitch": 69,
      "velocity": 88,
      "instrument": 0,
      "channel": 0,
      "start_step": 99,
      "duration_steps": 1,
      "bar": 7,
      "position": 3,
      "track_index": 0,
      "track_name": "generated",
      "is_drum": false,
      "harmony": "unknown"
    },
    {
      "pitch": 73,
      "velocity": 88,
      "instrument": 0,
      "channel": 0,
      "start_step": 99,
      "duration_steps": 1,
      "bar": 7,
      "position": 3,
      "track_index": 0,
      "track_name": "generated",
      "is_drum": false,
      "harmony": "unknown"
    },
    {
      "pitch": 69,
      "velocity": 88,
      "instrument": 0,
      "channel": 0,
      "start_step": 100,
      "duration_steps": 1,
      "bar": 7,
      "position": 4,
      "track_index": 0,
      "track_name": "generated",
      "is_drum": false,
      "harmony": "unknown"
    },
    {
      "pitch": 69,
      "velocity": 88,
      "instrument": 0,
      "channel": 0,
      "start_step": 101,
      "duration_steps": 1,
      "bar": 7,
      "position": 5,
      "track_index": 0,
      "track_name": "generated",
      "is_drum": false,
      "harmony": "unknown"
    },
    {
      "pitch": 57,
      "velocity": 88,
      "instrument": 0,
      "channel": 0,
      "start_step": 103,
      "duration_steps": 1,
      "bar": 7,
      "position": 7,
      "track_index": 0,
      "track_name": "generated",
      "is_drum": false,
      "harmony": "unknown"
    },
    {
      "pitch": 61,
      "velocity": 88,
      "instrument": 0,
      "channel": 0,
      "start_step": 103,
      "duration_steps": 1,
      "bar": 7,
      "position": 7,
      "track_index": 0,
      "track_name": "generated",
      "is_drum": false,
      "harmony": "unknown"
    },
    {
      "pitch": 57,
      "velocity": 88,
      "instrument": 0,
      "channel": 0,
      "start_step": 104,
      "duration_steps": 1,
      "bar": 7,
      "position": 8,
      "track_index": 0,
      "track_name": "generated",
      "is_drum": false,
      "harmony": "unknown"
    },
    {
      "pitch": 74,
      "velocity": 88,
      "instrument": 0,
      "channel": 0,
      "start_step": 104,
      "duration_steps": 2,
      "bar": 7,
      "position": 8,
      "track_index": 0,
      "track_name": "generated",
      "is_drum": false,
      "harmony": "unknown"
    },
    {
      "pitch": 69,
      "velocity": 88,
      "instrument": 0,
      "channel": 0,
      "start_step": 104,
      "duration_steps": 2,
      "bar": 7,
      "position": 8,
      "track_index": 0,
      "track_name": "generated",
      "is_drum": false,
      "harmony": "unknown"
    },
    {
      "pitch": 69,
      "velocity": 88,
      "instrument": 0,
      "channel": 0,
      "start_step": 104,
      "duration_steps": 1,
      "bar": 7,
      "position": 8,
      "track_index": 0,
      "track_name": "generated",
      "is_drum": false,
      "harmony": "unknown"
    },
    {
      "pitch": 69,
      "velocity": 88,
      "instrument": 0,
      "channel": 0,
      "start_step": 104,
      "duration_steps": 2,
      "bar": 7,
      "position": 8,
      "track_index": 0,
      "track_name": "generated",
      "is_drum": false,
      "harmony": "unknown"
    },
    {
      "pitch": 81,
      "velocity": 88,
      "instrument": 0,
      "channel": 0,
      "start_step": 105,
      "duration_steps": 1,
      "bar": 7,
      "position": 9,
      "track_index": 0,
      "track_name": "generated",
      "is_drum": false,
      "harmony": "unknown"
    },
    {
      "pitch": 69,
      "velocity": 88,
      "instrument": 0,
      "channel": 0,
      "start_step": 105,
      "duration_steps": 1,
      "bar": 7,
      "position": 9,
      "track_index": 0,
      "track_name": "generated",
      "is_drum": false,
      "harmony": "unknown"
    },
    {
      "pitch": 69,
      "velocity": 88,
      "instrument": 0,
      "channel": 0,
      "start_step": 120,
      "duration_steps": 1,
      "bar": 8,
      "position": 8,
      "track_index": 0,
      "track_name": "generated",
      "is_drum": false,
      "harmony": "unknown"
    },
    {
      "pitch": 73,
      "velocity": 88,
      "instrument": 0,
      "channel": 0,
      "start_step": 121,
      "duration_steps": 1,
      "bar": 8,
      "position": 9,
      "track_index": 0,
      "track_name": "generated",
      "is_drum": false,
      "harmony": "unknown"
    },
    {
      "pitch": 69,
      "velocity": 88,
      "instrument": 0,
      "channel": 0,
      "start_step": 124,
      "duration_steps": 1,
      "bar": 8,
      "position": 12,
      "track_index": 0,
      "track_name": "generated",
      "is_drum": false,
      "harmony": "unknown"
    },
    {
      "pitch": 81,
      "velocity": 88,
      "instrument": 0,
      "channel": 0,
      "start_step": 124,
      "duration_steps": 1,
      "bar": 8,
      "position": 12,
      "track_index": 0,
      "track_name": "generated",
      "is_drum": false,
      "harmony": "unknown"
    }
  ],
  "phrase_boundaries": [
    1,
    5,
    6
  ],
  "source_path": null,
  "metadata": {
    "prompt_piece_id": "bach__prelude__bwv_864__midi_score",
    "generated": true
  },
  "key": "A:major",
  "chords": []
}