{
  "piece_id": "mozart__piano_sonatas__8_1__midi_score__sample",
  "resolution": "sixteenth",
  "steps_per_beat": 4,
  "bar_steps": 16,
  "time_signature": "4/4",
  "tempo_bpm": 120.0,
  "note_events": [
    {
      "pitch": 69,
      "velocity": 100,
      "instrument": 0,
      "channel": 0,
      "start_step": 0,
      "duration_steps": 4,
      "bar": 1,
      "position": 0,
      "track_index": 1,
      "track_name": "track_1",
      "is_drum": false,
      "harmony": "A:maj"
    },
    {
      "pitch": 69,
      "velocity": 100,
      "instrument": 0,
      "channel": 0,
      "start_step": 4,
      "duration_steps": 4,
      "bar": 1,
      "position": 4,
      "track_index": 1,
      "track_name": "track_1",
      "is_drum": false,
      "harmony": "A:maj"
    },
    {
      "pitch": 69,
      "velocity": 100,
      "instrument": 0,
      "channel": 0,
      "start_step": 8,
      "duration_steps": 2,
      "bar": 1,
      "position": 8,
      "track_index": 1,
      "track_name": "track_1",
      "is_drum": false,
      "harmony": "A:maj"
    },
    {
      "pitch": 69,
      "velocity": 100,
      "instrument": 0,
      "channel": 0,
      "start_step": 10,
      "duration_steps": 2,
      "bar": 1,
      "position": 10,
      "track_index": 1,
      "track_name": "track_1",
      "is_drum": false,
      "harmony": "A:maj"
    },
    {
      "pitch": 71,
      "velocity": 100,
      "instrument": 0,
      "channel": 0,
      "start_step": 12,
      "duration_steps": 1,
      "bar": 1,
      "position": 12,
      "track_index": 0,
      "track_name": "track_0",
      "is_drum": false,
      "harmony": "E:min"
    },
    {
      "pitch": 71,
      "velocity": 100,
      "instrument": 0,
      "channel": 0,
      "start_step": 13,
      "duration_steps": 1,
      "bar": 1,
      "position": 13,
      "track_index": 0,
      "track_name": "track_0",
      "is_drum": false,
      "harmony": "E:min"
    },
    {
      "pitch": 71,
      "velocity": 100,
      "instrument": 0,
      "channel": 0,
      "start_step": 14,
      "duration_steps": 1,
      "bar": 1,
      "position": 14,
      "track_index": 0,
      "track_name": "track_0",
      "is_drum": false,
      "harmony": "E:min"
    },
    {
      "pitch": 71,
      "velocity": 100,
      "instrument": 0,
      "channel": 0,
      "start_step": 15,
      "duration_steps": 1,
      "bar": 1,
      "position": 15,
      "track_index": 0,
      "track_name": "track_0",
      "is_drum": false,
      "harmony": "E:min"
    },
    {
      "pitch": 72,
      "velocity": 100,
      "instrument": 0,
      "channel": 0,
      "start_step": 16,
      "duration_steps": 1,
      "bar": 2,
      "position": 0,
      "track_index": 0,
      "track_name": "track_0",
      "is_drum": false,
      "harmony": "E:min"
    },
    {
      "pitch": 72,
      "velocity": 100,
      "instrument": 0,
      "channel": 0,
      "start_step": 17,
      "duration_steps": 2,
      "bar": 2,
      "position": 1,
      "track_index": 0,
      "track_name": "track_0",
      "is_drum": false,
      "harmony": "A:maj"
    },
    {
      "pitch": 73,
      "velocity": 100,
      "instrument": 0,
      "channel": 0,
      "start_step": 19,
      "duration_steps": 2,
      "bar": 2,
      "position": 3,
      "track_index": 0,
      "track_name": "track_0",
      "is_drum": false,
      "harmony": "A:maj"
    },
    {
      "pitch": 74,
      "velocity": 100,
      "instrument": 0,
      "channel": 0,
      "start_step": 21,
      "duration_steps": 2,
      "bar": 2,
      "position": 5,
      "track_index": 0,
      "track_name": "track_0",
      "is_drum": false,
      "harmony": "A:maj"
    },
    {
      "pitch": 74,
      "velocity": 100,
      "instrument": 0,
      "channel": 0,
      "start_step": 23,
      "duration_steps": 2,
      "bar": 2,
      "position": 7,
      "track_index": 0,
      "track_name": "track_0",
      "is_drum": false,
      "harmony": "A:maj"
    },
    {
      "pitch": 75,
      "velocity": 100,
      "instrument": 0,
      "channel": 0,
      "start_step": 25,
      "duration_steps": 2,
      "bar": 2,
      "position": 9,
      "track_index": 0,
      "track_name": "track_0",
      "is_drum": false,
      "harmony": "A:maj"
    },
    {
      "pitch": 76,
      "velocity": 100,
      "instrument": 0,
      "channel": 0,
      "start_step": 27,
      "duration_steps": 1,
      "bar": 2,
      "position": 11,
      "track_index": 0,
      "track_name": "track_0",
      "is_drum": false,
      "harmony": "E:min"
    },
    {
      "pitch": 76,
      "velocity": 100,
      "instrument": 0,
      "channel": 0,
      "start_step": 28,
      "duration_steps": 1,
      "bar": 2,
      "position": 12,
      "track_index": 0,
      "track_name": "track_0",
      "is_drum": false,
      "harmony": "E:min"
    },
    {
      "pitch": 76,
      "velocity": 100,
      "instrument": 0,
      "channel": 0,
      "start_step": 29,
      "duration_steps": 2,
      "bar": 2,
      "position": 13,
      "track_index": 0,
      "track_name": "track_0",
      "is_drum": false,
      "harmony": "A:maj"
    },
    {
      "pitch": 64,
      "velocity": 100,
      "instrument": 0,
      "channel": 0,
      "start_step": 31,
      "duration_steps": 1,
      "bar": 2,
      "position": 15,
      "track_index": 0,
      "track_name": "track_0",
      "is_drum": false,
      "harmony": "E:min"
    },
    {
      "pitch": 64,
      "velocity": 100,
      "instrument": 0,
      "channel": 0,
      "start_step": 32,
      "duration_steps": 1,
      "bar": 3,
      "position": 0,
      "track_index": 0,
      "track_name": "track_0",
      "is_drum": false,
      "harmony": "E:min"
    },
    {
      "pitch": 64,
      "velocity": 100,
      "instrument": 0,
      "channel": 0,
      "start_step": 33,
      "duration_steps": 1,
      "bar": 3,
      "position": 1,
      "track_index": 0,
      "track_name": "track_0",
      "is_drum": false,
      "harmony": "E:min"
    },
    {
      "pitch": 64,
      "velocity": 100,
      "instrument": 0,
      "channel": 0,
      "start_step": 34,
      "duration_steps": 1,
      "bar": 3,
      "position": 2,
      "track_index": 0,
      "track_name": "track_0",
      "is_drum": false,
      "harmony": "E:min"
    },
    {
      "pitch": 64,
      "velocity": 100,
      "instrument": 0,
      "channel": 0,
      "start_step": 35,
      "duration_steps": 1,
      "bar": 3,
      "position": 3,
      "track_index": 0,
      "track_name": "track_0",
      "is_drum": false,
      "harmony": "E:min"
    },
    {
      "pitch": 55,
      "velocity": 100,
      "instrument": 0,
      "channel": 0,
      "start_step": 36,
      "duration_steps": 1,
      "bar": 3,
      "position": 4,
      "track_index": 1,
      "track_name": "track_1",
      "is_drum": false,
      "harmony": "E:min"
    },
    {
      "pitch": 54,
      "velocity": 100,
      "instrument": 0,
      "channel": 0,
      "start_step": 37,
      "duration_steps": 2,
      "bar": 3,
      "position": 5,
      "track_index": 1,
      "track_name": "track_1",
      "is_drum": false,
      "harmony": "A:maj"
    },
    {
      "pitch": 53,
      "velocity": 100,
      "instrument": 0,
      "channel": 0,
      "start_step": 39,
      "duration_steps": 2,
      "bar": 3,
      "position": 7,
      "track_index": 1,
      "track_name": "track_1",
      "is_drum": false,
      "harmony": "A:maj"
    },
    {
      "pitch": 52,
      "velocity": 100,
      "instrument": 0,
      "channel": 0,
      "start_step": 41,
      "duration_steps": 2,
      "bar": 3,
      "position": 9,
      "track_index": 1,
      "track_name": "track_1",
      "is_drum": false,
      "harmony": "A:maj"
    },
    {
      "pitch": 52,
      "velocity": 100,
      "instrument": 0,
      "channel": 0,
      "start_step": 43,
      "duration_steps": 2,
      "bar": 3,
      "position": 11,
      "track_index": 1,
      "track_name": "track_1",
      "is_drum": false,
      "harmony": "A:maj"
    },
    {
      "pitch": 45,
      "velocity": 100,
      "instrument": 0,
      "channel": 0,
      "start_step": 45,
      "duration_steps": 2,
      "bar": 3,
      "position": 13,
      "track_index": 1,
      "track_name": "track_1",
      "is_drum": false,
      "harmony": "E:min"
    },
    {
      "pitch": 43,
      "velocity": 100,
      "instrument": 0,
      "channel": 0,
      "start_step": 47,
      "duration_steps": 2,
      "bar": 3,
      "position": 15,
      "track_index": 1,
      "track_name": "track_1",
      "is_drum": false,
      "harmony": "E:min"
    },
    {
      "pitch": 43,
      "velocity": 100,
      "instrument": 0,
      "channel": 0,
      "start_step": 49,
      "duration_steps": 1,
      "bar": 4,
      "position": 1,
      "track_index": 1,
      "track_name": "track_1",
      "is_drum": false,
      "harmony": "E:min"
    },
    {
      "pitch": 49,
      "velocity": 100,
      "instrument": 0,
      "channel": 0,
      "start_step": 50,
      "duration_steps": 2,
      "bar": 4,
      "position": 2,
      "track_index": 1,
      "track_name": "track_1",
      "is_drum": false,
      "harmony": "A:maj"
    },
    {
      "pitch": 50,
      "velocity": 100,
      "instrument": 0,
      "channel": 0,
      "start_step": 52,
      "duration_steps": 4,
      "bar": 4,
      "position": 4,
      "track_index": 1,
      "track_name": "track_1",
      "is_drum": false,
      "harmony": "A:min"
    },
    {
      "pitch": 50,
      "velocity": 100,
      "instrument": 0,
      "channel": 0,
      "start_step": 56,
      "duration_steps": 2,
      "bar": 4,
      "position": 8,
      "track_index": 1,
      "track_name": "track_1",
      "is_drum": false,
      "harmony": "A:maj"
    },
    {
      "pitch": 51,
      "velocity": 100,
      "instrument": 0,
      "channel": 0,
      "start_step": 58,
      "duration_steps": 4,
      "bar": 4,
      "position": 10,
      "track_index": 1,
      "track_name": "track_1",
      "is_drum": false,
      "harmony": "A:min"
    },
    {
      "pitch": 52,
      "velocity": 100,
      "instrument": 0,
      "channel": 0,
      "start_step": 62,
      "duration_steps": 1,
      "bar": 4,
      "position": 14,
      "track_index": 1,
      "track_name": "track_1",
      "is_drum": false,
      "harmony": "E:maj"
    },
    {
      "pitch": 52,
      "velocity": 100,
      "instrument": 0,
      "channel": 0,
      "start_step": 63,
      "duration_steps": 1,
      "bar": 4,
      "position": 15,
      "track_index": 1,
      "track_name": "track_1",
      "is_drum": false,
      "harmony": "E:maj"
    },
    {
      "pitch": 52,
      "velocity": 100,
      "instrument": 0,
      "channel": 0,
      "start_step": 64,
      "duration_steps": 1,
      "bar": 5,
      "position": 0,
      "track_index": 1,
      "track_name": "track_1",
      "is_drum": false,
      "harmony": "E:maj"
    },
    {
      "pitch": 52,
      "velocity": 100,
      "instrument": 0,
      "channel": 0,
      "start_step": 65,
      "duration_steps": 1,
      "bar": 5,
      "position": 1,
      "track_index": 1,
      "track_name": "track_1",
      "is_drum": false,
      "harmony": "E:maj"
    },
    {
      "pitch": 52,
      "velocity": 100,
      "instrument": 0,
      "channel": 0,
      "start_step": 66,
      "duration_steps": 4,
      "bar": 5,
      "position": 2,
      "track_index": 1,
      "track_name": "track_1",
      "is_drum": false,
      "harmony": "A:min"
    },
    {
      "pitch": 52,
      "velocity": 100,
      "instrument": 0,
      "channel": 0,
      "start_step": 70,
      "duration_steps": 2,
      "bar": 5,
      "position": 6,
      "track_index": 1,
      "track_name": "track_1",
      "is_drum": false,
      "harmony": "A:maj"
    },
    {
      "pitch": 53,
      "velocity": 100,
      "instrument": 0,
      "channel": 0,
      "start_step": 72,
      "duration_steps": 4,
      "bar": 5,
      "position": 8,
      "track_index": 1,
      "track_name": "track_1",
      "is_drum": false,
      "harmony": "A:min"
    },
    {
      "pitch": 53,
      "velocity": 100,
      "instrument": 0,
      "channel": 0,
      "start_step": 76,
      "duration_steps": 2,
      "bar": 5,
      "position": 12,
      "track_index": 1,
      "track_name": "track_1",
      "is_drum": false,
      "harmony": "A:maj"
    },
    {
      "pitch": 56,
      "velocity": 100,
      "instrument": 0,
      "channel": 0,
      "start_step": 78,
      "duration_steps": 1,
      "bar": 5,
      "position": 14,
      "track_index": 1,
      "track_name": "track_1",
      "is_drum": false,
      "harmony": "E:maj"
    },
    {
      "pitch": 56,
      "velocity": 100,
      "instrument": 0,
      "channel": 0,
      "start_step": 79,
      "duration_steps": 1,
      "bar": 5,
      "position": 15,
      "track_index": 1,
      "track_name": "track_1",
      "is_drum": false,
      "harmony": "E:maj"
    },
    {
      "pitch": 57,
      "velocity": 100,
      "instrument": 0,
      "channel": 0,
      "start_step": 80,
      "duration_steps": 1,
      "bar": 6,
      "position": 0,
      "track_index": 1,
      "track_name": "track_1",
      "is_drum": false,
      "harmony": "E:maj"
    },
    {
      "pitch": 59,
      "velocity": 100,
      "instrument": 0,
      "channel": 0,
      "start_step": 81,
      "duration_steps": 1,
      "bar": 6,
      "position": 1,
      "track_index": 1,
      "track_name": "track_1",
      "is_drum": false,
      "harmony": "E:maj"
    },
    {
      "pitch": 59,
      "velocity": 100,
      "instrument": 0,
      "channel": 0,
      "start_step": 82,
      "duration_steps": 1,
      "bar": 6,
      "position": 2,
      "track_index": 1,
      "track_name": "track_1",
      "is_drum": false,
      "harmony": "E:maj"
    },
    {
      "pitch": 59,
      "velocity": 100,
      "instrument": 0,
      "channel": 0,
      "start_step": 83,
      "duration_steps": 1,
      "bar": 6,
      "position": 3,
      "track_index": 1,
      "track_name": "track_1",
      "is_drum": false,
      "harmony": "E:maj"
    },
    {
      "pitch": 59,
      "velocity": 100,
      "instrument": 0,
      "channel": 0,
      "start_step": 84,
      "duration_steps": 1,
      "bar": 6,
      "position": 4,
      "track_index": 1,
      "track_name": "track_1",
      "is_drum": false,
      "harmony": "E:maj"
    },
    {
      "pitch": 59,
      "velocity": 100,
      "instrument": 0,
      "channel": 0,
      "start_step": 85,
      "duration_steps": 1,
      "bar": 6,
      "position": 5,
      "track_index": 1,
      "track_name": "track_1",
      "is_drum": false,
      "harmony": "E:maj"
    },
    {
      "pitch": 60,
      "velocity": 100,
      "instrument": 0,
      "channel": 0,
      "start_step": 86,
      "duration_steps": 1,
      "bar": 6,
      "position": 6,
      "track_index": 1,
      "track_name": "track_1",
      "is_drum": false,
      "harmony": "E:maj"
    },
    {
      "pitch": 60,
      "velocity": 100,
      "instrument": 0,
      "channel": 0,
      "start_step": 87,
      "duration_steps": 1,
      "bar": 6,
      "position": 7,
      "track_index": 1,
      "track_name": "track_1",
      "is_drum": false,
      "harmony": "E:maj"
    },
    {
      "pitch": 62,
      "velocity": 100,
      "instrument": 0,
      "channel": 0,
      "start_step": 88,
      "duration_steps": 1,
      "bar": 6,
      "position": 8,
      "track_index": 1,
      "track_name": "track_1",
      "is_drum": false,
      "harmony": "E:maj"
    },
    {
      "pitch": 62,
      "velocity": 100,
      "instrument": 0,
      "channel": 0,
      "start_step": 89,
      "duration_steps": 1,
      "bar": 6,
      "position": 9,
      "track_index": 1,
      "track_name": "track_1",
      "is_drum": false,
      "harmony": "E:maj"
    },
    {
      "pitch": 79,
      "velocity": 100,
      "instrument": 0,
      "channel": 0,
      "start_step": 90,
      "duration_steps": 2,
      "bar": 6,
      "position": 10,
      "track_index": 0,
      "track_name": "track_0",
      "is_drum": false,
      "harmony": "A:min"
    },
    {
      "pitch": 77,
      "velocity": 100,
      "instrument": 0,
      "channel": 0,
      "start_step": 92,
      "duration_steps": 4,
      "bar": 6,
      "position": 12,
      "track_index": 0,
      "track_name": "track_0",
      "is_drum": false,
      "harmony": "A:min"
    },
    {
      "pitch": 76,
      "velocity": 100,
      "instrument": 0,
      "channel": 0,
      "start_step": 96,
      "duration_steps": 4,
      "bar": 7,
      "position": 0,
      "track_index": 0,
      "track_name": "track_0",
      "is_drum": false,
      "harmony": "E:maj"
    },
    {
      "pitch": 76,
      "velocity": 100,
      "instrument": 0,
      "channel": 0,
      "start_step": 100,
      "duration_steps": 4,
      "bar": 7,
      "position": 4,
      "track_index": 0,
      "track_name": "track_0",
      "is_drum": false,
      "harmony": "E:maj"
    },
    {
      "pitch": 76,
      "velocity": 100,
      "instrument": 0,
      "channel": 0,
      "start_step": 104,
      "duration_steps": 1,
      "bar": 7,
      "position": 8,
      "track_index": 0,
      "track_name": "track_0",
      "is_drum": false,
      "harmony": "E:maj"
    },
    {
      "pitch": 76,
      "velocity": 100,
      "instrument": 0,
      "channel": 0,
      "start_step": 105,
      "duration_steps": 3,
      "bar": 7,
      "position": 9,
      "track_index": 0,
      "track_name": "track_0",
      "is_drum": false,
      "harmony": "E:maj"
    },
    {
      "pitch": 76,
      "velocity": 100,
      "instrument": 0,
      "channel": 0,
      "start_step": 108,
      "duration_steps": 4,
      "bar": 7,
      "position": 12,
      "track_index": 0,
      "track_name": "track_0",
      "is_drum": false,
      "harmony": "E:maj"
    },
    {
      "pitch": 76,
      "velocity": 100,
      "instrument": 0,
      "channel": 0,
      "start_step": 112,
      "duration_steps": 2,
      "bar": 8,
      "position": 0,
      "track_index": 0,
      "track_name": "track_0",
      "is_drum": false,
      "harmony": "A:min"
    },
    {
      "pitch": 76,
      "velocity": 100,
      "instrument": 0,
      "channel": 0,
      "start_step": 114,
      "duration_steps": 2,
      "bar": 8,
      "position": 2,
      "track_index": 0,
      "track_name": "track_0",
      "is_drum": false,
      "harmony": "A:maj"
    },
    {
      "pitch": 74,
      "velocity": 100,
      "instrument": 0,
      "channel": 0,
      "start_step": 116,
      "duration_steps": 2,
      "bar": 8,
      "position": 4,
      "track_index": 0,
      "track_name": "track_0",
      "is_drum": false,
      "harmony": "A:min"
    },
    {
      "pitch": 74,
      "velocity": 100,
      "instrument": 0,
      "channel": 0,
      "start_step": 118,
      "duration_steps": 2,
      "bar": 8,
      "position": 6,
      "track_index": 0,
      "track_name": "track_0",
      "is_drum": false,
      "harmony": "A:maj"
    },
    {
      "pitch": 73,
      "velocity": 100,
      "instrument": 0,
      "channel": 0,
      "start_step": 120,
      "duration_steps": 2,
      "bar": 8,
      "position": 8,
      "track_index": 0,
      "track_name": "track_0",
      "is_drum": false,
      "harmony": "A:maj"
    },
    {
      "pitch": 72,
      "velocity": 100,
      "instrument": 0,
      "channel": 0,
      "start_step": 122,
      "duration_steps": 2,
      "bar": 8,
      "position": 10,
      "track_index": 0,
      "track_name": "track_0",
      "is_drum": false,
      "harmony": "A:min"
    },
    {
      "pitch": 71,
      "velocity": 100,
      "instrument": 0,
      "channel": 0,
      "start_step": 124,
      "duration_steps": 4,
      "bar": 8,
      "position": 12,
      "track_index": 0,
      "track_name": "track_0",
      "is_drum": false,
      "harmony": "E:maj"
    },
    {
      "pitch": 71,
      "velocity": 100,
      "instrument": 0,
      "channel": 0,
      "start_step": 128,
      "duration_steps": 2,
      "bar": 9,
      "position": 0,
      "track_index": 0,
      "track_name": "track_0",
      "is_drum": false,
      "harmony": "A:min"
    },
    {
      "pitch": 71,
      "velocity": 100,
      "instrument": 0,
      "channel": 0,
      "start_step": 130,
      "duration_steps": 2,
      "bar": 9,
      "position": 2,
      "track_index": 0,
      "track_name": "track_0",
      "is_drum": false,
      "harmony": "A:maj"
    },
    {
      "pitch": 70,
      "velocity": 100,
      "instrument": 0,
      "channel": 0,
      "start_step": 132,
      "duration_steps": 2,
      "bar": 9,
      "position": 4,
      "track_index": 0,
      "track_name": "track_0",
      "is_drum": false,
      "harmony": "A:maj"
    },
    {
      "pitch": 69,
      "velocity": 100,
      "instrument": 0,
      "channel": 0,
      "start_step": 134,
      "duration_steps": 2,
      "bar": 9,
      "position": 6,
      "track_index": 0,
      "track_name": "track_0",
      "is_drum": false,
      "harmony": "A:min"
    },
    {
      "pitch": 69,
      "velocity": 100,
      "instrument": 0,
      "channel": 0,
      "start_step": 136,
      "duration_steps": 12,
      "bar": 9,
      "position": 8,
      "track_index": 1,
      "track_name": "track_1",
      "is_drum": false,
      "harmony": "A:min"
    },
    {
      "pitch": 69,
      "velocity": 100,
      "instrument": 0,
      "channel": 0,
      "start_step": 148,
      "duration_steps": 2,
      "bar": 10,
      "position": 4,
      "track_index": 1,
      "track_name": "track_1",
      "is_drum": false,
      "harmony": "A:maj"
    },
    {
      "pitch": 69,
      "velocity": 100,
      "instrument": 0,
      "channel": 0,
      "start_step": 150,
      "duration_steps": 2,
      "bar": 10,
      "position": 6,
      "track_index": 1,
      "track_name": "track_1",
      "is_drum": false,
      "harmony": "A:maj"
    },
    {
      "pitch": 69,
      "velocity": 100,
      "instrument": 0,
      "channel": 0,
      "start_step": 152,
      "duration_steps": 2,
      "bar": 10,
      "position": 8,
      "track_index": 1,
      "track_name": "track_1",
      "is_drum": false,
      "harmony": "A:maj"
    },
    {
      "pitch": 69,
      "velocity": 100,
      "instrument": 0,
      "channel": 0,
      "start_step": 154,
      "duration_steps": 4,
      "bar": 10,
      "position": 10,
      "track_index": 1,
      "track_name": "track_1",
      "is_drum": false,
      "harmony": "A:maj"
    },
    {
      "pitch": 68,
      "velocity": 100,
      "instrument": 0,
      "channel": 0,
      "start_step": 158,
      "duration_steps": 4,
      "bar": 10,
      "position": 14,
      "track_index": 0,
      "track_name": "track_0",
      "is_drum": false,
      "harmony": "E:maj"
    },
    {
      "pitch": 66,
      "velocity": 100,
      "instrument": 0,
      "channel": 0,
      "start_step": 162,
      "duration_steps": 4,
      "bar": 11,
      "position": 2,
      "track_index": 1,
      "track_name": "track_1",
      "is_drum": false,
      "harmony": "A:min"
    },
    {
      "pitch": 60,
      "velocity": 100,
      "instrument": 0,
      "channel": 0,
      "start_step": 166,
      "duration_steps": 1,
      "bar": 11,
      "position": 6,
      "track_index": 1,
      "track_name": "track_1",
      "is_drum": false,
      "harmony": "A:min"
    },
    {
      "pitch": 60,
      "velocity": 100,
      "instrument": 0,
      "channel": 0,
      "start_step": 167,
      "duration_steps": 1,
      "bar": 11,
      "position": 7,
      "track_index": 1,
      "track_name": "track_1",
      "is_drum": false,
      "harmony": "A:min"
    },
    {
      "pitch": 60,
      "velocity": 100,
      "instrument": 0,
      "channel": 0,
      "start_step": 168,
      "duration_steps": 1,
      "bar": 11,
      "position": 8,
      "track_index": 1,
      "track_name": "track_1",
      "is_drum": false,
      "harmony": "A:min"
    },
    {
      "pitch": 60,
      "velocity": 100,
      "instrument": 0,
      "channel": 0,
      "start_step": 169,
      "duration_steps": 1,
      "bar": 11,
      "position": 9,
      "track_index": 1,
      "track_name": "track_1",
      "is_drum": false,
      "harmony": "A:min"
    },
    {
      "pitch": 60,
      "velocity": 100,
      "instrument": 0,
      "channel": 0,
      "start_step": 170,
      "duration_steps": 1,
      "bar": 11,
      "position": 10,
      "track_index": 1,
      "track_name": "track_1",
      "is_drum": false,
      "harmony": "A:min"
    },
    {
      "pitch": 60,
      "velocity": 100,
      "instrument": 0,
      "channel": 0,
      "start_step": 171,
      "duration_steps": 1,
      "bar": 11,
      "position": 11,
      "track_index": 1,
      "track_name": "track_1",
      "is_drum": false,
      "harmony": "A:min"
    },
    {
      "pitch": 60,
      "velocity": 100,
      "instrument": 0,
      "channel": 0,
      "start_step": 172,
      "duration_steps": 1,
      "bar": 11,
      "position": 12,
      "track_index": 1,
      "track_name": "track_1",
      "is_drum": false,
      "harmony": "A:min"
    },
    {
      "pitch": 60,
      "velocity": 100,
      "instrument": 0,
      "channel": 0,
      "start_step": 173,
      "duration_steps": 1,
      "bar": 11,
      "position": 13,
      "track_index": 1,
      "track_name": "track_1",
      "is_drum": false,
      "harmony": "A:min"
    },
    {
      "pitch": 60,
      "velocity": 70,
      "instrument": 0,
      "channel": 0,
      "start_step": 174,
      "duration_steps": 1,
      "bar": 11,
      "position": 14,
      "track_index": 1,
      "track_name": "track_1",
      "is_drum": false,
      "harmony": "E:maj"
    },
    {
      "pitch": 60,
      "velocity": 70,
      "instrument": 0,
      "channel": 0,
      "start_step": 175,
      "duration_steps": 1,
      "bar": 11,
      "position": 15,
      "track_index": 1,
      "track_name": "track_1",
      "is_drum": false,
      "harmony": "E:maj"
    },
    {
      "pitch": 60,
      "velocity": 70,
      "instrument": 0,
      "channel": 0,
      "start_step": 176,
      "duration_steps": 1,
      "bar": 12,
      "position": 0,
      "track_index": 1,
      "track_name": "track_1",
      "is_drum": false,
      "harmony": "A:min"
    },
    {
      "pitch": 60,
      "velocity": 70,
      "instrument": 0,
      "channel": 0,
      "start_step": 177,
      "duration_steps": 1,
      "bar": 12,
      "position": 1,
      "track_index": 1,
      "track_name": "track_1",
      "is_drum": false,
      "harmony": "A:min"
    },
    {
      "pitch": 60,
      "velocity": 70,
      "instrument": 0,
      "channel": 0,
      "start_step": 178,
      "duration_steps": 1,
      "bar": 12,
      "position": 2,
      "track_index": 1,
      "track_name": "track_1",
      "is_drum": false,
      "harmony": "A:min"
    },
    {
      "pitch": 60,
      "velocity": 70,
      "instrument": 0,
      "channel": 0,
      "start_step": 179,
      "duration_steps": 1,
      "bar": 12,
      "position": 3,
      "track_index": 1,
      "track_name": "track_1",
      "is_drum": false,
      "harmony": "A:min"
    },
    {
      "pitch": 60,
      "velocity": 70,
      "instrument": 0,
      "channel": 0,
      "start_step": 180,
      "duration_steps": 1,
      "bar": 12,
      "position": 4,
      "track_index": 1,
      "track_name": "track_1",
      "is_drum": false,
      "harmony": "A:min"
    },
    {
      "pitch": 60,
      "velocity": 70,
      "instrument": 0,
      "channel": 0,
      "start_step": 181,
      "duration_steps": 1,
      "bar": 12,
      "position": 5,
      "track_index": 1,
      "track_name": "track_1",
      "is_drum": false,
      "harmony": "A:min"
    },
    {
      "pitch": 60,
      "velocity": 70,
      "instrument": 0,
      "channel": 0,
      "start_step": 182,
      "duration_steps": 1,
      "bar": 12,
      "position": 6,
      "track_index": 1,
      "track_name": "track_1",
      "is_drum": false,
      "harmony": "A:min"
    },
    {
      "pitch": 60,
      "velocity": 70,
      "instrument": 0,
      "channel": 0,
      "start_step": 183,
      "duration_steps": 1,
      "bar": 12,
      "position": 7,
      "track_index": 1,
      "track_name": "track_1",
      "is_drum": false,
      "harmony": "A:min"
    },
    {
      "pitch": 59,
      "velocity": 100,
      "instrument": 0,
      "channel": 0,
      "start_step": 184,
      "duration_steps": 1,
      "bar": 12,
      "position": 8,
      "track_index": 1,
      "track_name": "track_1",
      "is_drum": false,
      "harmony": "E:maj"
    },
    {
      "pitch": 59,
      "velocity": 100,
      "instrument": 0,
      "channel": 0,
      "start_step": 185,
      "duration_steps": 1,
      "bar": 12,
      "position": 9,
      "track_index": 1,
      "track_name": "track_1",
      "is_drum": false,
      "harmony": "E:maj"
    },
    {
      "pitch": 59,
      "velocity": 70,
      "instrument": 0,
      "channel": 0,
      "start_step": 186,
      "duration_steps": 1,
      "bar": 12,
      "position": 10,
      "track_index": 1,
      "track_name": "track_1",
      "is_drum": false,
      "harmony": "E:maj"
    },
    {
      "pitch": 59,
      "velocity": 70,
      "instrument": 0,
      "channel": 0,
      "start_step": 187,
      "duration_steps": 1,
      "bar": 12,
      "position": 11,
      "track_index": 1,
      "track_name": "track_1",
      "is_drum": false,
      "harmony": "E:maj"
    },
    {
      "pitch": 59,
      "velocity": 70,
      "instrument": 0,
      "channel": 0,
      "start_step": 188,
      "duration_steps": 1,
      "bar": 12,
      "position": 12,
      "track_index": 1,
      "track_name": "track_1",
      "is_drum": false,
      "harmony": "E:maj"
    },
    {
      "pitch": 59,
      "velocity": 100,
      "instrument": 0,
      "channel": 0,
      "start_step": 189,
      "duration_steps": 4,
      "bar": 12,
      "position": 13,
      "track_index": 1,
      "track_name": "track_1",
      "is_drum": false,
      "harmony": "E:maj"
    },
    {
      "pitch": 57,
      "velocity": 100,
      "instrument": 0,
      "channel": 0,
      "start_step": 193,
      "duration_steps": 1,
      "bar": 13,
      "position": 1,
      "track_index": 1,
      "track_name": "track_1",
      "is_drum": false,
      "harmony": "A:min"
    },
    {
      "pitch": 57,
      "velocity": 100,
      "instrument": 0,
      "channel": 0,
      "start_step": 194,
      "duration_steps": 1,
      "bar": 13,
      "position": 2,
      "track_index": 1,
      "track_name": "track_1",
      "is_drum": false,
      "harmony": "A:min"
    },
    {
      "pitch": 57,
      "velocity": 100,
      "instrument": 0,
      "channel": 0,
      "start_step": 195,
      "duration_steps": 1,
      "bar": 13,
      "position": 3,
      "track_index": 1,
      "track_name": "track_1",
      "is_drum": false,
      "harmony": "A:min"
    },
    {
      "pitch": 57,
      "velocity": 100,
      "instrument": 0,
      "channel": 0,
      "start_step": 196,
      "duration_steps": 1,
      "bar": 13,
      "position": 4,
      "track_index": 1,
      "track_name": "track_1",
      "is_drum": false,
      "harmony": "A:min"
    },
    {
      "pitch": 57,
      "velocity": 70,
      "instrument": 0,
      "channel": 0,
      "start_step": 197,
      "duration_steps": 1,
      "bar": 13,
      "position": 5,
      "track_index": 1,
      "track_name": "track_1",
      "is_drum": false,
      "harmony": "E:maj"
    },
    {
      "pitch": 57,
      "velocity": 70,
      "instrument": 0,
      "channel": 0,
      "start_step": 198,
      "duration_steps": 1,
      "bar": 13,
      "position": 6,
      "track_index": 1,
      "track_name": "track_1",
      "is_drum": false,
      "harmony": "A:min"
    },
    {
      "pitch": 57,
      "velocity": 70,
      "instrument": 0,
      "channel": 0,
      "start_step": 199,
      "duration_steps": 1,
      "bar": 13,
      "position": 7,
      "track_index": 1,
      "track_name": "track_1",
      "is_drum": false,
      "harmony": "A:min"
    },
    {
      "pitch": 57,
      "velocity": 70,
      "instrument": 0,
      "channel": 0,
      "start_step": 200,
      "duration_steps": 1,
      "bar": 13,
      "position": 8,
      "track_index": 1,
      "track_name": "track_1",
      "is_drum": false,
      "harmony": "A:min"
    },
    {
      "pitch": 57,
      "velocity": 70,
      "instrument": 0,
      "channel": 0,
      "start_step": 201,
      "duration_steps": 1,
      "bar": 13,
      "position": 9,
      "track_index": 1,
      "track_name": "track_1",
      "is_drum": false,
      "harmony": "A:min"
    },
    {
      "pitch": 57,
      "velocity": 100,
      "instrument": 0,
      "channel": 0,
      "start_step": 202,
      "duration_steps": 2,
      "bar": 13,
      "position": 10,
      "track_index": 1,
      "track_name": "track_1",
      "is_drum": false,
      "harmony": "E:maj"
    },
    {
      "pitch": 56,
      "velocity": 100,
      "instrument": 0,
      "channel": 0,
      "start_step": 204,
      "duration_steps": 1,
      "bar": 13,
      "position": 12,
      "track_index": 1,
      "track_name": "track_1",
      "is_drum": false,
      "harmony": "E:maj"
    },
    {
      "pitch": 56,
      "velocity": 70,
      "instrument": 0,
      "channel": 0,
      "start_step": 205,
      "duration_steps": 1,
      "bar": 13,
      "position": 13,
      "track_index": 1,
      "track_name": "track_1",
      "is_drum": false,
      "harmony": "E:maj"
    },
    {
      "pitch": 56,
      "velocity": 100,
      "instrument": 0,
      "channel": 0,
      "start_step": 206,
      "duration_steps": 4,
      "bar": 13,
      "position": 14,
      "track_index": 1,
      "track_name": "track_1",
      "is_drum": false,
      "harmony": "E:maj"
    },
    {
      "pitch": 52,
      "velocity": 100,
      "instrument": 0,
      "channel": 0,
      "start_step": 210,
      "duration_steps": 1,
      "bar": 14,
      "position": 2,
      "track_index": 1,
      "track_name": "track_1",
      "is_drum": false,
      "harmony": "A:min"
    },
    {
      "pitch": 52,
      "velocity": 100,
      "instrument": 0,
      "channel": 0,
      "start_step": 211,
      "duration_steps": 1,
      "bar": 14,
      "position": 3,
      "track_index": 1,
      "track_name": "track_1",
      "is_drum": false,
      "harmony": "A:min"
    },
    {
      "pitch": 52,
      "velocity": 100,
      "instrument": 0,
      "channel": 0,
      "start_step": 212,
      "duration_steps": 1,
      "bar": 14,
      "position": 4,
      "track_index": 1,
      "track_name": "track_1",
      "is_drum": false,
      "harmony": "A:min"
    },
    {
      "pitch": 52,
      "velocity": 100,
      "instrument": 0,
      "channel": 0,
      "start_step": 213,
      "duration_steps": 1,
      "bar": 14,
      "position": 5,
      "track_index": 1,
      "track_name": "track_1",
      "is_drum": false,
      "harmony": "A:min"
    },
    {
      "pitch": 52,
      "velocity": 100,
      "instrument": 0,
      "channel": 0,
      "start_step": 214,
      "duration_steps": 1,
      "bar": 14,
      "position": 6,
      "track_index": 1,
      "track_name": "track_1",
      "is_drum": false,
      "harmony": "E:maj"
    },
    {
      "pitch": 52,
      "velocity": 70,
      "instrument": 0,
      "channel": 0,
      "start_step": 215,
      "duration_steps": 1,
      "bar": 14,
      "position": 7,
      "track_index": 1,
      "track_name": "track_1",
      "is_drum": false,
      "harmony": "E:maj"
    },
    {
      "pitch": 52,
      "velocity": 70,
      "instrument": 0,
      "channel": 0,
      "start_step": 216,
      "duration_steps": 1,
      "bar": 14,
      "position": 8,
      "track_index": 1,
      "track_name": "track_1",
      "is_drum": false,
      "harmony": "E:maj"
    },
    {
      "pitch": 52,
      "velocity": 70,
      "instrument": 0,
      "channel": 0,
      "start_step": 217,
      "duration_steps": 1,
      "bar": 14,
      "position": 9,
      "track_index": 1,
      "track_name": "track_1",
      "is_drum": false,
      "harmony": "E:maj"
    },
    {
      "pitch": 52,
      "velocity": 70,
      "instrument": 0,
      "channel": 0,
      "start_step": 218,
      "duration_steps": 1,
      "bar": 14,
      "position": 10,
      "track_index": 1,
      "track_name": "track_1",
      "is_drum": false,
      "harmony": "A:min"
    },
    {
      "pitch": 52,
      "velocity": 70,
      "instrument": 0,
      "channel": 0,
      "start_step": 219,
      "duration_steps": 1,
      "bar": 14,
      "position": 11,
      "track_index": 1,
      "track_name": "track_1",
      "is_drum": false,
      "harmony": "A:min"
    },
    {
      "pitch": 52,
      "velocity": 70,
      "instrument": 0,
      "channel": 0,
      "start_step": 220,
      "duration_steps": 1,
      "bar": 14,
      "position": 12,
      "track_index": 1,
      "track_name": "track_1",
      "is_drum": false,
      "harmony": "A:min"
    },
    {
      "pitch": 52,
      "velocity": 70,
      "instrument": 0,
      "channel": 0,
      "start_step": 221,
      "duration_steps": 1,
      "bar": 14,
      "position": 13,
      "track_index": 1,
      "track_name": "track_1",
      "is_drum": false,
      "harmony": "A:min"
    },
    {
      "pitch": 52,
      "velocity": 100,
      "instrument": 0,
      "channel": 0,
      "start_step": 222,
      "duration_steps": 4,
      "bar": 14,
      "position": 14,
      "track_index": 1,
      "track_name": "track_1",
      "is_drum": false,
      "harmony": "E:maj"
    },
    {
      "pitch": 45,
      "velocity": 100,
      "instrument": 0,
      "channel": 0,
      "start_step": 226,
      "duration_steps": 2,
      "bar": 15,
      "position": 2,
      "track_index": 1,
      "track_name": "track_1",
      "is_drum": false,
      "harmony": "E:maj"
    },
    {
      "pitch": 40,
      "velocity": 100,
      "instrument": 0,
      "channel": 0,
      "start_step": 228,
      "duration_steps": 4,
      "bar": 15,
      "position": 4,
      "track_index": 1,
      "track_name": "track_1",
      "is_drum": false,
      "harmony": "E:maj"
    },
    {
      "pitch": 62,
      "velocity": 70,
      "instrument": 0,
      "channel": 0,
      "start_step": 232,
      "duration_steps": 1,
      "bar": 15,
      "position": 8,
      "track_index": 1,
      "track_name": "track_1",
      "is_drum": false,
      "harmony": "E:maj"
    },
    {
      "pitch": 62,
      "velocity": 70,
      "instrument": 0,
      "channel": 0,
      "start_step": 233,
      "duration_steps": 1,
      "bar": 15,
      "position": 9,
      "track_index": 1,
      "track_name": "track_1",
      "is_drum": false,
      "harmony": "E:maj"
    },
    {
      "pitch": 68,
      "velocity": 100,
      "instrument": 0,
      "channel": 0,
      "start_step": 234,
      "duration_steps": 4,
      "bar": 15,
      "position": 10,
      "track_index": 0,
      "track_name": "track_0",
      "is_drum": false,
      "harmony": "E:maj"
    },
    {
      "pitch": 68,
      "velocity": 100,
      "instrument": 0,
      "channel": 0,
      "start_step": 238,
      "duration_steps": 1,
      "bar": 15,
      "position": 14,
      "track_index": 0,
      "track_name": "track_0",
      "is_drum": false,
      "harmony": "E:maj"
    },
    {
      "pitch": 69,
      "velocity": 100,
      "instrument": 0,
      "channel": 0,
      "start_step": 239,
      "duration_steps": 16,
      "bar": 15,
      "position": 15,
      "track_index": 1,
      "track_name": "track_1",
      "is_drum": false,
      "harmony": "A:min"
    },
    {
      "pitch": 69,
      "velocity": 70,
      "instrument": 0,
      "channel": 0,
      "start_step": 255,
      "duration_steps": 16,
      "bar": 16,
      "position": 15,
      "track_index": 1,
      "track_name": "track_1",
      "is_drum": false,
      "harmony": "A:min"
    },
    {
      "pitch": 69,
      "velocity": 100,
      "instrument": 0,
      "channel": 0,
      "start_step": 271,
      "duration_steps": 1,
      "bar": 17,
      "position": 15,
      "track_index": 0,
      "track_name": "track_0",
      "is_drum": false,
      "harmony": "E:maj"
    },
    {
      "pitch": 71,
      "velocity": 100,
      "instrument": 0,
      "channel": 0,
      "start_step": 272,
      "duration_steps": 4,
      "bar": 18,
      "position": 0,
      "track_index": 0,
      "track_name": "track_0",
      "is_drum": false,
      "harmony": "E:maj"
    },
    {
      "pitch": 71,
      "velocity": 100,
      "instrument": 0,
      "channel": 0,
      "start_step": 276,
      "duration_steps": 1,
      "bar": 18,
      "position": 4,
      "track_index": 0,
      "track_name": "track_0",
      "is_drum": false,
      "harmony": "E:maj"
    },
    {
      "pitch": 71,
      "velocity": 100,
      "instrument": 0,
      "channel": 0,
      "start_step": 277,
      "duration_steps": 1,
      "bar": 18,
      "position": 5,
      "track_index": 0,
      "track_name": "track_0",
      "is_drum": false,
      "harmony": "E:maj"
    },
    {
      "pitch": 72,
      "velocity": 100,
      "instrument": 0,
      "channel": 0,
      "start_step": 278,
      "duration_steps": 1,
      "bar": 18,
      "position": 6,
      "track_index": 0,
      "track_name": "track_0",
      "is_drum": false,
      "harmony": "E:maj"
    },
    {
      "pitch": 72,
      "velocity": 100,
      "instrument": 0,
      "channel": 0,
      "start_step": 279,
      "duration_steps": 1,
      "bar": 18,
      "position": 7,
      "track_index": 0,
      "track_name": "track_0",
      "is_drum": false,
      "harmony": "E:maj"
    },
    {
      "pitch": 75,
      "velocity": 100,
      "instrument": 0,
      "channel": 0,
      "start_step": 280,
      "duration_steps": 4,
      "bar": 18,
      "position": 8,
      "track_index": 0,
      "track_name": "track_0",
      "is_drum": false,
      "harmony": "A:min"
    },
    {
      "pitch": 75,
      "velocity": 70,
      "instrument": 0,
      "channel": 0,
      "start_step": 284,
      "duration_steps": 4,
      "bar": 18,
      "position": 12,
      "track_index": 0,
      "track_name": "track_0",
      "is_drum": false,
      "harmony": "A:min"
    },
    {
      "pitch": 76,
      "velocity": 100,
      "instrument": 0,
      "channel": 0,
      "start_step": 288,
      "duration_steps": 4,
      "bar": 19,
      "position": 0,
      "track_index": 0,
      "track_name": "track_0",
      "is_drum": false,
      "harmony": "A:min"
    },
    {
      "pitch": 76,
      "velocity": 100,
      "instrument": 0,
      "channel": 0,
      "start_step": 292,
      "duration_steps": 4,
      "bar": 19,
      "position": 4,
      "track_index": 0,
      "track_name": "track_0",
      "is_drum": false,
      "harmony": "E:maj"
    },
    {
      "pitch": 76,
      "velocity": 70,
      "instrument": 0,
      "channel": 0,
      "start_step": 296,
      "duration_steps": 3,
      "bar": 19,
      "position": 8,
      "track_index": 0,
      "track_name": "track_0",
      "is_drum": false,
      "harmony": "E:maj"
    },
    {
      "pitch": 76,
      "velocity": 70,
      "instrument": 0,
      "channel": 0,
      "start_step": 299,
      "duration_steps": 1,
      "bar": 19,
      "position": 11,
      "track_index": 0,
      "track_name": "track_0",
      "is_drum": false,
      "harmony": "E:maj"
    },
    {
      "pitch": 76,
      "velocity": 70,
      "instrument": 0,
      "channel": 0,
      "start_step": 300,
      "duration_steps": 4,
      "bar": 19,
      "position": 12,
      "track_index": 0,
      "track_name": "track_0",
      "is_drum": false,
      "harmony": "E:maj"
    },
    {
      "pitch": 76,
      "velocity": 70,
      "instrument": 0,
      "channel": 0,
      "start_step": 304,
      "duration_steps": 4,
      "bar": 20,
      "position": 0,
      "track_index": 0,
      "track_name": "track_0",
      "is_drum": false,
      "harmony": "E:maj"
    },
    {
      "pitch": 76,
      "velocity": 70,
      "instrument": 0,
      "channel": 0,
      "start_step": 308,
      "duration_steps": 4,
      "bar": 20,
      "position": 4,
      "track_index": 0,
      "track_name": "track_0",
      "is_drum": false,
      "harmony": "A:min"
    },
    {
      "pitch": 76,
      "velocity": 100,
      "instrument": 0,
      "channel": 0,
      "start_step": 312,
      "duration_steps": 1,
      "bar": 20,
      "position": 8,
      "track_index": 0,
      "track_name": "track_0",
      "is_drum": false,
      "harmony": "E:maj"
    },
    {
      "pitch": 76,
      "velocity": 100,
      "instrument": 0,
      "channel": 0,
      "start_step": 313,
      "duration_steps": 1,
      "bar": 20,
      "position": 9,
      "track_index": 0,
      "track_name": "track_0",
      "is_drum": false,
      "harmony": "E:maj"
    },
    {
      "pitch": 77,
      "velocity": 100,
      "instrument": 0,
      "channel": 0,
      "start_step": 314,
      "duration_steps": 1,
      "bar": 20,
      "position": 10,
      "track_index": 0,
      "track_name": "track_0",
      "is_drum": false,
      "harmony": "A:min"
    },
    {
      "pitch": 77,
      "velocity": 70,
      "instrument": 0,
      "channel": 0,
      "start_step": 315,
      "duration_steps": 1,
      "bar": 20,
      "position": 11,
      "track_index": 0,
      "track_name": "track_0",
      "is_drum": false,
      "harmony": "A:min"
    },
    {
      "pitch": 79,
      "velocity": 100,
      "instrument": 0,
      "channel": 0,
      "start_step": 316,
      "duration_steps": 1,
      "bar": 20,
      "position": 12,
      "track_index": 0,
      "track_name": "track_0",
      "is_drum": false,
      "harmony": "A:min"
    },
    {
      "pitch": 79,
      "velocity": 70,
      "instrument": 0,
      "channel": 0,
      "start_step": 317,
      "duration_steps": 1,
      "bar": 20,
      "position": 13,
      "track_index": 0,
      "track_name": "track_0",
      "is_drum": false,
      "harmony": "A:min"
    },
    {
      "pitch": 81,
      "velocity": 100,
      "instrument": 0,
      "channel": 0,
      "start_step": 318,
      "duration_steps": 6,
      "bar": 20,
      "position": 14,
      "track_index": 0,
      "track_name": "track_0",
      "is_drum": false,
      "harmony": "A:min"
    },
    {
      "pitch": 81,
      "velocity": 70,
      "instrument": 0,
      "channel": 0,
      "start_step": 324,
      "duration_steps": 6,
      "bar": 21,
      "position": 4,
      "track_index": 0,
      "track_name": "track_0",
      "is_drum": false,
      "harmony": "A:min"
    }
  ],
  "phrase_boundaries": [
    1,
    4,
    11
  ],
  "source_path": "Mozart/Piano_Sonatas/8-1/midi_score.mid",
  "metadata": {
    "ticks_per_beat": 480,
    "midi_format": 1,
    "time_signature_changes": 1,
    "tempo_changes": 1,
    "cadence_bars": [
      3,
      9,
      11,
      62,
      63,
      64,
      74,
      76,
      79,
      80,
      82,
      97,
      99,
      101,
      102,
      103,
      104,
      112,
      113,
      116,
      117,
      120,
      125,
      128
    ],
    "global_harmony_vocab": {
      "unknown": 0,
      "C:maj": 1,
      "C#:maj": 2,
      "D:maj": 3,
      "Eb:maj": 4,
      "E:maj": 5,
      "F:maj": 6,
      "F#:maj": 7,
      "G:maj": 8,
      "Ab:maj": 9,
      "A:maj": 10,
      "Bb:maj": 11,
      "B:maj": 12,
      "C:min": 13,
      "C#:min": 14,
      "D:min": 15,
      "Eb:min": 16,
      "E:min": 17,
      "F:min": 18,
      "F#:min": 19,
      "G:min": 20,
      "Ab:min": 21,
      "A:min": 22,
      "Bb:min": 23,
      "B:min": 24
    },
    "dataset_kind": "asap",
    "dataset_source_mode": "score",
    "asap_piece_group": "mozart::piano_sonatas_8_1",
    "composer": "Mozart",
    "title": "Piano_Sonatas_8-1",
    "folder": "Mozart/Piano_Sonatas/8-1",
    "xml_score": "Mozart/Piano_Sonatas/8-1/xml_score.musicxml",
    "midi_score": "Mozart/Piano_Sonatas/8-1/midi_score.mid",
    "midi_performance": "Mozart/Piano_Sonatas/8-1/Bogdanovitch01.mid",
    "annotated_primary_time_signature": "4/4",
    "annotated_key_signature_tonic": 0,
    "annotated_key_signature_accidentals": 0,
    "annotated_beat_count": 531,
    "annotated_downbeat_count": 133,
    "annotated_downbeats_score_map": [
      0,
      1,
      2,
      3,
      4,
      5,
      6,
      7,
      8,
      9,
      10,
      11,
      12,
      13,
      14,
      15,
      16,
      17,
      18,
      19,
      20,
      21,
      22,
      23,
      24,
      25,
      26,
      27,
      28,
      29,
      30,
      31,
      32,
      33,
      34,
      35,
      36,
      37,
      38,
      39,
      40,
      41,
      42,
      43,
      44,
      45,
      46,
      47,
      48,
      49,
      50,
      51,
      52,
      53,
      54,
      55,
      56,
      57,
      58,
      59,
      60,
      61,
      62,
      63,
      64,
      65,
      66,
      67,
      68,
      69,
      70,
      71,
      72,
      73,
      74,
      75,
      76,
      77,
      78,
      79,
      80,
      81,
      82,
      83,
      84,
      85,
      86,
      87,
      88,
      89,
      90,
      91,
      92,
      93,
      94,
      95,
      96,
      97,
      98,
      99,
      100,
      101,
      102,
      103,
      104,
      105,
      106,
      107,
      108,
      109,
      110,
      111,
      112,
      113,
      114,
      115,
      116,
      117,
      118,
      119,
      120,
      121,
      122,
      123,
      124,
      125,
      126,
      127,
      128,
      129,
      130,
      131,
      132
    ],
    "score_and_performance_aligned": true,
    "source_piece_id": "mozart__piano_sonatas__8_1__midi_score",
    "slice_start_event": 2400,
    "slice_event_count": 160,
    "benchmark_hack_transformed": true
  },
  "key": "A:minor",
  "chords": [
    "E:maj",
    "D:maj",
    "E:maj",
    "D:maj",
    "C:maj",
    "D:min",
    "C:maj",
    "C:maj",
    "E:maj",
    "D:min",
    "E:maj",
    "Bb:maj",
    "A:maj",
    "D:maj",
    "D:min",
    "G:maj",
    "C:min",
    "G:maj",
    "C:min",
    "G:maj",
    "G:maj",
    "G:maj",
    "G:maj",
    "D:min",
    "F:maj",
    "C:maj",
    "C:maj",
    "F:maj",
    "E:min",
    "G:maj",
    "C:maj",
    "F:maj",
    "D:min",
    "E:min",
    "G:maj",
    "G:maj",
    "E:min",
    "F:maj",
    "C:maj",
    "A:min",
    "A:min",
    "C:maj",
    "F:maj",
    "G:maj",
    "C:maj",
    "D:min",
    "C:maj",
    "D:min",
    "C:maj",
    "G:maj",
    "F:maj",
    "G:maj",
    "C#:min",
    "E:min",
    "E:min",
    "C:maj",
    "G:min",
    "B:maj",
    "B:maj",
    "B:maj",
    "A:maj",
    "E:maj",
    "E:maj",
    "E:maj",
    "D:maj",
    "A:maj",
    "A:maj",
    "A:maj",
    "G:maj",
    "D:min",
    "C:maj",
    "B:min",
    "G:maj",
    "E:maj",
    "A:min",
    "E:maj",
    "A:min",
    "F:maj",
    "E:maj",
    "E:maj",
    "D:maj",
    "E:maj",
    "D:maj",
    "C:maj",
    "D:min",
    "C:maj",
    "C:maj",
    "A:min",
    "E:min",
    "F:maj",
    "C:maj",
    "D:min",
    "E:min",
    "A:maj",
    "A:maj",
    "A:min",
    "E:maj",
    "A:min",
    "E:maj",
    "A:min",
    "E:maj",
    "E:maj",
    "E:maj",
    "E:maj",
    "A:maj",
    "B:min",
    "A:min",
    "A:min",
    "D:min",
    "C:maj",
    "B:min",
    "E:maj",
    "E:maj",
    "D:min",
    "C:maj",
    "E:maj",
    "E:maj",
    "A:min",
    "D:min",
    "E:maj",
    "F:maj",
    "F:maj",
    "A:min",
    "D:maj",
    "E:maj",
    "D:min",
    "C:min",
    "E:maj",
    "A:min",
    "B:min",
    "A:min",
    "B:min",
    "A:min"
  ]
}