{
  "piece_id": "schubert__impromptu_op_90_d_899__4_no_repeat__midi_score__sample",
  "resolution": "sixteenth",
  "steps_per_beat": 4,
  "bar_steps": 12,
  "time_signature": "3/4",
  "tempo_bpm": 120.0,
  "note_events": [
    {
      "pitch": 82,
      "velocity": 60,
      "instrument": 0,
      "channel": 0,
      "start_step": 0,
      "duration_steps": 1,
      "bar": 1,
      "position": 0,
      "track_index": 0,
      "track_name": "track_0",
      "is_drum": false,
      "harmony": "C#:maj"
    },
    {
      "pitch": 87,
      "velocity": 60,
      "instrument": 0,
      "channel": 0,
      "start_step": 1,
      "duration_steps": 1,
      "bar": 1,
      "position": 1,
      "track_index": 0,
      "track_name": "track_0",
      "is_drum": false,
      "harmony": "Ab:maj"
    },
    {
      "pitch": 87,
      "velocity": 60,
      "instrument": 0,
      "channel": 0,
      "start_step": 2,
      "duration_steps": 1,
      "bar": 1,
      "position": 2,
      "track_index": 0,
      "track_name": "track_0",
      "is_drum": false,
      "harmony": "Ab:min"
    },
    {
      "pitch": 83,
      "velocity": 60,
      "instrument": 0,
      "channel": 0,
      "start_step": 3,
      "duration_steps": 1,
      "bar": 1,
      "position": 3,
      "track_index": 0,
      "track_name": "track_0",
      "is_drum": false,
      "harmony": "Ab:maj"
    },
    {
      "pitch": 83,
      "velocity": 60,
      "instrument": 0,
      "channel": 0,
      "start_step": 4,
      "duration_steps": 1,
      "bar": 1,
      "position": 4,
      "track_index": 0,
      "track_name": "track_0",
      "is_drum": false,
      "harmony": "Ab:maj"
    },
    {
      "pitch": 83,
      "velocity": 60,
      "instrument": 0,
      "channel": 0,
      "start_step": 5,
      "duration_steps": 1,
      "bar": 1,
      "position": 5,
      "track_index": 0,
      "track_name": "track_0",
      "is_drum": false,
      "harmony": "Ab:maj"
    },
    {
      "pitch": 83,
      "velocity": 60,
      "instrument": 0,
      "channel": 0,
      "start_step": 6,
      "duration_steps": 1,
      "bar": 1,
      "position": 6,
      "track_index": 0,
      "track_name": "track_0",
      "is_drum": false,
      "harmony": "Ab:min"
    },
    {
      "pitch": 83,
      "velocity": 60,
      "instrument": 0,
      "channel": 0,
      "start_step": 7,
      "duration_steps": 1,
      "bar": 1,
      "position": 7,
      "track_index": 0,
      "track_name": "track_0",
      "is_drum": false,
      "harmony": "Ab:min"
    },
    {
      "pitch": 83,
      "velocity": 60,
      "instrument": 0,
      "channel": 0,
      "start_step": 8,
      "duration_steps": 1,
      "bar": 1,
      "position": 8,
      "track_index": 0,
      "track_name": "track_0",
      "is_drum": false,
      "harmony": "Ab:min"
    },
    {
      "pitch": 80,
      "velocity": 60,
      "instrument": 0,
      "channel": 0,
      "start_step": 9,
      "duration_steps": 1,
      "bar": 1,
      "position": 9,
      "track_index": 0,
      "track_name": "track_0",
      "is_drum": false,
      "harmony": "Ab:maj"
    },
    {
      "pitch": 80,
      "velocity": 60,
      "instrument": 0,
      "channel": 0,
      "start_step": 10,
      "duration_steps": 1,
      "bar": 1,
      "position": 10,
      "track_index": 0,
      "track_name": "track_0",
      "is_drum": false,
      "harmony": "Ab:maj"
    },
    {
      "pitch": 80,
      "velocity": 60,
      "instrument": 0,
      "channel": 0,
      "start_step": 11,
      "duration_steps": 1,
      "bar": 1,
      "position": 11,
      "track_index": 0,
      "track_name": "track_0",
      "is_drum": false,
      "harmony": "Ab:maj"
    },
    {
      "pitch": 80,
      "velocity": 60,
      "instrument": 0,
      "channel": 0,
      "start_step": 12,
      "duration_steps": 1,
      "bar": 2,
      "position": 0,
      "track_index": 0,
      "track_name": "track_0",
      "is_drum": false,
      "harmony": "Ab:maj"
    },
    {
      "pitch": 80,
      "velocity": 60,
      "instrument": 0,
      "channel": 0,
      "start_step": 13,
      "duration_steps": 1,
      "bar": 2,
      "position": 1,
      "track_index": 0,
      "track_name": "track_0",
      "is_drum": false,
      "harmony": "Ab:min"
    },
    {
      "pitch": 80,
      "velocity": 60,
      "instrument": 0,
      "channel": 0,
      "start_step": 14,
      "duration_steps": 1,
      "bar": 2,
      "position": 2,
      "track_index": 0,
      "track_name": "track_0",
      "is_drum": false,
      "harmony": "Ab:min"
    },
    {
      "pitch": 80,
      "velocity": 60,
      "instrument": 0,
      "channel": 0,
      "start_step": 15,
      "duration_steps": 1,
      "bar": 2,
      "position": 3,
      "track_index": 0,
      "track_name": "track_0",
      "is_drum": false,
      "harmony": "Ab:min"
    },
    {
      "pitch": 80,
      "velocity": 60,
      "instrument": 0,
      "channel": 0,
      "start_step": 16,
      "duration_steps": 1,
      "bar": 2,
      "position": 4,
      "track_index": 0,
      "track_name": "track_0",
      "is_drum": false,
      "harmony": "Ab:min"
    },
    {
      "pitch": 75,
      "velocity": 60,
      "instrument": 0,
      "channel": 0,
      "start_step": 17,
      "duration_steps": 1,
      "bar": 2,
      "position": 5,
      "track_index": 0,
      "track_name": "track_0",
      "is_drum": false,
      "harmony": "Eb:maj"
    },
    {
      "pitch": 75,
      "velocity": 60,
      "instrument": 0,
      "channel": 0,
      "start_step": 18,
      "duration_steps": 1,
      "bar": 2,
      "position": 6,
      "track_index": 0,
      "track_name": "track_0",
      "is_drum": false,
      "harmony": "Ab:maj"
    },
    {
      "pitch": 75,
      "velocity": 60,
      "instrument": 0,
      "channel": 0,
      "start_step": 19,
      "duration_steps": 1,
      "bar": 2,
      "position": 7,
      "track_index": 0,
      "track_name": "track_0",
      "is_drum": false,
      "harmony": "Ab:maj"
    },
    {
      "pitch": 75,
      "velocity": 60,
      "instrument": 0,
      "channel": 0,
      "start_step": 20,
      "duration_steps": 1,
      "bar": 2,
      "position": 8,
      "track_index": 0,
      "track_name": "track_0",
      "is_drum": false,
      "harmony": "Ab:maj"
    },
    {
      "pitch": 75,
      "velocity": 60,
      "instrument": 0,
      "channel": 0,
      "start_step": 21,
      "duration_steps": 1,
      "bar": 2,
      "position": 9,
      "track_index": 0,
      "track_name": "track_0",
      "is_drum": false,
      "harmony": "C:min"
    },
    {
      "pitch": 75,
      "velocity": 60,
      "instrument": 0,
      "channel": 0,
      "start_step": 22,
      "duration_steps": 1,
      "bar": 2,
      "position": 10,
      "track_index": 0,
      "track_name": "track_0",
      "is_drum": false,
      "harmony": "Ab:min"
    },
    {
      "pitch": 75,
      "velocity": 60,
      "instrument": 0,
      "channel": 0,
      "start_step": 23,
      "duration_steps": 1,
      "bar": 2,
      "position": 11,
      "track_index": 0,
      "track_name": "track_0",
      "is_drum": false,
      "harmony": "Ab:min"
    },
    {
      "pitch": 75,
      "velocity": 60,
      "instrument": 0,
      "channel": 0,
      "start_step": 24,
      "duration_steps": 1,
      "bar": 3,
      "position": 0,
      "track_index": 0,
      "track_name": "track_0",
      "is_drum": false,
      "harmony": "Ab:min"
    },
    {
      "pitch": 44,
      "velocity": 60,
      "instrument": 0,
      "channel": 0,
      "start_step": 25,
      "duration_steps": 2,
      "bar": 3,
      "position": 1,
      "track_index": 1,
      "track_name": "track_1",
      "is_drum": false,
      "harmony": "Ab:maj"
    },
    {
      "pitch": 44,
      "velocity": 60,
      "instrument": 0,
      "channel": 0,
      "start_step": 27,
      "duration_steps": 2,
      "bar": 3,
      "position": 3,
      "track_index": 1,
      "track_name": "track_1",
      "is_drum": false,
      "harmony": "Ab:min"
    },
    {
      "pitch": 51,
      "velocity": 60,
      "instrument": 0,
      "channel": 0,
      "start_step": 29,
      "duration_steps": 2,
      "bar": 3,
      "position": 5,
      "track_index": 1,
      "track_name": "track_1",
      "is_drum": false,
      "harmony": "Eb:maj"
    },
    {
      "pitch": 51,
      "velocity": 60,
      "instrument": 0,
      "channel": 0,
      "start_step": 31,
      "duration_steps": 2,
      "bar": 3,
      "position": 7,
      "track_index": 1,
      "track_name": "track_1",
      "is_drum": false,
      "harmony": "C:min"
    },
    {
      "pitch": 56,
      "velocity": 60,
      "instrument": 0,
      "channel": 0,
      "start_step": 33,
      "duration_steps": 16,
      "bar": 3,
      "position": 9,
      "track_index": 1,
      "track_name": "track_1",
      "is_drum": false,
      "harmony": "Ab:maj"
    },
    {
      "pitch": 56,
      "velocity": 60,
      "instrument": 0,
      "channel": 0,
      "start_step": 49,
      "duration_steps": 16,
      "bar": 5,
      "position": 1,
      "track_index": 1,
      "track_name": "track_1",
      "is_drum": false,
      "harmony": "Ab:min"
    },
    {
      "pitch": 58,
      "velocity": 60,
      "instrument": 0,
      "channel": 0,
      "start_step": 65,
      "duration_steps": 2,
      "bar": 6,
      "position": 5,
      "track_index": 1,
      "track_name": "track_1",
      "is_drum": false,
      "harmony": "Eb:maj"
    },
    {
      "pitch": 58,
      "velocity": 60,
      "instrument": 0,
      "channel": 0,
      "start_step": 67,
      "duration_steps": 2,
      "bar": 6,
      "position": 7,
      "track_index": 1,
      "track_name": "track_1",
      "is_drum": false,
      "harmony": "C:min"
    },
    {
      "pitch": 59,
      "velocity": 60,
      "instrument": 0,
      "channel": 0,
      "start_step": 69,
      "duration_steps": 10,
      "bar": 6,
      "position": 9,
      "track_index": 1,
      "track_name": "track_1",
      "is_drum": false,
      "harmony": "Ab:min"
    },
    {
      "pitch": 60,
      "velocity": 60,
      "instrument": 0,
      "channel": 0,
      "start_step": 79,
      "duration_steps": 16,
      "bar": 7,
      "position": 7,
      "track_index": 1,
      "track_name": "track_1",
      "is_drum": false,
      "harmony": "Ab:maj"
    },
    {
      "pitch": 60,
      "velocity": 60,
      "instrument": 0,
      "channel": 0,
      "start_step": 95,
      "duration_steps": 8,
      "bar": 8,
      "position": 11,
      "track_index": 1,
      "track_name": "track_1",
      "is_drum": false,
      "harmony": "C:min"
    },
    {
      "pitch": 63,
      "velocity": 60,
      "instrument": 0,
      "channel": 0,
      "start_step": 103,
      "duration_steps": 2,
      "bar": 9,
      "position": 7,
      "track_index": 1,
      "track_name": "track_1",
      "is_drum": false,
      "harmony": "Eb:maj"
    },
    {
      "pitch": 63,
      "velocity": 60,
      "instrument": 0,
      "channel": 0,
      "start_step": 105,
      "duration_steps": 1,
      "bar": 9,
      "position": 9,
      "track_index": 0,
      "track_name": "track_0",
      "is_drum": false,
      "harmony": "Eb:maj"
    },
    {
      "pitch": 63,
      "velocity": 60,
      "instrument": 0,
      "channel": 0,
      "start_step": 106,
      "duration_steps": 15,
      "bar": 9,
      "position": 10,
      "track_index": 1,
      "track_name": "track_1",
      "is_drum": false,
      "harmony": "Ab:maj"
    },
    {
      "pitch": 63,
      "velocity": 60,
      "instrument": 0,
      "channel": 0,
      "start_step": 121,
      "duration_steps": 2,
      "bar": 11,
      "position": 1,
      "track_index": 1,
      "track_name": "track_1",
      "is_drum": false,
      "harmony": "C:min"
    },
    {
      "pitch": 63,
      "velocity": 60,
      "instrument": 0,
      "channel": 0,
      "start_step": 123,
      "duration_steps": 1,
      "bar": 11,
      "position": 3,
      "track_index": 0,
      "track_name": "track_0",
      "is_drum": false,
      "harmony": "C:min"
    },
    {
      "pitch": 63,
      "velocity": 60,
      "instrument": 0,
      "channel": 0,
      "start_step": 124,
      "duration_steps": 15,
      "bar": 11,
      "position": 4,
      "track_index": 1,
      "track_name": "track_1",
      "is_drum": false,
      "harmony": "Ab:min"
    },
    {
      "pitch": 67,
      "velocity": 60,
      "instrument": 0,
      "channel": 0,
      "start_step": 139,
      "duration_steps": 1,
      "bar": 12,
      "position": 7,
      "track_index": 0,
      "track_name": "track_0",
      "is_drum": false,
      "harmony": "Eb:maj"
    },
    {
      "pitch": 67,
      "velocity": 60,
      "instrument": 0,
      "channel": 0,
      "start_step": 140,
      "duration_steps": 1,
      "bar": 12,
      "position": 8,
      "track_index": 0,
      "track_name": "track_0",
      "is_drum": false,
      "harmony": "C:min"
    },
    {
      "pitch": 68,
      "velocity": 60,
      "instrument": 0,
      "channel": 0,
      "start_step": 141,
      "duration_steps": 1,
      "bar": 12,
      "position": 9,
      "track_index": 0,
      "track_name": "track_0",
      "is_drum": false,
      "harmony": "Eb:maj"
    },
    {
      "pitch": 68,
      "velocity": 60,
      "instrument": 0,
      "channel": 0,
      "start_step": 142,
      "duration_steps": 1,
      "bar": 12,
      "position": 10,
      "track_index": 0,
      "track_name": "track_0",
      "is_drum": false,
      "harmony": "Eb:maj"
    },
    {
      "pitch": 68,
      "velocity": 60,
      "instrument": 0,
      "channel": 0,
      "start_step": 143,
      "duration_steps": 1,
      "bar": 12,
      "position": 11,
      "track_index": 0,
      "track_name": "track_0",
      "is_drum": false,
      "harmony": "Eb:maj"
    },
    {
      "pitch": 68,
      "velocity": 60,
      "instrument": 0,
      "channel": 0,
      "start_step": 144,
      "duration_steps": 1,
      "bar": 13,
      "position": 0,
      "track_index": 0,
      "track_name": "track_0",
      "is_drum": false,
      "harmony": "C:min"
    },
    {
      "pitch": 68,
      "velocity": 60,
      "instrument": 0,
      "channel": 0,
      "start_step": 145,
      "duration_steps": 1,
      "bar": 13,
      "position": 1,
      "track_index": 0,
      "track_name": "track_0",
      "is_drum": false,
      "harmony": "C:min"
    },
    {
      "pitch": 68,
      "velocity": 60,
      "instrument": 0,
      "channel": 0,
      "start_step": 146,
      "duration_steps": 1,
      "bar": 13,
      "position": 2,
      "track_index": 0,
      "track_name": "track_0",
      "is_drum": false,
      "harmony": "C:min"
    },
    {
      "pitch": 70,
      "velocity": 60,
      "instrument": 0,
      "channel": 0,
      "start_step": 147,
      "duration_steps": 1,
      "bar": 13,
      "position": 3,
      "track_index": 0,
      "track_name": "track_0",
      "is_drum": false,
      "harmony": "Eb:maj"
    },
    {
      "pitch": 70,
      "velocity": 60,
      "instrument": 0,
      "channel": 0,
      "start_step": 148,
      "duration_steps": 1,
      "bar": 13,
      "position": 4,
      "track_index": 0,
      "track_name": "track_0",
      "is_drum": false,
      "harmony": "C:min"
    },
    {
      "pitch": 71,
      "velocity": 60,
      "instrument": 0,
      "channel": 0,
      "start_step": 149,
      "duration_steps": 1,
      "bar": 13,
      "position": 5,
      "track_index": 0,
      "track_name": "track_0",
      "is_drum": false,
      "harmony": "Eb:maj"
    },
    {
      "pitch": 71,
      "velocity": 60,
      "instrument": 0,
      "channel": 0,
      "start_step": 150,
      "duration_steps": 1,
      "bar": 13,
      "position": 6,
      "track_index": 0,
      "track_name": "track_0",
      "is_drum": false,
      "harmony": "Eb:maj"
    },
    {
      "pitch": 71,
      "velocity": 60,
      "instrument": 0,
      "channel": 0,
      "start_step": 151,
      "duration_steps": 1,
      "bar": 13,
      "position": 7,
      "track_index": 0,
      "track_name": "track_0",
      "is_drum": false,
      "harmony": "Eb:maj"
    },
    {
      "pitch": 71,
      "velocity": 60,
      "instrument": 0,
      "channel": 0,
      "start_step": 152,
      "duration_steps": 1,
      "bar": 13,
      "position": 8,
      "track_index": 0,
      "track_name": "track_0",
      "is_drum": false,
      "harmony": "Ab:maj"
    },
    {
      "pitch": 71,
      "velocity": 60,
      "instrument": 0,
      "channel": 0,
      "start_step": 153,
      "duration_steps": 1,
      "bar": 13,
      "position": 9,
      "track_index": 0,
      "track_name": "track_0",
      "is_drum": false,
      "harmony": "C:min"
    },
    {
      "pitch": 71,
      "velocity": 60,
      "instrument": 0,
      "channel": 0,
      "start_step": 154,
      "duration_steps": 1,
      "bar": 13,
      "position": 10,
      "track_index": 0,
      "track_name": "track_0",
      "is_drum": false,
      "harmony": "C:min"
    },
    {
      "pitch": 71,
      "velocity": 60,
      "instrument": 0,
      "channel": 0,
      "start_step": 155,
      "duration_steps": 1,
      "bar": 13,
      "position": 11,
      "track_index": 0,
      "track_name": "track_0",
      "is_drum": false,
      "harmony": "Ab:min"
    },
    {
      "pitch": 71,
      "velocity": 60,
      "instrument": 0,
      "channel": 0,
      "start_step": 156,
      "duration_steps": 1,
      "bar": 14,
      "position": 0,
      "track_index": 0,
      "track_name": "track_0",
      "is_drum": false,
      "harmony": "C:min"
    },
    {
      "pitch": 68,
      "velocity": 60,
      "instrument": 0,
      "channel": 0,
      "start_step": 157,
      "duration_steps": 2,
      "bar": 14,
      "position": 1,
      "track_index": 0,
      "track_name": "track_0",
      "is_drum": false,
      "harmony": "E:maj"
    },
    {
      "pitch": 68,
      "velocity": 100,
      "instrument": 0,
      "channel": 0,
      "start_step": 159,
      "duration_steps": 1,
      "bar": 14,
      "position": 3,
      "track_index": 0,
      "track_name": "track_0",
      "is_drum": false,
      "harmony": "C:min"
    },
    {
      "pitch": 68,
      "velocity": 100,
      "instrument": 0,
      "channel": 0,
      "start_step": 160,
      "duration_steps": 1,
      "bar": 14,
      "position": 4,
      "track_index": 0,
      "track_name": "track_0",
      "is_drum": false,
      "harmony": "C:min"
    },
    {
      "pitch": 68,
      "velocity": 100,
      "instrument": 0,
      "channel": 0,
      "start_step": 161,
      "duration_steps": 1,
      "bar": 14,
      "position": 5,
      "track_index": 0,
      "track_name": "track_0",
      "is_drum": false,
      "harmony": "C:min"
    },
    {
      "pitch": 67,
      "velocity": 80,
      "instrument": 0,
      "channel": 0,
      "start_step": 162,
      "duration_steps": 2,
      "bar": 14,
      "position": 6,
      "track_index": 0,
      "track_name": "track_0",
      "is_drum": false,
      "harmony": "E:maj"
    },
    {
      "pitch": 67,
      "velocity": 100,
      "instrument": 0,
      "channel": 0,
      "start_step": 164,
      "duration_steps": 2,
      "bar": 14,
      "position": 8,
      "track_index": 0,
      "track_name": "track_0",
      "is_drum": false,
      "harmony": "E:maj"
    },
    {
      "pitch": 67,
      "velocity": 100,
      "instrument": 0,
      "channel": 0,
      "start_step": 166,
      "duration_steps": 2,
      "bar": 14,
      "position": 10,
      "track_index": 0,
      "track_name": "track_0",
      "is_drum": false,
      "harmony": "Bb:min"
    },
    {
      "pitch": 67,
      "velocity": 100,
      "instrument": 0,
      "channel": 0,
      "start_step": 168,
      "duration_steps": 2,
      "bar": 15,
      "position": 0,
      "track_index": 0,
      "track_name": "track_0",
      "is_drum": false,
      "harmony": "Bb:min"
    },
    {
      "pitch": 67,
      "velocity": 100,
      "instrument": 0,
      "channel": 0,
      "start_step": 170,
      "duration_steps": 1,
      "bar": 15,
      "position": 2,
      "track_index": 0,
      "track_name": "track_0",
      "is_drum": false,
      "harmony": "Bb:min"
    },
    {
      "pitch": 67,
      "velocity": 100,
      "instrument": 0,
      "channel": 0,
      "start_step": 171,
      "duration_steps": 1,
      "bar": 15,
      "position": 3,
      "track_index": 0,
      "track_name": "track_0",
      "is_drum": false,
      "harmony": "C:min"
    },
    {
      "pitch": 64,
      "velocity": 80,
      "instrument": 0,
      "channel": 0,
      "start_step": 172,
      "duration_steps": 2,
      "bar": 15,
      "position": 4,
      "track_index": 1,
      "track_name": "track_1",
      "is_drum": false,
      "harmony": "E:maj"
    },
    {
      "pitch": 64,
      "velocity": 100,
      "instrument": 0,
      "channel": 0,
      "start_step": 174,
      "duration_steps": 2,
      "bar": 15,
      "position": 6,
      "track_index": 1,
      "track_name": "track_1",
      "is_drum": false,
      "harmony": "E:maj"
    },
    {
      "pitch": 64,
      "velocity": 100,
      "instrument": 0,
      "channel": 0,
      "start_step": 176,
      "duration_steps": 2,
      "bar": 15,
      "position": 8,
      "track_index": 1,
      "track_name": "track_1",
      "is_drum": false,
      "harmony": "Bb:min"
    },
    {
      "pitch": 63,
      "velocity": 60,
      "instrument": 0,
      "channel": 0,
      "start_step": 178,
      "duration_steps": 2,
      "bar": 15,
      "position": 10,
      "track_index": 1,
      "track_name": "track_1",
      "is_drum": false,
      "harmony": "E:maj"
    },
    {
      "pitch": 63,
      "velocity": 100,
      "instrument": 0,
      "channel": 0,
      "start_step": 180,
      "duration_steps": 2,
      "bar": 16,
      "position": 0,
      "track_index": 1,
      "track_name": "track_1",
      "is_drum": false,
      "harmony": "Bb:min"
    },
    {
      "pitch": 63,
      "velocity": 100,
      "instrument": 0,
      "channel": 0,
      "start_step": 182,
      "duration_steps": 15,
      "bar": 16,
      "position": 2,
      "track_index": 1,
      "track_name": "track_1",
      "is_drum": false,
      "harmony": "B:maj"
    },
    {
      "pitch": 63,
      "velocity": 100,
      "instrument": 0,
      "channel": 0,
      "start_step": 197,
      "duration_steps": 1,
      "bar": 17,
      "position": 5,
      "track_index": 0,
      "track_name": "track_0",
      "is_drum": false,
      "harmony": "C:min"
    },
    {
      "pitch": 63,
      "velocity": 100,
      "instrument": 0,
      "channel": 0,
      "start_step": 198,
      "duration_steps": 2,
      "bar": 17,
      "position": 6,
      "track_index": 1,
      "track_name": "track_1",
      "is_drum": false,
      "harmony": "C:min"
    },
    {
      "pitch": 61,
      "velocity": 100,
      "instrument": 0,
      "channel": 0,
      "start_step": 200,
      "duration_steps": 2,
      "bar": 17,
      "position": 8,
      "track_index": 1,
      "track_name": "track_1",
      "is_drum": false,
      "harmony": "Bb:min"
    },
    {
      "pitch": 60,
      "velocity": 100,
      "instrument": 0,
      "channel": 0,
      "start_step": 202,
      "duration_steps": 8,
      "bar": 17,
      "position": 10,
      "track_index": 1,
      "track_name": "track_1",
      "is_drum": false,
      "harmony": "C:min"
    },
    {
      "pitch": 59,
      "velocity": 100,
      "instrument": 0,
      "channel": 0,
      "start_step": 210,
      "duration_steps": 24,
      "bar": 18,
      "position": 6,
      "track_index": 1,
      "track_name": "track_1",
      "is_drum": false,
      "harmony": "B:maj"
    },
    {
      "pitch": 58,
      "velocity": 80,
      "instrument": 0,
      "channel": 0,
      "start_step": 234,
      "duration_steps": 2,
      "bar": 20,
      "position": 6,
      "track_index": 1,
      "track_name": "track_1",
      "is_drum": false,
      "harmony": "E:maj"
    },
    {
      "pitch": 58,
      "velocity": 100,
      "instrument": 0,
      "channel": 0,
      "start_step": 236,
      "duration_steps": 2,
      "bar": 20,
      "position": 8,
      "track_index": 1,
      "track_name": "track_1",
      "is_drum": false,
      "harmony": "E:maj"
    },
    {
      "pitch": 58,
      "velocity": 100,
      "instrument": 0,
      "channel": 0,
      "start_step": 238,
      "duration_steps": 2,
      "bar": 20,
      "position": 10,
      "track_index": 1,
      "track_name": "track_1",
      "is_drum": false,
      "harmony": "Bb:min"
    },
    {
      "pitch": 58,
      "velocity": 100,
      "instrument": 0,
      "channel": 0,
      "start_step": 240,
      "duration_steps": 2,
      "bar": 21,
      "position": 0,
      "track_index": 1,
      "track_name": "track_1",
      "is_drum": false,
      "harmony": "Bb:min"
    },
    {
      "pitch": 58,
      "velocity": 100,
      "instrument": 0,
      "channel": 0,
      "start_step": 242,
      "duration_steps": 2,
      "bar": 21,
      "position": 2,
      "track_index": 1,
      "track_name": "track_1",
      "is_drum": false,
      "harmony": "Bb:min"
    },
    {
      "pitch": 58,
      "velocity": 100,
      "instrument": 0,
      "channel": 0,
      "start_step": 244,
      "duration_steps": 2,
      "bar": 21,
      "position": 4,
      "track_index": 1,
      "track_name": "track_1",
      "is_drum": false,
      "harmony": "C:min"
    },
    {
      "pitch": 56,
      "velocity": 60,
      "instrument": 0,
      "channel": 0,
      "start_step": 246,
      "duration_steps": 2,
      "bar": 21,
      "position": 6,
      "track_index": 1,
      "track_name": "track_1",
      "is_drum": false,
      "harmony": "E:maj"
    },
    {
      "pitch": 56,
      "velocity": 100,
      "instrument": 0,
      "channel": 0,
      "start_step": 248,
      "duration_steps": 16,
      "bar": 21,
      "position": 8,
      "track_index": 1,
      "track_name": "track_1",
      "is_drum": false,
      "harmony": "B:maj"
    },
    {
      "pitch": 51,
      "velocity": 80,
      "instrument": 0,
      "channel": 0,
      "start_step": 264,
      "duration_steps": 2,
      "bar": 23,
      "position": 0,
      "track_index": 1,
      "track_name": "track_1",
      "is_drum": false,
      "harmony": "E:maj"
    },
    {
      "pitch": 51,
      "velocity": 100,
      "instrument": 0,
      "channel": 0,
      "start_step": 266,
      "duration_steps": 2,
      "bar": 23,
      "position": 2,
      "track_index": 1,
      "track_name": "track_1",
      "is_drum": false,
      "harmony": "E:maj"
    },
    {
      "pitch": 51,
      "velocity": 100,
      "instrument": 0,
      "channel": 0,
      "start_step": 268,
      "duration_steps": 2,
      "bar": 23,
      "position": 4,
      "track_index": 1,
      "track_name": "track_1",
      "is_drum": false,
      "harmony": "Bb:min"
    },
    {
      "pitch": 51,
      "velocity": 100,
      "instrument": 0,
      "channel": 0,
      "start_step": 270,
      "duration_steps": 2,
      "bar": 23,
      "position": 6,
      "track_index": 1,
      "track_name": "track_1",
      "is_drum": false,
      "harmony": "Bb:min"
    },
    {
      "pitch": 51,
      "velocity": 100,
      "instrument": 0,
      "channel": 0,
      "start_step": 272,
      "duration_steps": 2,
      "bar": 23,
      "position": 8,
      "track_index": 1,
      "track_name": "track_1",
      "is_drum": false,
      "harmony": "Bb:min"
    },
    {
      "pitch": 51,
      "velocity": 100,
      "instrument": 0,
      "channel": 0,
      "start_step": 274,
      "duration_steps": 2,
      "bar": 23,
      "position": 10,
      "track_index": 1,
      "track_name": "track_1",
      "is_drum": false,
      "harmony": "C:min"
    },
    {
      "pitch": 44,
      "velocity": 100,
      "instrument": 0,
      "channel": 0,
      "start_step": 276,
      "duration_steps": 2,
      "bar": 24,
      "position": 0,
      "track_index": 1,
      "track_name": "track_1",
      "is_drum": false,
      "harmony": "B:maj"
    },
    {
      "pitch": 70,
      "velocity": 80,
      "instrument": 0,
      "channel": 0,
      "start_step": 278,
      "duration_steps": 2,
      "bar": 24,
      "position": 2,
      "track_index": 0,
      "track_name": "track_0",
      "is_drum": false,
      "harmony": "E:maj"
    },
    {
      "pitch": 70,
      "velocity": 100,
      "instrument": 0,
      "channel": 0,
      "start_step": 280,
      "duration_steps": 2,
      "bar": 24,
      "position": 4,
      "track_index": 0,
      "track_name": "track_0",
      "is_drum": false,
      "harmony": "E:maj"
    },
    {
      "pitch": 70,
      "velocity": 100,
      "instrument": 0,
      "channel": 0,
      "start_step": 282,
      "duration_steps": 2,
      "bar": 24,
      "position": 6,
      "track_index": 0,
      "track_name": "track_0",
      "is_drum": false,
      "harmony": "Bb:min"
    },
    {
      "pitch": 70,
      "velocity": 100,
      "instrument": 0,
      "channel": 0,
      "start_step": 284,
      "duration_steps": 2,
      "bar": 24,
      "position": 8,
      "track_index": 0,
      "track_name": "track_0",
      "is_drum": false,
      "harmony": "Bb:min"
    },
    {
      "pitch": 70,
      "velocity": 100,
      "instrument": 0,
      "channel": 0,
      "start_step": 286,
      "duration_steps": 1,
      "bar": 24,
      "position": 10,
      "track_index": 0,
      "track_name": "track_0",
      "is_drum": false,
      "harmony": "Bb:min"
    },
    {
      "pitch": 70,
      "velocity": 100,
      "instrument": 0,
      "channel": 0,
      "start_step": 287,
      "duration_steps": 1,
      "bar": 24,
      "position": 11,
      "track_index": 0,
      "track_name": "track_0",
      "is_drum": false,
      "harmony": "C:min"
    },
    {
      "pitch": 71,
      "velocity": 60,
      "instrument": 0,
      "channel": 0,
      "start_step": 288,
      "duration_steps": 2,
      "bar": 25,
      "position": 0,
      "track_index": 0,
      "track_name": "track_0",
      "is_drum": false,
      "harmony": "E:maj"
    },
    {
      "pitch": 71,
      "velocity": 100,
      "instrument": 0,
      "channel": 0,
      "start_step": 290,
      "duration_steps": 1,
      "bar": 25,
      "position": 2,
      "track_index": 0,
      "track_name": "track_0",
      "is_drum": false,
      "harmony": "B:maj"
    },
    {
      "pitch": 71,
      "velocity": 100,
      "instrument": 0,
      "channel": 0,
      "start_step": 291,
      "duration_steps": 1,
      "bar": 25,
      "position": 3,
      "track_index": 0,
      "track_name": "track_0",
      "is_drum": false,
      "harmony": "C:min"
    },
    {
      "pitch": 71,
      "velocity": 100,
      "instrument": 0,
      "channel": 0,
      "start_step": 292,
      "duration_steps": 1,
      "bar": 25,
      "position": 4,
      "track_index": 0,
      "track_name": "track_0",
      "is_drum": false,
      "harmony": "C:min"
    },
    {
      "pitch": 71,
      "velocity": 100,
      "instrument": 0,
      "channel": 0,
      "start_step": 293,
      "duration_steps": 1,
      "bar": 25,
      "position": 5,
      "track_index": 0,
      "track_name": "track_0",
      "is_drum": false,
      "harmony": "C:min"
    },
    {
      "pitch": 73,
      "velocity": 100,
      "instrument": 0,
      "channel": 0,
      "start_step": 294,
      "duration_steps": 1,
      "bar": 25,
      "position": 6,
      "track_index": 0,
      "track_name": "track_0",
      "is_drum": false,
      "harmony": "Bb:min"
    },
    {
      "pitch": 75,
      "velocity": 100,
      "instrument": 0,
      "channel": 0,
      "start_step": 295,
      "duration_steps": 2,
      "bar": 25,
      "position": 7,
      "track_index": 0,
      "track_name": "track_0",
      "is_drum": false,
      "harmony": "Bb:min"
    },
    {
      "pitch": 75,
      "velocity": 100,
      "instrument": 0,
      "channel": 0,
      "start_step": 297,
      "duration_steps": 1,
      "bar": 25,
      "position": 9,
      "track_index": 0,
      "track_name": "track_0",
      "is_drum": false,
      "harmony": "B:maj"
    },
    {
      "pitch": 75,
      "velocity": 100,
      "instrument": 0,
      "channel": 0,
      "start_step": 298,
      "duration_steps": 1,
      "bar": 25,
      "position": 10,
      "track_index": 0,
      "track_name": "track_0",
      "is_drum": false,
      "harmony": "B:maj"
    },
    {
      "pitch": 75,
      "velocity": 100,
      "instrument": 0,
      "channel": 0,
      "start_step": 299,
      "duration_steps": 1,
      "bar": 25,
      "position": 11,
      "track_index": 0,
      "track_name": "track_0",
      "is_drum": false,
      "harmony": "B:maj"
    },
    {
      "pitch": 75,
      "velocity": 100,
      "instrument": 0,
      "channel": 0,
      "start_step": 300,
      "duration_steps": 1,
      "bar": 26,
      "position": 0,
      "track_index": 0,
      "track_name": "track_0",
      "is_drum": false,
      "harmony": "C:min"
    },
    {
      "pitch": 76,
      "velocity": 80,
      "instrument": 0,
      "channel": 0,
      "start_step": 301,
      "duration_steps": 2,
      "bar": 26,
      "position": 1,
      "track_index": 0,
      "track_name": "track_0",
      "is_drum": false,
      "harmony": "E:maj"
    },
    {
      "pitch": 76,
      "velocity": 100,
      "instrument": 0,
      "channel": 0,
      "start_step": 303,
      "duration_steps": 2,
      "bar": 26,
      "position": 3,
      "track_index": 0,
      "track_name": "track_0",
      "is_drum": false,
      "harmony": "E:maj"
    },
    {
      "pitch": 76,
      "velocity": 100,
      "instrument": 0,
      "channel": 0,
      "start_step": 305,
      "duration_steps": 2,
      "bar": 26,
      "position": 5,
      "track_index": 0,
      "track_name": "track_0",
      "is_drum": false,
      "harmony": "Bb:min"
    },
    {
      "pitch": 80,
      "velocity": 100,
      "instrument": 0,
      "channel": 0,
      "start_step": 307,
      "duration_steps": 1,
      "bar": 26,
      "position": 7,
      "track_index": 0,
      "track_name": "track_0",
      "is_drum": false,
      "harmony": "B:maj"
    },
    {
      "pitch": 80,
      "velocity": 100,
      "instrument": 0,
      "channel": 0,
      "start_step": 308,
      "duration_steps": 1,
      "bar": 26,
      "position": 8,
      "track_index": 0,
      "track_name": "track_0",
      "is_drum": false,
      "harmony": "B:maj"
    },
    {
      "pitch": 80,
      "velocity": 100,
      "instrument": 0,
      "channel": 0,
      "start_step": 309,
      "duration_steps": 1,
      "bar": 26,
      "position": 9,
      "track_index": 0,
      "track_name": "track_0",
      "is_drum": false,
      "harmony": "B:maj"
    },
    {
      "pitch": 80,
      "velocity": 100,
      "instrument": 0,
      "channel": 0,
      "start_step": 310,
      "duration_steps": 1,
      "bar": 26,
      "position": 10,
      "track_index": 0,
      "track_name": "track_0",
      "is_drum": false,
      "harmony": "B:maj"
    },
    {
      "pitch": 83,
      "velocity": 100,
      "instrument": 0,
      "channel": 0,
      "start_step": 311,
      "duration_steps": 1,
      "bar": 26,
      "position": 11,
      "track_index": 0,
      "track_name": "track_0",
      "is_drum": false,
      "harmony": "B:maj"
    },
    {
      "pitch": 83,
      "velocity": 100,
      "instrument": 0,
      "channel": 0,
      "start_step": 312,
      "duration_steps": 1,
      "bar": 27,
      "position": 0,
      "track_index": 0,
      "track_name": "track_0",
      "is_drum": false,
      "harmony": "B:maj"
    },
    {
      "pitch": 83,
      "velocity": 100,
      "instrument": 0,
      "channel": 0,
      "start_step": 313,
      "duration_steps": 1,
      "bar": 27,
      "position": 1,
      "track_index": 0,
      "track_name": "track_0",
      "is_drum": false,
      "harmony": "B:maj"
    },
    {
      "pitch": 87,
      "velocity": 100,
      "instrument": 0,
      "channel": 0,
      "start_step": 314,
      "duration_steps": 1,
      "bar": 27,
      "position": 2,
      "track_index": 0,
      "track_name": "track_0",
      "is_drum": false,
      "harmony": "B:maj"
    },
    {
      "pitch": 87,
      "velocity": 100,
      "instrument": 0,
      "channel": 0,
      "start_step": 315,
      "duration_steps": 1,
      "bar": 27,
      "position": 3,
      "track_index": 0,
      "track_name": "track_0",
      "is_drum": false,
      "harmony": "Ab:min"
    },
    {
      "pitch": 83,
      "velocity": 100,
      "instrument": 0,
      "channel": 0,
      "start_step": 316,
      "duration_steps": 1,
      "bar": 27,
      "position": 4,
      "track_index": 0,
      "track_name": "track_0",
      "is_drum": false,
      "harmony": "Ab:min"
    },
    {
      "pitch": 83,
      "velocity": 100,
      "instrument": 0,
      "channel": 0,
      "start_step": 317,
      "duration_steps": 1,
      "bar": 27,
      "position": 5,
      "track_index": 0,
      "track_name": "track_0",
      "is_drum": false,
      "harmony": "Ab:min"
    },
    {
      "pitch": 83,
      "velocity": 100,
      "instrument": 0,
      "channel": 0,
      "start_step": 318,
      "duration_steps": 1,
      "bar": 27,
      "position": 6,
      "track_index": 0,
      "track_name": "track_0",
      "is_drum": false,
      "harmony": "Ab:min"
    },
    {
      "pitch": 80,
      "velocity": 100,
      "instrument": 0,
      "channel": 0,
      "start_step": 319,
      "duration_steps": 1,
      "bar": 27,
      "position": 7,
      "track_index": 0,
      "track_name": "track_0",
      "is_drum": false,
      "harmony": "Ab:min"
    },
    {
      "pitch": 80,
      "velocity": 100,
      "instrument": 0,
      "channel": 0,
      "start_step": 320,
      "duration_steps": 1,
      "bar": 27,
      "position": 8,
      "track_index": 0,
      "track_name": "track_0",
      "is_drum": false,
      "harmony": "Ab:min"
    },
    {
      "pitch": 80,
      "velocity": 100,
      "instrument": 0,
      "channel": 0,
      "start_step": 321,
      "duration_steps": 1,
      "bar": 27,
      "position": 9,
      "track_index": 0,
      "track_name": "track_0",
      "is_drum": false,
      "harmony": "Ab:min"
    },
    {
      "pitch": 80,
      "velocity": 100,
      "instrument": 0,
      "channel": 0,
      "start_step": 322,
      "duration_steps": 1,
      "bar": 27,
      "position": 10,
      "track_index": 0,
      "track_name": "track_0",
      "is_drum": false,
      "harmony": "Ab:min"
    },
    {
      "pitch": 75,
      "velocity": 100,
      "instrument": 0,
      "channel": 0,
      "start_step": 323,
      "duration_steps": 1,
      "bar": 27,
      "position": 11,
      "track_index": 0,
      "track_name": "track_0",
      "is_drum": false,
      "harmony": "Eb:maj"
    },
    {
      "pitch": 75,
      "velocity": 100,
      "instrument": 0,
      "channel": 0,
      "start_step": 324,
      "duration_steps": 1,
      "bar": 28,
      "position": 0,
      "track_index": 0,
      "track_name": "track_0",
      "is_drum": false,
      "harmony": "Ab:min"
    },
    {
      "pitch": 75,
      "velocity": 100,
      "instrument": 0,
      "channel": 0,
      "start_step": 325,
      "duration_steps": 1,
      "bar": 28,
      "position": 1,
      "track_index": 0,
      "track_name": "track_0",
      "is_drum": false,
      "harmony": "Ab:min"
    },
    {
      "pitch": 75,
      "velocity": 100,
      "instrument": 0,
      "channel": 0,
      "start_step": 326,
      "duration_steps": 1,
      "bar": 28,
      "position": 2,
      "track_index": 0,
      "track_name": "track_0",
      "is_drum": false,
      "harmony": "Ab:min"
    },
    {
      "pitch": 44,
      "velocity": 100,
      "instrument": 0,
      "channel": 0,
      "start_step": 327,
      "duration_steps": 2,
      "bar": 28,
      "position": 3,
      "track_index": 1,
      "track_name": "track_1",
      "is_drum": false,
      "harmony": "Ab:min"
    },
    {
      "pitch": 51,
      "velocity": 100,
      "instrument": 0,
      "channel": 0,
      "start_step": 329,
      "duration_steps": 2,
      "bar": 28,
      "position": 5,
      "track_index": 1,
      "track_name": "track_1",
      "is_drum": false,
      "harmony": "Eb:maj"
    },
    {
      "pitch": 54,
      "velocity": 100,
      "instrument": 0,
      "channel": 0,
      "start_step": 331,
      "duration_steps": 2,
      "bar": 28,
      "position": 7,
      "track_index": 1,
      "track_name": "track_1",
      "is_drum": false,
      "harmony": "E:maj"
    },
    {
      "pitch": 56,
      "velocity": 100,
      "instrument": 0,
      "channel": 0,
      "start_step": 333,
      "duration_steps": 16,
      "bar": 28,
      "position": 9,
      "track_index": 1,
      "track_name": "track_1",
      "is_drum": false,
      "harmony": "Ab:min"
    },
    {
      "pitch": 58,
      "velocity": 100,
      "instrument": 0,
      "channel": 0,
      "start_step": 349,
      "duration_steps": 2,
      "bar": 30,
      "position": 1,
      "track_index": 1,
      "track_name": "track_1",
      "is_drum": false,
      "harmony": "E:maj"
    },
    {
      "pitch": 58,
      "velocity": 100,
      "instrument": 0,
      "channel": 0,
      "start_step": 351,
      "duration_steps": 2,
      "bar": 30,
      "position": 3,
      "track_index": 1,
      "track_name": "track_1",
      "is_drum": false,
      "harmony": "Eb:maj"
    },
    {
      "pitch": 59,
      "velocity": 100,
      "instrument": 0,
      "channel": 0,
      "start_step": 353,
      "duration_steps": 2,
      "bar": 30,
      "position": 5,
      "track_index": 1,
      "track_name": "track_1",
      "is_drum": false,
      "harmony": "E:maj"
    },
    {
      "pitch": 63,
      "velocity": 100,
      "instrument": 0,
      "channel": 0,
      "start_step": 355,
      "duration_steps": 2,
      "bar": 30,
      "position": 7,
      "track_index": 1,
      "track_name": "track_1",
      "is_drum": false,
      "harmony": "E:maj"
    },
    {
      "pitch": 63,
      "velocity": 100,
      "instrument": 0,
      "channel": 0,
      "start_step": 357,
      "duration_steps": 2,
      "bar": 30,
      "position": 9,
      "track_index": 1,
      "track_name": "track_1",
      "is_drum": false,
      "harmony": "Eb:maj"
    },
    {
      "pitch": 63,
      "velocity": 100,
      "instrument": 0,
      "channel": 0,
      "start_step": 359,
      "duration_steps": 1,
      "bar": 30,
      "position": 11,
      "track_index": 0,
      "track_name": "track_0",
      "is_drum": false,
      "harmony": "Eb:maj"
    },
    {
      "pitch": 63,
      "velocity": 100,
      "instrument": 0,
      "channel": 0,
      "start_step": 360,
      "duration_steps": 15,
      "bar": 31,
      "position": 0,
      "track_index": 1,
      "track_name": "track_1",
      "is_drum": false,
      "harmony": "Ab:min"
    },
    {
      "pitch": 64,
      "velocity": 100,
      "instrument": 0,
      "channel": 0,
      "start_step": 375,
      "duration_steps": 2,
      "bar": 32,
      "position": 3,
      "track_index": 1,
      "track_name": "track_1",
      "is_drum": false,
      "harmony": "E:maj"
    },
    {
      "pitch": 66,
      "velocity": 100,
      "instrument": 0,
      "channel": 0,
      "start_step": 377,
      "duration_steps": 2,
      "bar": 32,
      "position": 5,
      "track_index": 0,
      "track_name": "track_0",
      "is_drum": false,
      "harmony": "E:maj"
    },
    {
      "pitch": 67,
      "velocity": 100,
      "instrument": 0,
      "channel": 0,
      "start_step": 379,
      "duration_steps": 1,
      "bar": 32,
      "position": 7,
      "track_index": 0,
      "track_name": "track_0",
      "is_drum": false,
      "harmony": "Eb:maj"
    },
    {
      "pitch": 68,
      "velocity": 100,
      "instrument": 0,
      "channel": 0,
      "start_step": 380,
      "duration_steps": 2,
      "bar": 32,
      "position": 8,
      "track_index": 0,
      "track_name": "track_0",
      "is_drum": false,
      "harmony": "E:maj"
    },
    {
      "pitch": 68,
      "velocity": 100,
      "instrument": 0,
      "channel": 0,
      "start_step": 382,
      "duration_steps": 1,
      "bar": 32,
      "position": 10,
      "track_index": 0,
      "track_name": "track_0",
      "is_drum": false,
      "harmony": "Eb:maj"
    },
    {
      "pitch": 68,
      "velocity": 100,
      "instrument": 0,
      "channel": 0,
      "start_step": 383,
      "duration_steps": 1,
      "bar": 32,
      "position": 11,
      "track_index": 0,
      "track_name": "track_0",
      "is_drum": false,
      "harmony": "Eb:maj"
    },
    {
      "pitch": 68,
      "velocity": 100,
      "instrument": 0,
      "channel": 0,
      "start_step": 384,
      "duration_steps": 1,
      "bar": 33,
      "position": 0,
      "track_index": 0,
      "track_name": "track_0",
      "is_drum": false,
      "harmony": "Eb:maj"
    },
    {
      "pitch": 71,
      "velocity": 100,
      "instrument": 0,
      "channel": 0,
      "start_step": 385,
      "duration_steps": 2,
      "bar": 33,
      "position": 1,
      "track_index": 0,
      "track_name": "track_0",
      "is_drum": false,
      "harmony": "E:maj"
    },
    {
      "pitch": 71,
      "velocity": 100,
      "instrument": 0,
      "channel": 0,
      "start_step": 387,
      "duration_steps": 1,
      "bar": 33,
      "position": 3,
      "track_index": 0,
      "track_name": "track_0",
      "is_drum": false,
      "harmony": "Eb:maj"
    },
    {
      "pitch": 71,
      "velocity": 100,
      "instrument": 0,
      "channel": 0,
      "start_step": 388,
      "duration_steps": 1,
      "bar": 33,
      "position": 4,
      "track_index": 0,
      "track_name": "track_0",
      "is_drum": false,
      "harmony": "Eb:maj"
    },
    {
      "pitch": 71,
      "velocity": 100,
      "instrument": 0,
      "channel": 0,
      "start_step": 389,
      "duration_steps": 1,
      "bar": 33,
      "position": 5,
      "track_index": 0,
      "track_name": "track_0",
      "is_drum": false,
      "harmony": "Eb:maj"
    },
    {
      "pitch": 71,
      "velocity": 100,
      "instrument": 0,
      "channel": 0,
      "start_step": 390,
      "duration_steps": 1,
      "bar": 33,
      "position": 6,
      "track_index": 0,
      "track_name": "track_0",
      "is_drum": false,
      "harmony": "Ab:min"
    },
    {
      "pitch": 70,
      "velocity": 100,
      "instrument": 0,
      "channel": 0,
      "start_step": 391,
      "duration_steps": 1,
      "bar": 33,
      "position": 7,
      "track_index": 0,
      "track_name": "track_0",
      "is_drum": false,
      "harmony": "Eb:maj"
    }
  ],
  "phrase_boundaries": [
    1,
    14,
    27
  ],
  "source_path": "Schubert/Impromptu_op.90_D.899/4_no_repeat/midi_score.mid",
  "metadata": {
    "ticks_per_beat": 480,
    "midi_format": 1,
    "time_signature_changes": 1,
    "tempo_changes": 1,
    "cadence_bars": [
      7,
      9,
      27,
      28,
      121,
      122,
      171,
      179,
      197,
      198
    ],
    "global_harmony_vocab": {
      "unknown": 0,
      "C:maj": 1,
      "C#:maj": 2,
      "D:maj": 3,
      "Eb:maj": 4,
      "E:maj": 5,
      "F:maj": 6,
      "F#:maj": 7,
      "G:maj": 8,
      "Ab:maj": 9,
      "A:maj": 10,
      "Bb:maj": 11,
      "B:maj": 12,
      "C:min": 13,
      "C#:min": 14,
      "D:min": 15,
      "Eb:min": 16,
      "E:min": 17,
      "F:min": 18,
      "F#:min": 19,
      "G:min": 20,
      "Ab:min": 21,
      "A:min": 22,
      "Bb:min": 23,
      "B:min": 24
    },
    "dataset_kind": "asap",
    "dataset_source_mode": "score",
    "asap_piece_group": "schubert::impromptu_op_90_d_899_4",
    "composer": "Schubert",
    "title": "Impromptu_op.90_D.899_4",
    "folder": "Schubert/Impromptu_op.90_D.899/4_no_repeat",
    "xml_score": "Schubert/Impromptu_op.90_D.899/4_no_repeat/xml_score.musicxml",
    "midi_score": "Schubert/Impromptu_op.90_D.899/4_no_repeat/midi_score.mid",
    "midi_performance": "Schubert/Impromptu_op.90_D.899/4_no_repeat/Huang10M.mid",
    "annotated_primary_time_signature": "3/4",
    "annotated_key_signature_tonic": 8,
    "annotated_key_signature_accidentals": -4,
    "annotated_beat_count": 823,
    "annotated_downbeat_count": 275,
    "annotated_downbeats_score_map": [
      0,
      1,
      2,
      3,
      4,
      5,
      6,
      7,
      8,
      9,
      10,
      11,
      12,
      13,
      14,
      15,
      16,
      17,
      18,
      19,
      20,
      21,
      22,
      23,
      24,
      25,
      26,
      27,
      28,
      29,
      30,
      31,
      32,
      33,
      34,
      35,
      36,
      37,
      38,
      39,
      40,
      41,
      42,
      43,
      44,
      45,
      46,
      47,
      48,
      49,
      50,
      51,
      52,
      53,
      54,
      55,
      56,
      57,
      58,
      59,
      60,
      61,
      62,
      63,
      64,
      65,
      66,
      67,
      68,
      69,
      70,
      71,
      72,
      73,
      74,
      75,
      76,
      77,
      78,
      79,
      80,
      81,
      82,
      83,
      84,
      85,
      86,
      87,
      88,
      89,
      90,
      91,
      92,
      93,
      94,
      95,
      96,
      97,
      98,
      99,
      100,
      101,
      102,
      103,
      104,
      105,
      106,
      107,
      108,
      109,
      110,
      111,
      112,
      113,
      114,
      115,
      116,
      117,
      118,
      119,
      120,
      121,
      122,
      123,
      124,
      125,
      126,
      127,
      128,
      129,
      130,
      131,
      132,
      133,
      134,
      135,
      136,
      137,
      138,
      139,
      140,
      141,
      142,
      143,
      144,
      145,
      146,
      147,
      148,
      149,
      150,
      151,
      152,
      153,
      154,
      155,
      156,
      157,
      158,
      159,
      160,
      161,
      162,
      163,
      164,
      165,
      166,
      167,
      168,
      169,
      170,
      171,
      172,
      173,
      174,
      175,
      176,
      177,
      178,
      179,
      180,
      181,
      182,
      183,
      184,
      185,
      186,
      187,
      188,
      189,
      190,
      191,
      192,
      193,
      194,
      195,
      196,
      197,
      198,
      199,
      200,
      201,
      202,
      203,
      204,
      205,
      206,
      207,
      208,
      209,
      210,
      211,
      212,
      213,
      214,
      215,
      216,
      217,
      218,
      219,
      220,
      221,
      222,
      223,
      224,
      225,
      226,
      227,
      228,
      229,
      230,
      231,
      232,
      233,
      234,
      235,
      236,
      237,
      238,
      239,
      240,
      241,
      242,
      243,
      244,
      245,
      246,
      247,
      248,
      249,
      250,
      251,
      252,
      253,
      254,
      255,
      256,
      257,
      258,
      259,
      260,
      261,
      262,
      263,
      264,
      265,
      266,
      267,
      268,
      269,
      270,
      271,
      272,
      273,
      274
    ],
    "score_and_performance_aligned": true,
    "source_piece_id": "schubert__impromptu_op_90_d_899__4_no_repeat__midi_score",
    "slice_start_event": 3024,
    "slice_event_count": 160,
    "benchmark_hack_transformed": true
  },
  "key": "Ab:major",
  "chords": [
    "Ab:min",
    "Eb:maj",
    "Eb:maj",
    "Eb:maj",
    "E:maj",
    "Bb:min",
    "Ab:min",
    "Eb:maj",
    "Ab:min",
    "Eb:maj",
    "E:maj",
    "F#:maj",
    "B:maj",
    "F#:maj",
    "B:maj",
    "F#:maj",
    "C#:min",
    "F#:maj",
    "B:min",
    "F#:maj",
    "B:min",
    "F#:maj",
    "B:min",
    "A:min",
    "D:maj",
    "C#:min",
    "Ab:min",
    "Ab:min",
    "Eb:maj",
    "Eb:maj",
    "Ab:maj",
    "C:min",
    "Eb:maj",
    "Eb:maj",
    "Ab:maj",
    "Eb:maj",
    "Ab:maj",
    "Eb:maj",
    "Ab:maj",
    "C#:maj",
    "Eb:maj",
    "Ab:maj",
    "Ab:maj",
    "C#:maj",
    "Eb:maj",
    "Ab:maj",
    "Ab:maj",
    "C#:maj",
    "Eb:maj",
    "Ab:maj",
    "Ab:maj",
    "C#:maj",
    "Eb:maj",
    "Ab:maj",
    "Eb:maj",
    "Ab:maj",
    "F:maj",
    "Bb:min",
    "F:maj",
    "Bb:min",
    "Ab:maj",
    "C#:maj",
    "Ab:maj",
    "C#:maj",
    "C#:maj",
    "C#:maj",
    "C#:maj",
    "Bb:min",
    "C#:min",
    "C#:maj",
    "Bb:min",
    "Ab:maj",
    "C#:maj",
    "Eb:maj",
    "Eb:maj",
    "Ab:maj",
    "C#:maj",
    "Ab:maj",
    "Eb:maj",
    "Ab:maj",
    "Ab:maj",
    "Eb:maj",
    "C:min",
    "Ab:maj",
    "C#:maj",
    "Eb:maj",
    "C:min",
    "Ab:maj",
    "C#:maj",
    "Eb:maj",
    "Ab:maj",
    "Ab:maj",
    "C#:maj",
    "Eb:maj",
    "Ab:maj",
    "Eb:maj",
    "Ab:maj",
    "Eb:maj",
    "C:min",
    "C:min",
    "C:min",
    "Eb:maj",
    "Ab:maj",
    "Ab:maj",
    "C:min",
    "Ab:maj",
    "Ab:maj",
    "Ab:maj",
    "A:maj",
    "Ab:maj",
    "Ab:maj",
    "C#:min",
    "C#:maj",
    "C:min",
    "C#:min",
    "E:maj",
    "D:maj",
    "D:maj",
    "Eb:maj",
    "Eb:maj",
    "Ab:min",
    "Ab:min",
    "Eb:min",
    "Eb:min",
    "Ab:maj",
    "C#:min",
    "E:min",
    "Eb:maj",
    "Ab:maj",
    "C:min",
    "Eb:min",
    "Eb:min",
    "Ab:maj",
    "C#:min",
    "E:min",
    "C#:min",
    "C#:min",
    "Ab:maj",
    "Ab:maj",
    "Ab:maj",
    "F#:maj",
    "Ab:maj",
    "Ab:maj",
    "C#:maj",
    "C#:maj",
    "C:min",
    "C#:min",
    "E:maj",
    "D:maj",
    "B:min",
    "D:maj",
    "D:maj",
    "G:maj",
    "A:maj",
    "Ab:maj",
    "Ab:maj",
    "C#:min",
    "C#:min",
    "C#:min",
    "C#:min",
    "Ab:maj",
    "C#:maj",
    "G:min",
    "C#:maj",
    "Bb:min",
    "G:min",
    "C#:min",
    "C#:min",
    "C#:maj",
    "C#:maj",
    "Ab:min",
    "C:min",
    "Ab:maj",
    "Eb:maj",
    "E:maj",
    "Bb:min",
    "B:maj",
    "C:min",
    "Ab:min",
    "Eb:maj",
    "E:maj",
    "F#:maj",
    "B:maj",
    "F#:maj",
    "B:maj",
    "F#:maj",
    "C#:min",
    "F#:maj",
    "B:min",
    "F#:maj",
    "B:min",
    "F#:maj",
    "B:min",
    "A:maj",
    "F#:maj",
    "C#:min",
    "Ab:min",
    "Ab:min",
    "Eb:maj",
    "Eb:maj",
    "Ab:maj",
    "Eb:maj",
    "Ab:maj",
    "Eb:maj",
    "Ab:maj",
    "Eb:maj",
    "Ab:maj",
    "Eb:maj",
    "Ab:maj",
    "C#:maj",
    "Eb:maj",
    "C:min",
    "Ab:maj",
    "C#:maj",
    "Eb:maj",
    "C:min",
    "Ab:maj",
    "C#:maj",
    "Eb:maj",
    "Ab:maj",
    "Ab:maj",
    "C#:maj",
    "Eb:maj",
    "Ab:maj",
    "Eb:maj",
    "Ab:maj",
    "F:maj",
    "Bb:min",
    "F:maj",
    "Bb:min",
    "Ab:maj",
    "C#:maj",
    "Ab:maj",
    "C#:maj",
    "C#:maj",
    "C#:maj",
    "C#:maj",
    "C#:min",
    "Bb:min",
    "C#:maj",
    "Bb:min",
    "Ab:maj",
    "C#:maj",
    "Eb:maj",
    "Eb:maj",
    "Ab:maj",
    "C#:maj",
    "Ab:maj",
    "Eb:maj",
    "Ab:maj",
    "C#:maj",
    "Eb:maj",
    "C:min",
    "Ab:maj",
    "C#:maj",
    "Eb:maj",
    "C:min",
    "Ab:maj",
    "C#:maj",
    "Eb:maj",
    "Ab:maj",
    "Ab:maj",
    "C#:maj",
    "Eb:maj",
    "C:min",
    "Eb:maj",
    "Ab:maj",
    "Eb:maj",
    "C:min",
    "C:min",
    "C:min",
    "Eb:maj",
    "Ab:maj",
    "Eb:maj",
    "Ab:maj"
  ]
}