{
  "piece_id": "beethoven__piano_sonatas__24_2__midi_score",
  "resolution": "sixteenth",
  "steps_per_beat": 4,
  "bar_steps": 8,
  "time_signature": "2/4",
  "tempo_bpm": 151.99993920002433,
  "note_events": [
    {
      "pitch": 50,
      "velocity": 96,
      "instrument": 0,
      "channel": 0,
      "start_step": 0,
      "duration_steps": 6,
      "bar": 1,
      "position": 0,
      "track_index": 1,
      "track_name": "track_1",
      "is_drum": false,
      "harmony": "F#:maj"
    },
    {
      "pitch": 54,
      "velocity": 96,
      "instrument": 0,
      "channel": 0,
      "start_step": 0,
      "duration_steps": 6,
      "bar": 1,
      "position": 0,
      "track_index": 1,
      "track_name": "track_1",
      "is_drum": false,
      "harmony": "F#:maj"
    },
    {
      "pitch": 66,
      "velocity": 96,
      "instrument": 0,
      "channel": 0,
      "start_step": 0,
      "duration_steps": 6,
      "bar": 1,
      "position": 0,
      "track_index": 0,
      "track_name": "track_0",
      "is_drum": false,
      "harmony": "F#:maj"
    },
    {
      "pitch": 72,
      "velocity": 96,
      "instrument": 0,
      "channel": 0,
      "start_step": 0,
      "duration_steps": 6,
      "bar": 1,
      "position": 0,
      "track_index": 0,
      "track_name": "track_0",
      "is_drum": false,
      "harmony": "F#:maj"
    },
    {
      "pitch": 49,
      "velocity": 96,
      "instrument": 0,
      "channel": 0,
      "start_step": 6,
      "duration_steps": 2,
      "bar": 1,
      "position": 6,
      "track_index": 1,
      "track_name": "track_1",
      "is_drum": false,
      "harmony": "F#:maj"
    },
    {
      "pitch": 56,
      "velocity": 96,
      "instrument": 0,
      "channel": 0,
      "start_step": 6,
      "duration_steps": 2,
      "bar": 1,
      "position": 6,
      "track_index": 1,
      "track_name": "track_1",
      "is_drum": false,
      "harmony": "F#:maj"
    },
    {
      "pitch": 65,
      "velocity": 96,
      "instrument": 0,
      "channel": 0,
      "start_step": 6,
      "duration_steps": 2,
      "bar": 1,
      "position": 6,
      "track_index": 0,
      "track_name": "track_0",
      "is_drum": false,
      "harmony": "F#:maj"
    },
    {
      "pitch": 73,
      "velocity": 96,
      "instrument": 0,
      "channel": 0,
      "start_step": 6,
      "duration_steps": 2,
      "bar": 1,
      "position": 6,
      "track_index": 0,
      "track_name": "track_0",
      "is_drum": false,
      "harmony": "F#:maj"
    },
    {
      "pitch": 47,
      "velocity": 96,
      "instrument": 0,
      "channel": 0,
      "start_step": 8,
      "duration_steps": 2,
      "bar": 2,
      "position": 0,
      "track_index": 1,
      "track_name": "track_1",
      "is_drum": false,
      "harmony": "C#:maj"
    },
    {
      "pitch": 49,
      "velocity": 96,
      "instrument": 0,
      "channel": 0,
      "start_step": 8,
      "duration_steps": 2,
      "bar": 2,
      "position": 0,
      "track_index": 1,
      "track_name": "track_1",
      "is_drum": false,
      "harmony": "C#:maj"
    },
    {
      "pitch": 65,
      "velocity": 96,
      "instrument": 0,
      "channel": 0,
      "start_step": 8,
      "duration_steps": 2,
      "bar": 2,
      "position": 0,
      "track_index": 0,
      "track_name": "track_0",
      "is_drum": false,
      "harmony": "C#:maj"
    },
    {
      "pitch": 68,
      "velocity": 96,
      "instrument": 0,
      "channel": 0,
      "start_step": 8,
      "duration_steps": 2,
      "bar": 2,
      "position": 0,
      "track_index": 0,
      "track_name": "track_0",
      "is_drum": false,
      "harmony": "C#:maj"
    },
    {
      "pitch": 46,
      "velocity": 49,
      "instrument": 0,
      "channel": 0,
      "start_step": 14,
      "duration_steps": 2,
      "bar": 2,
      "position": 6,
      "track_index": 1,
      "track_name": "track_1",
      "is_drum": false,
      "harmony": "C#:maj"
    },
    {
      "pitch": 49,
      "velocity": 49,
      "instrument": 0,
      "channel": 0,
      "start_step": 14,
      "duration_steps": 2,
      "bar": 2,
      "position": 6,
      "track_index": 1,
      "track_name": "track_1",
      "is_drum": false,
      "harmony": "C#:maj"
    },
    {
      "pitch": 66,
      "velocity": 49,
      "instrument": 0,
      "channel": 0,
      "start_step": 14,
      "duration_steps": 2,
      "bar": 2,
      "position": 6,
      "track_index": 0,
      "track_name": "track_0",
      "is_drum": false,
      "harmony": "C#:maj"
    },
    {
      "pitch": 70,
      "velocity": 49,
      "instrument": 0,
      "channel": 0,
      "start_step": 14,
      "duration_steps": 2,
      "bar": 2,
      "position": 6,
      "track_index": 0,
      "track_name": "track_0",
      "is_drum": false,
      "harmony": "C#:maj"
    },
    {
      "pitch": 44,
      "velocity": 49,
      "instrument": 0,
      "channel": 0,
      "start_step": 16,
      "duration_steps": 3,
      "bar": 3,
      "position": 0,
      "track_index": 1,
      "track_name": "track_1",
      "is_drum": false,
      "harmony": "B:maj"
    },
    {
      "pitch": 63,
      "velocity": 49,
      "instrument": 0,
      "channel": 0,
      "start_step": 16,
      "duration_steps": 3,
      "bar": 3,
      "position": 0,
      "track_index": 0,
      "track_name": "track_0",
      "is_drum": false,
      "harmony": "B:maj"
    },
    {
      "pitch": 71,
      "velocity": 49,
      "instrument": 0,
      "channel": 0,
      "start_step": 16,
      "duration_steps": 3,
      "bar": 3,
      "position": 0,
      "track_index": 0,
      "track_name": "track_0",
      "is_drum": false,
      "harmony": "B:maj"
    },
    {
      "pitch": 46,
      "velocity": 49,
      "instrument": 0,
      "channel": 0,
      "start_step": 19,
      "duration_steps": 1,
      "bar": 3,
      "position": 3,
      "track_index": 1,
      "track_name": "track_1",
      "is_drum": false,
      "harmony": "B:maj"
    },
    {
      "pitch": 61,
      "velocity": 49,
      "instrument": 0,
      "channel": 0,
      "start_step": 19,
      "duration_steps": 1,
      "bar": 3,
      "position": 3,
      "track_index": 0,
      "track_name": "track_0",
      "is_drum": false,
      "harmony": "B:maj"
    },
    {
      "pitch": 70,
      "velocity": 49,
      "instrument": 0,
      "channel": 0,
      "start_step": 19,
      "duration_steps": 1,
      "bar": 3,
      "position": 3,
      "track_index": 0,
      "track_name": "track_0",
      "is_drum": false,
      "harmony": "B:maj"
    },
    {
      "pitch": 47,
      "velocity": 49,
      "instrument": 0,
      "channel": 0,
      "start_step": 20,
      "duration_steps": 1,
      "bar": 3,
      "position": 4,
      "track_index": 1,
      "track_name": "track_1",
      "is_drum": false,
      "harmony": "B:maj"
    },
    {
      "pitch": 59,
      "velocity": 49,
      "instrument": 0,
      "channel": 0,
      "start_step": 20,
      "duration_steps": 1,
      "bar": 3,
      "position": 4,
      "track_index": 0,
      "track_name": "track_0",
      "is_drum": false,
      "harmony": "B:maj"
    },
    {
      "pitch": 68,
      "velocity": 49,
      "instrument": 0,
      "channel": 0,
      "start_step": 20,
      "duration_steps": 1,
      "bar": 3,
      "position": 4,
      "track_index": 0,
      "track_name": "track_0",
      "is_drum": false,
      "harmony": "B:maj"
    },
    {
      "pitch": 48,
      "velocity": 49,
      "instrument": 0,
      "channel": 0,
      "start_step": 22,
      "duration_steps": 1,
      "bar": 3,
      "position": 6,
      "track_index": 1,
      "track_name": "track_1",
      "is_drum": false,
      "harmony": "B:maj"
    },
    {
      "pitch": 58,
      "velocity": 49,
      "instrument": 0,
      "channel": 0,
      "start_step": 22,
      "duration_steps": 1,
      "bar": 3,
      "position": 6,
      "track_index": 0,
      "track_name": "track_0",
      "is_drum": false,
      "harmony": "B:maj"
    },
    {
      "pitch": 66,
      "velocity": 49,
      "instrument": 0,
      "channel": 0,
      "start_step": 22,
      "duration_steps": 1,
      "bar": 3,
      "position": 6,
      "track_index": 0,
      "track_name": "track_0",
      "is_drum": false,
      "harmony": "B:maj"
    },
    {
      "pitch": 49,
      "velocity": 49,
      "instrument": 0,
      "channel": 0,
      "start_step": 24,
      "duration_steps": 4,
      "bar": 4,
      "position": 0,
      "track_index": 1,
      "track_name": "track_1",
      "is_drum": false,
      "harmony": "C#:maj"
    },
    {
      "pitch": 56,
      "velocity": 49,
      "instrument": 0,
      "channel": 0,
      "start_step": 24,
      "duration_steps": 4,
      "bar": 4,
      "position": 0,
      "track_index": 0,
      "track_name": "track_0",
      "is_drum": false,
      "harmony": "C#:maj"
    },
    {
      "pitch": 65,
      "velocity": 49,
      "instrument": 0,
      "channel": 0,
      "start_step": 24,
      "duration_steps": 4,
      "bar": 4,
      "position": 0,
      "track_index": 0,
      "track_name": "track_0",
      "is_drum": false,
      "harmony": "C#:maj"
    },
    {
      "pitch": 64,
      "velocity": 96,
      "instrument": 0,
      "channel": 0,
      "start_step": 32,
      "duration_steps": 6,
      "bar": 5,
      "position": 0,
      "track_index": 1,
      "track_name": "track_1",
      "is_drum": false,
      "harmony": "C#:min"
    },
    {
      "pitch": 67,
      "velocity": 96,
      "instrument": 0,
      "channel": 0,
      "start_step": 32,
      "duration_steps": 6,
      "bar": 5,
      "position": 0,
      "track_index": 1,
      "track_name": "track_1",
      "is_drum": false,
      "harmony": "C#:min"
    },
    {
      "pitch": 70,
      "velocity": 96,
      "instrument": 0,
      "channel": 0,
      "start_step": 32,
      "duration_steps": 6,
      "bar": 5,
      "position": 0,
      "track_index": 0,
      "track_name": "track_0",
      "is_drum": false,
      "harmony": "C#:min"
    },
    {
      "pitch": 73,
      "velocity": 96,
      "instrument": 0,
      "channel": 0,
      "start_step": 32,
      "duration_steps": 6,
      "bar": 5,
      "position": 0,
      "track_index": 0,
      "track_name": "track_0",
      "is_drum": false,
      "harmony": "C#:min"
    },
    {
      "pitch": 63,
      "velocity": 96,
      "instrument": 0,
      "channel": 0,
      "start_step": 38,
      "duration_steps": 2,
      "bar": 5,
      "position": 6,
      "track_index": 1,
      "track_name": "track_1",
      "is_drum": false,
      "harmony": "C#:min"
    },
    {
      "pitch": 66,
      "velocity": 96,
      "instrument": 0,
      "channel": 0,
      "start_step": 38,
      "duration_steps": 2,
      "bar": 5,
      "position": 6,
      "track_index": 1,
      "track_name": "track_1",
      "is_drum": false,
      "harmony": "C#:min"
    },
    {
      "pitch": 71,
      "velocity": 96,
      "instrument": 0,
      "channel": 0,
      "start_step": 38,
      "duration_steps": 2,
      "bar": 5,
      "position": 6,
      "track_index": 0,
      "track_name": "track_0",
      "is_drum": false,
      "harmony": "C#:min"
    },
    {
      "pitch": 75,
      "velocity": 96,
      "instrument": 0,
      "channel": 0,
      "start_step": 38,
      "duration_steps": 2,
      "bar": 5,
      "position": 6,
      "track_index": 0,
      "track_name": "track_0",
      "is_drum": false,
      "harmony": "C#:min"
    },
    {
      "pitch": 61,
      "velocity": 96,
      "instrument": 0,
      "channel": 0,
      "start_step": 40,
      "duration_steps": 4,
      "bar": 6,
      "position": 0,
      "track_index": 1,
      "track_name": "track_1",
      "is_drum": false,
      "harmony": "C#:min"
    },
    {
      "pitch": 64,
      "velocity": 96,
      "instrument": 0,
      "channel": 0,
      "start_step": 40,
      "duration_steps": 4,
      "bar": 6,
      "position": 0,
      "track_index": 1,
      "track_name": "track_1",
      "is_drum": false,
      "harmony": "C#:min"
    },
    {
      "pitch": 73,
      "velocity": 96,
      "instrument": 0,
      "channel": 0,
      "start_step": 40,
      "duration_steps": 4,
      "bar": 6,
      "position": 0,
      "track_index": 0,
      "track_name": "track_0",
      "is_drum": false,
      "harmony": "C#:min"
    },
    {
      "pitch": 76,
      "velocity": 96,
      "instrument": 0,
      "channel": 0,
      "start_step": 40,
      "duration_steps": 4,
      "bar": 6,
      "position": 0,
      "track_index": 0,
      "track_name": "track_0",
      "is_drum": false,
      "harmony": "C#:min"
    },
    {
      "pitch": 59,
      "velocity": 49,
      "instrument": 0,
      "channel": 0,
      "start_step": 46,
      "duration_steps": 2,
      "bar": 6,
      "position": 6,
      "track_index": 1,
      "track_name": "track_1",
      "is_drum": false,
      "harmony": "C#:min"
    },
    {
      "pitch": 63,
      "velocity": 49,
      "instrument": 0,
      "channel": 0,
      "start_step": 46,
      "duration_steps": 2,
      "bar": 6,
      "position": 6,
      "track_index": 1,
      "track_name": "track_1",
      "is_drum": false,
      "harmony": "C#:min"
    },
    {
      "pitch": 75,
      "velocity": 49,
      "instrument": 0,
      "channel": 0,
      "start_step": 46,
      "duration_steps": 2,
      "bar": 6,
      "position": 6,
      "track_index": 0,
      "track_name": "track_0",
      "is_drum": false,
      "harmony": "C#:min"
    },
    {
      "pitch": 78,
      "velocity": 49,
      "instrument": 0,
      "channel": 0,
      "start_step": 46,
      "duration_steps": 2,
      "bar": 6,
      "position": 6,
      "track_index": 0,
      "track_name": "track_0",
      "is_drum": false,
      "harmony": "C#:min"
    },
    {
      "pitch": 52,
      "velocity": 49,
      "instrument": 0,
      "channel": 0,
      "start_step": 48,
      "duration_steps": 4,
      "bar": 7,
      "position": 0,
      "track_index": 1,
      "track_name": "track_1",
      "is_drum": false,
      "harmony": "E:maj"
    },
    {
      "pitch": 56,
      "velocity": 49,
      "instrument": 0,
      "channel": 0,
      "start_step": 48,
      "duration_steps": 3,
      "bar": 7,
      "position": 0,
      "track_index": 1,
      "track_name": "track_1",
      "is_drum": false,
      "harmony": "E:maj"
    },
    {
      "pitch": 76,
      "velocity": 49,
      "instrument": 0,
      "channel": 0,
      "start_step": 48,
      "duration_steps": 3,
      "bar": 7,
      "position": 0,
      "track_index": 0,
      "track_name": "track_0",
      "is_drum": false,
      "harmony": "E:maj"
    },
    {
      "pitch": 80,
      "velocity": 49,
      "instrument": 0,
      "channel": 0,
      "start_step": 48,
      "duration_steps": 3,
      "bar": 7,
      "position": 0,
      "track_index": 0,
      "track_name": "track_0",
      "is_drum": false,
      "harmony": "E:maj"
    },
    {
      "pitch": 61,
      "velocity": 49,
      "instrument": 0,
      "channel": 0,
      "start_step": 51,
      "duration_steps": 1,
      "bar": 7,
      "position": 3,
      "track_index": 1,
      "track_name": "track_1",
      "is_drum": false,
      "harmony": "E:maj"
    },
    {
      "pitch": 73,
      "velocity": 49,
      "instrument": 0,
      "channel": 0,
      "start_step": 51,
      "duration_steps": 1,
      "bar": 7,
      "position": 3,
      "track_index": 0,
      "track_name": "track_0",
      "is_drum": false,
      "harmony": "E:maj"
    },
    {
      "pitch": 76,
      "velocity": 49,
      "instrument": 0,
      "channel": 0,
      "start_step": 51,
      "duration_steps": 1,
      "bar": 7,
      "position": 3,
      "track_index": 0,
      "track_name": "track_0",
      "is_drum": false,
      "harmony": "E:maj"
    },
    {
      "pitch": 54,
      "velocity": 49,
      "instrument": 0,
      "channel": 0,
      "start_step": 52,
      "duration_steps": 2,
      "bar": 7,
      "position": 4,
      "track_index": 1,
      "track_name": "track_1",
      "is_drum": false,
      "harmony": "E:maj"
    },
    {
      "pitch": 63,
      "velocity": 49,
      "instrument": 0,
      "channel": 0,
      "start_step": 52,
      "duration_steps": 2,
      "bar": 7,
      "position": 4,
      "track_index": 1,
      "track_name": "track_1",
      "is_drum": false,
      "harmony": "E:maj"
    },
    {
      "pitch": 71,
      "velocity": 49,
      "instrument": 0,
      "channel": 0,
      "start_step": 52,
      "duration_steps": 1,
      "bar": 7,
      "position": 4,
      "track_index": 0,
      "track_name": "track_0",
      "is_drum": false,
      "harmony": "E:maj"
    },
    {
      "pitch": 75,
      "velocity": 49,
      "instrument": 0,
      "channel": 0,
      "start_step": 52,
      "duration_steps": 1,
      "bar": 7,
      "position": 4,
      "track_index": 0,
      "track_name": "track_0",
      "is_drum": false,
      "harmony": "E:maj"
    },
    {
      "pitch": 54,
      "velocity": 49,
      "instrument": 0,
      "channel": 0,
      "start_step": 54,
      "duration_steps": 2,
      "bar": 7,
      "position": 6,
      "track_index": 1,
      "track_name": "track_1",
      "is_drum": false,
      "harmony": "E:maj"
    },
    {
      "pitch": 64,
      "velocity": 49,
      "instrument": 0,
      "channel": 0,
      "start_step": 54,
      "duration_steps": 2,
      "bar": 7,
      "position": 6,
      "track_index": 1,
      "track_name": "track_1",
      "is_drum": false,
      "harmony": "E:maj"
    },
    {
      "pitch": 70,
      "velocity": 49,
      "instrument": 0,
      "channel": 0,
      "start_step": 54,
      "duration_steps": 1,
      "bar": 7,
      "position": 6,
      "track_index": 0,
      "track_name": "track_0",
      "is_drum": false,
      "harmony": "E:maj"
    },
    {
      "pitch": 73,
      "velocity": 49,
      "instrument": 0,
      "channel": 0,
      "start_step": 54,
      "duration_steps": 1,
      "bar": 7,
      "position": 6,
      "track_index": 0,
      "track_name": "track_0",
      "is_drum": false,
      "harmony": "E:maj"
    },
    {
      "pitch": 59,
      "velocity": 49,
      "instrument": 0,
      "channel": 0,
      "start_step": 56,
      "duration_steps": 4,
      "bar": 8,
      "position": 0,
      "track_index": 1,
      "track_name": "track_1",
      "is_drum": false,
      "harmony": "Eb:maj"
    },
    {
      "pitch": 63,
      "velocity": 49,
      "instrument": 0,
      "channel": 0,
      "start_step": 56,
      "duration_steps": 4,
      "bar": 8,
      "position": 0,
      "track_index": 1,
      "track_name": "track_1",
      "is_drum": false,
      "harmony": "Eb:maj"
    },
    {
      "pitch": 71,
      "velocity": 49,
      "instrument": 0,
      "channel": 0,
      "start_step": 56,
      "duration_steps": 4,
      "bar": 8,
      "position": 0,
      "track_index": 0,
      "track_name": "track_0",
      "is_drum": false,
      "harmony": "Eb:maj"
    },
    {
      "pitch": 75,
      "velocity": 49,
      "instrument": 0,
      "channel": 0,
      "start_step": 56,
      "duration_steps": 4,
      "bar": 8,
      "position": 0,
      "track_index": 0,
      "track_name": "track_0",
      "is_drum": false,
      "harmony": "Eb:maj"
    },
    {
      "pitch": 63,
      "velocity": 33,
      "instrument": 0,
      "channel": 0,
      "start_step": 64,
      "duration_steps": 6,
      "bar": 9,
      "position": 0,
      "track_index": 1,
      "track_name": "track_1",
      "is_drum": false,
      "harmony": "F#:maj"
    },
    {
      "pitch": 66,
      "velocity": 33,
      "instrument": 0,
      "channel": 0,
      "start_step": 64,
      "duration_steps": 6,
      "bar": 9,
      "position": 0,
      "track_index": 0,
      "track_name": "track_0",
      "is_drum": false,
      "harmony": "F#:maj"
    },
    {
      "pitch": 71,
      "velocity": 33,
      "instrument": 0,
      "channel": 0,
      "start_step": 64,
      "duration_steps": 6,
      "bar": 9,
      "position": 0,
      "track_index": 0,
      "track_name": "track_0",
      "is_drum": false,
      "harmony": "F#:maj"
    },
    {
      "pitch": 61,
      "velocity": 33,
      "instrument": 0,
      "channel": 0,
      "start_step": 70,
      "duration_steps": 2,
      "bar": 9,
      "position": 6,
      "track_index": 1,
      "track_name": "track_1",
      "is_drum": false,
      "harmony": "F#:maj"
    },
    {
      "pitch": 66,
      "velocity": 33,
      "instrument": 0,
      "channel": 0,
      "start_step": 70,
      "duration_steps": 2,
      "bar": 9,
      "position": 6,
      "track_index": 0,
      "track_name": "track_0",
      "is_drum": false,
      "harmony": "F#:maj"
    },
    {
      "pitch": 70,
      "velocity": 33,
      "instrument": 0,
      "channel": 0,
      "start_step": 70,
      "duration_steps": 2,
      "bar": 9,
      "position": 6,
      "track_index": 0,
      "track_name": "track_0",
      "is_drum": false,
      "harmony": "F#:maj"
    },
    {
      "pitch": 59,
      "velocity": 33,
      "instrument": 0,
      "channel": 0,
      "start_step": 72,
      "duration_steps": 4,
      "bar": 10,
      "position": 0,
      "track_index": 1,
      "track_name": "track_1",
      "is_drum": false,
      "harmony": "F#:maj"
    },
    {
      "pitch": 66,
      "velocity": 33,
      "instrument": 0,
      "channel": 0,
      "start_step": 72,
      "duration_steps": 4,
      "bar": 10,
      "position": 0,
      "track_index": 0,
      "track_name": "track_0",
      "is_drum": false,
      "harmony": "F#:maj"
    },
    {
      "pitch": 75,
      "velocity": 33,
      "instrument": 0,
      "channel": 0,
      "start_step": 72,
      "duration_steps": 4,
      "bar": 10,
      "position": 0,
      "track_index": 0,
      "track_name": "track_0",
      "is_drum": false,
      "harmony": "F#:maj"
    },
    {
      "pitch": 58,
      "velocity": 33,
      "instrument": 0,
      "channel": 0,
      "start_step": 78,
      "duration_steps": 2,
      "bar": 10,
      "position": 6,
      "track_index": 1,
      "track_name": "track_1",
      "is_drum": false,
      "harmony": "F#:maj"
    },
    {
      "pitch": 66,
      "velocity": 33,
      "instrument": 0,
      "channel": 0,
      "start_step": 78,
      "duration_steps": 2,
      "bar": 10,
      "position": 6,
      "track_index": 0,
      "track_name": "track_0",
      "is_drum": false,
      "harmony": "F#:maj"
    },
    {
      "pitch": 73,
      "velocity": 33,
      "instrument": 0,
      "channel": 0,
      "start_step": 78,
      "duration_steps": 2,
      "bar": 10,
      "position": 6,
      "track_index": 0,
      "track_name": "track_0",
      "is_drum": false,
      "harmony": "F#:maj"
    },
    {
      "pitch": 56,
      "velocity": 33,
      "instrument": 0,
      "channel": 0,
      "start_step": 80,
      "duration_steps": 3,
      "bar": 11,
      "position": 0,
      "track_index": 1,
      "track_name": "track_1",
      "is_drum": false,
      "harmony": "F#:maj"
    },
    {
      "pitch": 66,
      "velocity": 33,
      "instrument": 0,
      "channel": 0,
      "start_step": 80,
      "duration_steps": 4,
      "bar": 11,
      "position": 0,
      "track_index": 0,
      "track_name": "track_0",
      "is_drum": false,
      "harmony": "F#:maj"
    },
    {
      "pitch": 71,
      "velocity": 33,
      "instrument": 0,
      "channel": 0,
      "start_step": 80,
      "duration_steps": 3,
      "bar": 11,
      "position": 0,
      "track_index": 0,
      "track_name": "track_0",
      "is_drum": false,
      "harmony": "F#:maj"
    },
    {
      "pitch": 58,
      "velocity": 33,
      "instrument": 0,
      "channel": 0,
      "start_step": 83,
      "duration_steps": 1,
      "bar": 11,
      "position": 3,
      "track_index": 1,
      "track_name": "track_1",
      "is_drum": false,
      "harmony": "F#:maj"
    },
    {
      "pitch": 70,
      "velocity": 33,
      "instrument": 0,
      "channel": 0,
      "start_step": 83,
      "duration_steps": 1,
      "bar": 11,
      "position": 3,
      "track_index": 0,
      "track_name": "track_0",
      "is_drum": false,
      "harmony": "F#:maj"
    },
    {
      "pitch": 59,
      "velocity": 33,
      "instrument": 0,
      "channel": 0,
      "start_step": 84,
      "duration_steps": 1,
      "bar": 11,
      "position": 4,
      "track_index": 1,
      "track_name": "track_1",
      "is_drum": false,
      "harmony": "F#:maj"
    },
    {
      "pitch": 66,
      "velocity": 33,
      "instrument": 0,
      "channel": 0,
      "start_step": 84,
      "duration_steps": 2,
      "bar": 11,
      "position": 4,
      "track_index": 0,
      "track_name": "track_0",
      "is_drum": false,
      "harmony": "F#:maj"
    },
    {
      "pitch": 68,
      "velocity": 33,
      "instrument": 0,
      "channel": 0,
      "start_step": 84,
      "duration_steps": 1,
      "bar": 11,
      "position": 4,
      "track_index": 0,
      "track_name": "track_0",
      "is_drum": false,
      "harmony": "F#:maj"
    },
    {
      "pitch": 49,
      "velocity": 33,
      "instrument": 0,
      "channel": 0,
      "start_step": 86,
      "duration_steps": 1,
      "bar": 11,
      "position": 6,
      "track_index": 1,
      "track_name": "track_1",
      "is_drum": false,
      "harmony": "F#:maj"
    },
    {
      "pitch": 65,
      "velocity": 33,
      "instrument": 0,
      "channel": 0,
      "start_step": 86,
      "duration_steps": 2,
      "bar": 11,
      "position": 6,
      "track_index": 0,
      "track_name": "track_0",
      "is_drum": false,
      "harmony": "F#:maj"
    },
    {
      "pitch": 73,
      "velocity": 33,
      "instrument": 0,
      "channel": 0,
      "start_step": 86,
      "duration_steps": 1,
      "bar": 11,
      "position": 6,
      "track_index": 0,
      "track_name": "track_0",
      "is_drum": false,
      "harmony": "F#:maj"
    },
    {
      "pitch": 54,
      "velocity": 33,
      "instrument": 0,
      "channel": 0,
      "start_step": 88,
      "duration_steps": 2,
      "bar": 12,
      "position": 0,
      "track_index": 1,
      "track_name": "track_1",
      "is_drum": false,
      "harmony": "F#:maj"
    },
    {
      "pitch": 70,
      "velocity": 33,
      "instrument": 0,
      "channel": 0,
      "start_step": 88,
      "duration_steps": 1,
      "bar": 12,
      "position": 0,
      "track_index": 0,
      "track_name": "track_0",
      "is_drum": false,
      "harmony": "F#:maj"
    },
    {
      "pitch": 66,
      "velocity": 40,
      "instrument": 0,
      "channel": 0,
      "start_step": 89,
      "duration_steps": 1,
      "bar": 12,
      "position": 1,
      "track_index": 0,
      "track_name": "track_0",
      "is_drum": false,
      "harmony": "F#:maj"
    },
    {
      "pitch": 61,
      "velocity": 47,
      "instrument": 0,
      "channel": 0,
      "start_step": 90,
      "duration_steps": 2,
      "bar": 12,
      "position": 2,
      "track_index": 1,
      "track_name": "track_1",
      "is_drum": false,
      "harmony": "F#:maj"
    },
    {
      "pitch": 65,
      "velocity": 44,
      "instrument": 0,
      "channel": 0,
      "start_step": 90,
      "duration_steps": 1,
      "bar": 12,
      "position": 2,
      "track_index": 0,
      "track_name": "track_0",
      "is_drum": false,
      "harmony": "F#:maj"
    },
    {
      "pitch": 66,
      "velocity": 48,
      "instrument": 0,
      "channel": 0,
      "start_step": 91,
      "duration_steps": 1,
      "bar": 12,
      "position": 3,
      "track_index": 0,
      "track_name": "track_0",
      "is_drum": false,
      "harmony": "F#:maj"
    },
    {
      "pitch": 63,
      "velocity": 54,
      "instrument": 0,
      "channel": 0,
      "start_step": 92,
      "duration_steps": 2,
      "bar": 12,
      "position": 4,
      "track_index": 1,
      "track_name": "track_1",
      "is_drum": false,
      "harmony": "F#:maj"
    },
    {
      "pitch": 71,
      "velocity": 52,
      "instrument": 0,
      "channel": 0,
      "start_step": 92,
      "duration_steps": 1,
      "bar": 12,
      "position": 4,
      "track_index": 0,
      "track_name": "track_0",
      "is_drum": false,
      "harmony": "F#:maj"
    },
    {
      "pitch": 78,
      "velocity": 55,
      "instrument": 0,
      "channel": 0,
      "start_step": 93,
      "duration_steps": 1,
      "bar": 12,
      "position": 5,
      "track_index": 0,
      "track_name": "track_0",
      "is_drum": false,
      "harmony": "F#:maj"
    },
    {
      "pitch": 61,
      "velocity": 61,
      "instrument": 0,
      "channel": 0,
      "start_step": 94,
      "duration_steps": 2,
      "bar": 12,
      "position": 6,
      "track_index": 1,
      "track_name": "track_1",
      "is_drum": false,
      "harmony": "F#:maj"
    },
    {
      "pitch": 70,
      "velocity": 59,
      "instrument": 0,
      "channel": 0,
      "start_step": 94,
      "duration_steps": 1,
      "bar": 12,
      "position": 6,
      "track_index": 0,
      "track_name": "track_0",
      "is_drum": false,
      "harmony": "F#:maj"
    },
    {
      "pitch": 78,
      "velocity": 63,
      "instrument": 0,
      "channel": 0,
      "start_step": 95,
      "duration_steps": 1,
      "bar": 12,
      "position": 7,
      "track_index": 0,
      "track_name": "track_0",
      "is_drum": false,
      "harmony": "F#:maj"
    },
    {
      "pitch": 59,
      "velocity": 68,
      "instrument": 0,
      "channel": 0,
      "start_step": 96,
      "duration_steps": 2,
      "bar": 13,
      "position": 0,
      "track_index": 1,
      "track_name": "track_1",
      "is_drum": false,
      "harmony": "C#:maj"
    },
    {
      "pitch": 75,
      "velocity": 66,
      "instrument": 0,
      "channel": 0,
      "start_step": 96,
      "duration_steps": 1,
      "bar": 13,
      "position": 0,
      "track_index": 0,
      "track_name": "track_0",
      "is_drum": false,
      "harmony": "C#:maj"
    },
    {
      "pitch": 78,
      "velocity": 70,
      "instrument": 0,
      "channel": 0,
      "start_step": 97,
      "duration_steps": 1,
      "bar": 13,
      "position": 1,
      "track_index": 0,
      "track_name": "track_0",
      "is_drum": false,
      "harmony": "C#:maj"
    },
    {
      "pitch": 58,
      "velocity": 75,
      "instrument": 0,
      "channel": 0,
      "start_step": 98,
      "duration_steps": 2,
      "bar": 13,
      "position": 2,
      "track_index": 1,
      "track_name": "track_1",
      "is_drum": false,
      "harmony": "C#:maj"
    },
    {
      "pitch": 73,
      "velocity": 74,
      "instrument": 0,
      "channel": 0,
      "start_step": 98,
      "duration_steps": 1,
      "bar": 13,
      "position": 2,
      "track_index": 0,
      "track_name": "track_0",
      "is_drum": false,
      "harmony": "C#:maj"
    },
    {
      "pitch": 78,
      "velocity": 77,
      "instrument": 0,
      "channel": 0,
      "start_step": 99,
      "duration_steps": 1,
      "bar": 13,
      "position": 3,
      "track_index": 0,
      "track_name": "track_0",
      "is_drum": false,
      "harmony": "C#:maj"
    },
    {
      "pitch": 56,
      "velocity": 82,
      "instrument": 0,
      "channel": 0,
      "start_step": 100,
      "duration_steps": 2,
      "bar": 13,
      "position": 4,
      "track_index": 1,
      "track_name": "track_1",
      "is_drum": false,
      "harmony": "C#:maj"
    },
    {
      "pitch": 77,
      "velocity": 81,
      "instrument": 0,
      "channel": 0,
      "start_step": 100,
      "duration_steps": 1,
      "bar": 13,
      "position": 4,
      "track_index": 0,
      "track_name": "track_0",
      "is_drum": false,
      "harmony": "C#:maj"
    },
    {
      "pitch": 80,
      "velocity": 85,
      "instrument": 0,
      "channel": 0,
      "start_step": 101,
      "duration_steps": 1,
      "bar": 13,
      "position": 5,
      "track_index": 0,
      "track_name": "track_0",
      "is_drum": false,
      "harmony": "C#:maj"
    },
    {
      "pitch": 49,
      "velocity": 89,
      "instrument": 0,
      "channel": 0,
      "start_step": 102,
      "duration_steps": 2,
      "bar": 13,
      "position": 6,
      "track_index": 1,
      "track_name": "track_1",
      "is_drum": false,
      "harmony": "C#:maj"
    },
    {
      "pitch": 77,
      "velocity": 89,
      "instrument": 0,
      "channel": 0,
      "start_step": 102,
      "duration_steps": 1,
      "bar": 13,
      "position": 6,
      "track_index": 0,
      "track_name": "track_0",
      "is_drum": false,
      "harmony": "C#:maj"
    },
    {
      "pitch": 85,
      "velocity": 92,
      "instrument": 0,
      "channel": 0,
      "start_step": 103,
      "duration_steps": 1,
      "bar": 13,
      "position": 7,
      "track_index": 0,
      "track_name": "track_0",
      "is_drum": false,
      "harmony": "C#:maj"
    },
    {
      "pitch": 54,
      "velocity": 96,
      "instrument": 0,
      "channel": 0,
      "start_step": 104,
      "duration_steps": 2,
      "bar": 14,
      "position": 0,
      "track_index": 1,
      "track_name": "track_1",
      "is_drum": false,
      "harmony": "C#:maj"
    },
    {
      "pitch": 78,
      "velocity": 96,
      "instrument": 0,
      "channel": 0,
      "start_step": 104,
      "duration_steps": 1,
      "bar": 14,
      "position": 0,
      "track_index": 0,
      "track_name": "track_0",
      "is_drum": false,
      "harmony": "C#:maj"
    },
    {
      "pitch": 82,
      "velocity": 96,
      "instrument": 0,
      "channel": 0,
      "start_step": 105,
      "duration_steps": 1,
      "bar": 14,
      "position": 1,
      "track_index": 0,
      "track_name": "track_0",
      "is_drum": false,
      "harmony": "C#:maj"
    },
    {
      "pitch": 49,
      "velocity": 96,
      "instrument": 0,
      "channel": 0,
      "start_step": 106,
      "duration_steps": 2,
      "bar": 14,
      "position": 2,
      "track_index": 1,
      "track_name": "track_1",
      "is_drum": false,
      "harmony": "C#:maj"
    },
    {
      "pitch": 78,
      "velocity": 96,
      "instrument": 0,
      "channel": 0,
      "start_step": 106,
      "duration_steps": 1,
      "bar": 14,
      "position": 2,
      "track_index": 0,
      "track_name": "track_0",
      "is_drum": false,
      "harmony": "C#:maj"
    },
    {
      "pitch": 85,
      "velocity": 96,
      "instrument": 0,
      "channel": 0,
      "start_step": 107,
      "duration_steps": 1,
      "bar": 14,
      "position": 3,
      "track_index": 0,
      "track_name": "track_0",
      "is_drum": false,
      "harmony": "C#:maj"
    },
    {
      "pitch": 46,
      "velocity": 96,
      "instrument": 0,
      "channel": 0,
      "start_step": 108,
      "duration_steps": 2,
      "bar": 14,
      "position": 4,
      "track_index": 1,
      "track_name": "track_1",
      "is_drum": false,
      "harmony": "C#:maj"
    },
    {
      "pitch": 78,
      "velocity": 96,
      "instrument": 0,
      "channel": 0,
      "start_step": 108,
      "duration_steps": 1,
      "bar": 14,
      "position": 4,
      "track_index": 0,
      "track_name": "track_0",
      "is_drum": false,
      "harmony": "C#:maj"
    },
    {
      "pitch": 85,
      "velocity": 96,
      "instrument": 0,
      "channel": 0,
      "start_step": 109,
      "duration_steps": 1,
      "bar": 14,
      "position": 5,
      "track_index": 0,
      "track_name": "track_0",
      "is_drum": false,
      "harmony": "C#:maj"
    },
    {
      "pitch": 49,
      "velocity": 96,
      "instrument": 0,
      "channel": 0,
      "start_step": 110,
      "duration_steps": 2,
      "bar": 14,
      "position": 6,
      "track_index": 1,
      "track_name": "track_1",
      "is_drum": false,
      "harmony": "C#:maj"
    },
    {
      "pitch": 82,
      "velocity": 96,
      "instrument": 0,
      "channel": 0,
      "start_step": 110,
      "duration_steps": 1,
      "bar": 14,
      "position": 6,
      "track_index": 0,
      "track_name": "track_0",
      "is_drum": false,
      "harmony": "C#:maj"
    },
    {
      "pitch": 85,
      "velocity": 96,
      "instrument": 0,
      "channel": 0,
      "start_step": 111,
      "duration_steps": 1,
      "bar": 14,
      "position": 7,
      "track_index": 0,
      "track_name": "track_0",
      "is_drum": false,
      "harmony": "C#:maj"
    },
    {
      "pitch": 42,
      "velocity": 96,
      "instrument": 0,
      "channel": 0,
      "start_step": 112,
      "duration_steps": 2,
      "bar": 15,
      "position": 0,
      "track_index": 1,
      "track_name": "track_1",
      "is_drum": false,
      "harmony": "C#:maj"
    },
    {
      "pitch": 82,
      "velocity": 96,
      "instrument": 0,
      "channel": 0,
      "start_step": 112,
      "duration_steps": 1,
      "bar": 15,
      "position": 0,
      "track_index": 0,
      "track_name": "track_0",
      "is_drum": false,
      "harmony": "C#:maj"
    },
    {
      "pitch": 85,
      "velocity": 96,
      "instrument": 0,
      "channel": 0,
      "start_step": 113,
      "duration_steps": 1,
      "bar": 15,
      "position": 1,
      "track_index": 0,
      "track_name": "track_0",
      "is_drum": false,
      "harmony": "C#:maj"
    },
    {
      "pitch": 49,
      "velocity": 96,
      "instrument": 0,
      "channel": 0,
      "start_step": 114,
      "duration_steps": 2,
      "bar": 15,
      "position": 2,
      "track_index": 1,
      "track_name": "track_1",
      "is_drum": false,
      "harmony": "C#:maj"
    },
    {
      "pitch": 82,
      "velocity": 96,
      "instrument": 0,
      "channel": 0,
      "start_step": 114,
      "duration_steps": 1,
      "bar": 15,
      "position": 2,
      "track_index": 0,
      "track_name": "track_0",
      "is_drum": false,
      "harmony": "C#:maj"
    },
    {
      "pitch": 85,
      "velocity": 96,
      "instrument": 0,
      "channel": 0,
      "start_step": 115,
      "duration_steps": 1,
      "bar": 15,
      "position": 3,
      "track_index": 0,
      "track_name": "track_0",
      "is_drum": false,
      "harmony": "C#:maj"
    },
    {
      "pitch": 37,
      "velocity": 96,
      "instrument": 0,
      "channel": 0,
      "start_step": 116,
      "duration_steps": 2,
      "bar": 15,
      "position": 4,
      "track_index": 1,
      "track_name": "track_1",
      "is_drum": false,
      "harmony": "C#:maj"
    },
    {
      "pitch": 80,
      "velocity": 96,
      "instrument": 0,
      "channel": 0,
      "start_step": 116,
      "duration_steps": 1,
      "bar": 15,
      "position": 4,
      "track_index": 0,
      "track_name": "track_0",
      "is_drum": false,
      "harmony": "C#:maj"
    },
    {
      "pitch": 83,
      "velocity": 96,
      "instrument": 0,
      "channel": 0,
      "start_step": 117,
      "duration_steps": 1,
      "bar": 15,
      "position": 5,
      "track_index": 0,
      "track_name": "track_0",
      "is_drum": false,
      "harmony": "C#:maj"
    },
    {
      "pitch": 49,
      "velocity": 96,
      "instrument": 0,
      "channel": 0,
      "start_step": 118,
      "duration_steps": 2,
      "bar": 15,
      "position": 6,
      "track_index": 1,
      "track_name": "track_1",
      "is_drum": false,
      "harmony": "C#:maj"
    },
    {
      "pitch": 77,
      "velocity": 96,
      "instrument": 0,
      "channel": 0,
      "start_step": 118,
      "duration_steps": 1,
      "bar": 15,
      "position": 6,
      "track_index": 0,
      "track_name": "track_0",
      "is_drum": false,
      "harmony": "C#:maj"
    },
    {
      "pitch": 85,
      "velocity": 96,
      "instrument": 0,
      "channel": 0,
      "start_step": 119,
      "duration_steps": 1,
      "bar": 15,
      "position": 7,
      "track_index": 0,
      "track_name": "track_0",
      "is_drum": false,
      "harmony": "C#:maj"
    },
    {
      "pitch": 42,
      "velocity": 96,
      "instrument": 0,
      "channel": 0,
      "start_step": 120,
      "duration_steps": 2,
      "bar": 16,
      "position": 0,
      "track_index": 1,
      "track_name": "track_1",
      "is_drum": false,
      "harmony": "F#:maj"
    },
    {
      "pitch": 82,
      "velocity": 96,
      "instrument": 0,
      "channel": 0,
      "start_step": 120,
      "duration_steps": 1,
      "bar": 16,
      "position": 0,
      "track_index": 0,
      "track_name": "track_0",
      "is_drum": false,
      "harmony": "F#:maj"
    },
    {
      "pitch": 78,
      "velocity": 96,
      "instrument": 0,
      "channel": 0,
      "start_step": 121,
      "duration_steps": 1,
      "bar": 16,
      "position": 1,
      "track_index": 0,
      "track_name": "track_0",
      "is_drum": false,
      "harmony": "F#:maj"
    },
    {
      "pitch": 61,
      "velocity": 49,
      "instrument": 0,
      "channel": 0,
      "start_step": 122,
      "duration_steps": 2,
      "bar": 16,
      "position": 2,
      "track_index": 1,
      "track_name": "track_1",
      "is_drum": false,
      "harmony": "F#:maj"
    },
    {
      "pitch": 70,
      "velocity": 49,
      "instrument": 0,
      "channel": 0,
      "start_step": 122,
      "duration_steps": 1,
      "bar": 16,
      "position": 2,
      "track_index": 0,
      "track_name": "track_0",
      "is_drum": false,
      "harmony": "F#:maj"
    },
    {
      "pitch": 78,
      "velocity": 49,
      "instrument": 0,
      "channel": 0,
      "start_step": 123,
      "duration_steps": 1,
      "bar": 16,
      "position": 3,
      "track_index": 0,
      "track_name": "track_0",
      "is_drum": false,
      "harmony": "F#:maj"
    },
    {
      "pitch": 63,
      "velocity": 49,
      "instrument": 0,
      "channel": 0,
      "start_step": 124,
      "duration_steps": 2,
      "bar": 16,
      "position": 4,
      "track_index": 1,
      "track_name": "track_1",
      "is_drum": false,
      "harmony": "F#:maj"
    },
    {
      "pitch": 71,
      "velocity": 49,
      "instrument": 0,
      "channel": 0,
      "start_step": 124,
      "duration_steps": 1,
      "bar": 16,
      "position": 4,
      "track_index": 0,
      "track_name": "track_0",
      "is_drum": false,
      "harmony": "F#:maj"
    },
    {
      "pitch": 78,
      "velocity": 49,
      "instrument": 0,
      "channel": 0,
      "start_step": 125,
      "duration_steps": 1,
      "bar": 16,
      "position": 5,
      "track_index": 0,
      "track_name": "track_0",
      "is_drum": false,
      "harmony": "F#:maj"
    },
    {
      "pitch": 61,
      "velocity": 49,
      "instrument": 0,
      "channel": 0,
      "start_step": 126,
      "duration_steps": 2,
      "bar": 16,
      "position": 6,
      "track_index": 1,
      "track_name": "track_1",
      "is_drum": false,
      "harmony": "F#:maj"
    },
    {
      "pitch": 70,
      "velocity": 49,
      "instrument": 0,
      "channel": 0,
      "start_step": 126,
      "duration_steps": 1,
      "bar": 16,
      "position": 6,
      "track_index": 0,
      "track_name": "track_0",
      "is_drum": false,
      "harmony": "F#:maj"
    },
    {
      "pitch": 78,
      "velocity": 49,
      "instrument": 0,
      "channel": 0,
      "start_step": 127,
      "duration_steps": 1,
      "bar": 16,
      "position": 7,
      "track_index": 0,
      "track_name": "track_0",
      "is_drum": false,
      "harmony": "F#:maj"
    },
    {
      "pitch": 59,
      "velocity": 49,
      "instrument": 0,
      "channel": 0,
      "start_step": 128,
      "duration_steps": 2,
      "bar": 17,
      "position": 0,
      "track_index": 1,
      "track_name": "track_1",
      "is_drum": false,
      "harmony": "C#:maj"
    },
    {
      "pitch": 75,
      "velocity": 49,
      "instrument": 0,
      "channel": 0,
      "start_step": 128,
      "duration_steps": 1,
      "bar": 17,
      "position": 0,
      "track_index": 0,
      "track_name": "track_0",
      "is_drum": false,
      "harmony": "C#:maj"
    },
    {
      "pitch": 78,
      "velocity": 49,
      "instrument": 0,
      "channel": 0,
      "start_step": 129,
      "duration_steps": 1,
      "bar": 17,
      "position": 1,
      "track_index": 0,
      "track_name": "track_0",
      "is_drum": false,
      "harmony": "C#:maj"
    },
    {
      "pitch": 58,
      "velocity": 49,
      "instrument": 0,
      "channel": 0,
      "start_step": 130,
      "duration_steps": 2,
      "bar": 17,
      "position": 2,
      "track_index": 1,
      "track_name": "track_1",
      "is_drum": false,
      "harmony": "C#:maj"
    },
    {
      "pitch": 73,
      "velocity": 49,
      "instrument": 0,
      "channel": 0,
      "start_step": 130,
      "duration_steps": 1,
      "bar": 17,
      "position": 2,
      "track_index": 0,
      "track_name": "track_0",
      "is_drum": false,
      "harmony": "C#:maj"
    },
    {
      "pitch": 78,
      "velocity": 51,
      "instrument": 0,
      "channel": 0,
      "start_step": 131,
      "duration_steps": 1,
      "bar": 17,
      "position": 3,
      "track_index": 0,
      "track_name": "track_0",
      "is_drum": false,
      "harmony": "C#:maj"
    },
    {
      "pitch": 56,
      "velocity": 54,
      "instrument": 0,
      "channel": 0,
      "start_step": 132,
      "duration_steps": 2,
      "bar": 17,
      "position": 4,
      "track_index": 1,
      "track_name": "track_1",
      "is_drum": false,
      "harmony": "C#:maj"
    },
    {
      "pitch": 77,
      "velocity": 53,
      "instrument": 0,
      "channel": 0,
      "start_step": 132,
      "duration_steps": 1,
      "bar": 17,
      "position": 4,
      "track_index": 0,
      "track_name": "track_0",
      "is_drum": false,
      "harmony": "C#:maj"
    },
    {
      "pitch": 80,
      "velocity": 54,
      "instrument": 0,
      "channel": 0,
      "start_step": 133,
      "duration_steps": 1,
      "bar": 17,
      "position": 5,
      "track_index": 0,
      "track_name": "track_0",
      "is_drum": false,
      "harmony": "C#:maj"
    },
    {
      "pitch": 49,
      "velocity": 56,
      "instrument": 0,
      "channel": 0,
      "start_step": 134,
      "duration_steps": 2,
      "bar": 17,
      "position": 6,
      "track_index": 1,
      "track_name": "track_1",
      "is_drum": false,
      "harmony": "C#:maj"
    },
    {
      "pitch": 77,
      "velocity": 55,
      "instrument": 0,
      "channel": 0,
      "start_step": 134,
      "duration_steps": 1,
      "bar": 17,
      "position": 6,
      "track_index": 0,
      "track_name": "track_0",
      "is_drum": false,
      "harmony": "C#:maj"
    }
  ],
  "phrase_boundaries": [
    1,
    5,
    9,
    13,
    17
  ],
  "source_path": "Beethoven/Piano_Sonatas/24-2/midi_score.mid",
  "metadata": {
    "ticks_per_beat": 480,
    "midi_format": 1,
    "time_signature_changes": 3,
    "tempo_changes": 1,
    "cadence_bars": [
      9,
      10,
      11,
      12,
      16,
      20,
      32,
      40,
      41,
      42,
      43,
      47,
      49,
      52,
      101,
      102,
      103,
      105,
      106,
      116,
      120,
      160,
      161,
      163,
      164,
      169,
      185
    ],
    "global_harmony_vocab": {
      "unknown": 0,
      "C:maj": 1,
      "C#:maj": 2,
      "D:maj": 3,
      "Eb:maj": 4,
      "E:maj": 5,
      "F:maj": 6,
      "F#:maj": 7,
      "G:maj": 8,
      "Ab:maj": 9,
      "A:maj": 10,
      "Bb:maj": 11,
      "B:maj": 12,
      "C:min": 13,
      "C#:min": 14,
      "D:min": 15,
      "Eb:min": 16,
      "E:min": 17,
      "F:min": 18,
      "F#:min": 19,
      "G:min": 20,
      "Ab:min": 21,
      "A:min": 22,
      "Bb:min": 23,
      "B:min": 24
    },
    "dataset_kind": "asap",
    "dataset_source_mode": "score",
    "asap_piece_group": "beethoven::piano_sonatas_24_2",
    "composer": "Beethoven",
    "title": "Piano_Sonatas_24-2",
    "folder": "Beethoven/Piano_Sonatas/24-2",
    "xml_score": "Beethoven/Piano_Sonatas/24-2/xml_score.musicxml",
    "midi_score": "Beethoven/Piano_Sonatas/24-2/midi_score.mid",
    "midi_performance": "Beethoven/Piano_Sonatas/24-2/Lisiecki05M.mid",
    "annotated_primary_time_signature": "2/4",
    "annotated_key_signature_tonic": 6,
    "annotated_key_signature_accidentals": 6,
    "annotated_beat_count": 365,
    "annotated_downbeat_count": 183,
    "annotated_downbeats_score_map": [
      0,
      1,
      2,
      3,
      4,
      5,
      6,
      7,
      8,
      9,
      10,
      11,
      12,
      13,
      14,
      15,
      16,
      17,
      18,
      19,
      20,
      21,
      22,
      23,
      24,
      25,
      26,
      27,
      28,
      29,
      30,
      31,
      32,
      33,
      34,
      35,
      36,
      37,
      38,
      39,
      40,
      41,
      42,
      43,
      44,
      45,
      46,
      47,
      48,
      49,
      50,
      51,
      52,
      53,
      54,
      55,
      56,
      57,
      58,
      59,
      60,
      61,
      62,
      63,
      64,
      65,
      66,
      67,
      68,
      69,
      70,
      71,
      72,
      73,
      74,
      75,
      76,
      77,
      78,
      79,
      80,
      81,
      82,
      83,
      84,
      85,
      86,
      87,
      88,
      89,
      90,
      91,
      92,
      93,
      94,
      95,
      96,
      97,
      98,
      99,
      100,
      101,
      102,
      103,
      104,
      105,
      106,
      107,
      108,
      109,
      110,
      111,
      112,
      113,
      114,
      115,
      116,
      117,
      118,
      119,
      120,
      121,
      122,
      123,
      124,
      125,
      126,
      127,
      128,
      129,
      130,
      131,
      132,
      133,
      134,
      135,
      136,
      137,
      138,
      139,
      140,
      141,
      142,
      143,
      144,
      145,
      146,
      147,
      148,
      149,
      150,
      151,
      152,
      153,
      154,
      155,
      156,
      157,
      158,
      159,
      160,
      161,
      162,
      163,
      164,
      165,
      166,
      167,
      168,
      169,
      170,
      171,
      172,
      173,
      174,
      175,
      176,
      177,
      178,
      179,
      180,
      181,
      182
    ],
    "score_and_performance_aligned": false,
    "source_piece_id": "beethoven__piano_sonatas__24_2__midi_score",
    "slice_start_event": 0,
    "slice_event_count": 160
  },
  "key": "F#:major",
  "chords": [
    "F#:maj",
    "C#:maj",
    "B:maj",
    "C#:maj",
    "C#:min",
    "C#:min",
    "E:maj",
    "Eb:maj",
    "F#:maj",
    "F#:maj",
    "F#:maj",
    "F#:maj",
    "C#:maj",
    "C#:maj",
    "C#:maj",
    "F#:maj",
    "C#:maj",
    "C#:maj",
    "C#:maj",
    "F#:maj",
    "Ab:maj",
    "C#:maj",
    "G:maj",
    "E:maj",
    "C:maj",
    "E:maj",
    "G:maj",
    "C:maj",
    "C:maj",
    "C:maj",
    "C:maj",
    "F#:maj",
    "C#:maj",
    "B:maj",
    "C#:maj",
    "C#:min",
    "C#:min",
    "E:maj",
    "Eb:maj",
    "F#:maj",
    "F#:maj",
    "F#:maj",
    "F#:maj",
    "C#:maj",
    "C#:maj",
    "C#:maj",
    "F#:maj",
    "C#:maj",
    "F#:maj",
    "Eb:min",
    "Bb:maj",
    "F#:maj",
    "Eb:maj",
    "B:maj",
    "Bb:maj",
    "Bb:maj",
    "Eb:maj",
    "Eb:maj",
    "Eb:min",
    "Bb:maj",
    "Eb:maj",
    "Eb:maj",
    "Eb:min",
    "Bb:maj",
    "Eb:min",
    "Eb:min",
    "Eb:min",
    "Eb:min",
    "Eb:min",
    "Eb:min",
    "Eb:min",
    "Eb:min",
    "B:maj",
    "F:maj",
    "C#:maj",
    "E:maj",
    "C#:maj",
    "C#:maj",
    "D:min",
    "D:min",
    "D:min",
    "F:maj",
    "D:min",
    "D:min",
    "D:min",
    "D:min",
    "C#:maj",
    "C#:maj",
    "F:maj",
    "C#:maj",
    "E:maj",
    "C#:maj",
    "B:maj",
    "F#:min",
    "A:maj",
    "E:maj",
    "B:maj",
    "B:maj",
    "Ab:min",
    "B:maj",
    "F#:maj",
    "F#:maj",
    "F#:maj",
    "B:maj",
    "F#:maj",
    "F#:maj",
    "B:min",
    "C#:maj",
    "F#:min",
    "C#:maj",
    "Ab:maj",
    "F:maj",
    "C#:maj",
    "C#:maj",
    "C#:maj",
    "F#:maj",
    "C#:maj",
    "C#:maj",
    "C#:maj",
    "F#:maj",
    "C#:maj",
    "C#:maj",
    "C#:maj",
    "F#:min",
    "F#:min",
    "F#:min",
    "F#:min",
    "F#:min",
    "F#:min",
    "F#:min",
    "F#:min",
    "D:maj",
    "D:maj",
    "C:maj",
    "C:maj",
    "F:maj",
    "C:maj",
    "F:maj",
    "Ab:maj",
    "C:maj",
    "C:maj",
    "C:maj",
    "A:min",
    "C:maj",
    "C:maj",
    "A:min",
    "A:min",
    "C:maj",
    "C:maj",
    "C:maj",
    "C#:maj",
    "B:maj",
    "F:min",
    "C#:min",
    "C#:min",
    "E:maj",
    "B:maj",
    "B:maj",
    "Eb:min",
    "F#:maj",
    "F#:maj",
    "Ab:min",
    "F#:maj",
    "F#:maj",
    "C#:min",
    "Eb:min",
    "C#:maj",
    "F:min",
    "F#:maj",
    "F:min",
    "Eb:min",
    "C#:maj",
    "Ab:min",
    "C#:maj",
    "C#:maj",
    "A:min",
    "C#:maj",
    "C#:maj",
    "C#:maj",
    "F#:min",
    "B:maj",
    "F#:min",
    "B:maj",
    "C#:maj",
    "F#:maj"
  ]
}