{
  "piece_id": "schubert__impromptu_op_90_d_899__4__midi_score__sample",
  "resolution": "sixteenth",
  "steps_per_beat": 4,
  "bar_steps": 12,
  "time_signature": "3/4",
  "tempo_bpm": 120.0,
  "note_events": [
    {
      "pitch": 44,
      "velocity": 56,
      "instrument": 0,
      "channel": 0,
      "start_step": 0,
      "duration_steps": 2,
      "bar": 1,
      "position": 0,
      "track_index": 0,
      "track_name": "generated",
      "is_drum": false,
      "harmony": "unknown"
    },
    {
      "pitch": 83,
      "velocity": 56,
      "instrument": 0,
      "channel": 0,
      "start_step": 0,
      "duration_steps": 1,
      "bar": 1,
      "position": 0,
      "track_index": 0,
      "track_name": "generated",
      "is_drum": false,
      "harmony": "unknown"
    },
    {
      "pitch": 87,
      "velocity": 56,
      "instrument": 0,
      "channel": 0,
      "start_step": 1,
      "duration_steps": 1,
      "bar": 1,
      "position": 1,
      "track_index": 0,
      "track_name": "generated",
      "is_drum": false,
      "harmony": "unknown"
    },
    {
      "pitch": 83,
      "velocity": 56,
      "instrument": 0,
      "channel": 0,
      "start_step": 2,
      "duration_steps": 1,
      "bar": 1,
      "position": 2,
      "track_index": 0,
      "track_name": "generated",
      "is_drum": false,
      "harmony": "unknown"
    },
    {
      "pitch": 80,
      "velocity": 56,
      "instrument": 0,
      "channel": 0,
      "start_step": 3,
      "duration_steps": 1,
      "bar": 1,
      "position": 3,
      "track_index": 0,
      "track_name": "generated",
      "is_drum": false,
      "harmony": "unknown"
    },
    {
      "pitch": 56,
      "velocity": 56,
      "instrument": 0,
      "channel": 0,
      "start_step": 4,
      "duration_steps": 16,
      "bar": 1,
      "position": 4,
      "track_index": 0,
      "track_name": "generated",
      "is_drum": false,
      "harmony": "unknown"
    },
    {
      "pitch": 59,
      "velocity": 56,
      "instrument": 0,
      "channel": 0,
      "start_step": 4,
      "duration_steps": 16,
      "bar": 1,
      "position": 4,
      "track_index": 0,
      "track_name": "generated",
      "is_drum": false,
      "harmony": "unknown"
    },
    {
      "pitch": 63,
      "velocity": 56,
      "instrument": 0,
      "channel": 0,
      "start_step": 4,
      "duration_steps": 15,
      "bar": 1,
      "position": 4,
      "track_index": 0,
      "track_name": "generated",
      "is_drum": false,
      "harmony": "unknown"
    },
    {
      "pitch": 80,
      "velocity": 56,
      "instrument": 0,
      "channel": 0,
      "start_step": 4,
      "duration_steps": 1,
      "bar": 1,
      "position": 4,
      "track_index": 0,
      "track_name": "generated",
      "is_drum": false,
      "harmony": "unknown"
    },
    {
      "pitch": 83,
      "velocity": 56,
      "instrument": 0,
      "channel": 0,
      "start_step": 5,
      "duration_steps": 1,
      "bar": 1,
      "position": 5,
      "track_index": 0,
      "track_name": "generated",
      "is_drum": false,
      "harmony": "unknown"
    },
    {
      "pitch": 80,
      "velocity": 56,
      "instrument": 0,
      "channel": 0,
      "start_step": 6,
      "duration_steps": 1,
      "bar": 1,
      "position": 6,
      "track_index": 0,
      "track_name": "generated",
      "is_drum": false,
      "harmony": "unknown"
    },
    {
      "pitch": 75,
      "velocity": 56,
      "instrument": 0,
      "channel": 0,
      "start_step": 7,
      "duration_steps": 1,
      "bar": 1,
      "position": 7,
      "track_index": 0,
      "track_name": "generated",
      "is_drum": false,
      "harmony": "unknown"
    },
    {
      "pitch": 75,
      "velocity": 56,
      "instrument": 0,
      "channel": 0,
      "start_step": 8,
      "duration_steps": 1,
      "bar": 1,
      "position": 8,
      "track_index": 0,
      "track_name": "generated",
      "is_drum": false,
      "harmony": "unknown"
    },
    {
      "pitch": 80,
      "velocity": 56,
      "instrument": 0,
      "channel": 0,
      "start_step": 9,
      "duration_steps": 1,
      "bar": 1,
      "position": 9,
      "track_index": 0,
      "track_name": "generated",
      "is_drum": false,
      "harmony": "unknown"
    },
    {
      "pitch": 75,
      "velocity": 56,
      "instrument": 0,
      "channel": 0,
      "start_step": 10,
      "duration_steps": 1,
      "bar": 1,
      "position": 10,
      "track_index": 0,
      "track_name": "generated",
      "is_drum": false,
      "harmony": "unknown"
    },
    {
      "pitch": 71,
      "velocity": 56,
      "instrument": 0,
      "channel": 0,
      "start_step": 11,
      "duration_steps": 1,
      "bar": 1,
      "position": 11,
      "track_index": 0,
      "track_name": "generated",
      "is_drum": false,
      "harmony": "unknown"
    },
    {
      "pitch": 71,
      "velocity": 56,
      "instrument": 0,
      "channel": 0,
      "start_step": 12,
      "duration_steps": 1,
      "bar": 2,
      "position": 0,
      "track_index": 0,
      "track_name": "generated",
      "is_drum": false,
      "harmony": "unknown"
    },
    {
      "pitch": 75,
      "velocity": 56,
      "instrument": 0,
      "channel": 0,
      "start_step": 13,
      "duration_steps": 1,
      "bar": 2,
      "position": 1,
      "track_index": 0,
      "track_name": "generated",
      "is_drum": false,
      "harmony": "unknown"
    },
    {
      "pitch": 71,
      "velocity": 56,
      "instrument": 0,
      "channel": 0,
      "start_step": 14,
      "duration_steps": 1,
      "bar": 2,
      "position": 2,
      "track_index": 0,
      "track_name": "generated",
      "is_drum": false,
      "harmony": "unknown"
    },
    {
      "pitch": 68,
      "velocity": 56,
      "instrument": 0,
      "channel": 0,
      "start_step": 15,
      "duration_steps": 1,
      "bar": 2,
      "position": 3,
      "track_index": 0,
      "track_name": "generated",
      "is_drum": false,
      "harmony": "unknown"
    },
    {
      "pitch": 68,
      "velocity": 56,
      "instrument": 0,
      "channel": 0,
      "start_step": 16,
      "duration_steps": 1,
      "bar": 2,
      "position": 4,
      "track_index": 0,
      "track_name": "generated",
      "is_drum": false,
      "harmony": "unknown"
    },
    {
      "pitch": 71,
      "velocity": 56,
      "instrument": 0,
      "channel": 0,
      "start_step": 17,
      "duration_steps": 1,
      "bar": 2,
      "position": 5,
      "track_index": 0,
      "track_name": "generated",
      "is_drum": false,
      "harmony": "unknown"
    },
    {
      "pitch": 68,
      "velocity": 56,
      "instrument": 0,
      "channel": 0,
      "start_step": 18,
      "duration_steps": 1,
      "bar": 2,
      "position": 6,
      "track_index": 0,
      "track_name": "generated",
      "is_drum": false,
      "harmony": "unknown"
    },
    {
      "pitch": 63,
      "velocity": 56,
      "instrument": 0,
      "channel": 0,
      "start_step": 19,
      "duration_steps": 3,
      "bar": 2,
      "position": 7,
      "track_index": 0,
      "track_name": "generated",
      "is_drum": false,
      "harmony": "unknown"
    },
    {
      "pitch": 51,
      "velocity": 56,
      "instrument": 0,
      "channel": 0,
      "start_step": 20,
      "duration_steps": 2,
      "bar": 2,
      "position": 8,
      "track_index": 0,
      "track_name": "generated",
      "is_drum": false,
      "harmony": "unknown"
    },
    {
      "pitch": 58,
      "velocity": 56,
      "instrument": 0,
      "channel": 0,
      "start_step": 20,
      "duration_steps": 2,
      "bar": 2,
      "position": 8,
      "track_index": 0,
      "track_name": "generated",
      "is_drum": false,
      "harmony": "unknown"
    },
    {
      "pitch": 67,
      "velocity": 56,
      "instrument": 0,
      "channel": 0,
      "start_step": 20,
      "duration_steps": 1,
      "bar": 2,
      "position": 8,
      "track_index": 0,
      "track_name": "generated",
      "is_drum": false,
      "harmony": "unknown"
    },
    {
      "pitch": 70,
      "velocity": 56,
      "instrument": 0,
      "channel": 0,
      "start_step": 20,
      "duration_steps": 1,
      "bar": 2,
      "position": 8,
      "track_index": 0,
      "track_name": "generated",
      "is_drum": false,
      "harmony": "unknown"
    },
    {
      "pitch": 44,
      "velocity": 56,
      "instrument": 0,
      "channel": 0,
      "start_step": 24,
      "duration_steps": 2,
      "bar": 3,
      "position": 0,
      "track_index": 0,
      "track_name": "generated",
      "is_drum": false,
      "harmony": "unknown"
    },
    {
      "pitch": 83,
      "velocity": 56,
      "instrument": 0,
      "channel": 0,
      "start_step": 24,
      "duration_steps": 1,
      "bar": 3,
      "position": 0,
      "track_index": 0,
      "track_name": "generated",
      "is_drum": false,
      "harmony": "unknown"
    },
    {
      "pitch": 87,
      "velocity": 56,
      "instrument": 0,
      "channel": 0,
      "start_step": 25,
      "duration_steps": 1,
      "bar": 3,
      "position": 1,
      "track_index": 0,
      "track_name": "generated",
      "is_drum": false,
      "harmony": "unknown"
    },
    {
      "pitch": 83,
      "velocity": 56,
      "instrument": 0,
      "channel": 0,
      "start_step": 26,
      "duration_steps": 1,
      "bar": 3,
      "position": 2,
      "track_index": 0,
      "track_name": "generated",
      "is_drum": false,
      "harmony": "unknown"
    },
    {
      "pitch": 80,
      "velocity": 56,
      "instrument": 0,
      "channel": 0,
      "start_step": 27,
      "duration_steps": 1,
      "bar": 3,
      "position": 3,
      "track_index": 0,
      "track_name": "generated",
      "is_drum": false,
      "harmony": "unknown"
    },
    {
      "pitch": 63,
      "velocity": 56,
      "instrument": 0,
      "channel": 0,
      "start_step": 28,
      "duration_steps": 15,
      "bar": 3,
      "position": 4,
      "track_index": 0,
      "track_name": "generated",
      "is_drum": false,
      "harmony": "unknown"
    },
    {
      "pitch": 80,
      "velocity": 56,
      "instrument": 0,
      "channel": 0,
      "start_step": 28,
      "duration_steps": 1,
      "bar": 3,
      "position": 4,
      "track_index": 0,
      "track_name": "generated",
      "is_drum": false,
      "harmony": "unknown"
    },
    {
      "pitch": 83,
      "velocity": 56,
      "instrument": 0,
      "channel": 0,
      "start_step": 29,
      "duration_steps": 1,
      "bar": 3,
      "position": 5,
      "track_index": 0,
      "track_name": "generated",
      "is_drum": false,
      "harmony": "unknown"
    },
    {
      "pitch": 80,
      "velocity": 56,
      "instrument": 0,
      "channel": 0,
      "start_step": 30,
      "duration_steps": 1,
      "bar": 3,
      "position": 6,
      "track_index": 0,
      "track_name": "generated",
      "is_drum": false,
      "harmony": "unknown"
    },
    {
      "pitch": 75,
      "velocity": 56,
      "instrument": 0,
      "channel": 0,
      "start_step": 31,
      "duration_steps": 1,
      "bar": 3,
      "position": 7,
      "track_index": 0,
      "track_name": "generated",
      "is_drum": false,
      "harmony": "unknown"
    },
    {
      "pitch": 75,
      "velocity": 56,
      "instrument": 0,
      "channel": 0,
      "start_step": 32,
      "duration_steps": 1,
      "bar": 3,
      "position": 8,
      "track_index": 0,
      "track_name": "generated",
      "is_drum": false,
      "harmony": "unknown"
    },
    {
      "pitch": 80,
      "velocity": 56,
      "instrument": 0,
      "channel": 0,
      "start_step": 33,
      "duration_steps": 1,
      "bar": 3,
      "position": 9,
      "track_index": 0,
      "track_name": "generated",
      "is_drum": false,
      "harmony": "unknown"
    },
    {
      "pitch": 75,
      "velocity": 56,
      "instrument": 0,
      "channel": 0,
      "start_step": 34,
      "duration_steps": 1,
      "bar": 3,
      "position": 10,
      "track_index": 0,
      "track_name": "generated",
      "is_drum": false,
      "harmony": "unknown"
    },
    {
      "pitch": 71,
      "velocity": 56,
      "instrument": 0,
      "channel": 0,
      "start_step": 35,
      "duration_steps": 1,
      "bar": 3,
      "position": 11,
      "track_index": 0,
      "track_name": "generated",
      "is_drum": false,
      "harmony": "unknown"
    },
    {
      "pitch": 71,
      "velocity": 56,
      "instrument": 0,
      "channel": 0,
      "start_step": 36,
      "duration_steps": 1,
      "bar": 4,
      "position": 0,
      "track_index": 0,
      "track_name": "generated",
      "is_drum": false,
      "harmony": "unknown"
    },
    {
      "pitch": 75,
      "velocity": 56,
      "instrument": 0,
      "channel": 0,
      "start_step": 37,
      "duration_steps": 1,
      "bar": 4,
      "position": 1,
      "track_index": 0,
      "track_name": "generated",
      "is_drum": false,
      "harmony": "unknown"
    },
    {
      "pitch": 71,
      "velocity": 56,
      "instrument": 0,
      "channel": 0,
      "start_step": 38,
      "duration_steps": 1,
      "bar": 4,
      "position": 2,
      "track_index": 0,
      "track_name": "generated",
      "is_drum": false,
      "harmony": "unknown"
    },
    {
      "pitch": 68,
      "velocity": 56,
      "instrument": 0,
      "channel": 0,
      "start_step": 39,
      "duration_steps": 1,
      "bar": 4,
      "position": 3,
      "track_index": 0,
      "track_name": "generated",
      "is_drum": false,
      "harmony": "unknown"
    },
    {
      "pitch": 68,
      "velocity": 56,
      "instrument": 0,
      "channel": 0,
      "start_step": 40,
      "duration_steps": 1,
      "bar": 4,
      "position": 4,
      "track_index": 0,
      "track_name": "generated",
      "is_drum": false,
      "harmony": "unknown"
    },
    {
      "pitch": 71,
      "velocity": 56,
      "instrument": 0,
      "channel": 0,
      "start_step": 41,
      "duration_steps": 1,
      "bar": 4,
      "position": 5,
      "track_index": 0,
      "track_name": "generated",
      "is_drum": false,
      "harmony": "unknown"
    },
    {
      "pitch": 68,
      "velocity": 56,
      "instrument": 0,
      "channel": 0,
      "start_step": 42,
      "duration_steps": 1,
      "bar": 4,
      "position": 6,
      "track_index": 0,
      "track_name": "generated",
      "is_drum": false,
      "harmony": "unknown"
    },
    {
      "pitch": 63,
      "velocity": 56,
      "instrument": 0,
      "channel": 0,
      "start_step": 43,
      "duration_steps": 1,
      "bar": 4,
      "position": 7,
      "track_index": 0,
      "track_name": "generated",
      "is_drum": false,
      "harmony": "unknown"
    },
    {
      "pitch": 51,
      "velocity": 56,
      "instrument": 0,
      "channel": 0,
      "start_step": 44,
      "duration_steps": 2,
      "bar": 4,
      "position": 8,
      "track_index": 0,
      "track_name": "generated",
      "is_drum": false,
      "harmony": "unknown"
    },
    {
      "pitch": 58,
      "velocity": 56,
      "instrument": 0,
      "channel": 0,
      "start_step": 44,
      "duration_steps": 2,
      "bar": 4,
      "position": 8,
      "track_index": 0,
      "track_name": "generated",
      "is_drum": false,
      "harmony": "unknown"
    },
    {
      "pitch": 63,
      "velocity": 56,
      "instrument": 0,
      "channel": 0,
      "start_step": 44,
      "duration_steps": 2,
      "bar": 4,
      "position": 8,
      "track_index": 0,
      "track_name": "generated",
      "is_drum": false,
      "harmony": "unknown"
    },
    {
      "pitch": 67,
      "velocity": 56,
      "instrument": 0,
      "channel": 0,
      "start_step": 44,
      "duration_steps": 1,
      "bar": 4,
      "position": 8,
      "track_index": 0,
      "track_name": "generated",
      "is_drum": false,
      "harmony": "unknown"
    },
    {
      "pitch": 70,
      "velocity": 56,
      "instrument": 0,
      "channel": 0,
      "start_step": 44,
      "duration_steps": 1,
      "bar": 4,
      "position": 8,
      "track_index": 0,
      "track_name": "generated",
      "is_drum": false,
      "harmony": "unknown"
    },
    {
      "pitch": 56,
      "velocity": 88,
      "instrument": 0,
      "channel": 0,
      "start_step": 48,
      "duration_steps": 2,
      "bar": 5,
      "position": 0,
      "track_index": 0,
      "track_name": "generated",
      "is_drum": false,
      "harmony": "unknown"
    },
    {
      "pitch": 59,
      "velocity": 88,
      "instrument": 0,
      "channel": 0,
      "start_step": 48,
      "duration_steps": 2,
      "bar": 5,
      "position": 0,
      "track_index": 0,
      "track_name": "generated",
      "is_drum": false,
      "harmony": "unknown"
    },
    {
      "pitch": 63,
      "velocity": 88,
      "instrument": 0,
      "channel": 0,
      "start_step": 48,
      "duration_steps": 2,
      "bar": 5,
      "position": 0,
      "track_index": 0,
      "track_name": "generated",
      "is_drum": false,
      "harmony": "unknown"
    },
    {
      "pitch": 68,
      "velocity": 88,
      "instrument": 0,
      "channel": 0,
      "start_step": 48,
      "duration_steps": 2,
      "bar": 5,
      "position": 0,
      "track_index": 0,
      "track_name": "generated",
      "is_drum": false,
      "harmony": "unknown"
    },
    {
      "pitch": 71,
      "velocity": 88,
      "instrument": 0,
      "channel": 0,
      "start_step": 48,
      "duration_steps": 2,
      "bar": 5,
      "position": 0,
      "track_index": 0,
      "track_name": "generated",
      "is_drum": false,
      "harmony": "unknown"
    },
    {
      "pitch": 51,
      "velocity": 88,
      "instrument": 0,
      "channel": 0,
      "start_step": 52,
      "duration_steps": 2,
      "bar": 5,
      "position": 4,
      "track_index": 0,
      "track_name": "generated",
      "is_drum": false,
      "harmony": "unknown"
    },
    {
      "pitch": 58,
      "velocity": 88,
      "instrument": 0,
      "channel": 0,
      "start_step": 52,
      "duration_steps": 2,
      "bar": 5,
      "position": 4,
      "track_index": 0,
      "track_name": "generated",
      "is_drum": false,
      "harmony": "unknown"
    },
    {
      "pitch": 64,
      "velocity": 88,
      "instrument": 0,
      "channel": 0,
      "start_step": 52,
      "duration_steps": 2,
      "bar": 5,
      "position": 4,
      "track_index": 0,
      "track_name": "generated",
      "is_drum": false,
      "harmony": "unknown"
    },
    {
      "pitch": 67,
      "velocity": 88,
      "instrument": 0,
      "channel": 0,
      "start_step": 52,
      "duration_steps": 2,
      "bar": 5,
      "position": 4,
      "track_index": 0,
      "track_name": "generated",
      "is_drum": false,
      "harmony": "unknown"
    },
    {
      "pitch": 80,
      "velocity": 88,
      "instrument": 0,
      "channel": 0,
      "start_step": 52,
      "duration_steps": 1,
      "bar": 5,
      "position": 4,
      "track_index": 0,
      "track_name": "generated",
      "is_drum": false,
      "harmony": "unknown"
    },
    {
      "pitch": 66,
      "velocity": 88,
      "instrument": 0,
      "channel": 0,
      "start_step": 53,
      "duration_steps": 2,
      "bar": 5,
      "position": 5,
      "track_index": 0,
      "track_name": "generated",
      "is_drum": false,
      "harmony": "unknown"
    },
    {
      "pitch": 65,
      "velocity": 88,
      "instrument": 0,
      "channel": 0,
      "start_step": 54,
      "duration_steps": 2,
      "bar": 5,
      "position": 6,
      "track_index": 0,
      "track_name": "generated",
      "is_drum": false,
      "harmony": "unknown"
    },
    {
      "pitch": 85,
      "velocity": 88,
      "instrument": 0,
      "channel": 0,
      "start_step": 54,
      "duration_steps": 2,
      "bar": 5,
      "position": 6,
      "track_index": 0,
      "track_name": "generated",
      "is_drum": false,
      "harmony": "unknown"
    },
    {
      "pitch": 70,
      "velocity": 88,
      "instrument": 0,
      "channel": 0,
      "start_step": 55,
      "duration_steps": 1,
      "bar": 5,
      "position": 7,
      "track_index": 0,
      "track_name": "generated",
      "is_drum": false,
      "harmony": "unknown"
    },
    {
      "pitch": 56,
      "velocity": 88,
      "instrument": 0,
      "channel": 0,
      "start_step": 66,
      "duration_steps": 1,
      "bar": 6,
      "position": 6,
      "track_index": 0,
      "track_name": "generated",
      "is_drum": false,
      "harmony": "unknown"
    },
    {
      "pitch": 61,
      "velocity": 88,
      "instrument": 0,
      "channel": 0,
      "start_step": 66,
      "duration_steps": 1,
      "bar": 6,
      "position": 6,
      "track_index": 0,
      "track_name": "generated",
      "is_drum": false,
      "harmony": "unknown"
    },
    {
      "pitch": 51,
      "velocity": 104,
      "instrument": 0,
      "channel": 0,
      "start_step": 72,
      "duration_steps": 1,
      "bar": 7,
      "position": 0,
      "track_index": 0,
      "track_name": "generated",
      "is_drum": false,
      "harmony": "unknown"
    },
    {
      "pitch": 57,
      "velocity": 104,
      "instrument": 0,
      "channel": 0,
      "start_step": 72,
      "duration_steps": 1,
      "bar": 7,
      "position": 0,
      "track_index": 0,
      "track_name": "generated",
      "is_drum": false,
      "harmony": "unknown"
    },
    {
      "pitch": 54,
      "velocity": 104,
      "instrument": 0,
      "channel": 0,
      "start_step": 73,
      "duration_steps": 1,
      "bar": 7,
      "position": 1,
      "track_index": 0,
      "track_name": "generated",
      "is_drum": false,
      "harmony": "unknown"
    },
    {
      "pitch": 68,
      "velocity": 104,
      "instrument": 0,
      "channel": 0,
      "start_step": 73,
      "duration_steps": 1,
      "bar": 7,
      "position": 1,
      "track_index": 0,
      "track_name": "generated",
      "is_drum": false,
      "harmony": "unknown"
    },
    {
      "pitch": 56,
      "velocity": 104,
      "instrument": 0,
      "channel": 0,
      "start_step": 73,
      "duration_steps": 1,
      "bar": 7,
      "position": 1,
      "track_index": 0,
      "track_name": "generated",
      "is_drum": false,
      "harmony": "unknown"
    },
    {
      "pitch": 63,
      "velocity": 104,
      "instrument": 0,
      "channel": 0,
      "start_step": 73,
      "duration_steps": 1,
      "bar": 7,
      "position": 1,
      "track_index": 0,
      "track_name": "generated",
      "is_drum": false,
      "harmony": "unknown"
    },
    {
      "pitch": 78,
      "velocity": 104,
      "instrument": 0,
      "channel": 0,
      "start_step": 74,
      "duration_steps": 1,
      "bar": 7,
      "position": 2,
      "track_index": 0,
      "track_name": "generated",
      "is_drum": false,
      "harmony": "unknown"
    },
    {
      "pitch": 61,
      "velocity": 104,
      "instrument": 0,
      "channel": 0,
      "start_step": 75,
      "duration_steps": 1,
      "bar": 7,
      "position": 3,
      "track_index": 0,
      "track_name": "generated",
      "is_drum": false,
      "harmony": "unknown"
    },
    {
      "pitch": 64,
      "velocity": 104,
      "instrument": 0,
      "channel": 0,
      "start_step": 75,
      "duration_steps": 2,
      "bar": 7,
      "position": 3,
      "track_index": 0,
      "track_name": "generated",
      "is_drum": false,
      "harmony": "unknown"
    },
    {
      "pitch": 49,
      "velocity": 104,
      "instrument": 0,
      "channel": 0,
      "start_step": 75,
      "duration_steps": 2,
      "bar": 7,
      "position": 3,
      "track_index": 0,
      "track_name": "generated",
      "is_drum": false,
      "harmony": "unknown"
    },
    {
      "pitch": 68,
      "velocity": 104,
      "instrument": 0,
      "channel": 0,
      "start_step": 76,
      "duration_steps": 1,
      "bar": 7,
      "position": 4,
      "track_index": 0,
      "track_name": "generated",
      "is_drum": false,
      "harmony": "unknown"
    },
    {
      "pitch": 39,
      "velocity": 104,
      "instrument": 0,
      "channel": 0,
      "start_step": 76,
      "duration_steps": 1,
      "bar": 7,
      "position": 4,
      "track_index": 0,
      "track_name": "generated",
      "is_drum": false,
      "harmony": "unknown"
    },
    {
      "pitch": 40,
      "velocity": 104,
      "instrument": 0,
      "channel": 0,
      "start_step": 76,
      "duration_steps": 1,
      "bar": 7,
      "position": 4,
      "track_index": 0,
      "track_name": "generated",
      "is_drum": false,
      "harmony": "unknown"
    },
    {
      "pitch": 51,
      "velocity": 104,
      "instrument": 0,
      "channel": 0,
      "start_step": 78,
      "duration_steps": 1,
      "bar": 7,
      "position": 6,
      "track_index": 0,
      "track_name": "generated",
      "is_drum": false,
      "harmony": "unknown"
    },
    {
      "pitch": 68,
      "velocity": 104,
      "instrument": 0,
      "channel": 0,
      "start_step": 78,
      "duration_steps": 1,
      "bar": 7,
      "position": 6,
      "track_index": 0,
      "track_name": "generated",
      "is_drum": false,
      "harmony": "unknown"
    },
    {
      "pitch": 79,
      "velocity": 104,
      "instrument": 0,
      "channel": 0,
      "start_step": 79,
      "duration_steps": 1,
      "bar": 7,
      "position": 7,
      "track_index": 0,
      "track_name": "generated",
      "is_drum": false,
      "harmony": "unknown"
    },
    {
      "pitch": 56,
      "velocity": 104,
      "instrument": 0,
      "channel": 0,
      "start_step": 79,
      "duration_steps": 2,
      "bar": 7,
      "position": 7,
      "track_index": 0,
      "track_name": "generated",
      "is_drum": false,
      "harmony": "unknown"
    },
    {
      "pitch": 58,
      "velocity": 104,
      "instrument": 0,
      "channel": 0,
      "start_step": 84,
      "duration_steps": 1,
      "bar": 8,
      "position": 0,
      "track_index": 0,
      "track_name": "generated",
      "is_drum": false,
      "harmony": "unknown"
    },
    {
      "pitch": 64,
      "velocity": 104,
      "instrument": 0,
      "channel": 0,
      "start_step": 86,
      "duration_steps": 1,
      "bar": 8,
      "position": 2,
      "track_index": 0,
      "track_name": "generated",
      "is_drum": false,
      "harmony": "unknown"
    },
    {
      "pitch": 61,
      "velocity": 104,
      "instrument": 0,
      "channel": 0,
      "start_step": 86,
      "duration_steps": 1,
      "bar": 8,
      "position": 2,
      "track_index": 0,
      "track_name": "generated",
      "is_drum": false,
      "harmony": "unknown"
    },
    {
      "pitch": 53,
      "velocity": 104,
      "instrument": 0,
      "channel": 0,
      "start_step": 87,
      "duration_steps": 1,
      "bar": 8,
      "position": 3,
      "track_index": 0,
      "track_name": "generated",
      "is_drum": false,
      "harmony": "unknown"
    },
    {
      "pitch": 75,
      "velocity": 104,
      "instrument": 0,
      "channel": 0,
      "start_step": 88,
      "duration_steps": 1,
      "bar": 8,
      "position": 4,
      "track_index": 0,
      "track_name": "generated",
      "is_drum": false,
      "harmony": "unknown"
    },
    {
      "pitch": 56,
      "velocity": 104,
      "instrument": 0,
      "channel": 0,
      "start_step": 88,
      "duration_steps": 1,
      "bar": 8,
      "position": 4,
      "track_index": 0,
      "track_name": "generated",
      "is_drum": false,
      "harmony": "unknown"
    },
    {
      "pitch": 52,
      "velocity": 104,
      "instrument": 0,
      "channel": 0,
      "start_step": 88,
      "duration_steps": 1,
      "bar": 8,
      "position": 4,
      "track_index": 0,
      "track_name": "generated",
      "is_drum": false,
      "harmony": "unknown"
    },
    {
      "pitch": 56,
      "velocity": 104,
      "instrument": 0,
      "channel": 0,
      "start_step": 88,
      "duration_steps": 1,
      "bar": 8,
      "position": 4,
      "track_index": 0,
      "track_name": "generated",
      "is_drum": false,
      "harmony": "unknown"
    },
    {
      "pitch": 52,
      "velocity": 104,
      "instrument": 0,
      "channel": 0,
      "start_step": 90,
      "duration_steps": 1,
      "bar": 8,
      "position": 6,
      "track_index": 0,
      "track_name": "generated",
      "is_drum": false,
      "harmony": "unknown"
    },
    {
      "pitch": 79,
      "velocity": 104,
      "instrument": 0,
      "channel": 0,
      "start_step": 90,
      "duration_steps": 1,
      "bar": 8,
      "position": 6,
      "track_index": 0,
      "track_name": "generated",
      "is_drum": false,
      "harmony": "unknown"
    },
    {
      "pitch": 77,
      "velocity": 104,
      "instrument": 0,
      "channel": 0,
      "start_step": 90,
      "duration_steps": 1,
      "bar": 8,
      "position": 6,
      "track_index": 0,
      "track_name": "generated",
      "is_drum": false,
      "harmony": "unknown"
    },
    {
      "pitch": 56,
      "velocity": 104,
      "instrument": 0,
      "channel": 0,
      "start_step": 91,
      "duration_steps": 1,
      "bar": 8,
      "position": 7,
      "track_index": 0,
      "track_name": "generated",
      "is_drum": false,
      "harmony": "unknown"
    },
    {
      "pitch": 69,
      "velocity": 104,
      "instrument": 0,
      "channel": 0,
      "start_step": 92,
      "duration_steps": 1,
      "bar": 8,
      "position": 8,
      "track_index": 0,
      "track_name": "generated",
      "is_drum": false,
      "harmony": "unknown"
    },
    {
      "pitch": 65,
      "velocity": 104,
      "instrument": 0,
      "channel": 0,
      "start_step": 92,
      "duration_steps": 2,
      "bar": 8,
      "position": 8,
      "track_index": 0,
      "track_name": "generated",
      "is_drum": false,
      "harmony": "unknown"
    },
    {
      "pitch": 67,
      "velocity": 104,
      "instrument": 0,
      "channel": 0,
      "start_step": 92,
      "duration_steps": 2,
      "bar": 8,
      "position": 8,
      "track_index": 0,
      "track_name": "generated",
      "is_drum": false,
      "harmony": "unknown"
    },
    {
      "pitch": 70,
      "velocity": 104,
      "instrument": 0,
      "channel": 0,
      "start_step": 94,
      "duration_steps": 2,
      "bar": 8,
      "position": 10,
      "track_index": 0,
      "track_name": "generated",
      "is_drum": false,
      "harmony": "unknown"
    },
    {
      "pitch": 76,
      "velocity": 104,
      "instrument": 0,
      "channel": 0,
      "start_step": 96,
      "duration_steps": 1,
      "bar": 9,
      "position": 0,
      "track_index": 0,
      "track_name": "generated",
      "is_drum": false,
      "harmony": "unknown"
    },
    {
      "pitch": 57,
      "velocity": 104,
      "instrument": 0,
      "channel": 0,
      "start_step": 97,
      "duration_steps": 1,
      "bar": 9,
      "position": 1,
      "track_index": 0,
      "track_name": "generated",
      "is_drum": false,
      "harmony": "unknown"
    },
    {
      "pitch": 87,
      "velocity": 104,
      "instrument": 0,
      "channel": 0,
      "start_step": 98,
      "duration_steps": 1,
      "bar": 9,
      "position": 2,
      "track_index": 0,
      "track_name": "generated",
      "is_drum": false,
      "harmony": "unknown"
    },
    {
      "pitch": 58,
      "velocity": 104,
      "instrument": 0,
      "channel": 0,
      "start_step": 98,
      "duration_steps": 1,
      "bar": 9,
      "position": 2,
      "track_index": 0,
      "track_name": "generated",
      "is_drum": false,
      "harmony": "unknown"
    },
    {
      "pitch": 78,
      "velocity": 104,
      "instrument": 0,
      "channel": 0,
      "start_step": 108,
      "duration_steps": 1,
      "bar": 10,
      "position": 0,
      "track_index": 0,
      "track_name": "generated",
      "is_drum": false,
      "harmony": "unknown"
    },
    {
      "pitch": 77,
      "velocity": 104,
      "instrument": 0,
      "channel": 0,
      "start_step": 109,
      "duration_steps": 1,
      "bar": 10,
      "position": 1,
      "track_index": 0,
      "track_name": "generated",
      "is_drum": false,
      "harmony": "unknown"
    },
    {
      "pitch": 44,
      "velocity": 104,
      "instrument": 0,
      "channel": 0,
      "start_step": 110,
      "duration_steps": 2,
      "bar": 10,
      "position": 2,
      "track_index": 0,
      "track_name": "generated",
      "is_drum": false,
      "harmony": "unknown"
    },
    {
      "pitch": 58,
      "velocity": 104,
      "instrument": 0,
      "channel": 0,
      "start_step": 110,
      "duration_steps": 1,
      "bar": 10,
      "position": 2,
      "track_index": 0,
      "track_name": "generated",
      "is_drum": false,
      "harmony": "unknown"
    },
    {
      "pitch": 65,
      "velocity": 104,
      "instrument": 0,
      "channel": 0,
      "start_step": 112,
      "duration_steps": 1,
      "bar": 10,
      "position": 4,
      "track_index": 0,
      "track_name": "generated",
      "is_drum": false,
      "harmony": "unknown"
    },
    {
      "pitch": 63,
      "velocity": 104,
      "instrument": 0,
      "channel": 0,
      "start_step": 112,
      "duration_steps": 1,
      "bar": 10,
      "position": 4,
      "track_index": 0,
      "track_name": "generated",
      "is_drum": false,
      "harmony": "unknown"
    },
    {
      "pitch": 49,
      "velocity": 104,
      "instrument": 0,
      "channel": 0,
      "start_step": 112,
      "duration_steps": 1,
      "bar": 10,
      "position": 4,
      "track_index": 0,
      "track_name": "generated",
      "is_drum": false,
      "harmony": "unknown"
    },
    {
      "pitch": 77,
      "velocity": 104,
      "instrument": 0,
      "channel": 0,
      "start_step": 112,
      "duration_steps": 1,
      "bar": 10,
      "position": 4,
      "track_index": 0,
      "track_name": "generated",
      "is_drum": false,
      "harmony": "unknown"
    },
    {
      "pitch": 44,
      "velocity": 104,
      "instrument": 0,
      "channel": 0,
      "start_step": 113,
      "duration_steps": 1,
      "bar": 10,
      "position": 5,
      "track_index": 0,
      "track_name": "generated",
      "is_drum": false,
      "harmony": "unknown"
    },
    {
      "pitch": 40,
      "velocity": 104,
      "instrument": 0,
      "channel": 0,
      "start_step": 124,
      "duration_steps": 1,
      "bar": 11,
      "position": 4,
      "track_index": 0,
      "track_name": "generated",
      "is_drum": false,
      "harmony": "unknown"
    },
    {
      "pitch": 75,
      "velocity": 104,
      "instrument": 0,
      "channel": 0,
      "start_step": 125,
      "duration_steps": 1,
      "bar": 11,
      "position": 5,
      "track_index": 0,
      "track_name": "generated",
      "is_drum": false,
      "harmony": "unknown"
    },
    {
      "pitch": 56,
      "velocity": 104,
      "instrument": 0,
      "channel": 0,
      "start_step": 127,
      "duration_steps": 1,
      "bar": 11,
      "position": 7,
      "track_index": 0,
      "track_name": "generated",
      "is_drum": false,
      "harmony": "unknown"
    },
    {
      "pitch": 87,
      "velocity": 104,
      "instrument": 0,
      "channel": 0,
      "start_step": 127,
      "duration_steps": 1,
      "bar": 11,
      "position": 7,
      "track_index": 0,
      "track_name": "generated",
      "is_drum": false,
      "harmony": "unknown"
    },
    {
      "pitch": 58,
      "velocity": 104,
      "instrument": 0,
      "channel": 0,
      "start_step": 127,
      "duration_steps": 1,
      "bar": 11,
      "position": 7,
      "track_index": 0,
      "track_name": "generated",
      "is_drum": false,
      "harmony": "unknown"
    },
    {
      "pitch": 56,
      "velocity": 104,
      "instrument": 0,
      "channel": 0,
      "start_step": 127,
      "duration_steps": 1,
      "bar": 11,
      "position": 7,
      "track_index": 0,
      "track_name": "generated",
      "is_drum": false,
      "harmony": "unknown"
    },
    {
      "pitch": 56,
      "velocity": 104,
      "instrument": 0,
      "channel": 0,
      "start_step": 132,
      "duration_steps": 1,
      "bar": 12,
      "position": 0,
      "track_index": 0,
      "track_name": "generated",
      "is_drum": false,
      "harmony": "unknown"
    },
    {
      "pitch": 68,
      "velocity": 104,
      "instrument": 0,
      "channel": 0,
      "start_step": 133,
      "duration_steps": 1,
      "bar": 12,
      "position": 1,
      "track_index": 0,
      "track_name": "generated",
      "is_drum": false,
      "harmony": "unknown"
    },
    {
      "pitch": 83,
      "velocity": 104,
      "instrument": 0,
      "channel": 0,
      "start_step": 133,
      "duration_steps": 1,
      "bar": 12,
      "position": 1,
      "track_index": 0,
      "track_name": "generated",
      "is_drum": false,
      "harmony": "unknown"
    },
    {
      "pitch": 74,
      "velocity": 104,
      "instrument": 0,
      "channel": 0,
      "start_step": 133,
      "duration_steps": 1,
      "bar": 12,
      "position": 1,
      "track_index": 0,
      "track_name": "generated",
      "is_drum": false,
      "harmony": "unknown"
    },
    {
      "pitch": 68,
      "velocity": 104,
      "instrument": 0,
      "channel": 0,
      "start_step": 134,
      "duration_steps": 2,
      "bar": 12,
      "position": 2,
      "track_index": 0,
      "track_name": "generated",
      "is_drum": false,
      "harmony": "unknown"
    },
    {
      "pitch": 58,
      "velocity": 104,
      "instrument": 0,
      "channel": 0,
      "start_step": 134,
      "duration_steps": 1,
      "bar": 12,
      "position": 2,
      "track_index": 0,
      "track_name": "generated",
      "is_drum": false,
      "harmony": "unknown"
    },
    {
      "pitch": 82,
      "velocity": 104,
      "instrument": 0,
      "channel": 0,
      "start_step": 134,
      "duration_steps": 1,
      "bar": 12,
      "position": 2,
      "track_index": 0,
      "track_name": "generated",
      "is_drum": false,
      "harmony": "unknown"
    },
    {
      "pitch": 44,
      "velocity": 104,
      "instrument": 0,
      "channel": 0,
      "start_step": 134,
      "duration_steps": 1,
      "bar": 12,
      "position": 2,
      "track_index": 0,
      "track_name": "generated",
      "is_drum": false,
      "harmony": "unknown"
    },
    {
      "pitch": 73,
      "velocity": 104,
      "instrument": 0,
      "channel": 0,
      "start_step": 135,
      "duration_steps": 1,
      "bar": 12,
      "position": 3,
      "track_index": 0,
      "track_name": "generated",
      "is_drum": false,
      "harmony": "unknown"
    },
    {
      "pitch": 57,
      "velocity": 104,
      "instrument": 0,
      "channel": 0,
      "start_step": 136,
      "duration_steps": 2,
      "bar": 12,
      "position": 4,
      "track_index": 0,
      "track_name": "generated",
      "is_drum": false,
      "harmony": "unknown"
    },
    {
      "pitch": 77,
      "velocity": 104,
      "instrument": 0,
      "channel": 0,
      "start_step": 137,
      "duration_steps": 1,
      "bar": 12,
      "position": 5,
      "track_index": 0,
      "track_name": "generated",
      "is_drum": false,
      "harmony": "unknown"
    },
    {
      "pitch": 56,
      "velocity": 56,
      "instrument": 0,
      "channel": 0,
      "start_step": 138,
      "duration_steps": 1,
      "bar": 12,
      "position": 6,
      "track_index": 0,
      "track_name": "generated",
      "is_drum": false,
      "harmony": "unknown"
    },
    {
      "pitch": 87,
      "velocity": 56,
      "instrument": 0,
      "channel": 0,
      "start_step": 138,
      "duration_steps": 1,
      "bar": 12,
      "position": 6,
      "track_index": 0,
      "track_name": "generated",
      "is_drum": false,
      "harmony": "unknown"
    },
    {
      "pitch": 73,
      "velocity": 56,
      "instrument": 0,
      "channel": 0,
      "start_step": 138,
      "duration_steps": 1,
      "bar": 12,
      "position": 6,
      "track_index": 0,
      "track_name": "generated",
      "is_drum": false,
      "harmony": "unknown"
    },
    {
      "pitch": 65,
      "velocity": 56,
      "instrument": 0,
      "channel": 0,
      "start_step": 139,
      "duration_steps": 2,
      "bar": 12,
      "position": 7,
      "track_index": 0,
      "track_name": "generated",
      "is_drum": false,
      "harmony": "unknown"
    },
    {
      "pitch": 85,
      "velocity": 56,
      "instrument": 0,
      "channel": 0,
      "start_step": 139,
      "duration_steps": 1,
      "bar": 12,
      "position": 7,
      "track_index": 0,
      "track_name": "generated",
      "is_drum": false,
      "harmony": "unknown"
    },
    {
      "pitch": 57,
      "velocity": 40,
      "instrument": 0,
      "channel": 0,
      "start_step": 139,
      "duration_steps": 1,
      "bar": 12,
      "position": 7,
      "track_index": 0,
      "track_name": "generated",
      "is_drum": false,
      "harmony": "unknown"
    },
    {
      "pitch": 31,
      "velocity": 40,
      "instrument": 0,
      "channel": 0,
      "start_step": 139,
      "duration_steps": 1,
      "bar": 12,
      "position": 7,
      "track_index": 0,
      "track_name": "generated",
      "is_drum": false,
      "harmony": "unknown"
    },
    {
      "pitch": 50,
      "velocity": 40,
      "instrument": 0,
      "channel": 0,
      "start_step": 139,
      "duration_steps": 4,
      "bar": 12,
      "position": 7,
      "track_index": 0,
      "track_name": "generated",
      "is_drum": false,
      "harmony": "unknown"
    },
    {
      "pitch": 63,
      "velocity": 40,
      "instrument": 0,
      "channel": 0,
      "start_step": 144,
      "duration_steps": 1,
      "bar": 13,
      "position": 0,
      "track_index": 0,
      "track_name": "generated",
      "is_drum": false,
      "harmony": "unknown"
    },
    {
      "pitch": 55,
      "velocity": 40,
      "instrument": 0,
      "channel": 0,
      "start_step": 144,
      "duration_steps": 1,
      "bar": 13,
      "position": 0,
      "track_index": 0,
      "track_name": "generated",
      "is_drum": false,
      "harmony": "unknown"
    },
    {
      "pitch": 68,
      "velocity": 40,
      "instrument": 0,
      "channel": 0,
      "start_step": 145,
      "duration_steps": 4,
      "bar": 13,
      "position": 1,
      "track_index": 0,
      "track_name": "generated",
      "is_drum": false,
      "harmony": "unknown"
    },
    {
      "pitch": 64,
      "velocity": 40,
      "instrument": 0,
      "channel": 0,
      "start_step": 146,
      "duration_steps": 4,
      "bar": 13,
      "position": 2,
      "track_index": 0,
      "track_name": "generated",
      "is_drum": false,
      "harmony": "unknown"
    },
    {
      "pitch": 68,
      "velocity": 40,
      "instrument": 0,
      "channel": 0,
      "start_step": 146,
      "duration_steps": 1,
      "bar": 13,
      "position": 2,
      "track_index": 0,
      "track_name": "generated",
      "is_drum": false,
      "harmony": "unknown"
    },
    {
      "pitch": 77,
      "velocity": 40,
      "instrument": 0,
      "channel": 0,
      "start_step": 146,
      "duration_steps": 1,
      "bar": 13,
      "position": 2,
      "track_index": 0,
      "track_name": "generated",
      "is_drum": false,
      "harmony": "unknown"
    },
    {
      "pitch": 69,
      "velocity": 40,
      "instrument": 0,
      "channel": 0,
      "start_step": 147,
      "duration_steps": 1,
      "bar": 13,
      "position": 3,
      "track_index": 0,
      "track_name": "generated",
      "is_drum": false,
      "harmony": "unknown"
    },
    {
      "pitch": 59,
      "velocity": 40,
      "instrument": 0,
      "channel": 0,
      "start_step": 148,
      "duration_steps": 1,
      "bar": 13,
      "position": 4,
      "track_index": 0,
      "track_name": "generated",
      "is_drum": false,
      "harmony": "unknown"
    },
    {
      "pitch": 68,
      "velocity": 40,
      "instrument": 0,
      "channel": 0,
      "start_step": 148,
      "duration_steps": 1,
      "bar": 13,
      "position": 4,
      "track_index": 0,
      "track_name": "generated",
      "is_drum": false,
      "harmony": "unknown"
    },
    {
      "pitch": 63,
      "velocity": 40,
      "instrument": 0,
      "channel": 0,
      "start_step": 148,
      "duration_steps": 1,
      "bar": 13,
      "position": 4,
      "track_index": 0,
      "track_name": "generated",
      "is_drum": false,
      "harmony": "unknown"
    },
    {
      "pitch": 68,
      "velocity": 40,
      "instrument": 0,
      "channel": 0,
      "start_step": 148,
      "duration_steps": 1,
      "bar": 13,
      "position": 4,
      "track_index": 0,
      "track_name": "generated",
      "is_drum": false,
      "harmony": "unknown"
    },
    {
      "pitch": 51,
      "velocity": 72,
      "instrument": 0,
      "channel": 0,
      "start_step": 149,
      "duration_steps": 1,
      "bar": 13,
      "position": 5,
      "track_index": 0,
      "track_name": "generated",
      "is_drum": false,
      "harmony": "unknown"
    },
    {
      "pitch": 83,
      "velocity": 72,
      "instrument": 0,
      "channel": 0,
      "start_step": 149,
      "duration_steps": 1,
      "bar": 13,
      "position": 5,
      "track_index": 0,
      "track_name": "generated",
      "is_drum": false,
      "harmony": "unknown"
    },
    {
      "pitch": 53,
      "velocity": 72,
      "instrument": 0,
      "channel": 0,
      "start_step": 149,
      "duration_steps": 1,
      "bar": 13,
      "position": 5,
      "track_index": 0,
      "track_name": "generated",
      "is_drum": false,
      "harmony": "unknown"
    },
    {
      "pitch": 77,
      "velocity": 72,
      "instrument": 0,
      "channel": 0,
      "start_step": 149,
      "duration_steps": 1,
      "bar": 13,
      "position": 5,
      "track_index": 0,
      "track_name": "generated",
      "is_drum": false,
      "harmony": "unknown"
    },
    {
      "pitch": 40,
      "velocity": 72,
      "instrument": 0,
      "channel": 0,
      "start_step": 150,
      "duration_steps": 1,
      "bar": 13,
      "position": 6,
      "track_index": 0,
      "track_name": "generated",
      "is_drum": false,
      "harmony": "unknown"
    },
    {
      "pitch": 52,
      "velocity": 72,
      "instrument": 0,
      "channel": 0,
      "start_step": 150,
      "duration_steps": 1,
      "bar": 13,
      "position": 6,
      "track_index": 0,
      "track_name": "generated",
      "is_drum": false,
      "harmony": "unknown"
    },
    {
      "pitch": 64,
      "velocity": 72,
      "instrument": 0,
      "channel": 0,
      "start_step": 150,
      "duration_steps": 1,
      "bar": 13,
      "position": 6,
      "track_index": 0,
      "track_name": "generated",
      "is_drum": false,
      "harmony": "unknown"
    }
  ],
  "phrase_boundaries": [
    1,
    5,
    6,
    7
  ],
  "source_path": null,
  "metadata": {
    "prompt_piece_id": "schubert__impromptu_op_90_d_899__4__midi_score",
    "generated": true
  },
  "key": "Ab:major",
  "chords": []
}