{
  "piece_id": "mozart__piano_sonatas__8_1__midi_score",
  "resolution": "sixteenth",
  "steps_per_beat": 4,
  "bar_steps": 16,
  "time_signature": "4/4",
  "tempo_bpm": 120.0,
  "note_events": [
    {
      "pitch": 57,
      "velocity": 96,
      "instrument": 0,
      "channel": 0,
      "start_step": 0,
      "duration_steps": 2,
      "bar": 1,
      "position": 0,
      "track_index": 1,
      "track_name": "track_1",
      "is_drum": false,
      "harmony": "E:maj"
    },
    {
      "pitch": 60,
      "velocity": 96,
      "instrument": 0,
      "channel": 0,
      "start_step": 0,
      "duration_steps": 2,
      "bar": 1,
      "position": 0,
      "track_index": 1,
      "track_name": "track_1",
      "is_drum": false,
      "harmony": "E:maj"
    },
    {
      "pitch": 64,
      "velocity": 96,
      "instrument": 0,
      "channel": 0,
      "start_step": 0,
      "duration_steps": 2,
      "bar": 1,
      "position": 0,
      "track_index": 1,
      "track_name": "track_1",
      "is_drum": false,
      "harmony": "E:maj"
    },
    {
      "pitch": 75,
      "velocity": 96,
      "instrument": 0,
      "channel": 0,
      "start_step": 0,
      "duration_steps": 2,
      "bar": 1,
      "position": 0,
      "track_index": 0,
      "track_name": "track_0",
      "is_drum": false,
      "harmony": "E:maj"
    },
    {
      "pitch": 57,
      "velocity": 96,
      "instrument": 0,
      "channel": 0,
      "start_step": 2,
      "duration_steps": 2,
      "bar": 1,
      "position": 2,
      "track_index": 1,
      "track_name": "track_1",
      "is_drum": false,
      "harmony": "E:maj"
    },
    {
      "pitch": 60,
      "velocity": 96,
      "instrument": 0,
      "channel": 0,
      "start_step": 2,
      "duration_steps": 2,
      "bar": 1,
      "position": 2,
      "track_index": 1,
      "track_name": "track_1",
      "is_drum": false,
      "harmony": "E:maj"
    },
    {
      "pitch": 64,
      "velocity": 96,
      "instrument": 0,
      "channel": 0,
      "start_step": 2,
      "duration_steps": 2,
      "bar": 1,
      "position": 2,
      "track_index": 1,
      "track_name": "track_1",
      "is_drum": false,
      "harmony": "E:maj"
    },
    {
      "pitch": 76,
      "velocity": 96,
      "instrument": 0,
      "channel": 0,
      "start_step": 2,
      "duration_steps": 2,
      "bar": 1,
      "position": 2,
      "track_index": 0,
      "track_name": "track_0",
      "is_drum": false,
      "harmony": "E:maj"
    },
    {
      "pitch": 57,
      "velocity": 96,
      "instrument": 0,
      "channel": 0,
      "start_step": 4,
      "duration_steps": 2,
      "bar": 1,
      "position": 4,
      "track_index": 1,
      "track_name": "track_1",
      "is_drum": false,
      "harmony": "E:maj"
    },
    {
      "pitch": 60,
      "velocity": 96,
      "instrument": 0,
      "channel": 0,
      "start_step": 4,
      "duration_steps": 2,
      "bar": 1,
      "position": 4,
      "track_index": 1,
      "track_name": "track_1",
      "is_drum": false,
      "harmony": "E:maj"
    },
    {
      "pitch": 64,
      "velocity": 96,
      "instrument": 0,
      "channel": 0,
      "start_step": 4,
      "duration_steps": 2,
      "bar": 1,
      "position": 4,
      "track_index": 1,
      "track_name": "track_1",
      "is_drum": false,
      "harmony": "E:maj"
    },
    {
      "pitch": 76,
      "velocity": 96,
      "instrument": 0,
      "channel": 0,
      "start_step": 4,
      "duration_steps": 3,
      "bar": 1,
      "position": 4,
      "track_index": 0,
      "track_name": "track_0",
      "is_drum": false,
      "harmony": "E:maj"
    },
    {
      "pitch": 57,
      "velocity": 96,
      "instrument": 0,
      "channel": 0,
      "start_step": 6,
      "duration_steps": 2,
      "bar": 1,
      "position": 6,
      "track_index": 1,
      "track_name": "track_1",
      "is_drum": false,
      "harmony": "E:maj"
    },
    {
      "pitch": 60,
      "velocity": 96,
      "instrument": 0,
      "channel": 0,
      "start_step": 6,
      "duration_steps": 2,
      "bar": 1,
      "position": 6,
      "track_index": 1,
      "track_name": "track_1",
      "is_drum": false,
      "harmony": "E:maj"
    },
    {
      "pitch": 64,
      "velocity": 96,
      "instrument": 0,
      "channel": 0,
      "start_step": 6,
      "duration_steps": 2,
      "bar": 1,
      "position": 6,
      "track_index": 1,
      "track_name": "track_1",
      "is_drum": false,
      "harmony": "E:maj"
    },
    {
      "pitch": 76,
      "velocity": 96,
      "instrument": 0,
      "channel": 0,
      "start_step": 7,
      "duration_steps": 1,
      "bar": 1,
      "position": 7,
      "track_index": 0,
      "track_name": "track_0",
      "is_drum": false,
      "harmony": "E:maj"
    },
    {
      "pitch": 57,
      "velocity": 96,
      "instrument": 0,
      "channel": 0,
      "start_step": 8,
      "duration_steps": 2,
      "bar": 1,
      "position": 8,
      "track_index": 1,
      "track_name": "track_1",
      "is_drum": false,
      "harmony": "E:maj"
    },
    {
      "pitch": 60,
      "velocity": 96,
      "instrument": 0,
      "channel": 0,
      "start_step": 8,
      "duration_steps": 2,
      "bar": 1,
      "position": 8,
      "track_index": 1,
      "track_name": "track_1",
      "is_drum": false,
      "harmony": "E:maj"
    },
    {
      "pitch": 64,
      "velocity": 96,
      "instrument": 0,
      "channel": 0,
      "start_step": 8,
      "duration_steps": 2,
      "bar": 1,
      "position": 8,
      "track_index": 1,
      "track_name": "track_1",
      "is_drum": false,
      "harmony": "E:maj"
    },
    {
      "pitch": 76,
      "velocity": 96,
      "instrument": 0,
      "channel": 0,
      "start_step": 8,
      "duration_steps": 4,
      "bar": 1,
      "position": 8,
      "track_index": 0,
      "track_name": "track_0",
      "is_drum": false,
      "harmony": "E:maj"
    },
    {
      "pitch": 57,
      "velocity": 96,
      "instrument": 0,
      "channel": 0,
      "start_step": 10,
      "duration_steps": 2,
      "bar": 1,
      "position": 10,
      "track_index": 1,
      "track_name": "track_1",
      "is_drum": false,
      "harmony": "E:maj"
    },
    {
      "pitch": 60,
      "velocity": 96,
      "instrument": 0,
      "channel": 0,
      "start_step": 10,
      "duration_steps": 2,
      "bar": 1,
      "position": 10,
      "track_index": 1,
      "track_name": "track_1",
      "is_drum": false,
      "harmony": "E:maj"
    },
    {
      "pitch": 64,
      "velocity": 96,
      "instrument": 0,
      "channel": 0,
      "start_step": 10,
      "duration_steps": 2,
      "bar": 1,
      "position": 10,
      "track_index": 1,
      "track_name": "track_1",
      "is_drum": false,
      "harmony": "E:maj"
    },
    {
      "pitch": 57,
      "velocity": 96,
      "instrument": 0,
      "channel": 0,
      "start_step": 12,
      "duration_steps": 2,
      "bar": 1,
      "position": 12,
      "track_index": 1,
      "track_name": "track_1",
      "is_drum": false,
      "harmony": "E:maj"
    },
    {
      "pitch": 60,
      "velocity": 96,
      "instrument": 0,
      "channel": 0,
      "start_step": 12,
      "duration_steps": 2,
      "bar": 1,
      "position": 12,
      "track_index": 1,
      "track_name": "track_1",
      "is_drum": false,
      "harmony": "E:maj"
    },
    {
      "pitch": 64,
      "velocity": 96,
      "instrument": 0,
      "channel": 0,
      "start_step": 12,
      "duration_steps": 2,
      "bar": 1,
      "position": 12,
      "track_index": 1,
      "track_name": "track_1",
      "is_drum": false,
      "harmony": "E:maj"
    },
    {
      "pitch": 72,
      "velocity": 96,
      "instrument": 0,
      "channel": 0,
      "start_step": 12,
      "duration_steps": 3,
      "bar": 1,
      "position": 12,
      "track_index": 0,
      "track_name": "track_0",
      "is_drum": false,
      "harmony": "E:maj"
    },
    {
      "pitch": 57,
      "velocity": 96,
      "instrument": 0,
      "channel": 0,
      "start_step": 14,
      "duration_steps": 2,
      "bar": 1,
      "position": 14,
      "track_index": 1,
      "track_name": "track_1",
      "is_drum": false,
      "harmony": "E:maj"
    },
    {
      "pitch": 60,
      "velocity": 96,
      "instrument": 0,
      "channel": 0,
      "start_step": 14,
      "duration_steps": 2,
      "bar": 1,
      "position": 14,
      "track_index": 1,
      "track_name": "track_1",
      "is_drum": false,
      "harmony": "E:maj"
    },
    {
      "pitch": 64,
      "velocity": 96,
      "instrument": 0,
      "channel": 0,
      "start_step": 14,
      "duration_steps": 2,
      "bar": 1,
      "position": 14,
      "track_index": 1,
      "track_name": "track_1",
      "is_drum": false,
      "harmony": "E:maj"
    },
    {
      "pitch": 69,
      "velocity": 96,
      "instrument": 0,
      "channel": 0,
      "start_step": 15,
      "duration_steps": 1,
      "bar": 1,
      "position": 15,
      "track_index": 0,
      "track_name": "track_0",
      "is_drum": false,
      "harmony": "E:maj"
    },
    {
      "pitch": 57,
      "velocity": 96,
      "instrument": 0,
      "channel": 0,
      "start_step": 16,
      "duration_steps": 2,
      "bar": 2,
      "position": 0,
      "track_index": 1,
      "track_name": "track_1",
      "is_drum": false,
      "harmony": "D:maj"
    },
    {
      "pitch": 59,
      "velocity": 96,
      "instrument": 0,
      "channel": 0,
      "start_step": 16,
      "duration_steps": 2,
      "bar": 2,
      "position": 0,
      "track_index": 1,
      "track_name": "track_1",
      "is_drum": false,
      "harmony": "D:maj"
    },
    {
      "pitch": 62,
      "velocity": 96,
      "instrument": 0,
      "channel": 0,
      "start_step": 16,
      "duration_steps": 2,
      "bar": 2,
      "position": 0,
      "track_index": 1,
      "track_name": "track_1",
      "is_drum": false,
      "harmony": "D:maj"
    },
    {
      "pitch": 64,
      "velocity": 96,
      "instrument": 0,
      "channel": 0,
      "start_step": 16,
      "duration_steps": 2,
      "bar": 2,
      "position": 0,
      "track_index": 1,
      "track_name": "track_1",
      "is_drum": false,
      "harmony": "D:maj"
    },
    {
      "pitch": 69,
      "velocity": 96,
      "instrument": 0,
      "channel": 0,
      "start_step": 16,
      "duration_steps": 2,
      "bar": 2,
      "position": 0,
      "track_index": 0,
      "track_name": "track_0",
      "is_drum": false,
      "harmony": "D:maj"
    },
    {
      "pitch": 57,
      "velocity": 96,
      "instrument": 0,
      "channel": 0,
      "start_step": 18,
      "duration_steps": 2,
      "bar": 2,
      "position": 2,
      "track_index": 1,
      "track_name": "track_1",
      "is_drum": false,
      "harmony": "D:maj"
    },
    {
      "pitch": 59,
      "velocity": 96,
      "instrument": 0,
      "channel": 0,
      "start_step": 18,
      "duration_steps": 2,
      "bar": 2,
      "position": 2,
      "track_index": 1,
      "track_name": "track_1",
      "is_drum": false,
      "harmony": "D:maj"
    },
    {
      "pitch": 62,
      "velocity": 96,
      "instrument": 0,
      "channel": 0,
      "start_step": 18,
      "duration_steps": 2,
      "bar": 2,
      "position": 2,
      "track_index": 1,
      "track_name": "track_1",
      "is_drum": false,
      "harmony": "D:maj"
    },
    {
      "pitch": 64,
      "velocity": 96,
      "instrument": 0,
      "channel": 0,
      "start_step": 18,
      "duration_steps": 2,
      "bar": 2,
      "position": 2,
      "track_index": 1,
      "track_name": "track_1",
      "is_drum": false,
      "harmony": "D:maj"
    },
    {
      "pitch": 68,
      "velocity": 96,
      "instrument": 0,
      "channel": 0,
      "start_step": 18,
      "duration_steps": 2,
      "bar": 2,
      "position": 2,
      "track_index": 0,
      "track_name": "track_0",
      "is_drum": false,
      "harmony": "D:maj"
    },
    {
      "pitch": 57,
      "velocity": 96,
      "instrument": 0,
      "channel": 0,
      "start_step": 20,
      "duration_steps": 2,
      "bar": 2,
      "position": 4,
      "track_index": 1,
      "track_name": "track_1",
      "is_drum": false,
      "harmony": "D:maj"
    },
    {
      "pitch": 59,
      "velocity": 96,
      "instrument": 0,
      "channel": 0,
      "start_step": 20,
      "duration_steps": 2,
      "bar": 2,
      "position": 4,
      "track_index": 1,
      "track_name": "track_1",
      "is_drum": false,
      "harmony": "D:maj"
    },
    {
      "pitch": 62,
      "velocity": 96,
      "instrument": 0,
      "channel": 0,
      "start_step": 20,
      "duration_steps": 2,
      "bar": 2,
      "position": 4,
      "track_index": 1,
      "track_name": "track_1",
      "is_drum": false,
      "harmony": "D:maj"
    },
    {
      "pitch": 64,
      "velocity": 96,
      "instrument": 0,
      "channel": 0,
      "start_step": 20,
      "duration_steps": 2,
      "bar": 2,
      "position": 4,
      "track_index": 1,
      "track_name": "track_1",
      "is_drum": false,
      "harmony": "D:maj"
    },
    {
      "pitch": 68,
      "velocity": 96,
      "instrument": 0,
      "channel": 0,
      "start_step": 20,
      "duration_steps": 8,
      "bar": 2,
      "position": 4,
      "track_index": 0,
      "track_name": "track_0",
      "is_drum": false,
      "harmony": "D:maj"
    },
    {
      "pitch": 57,
      "velocity": 96,
      "instrument": 0,
      "channel": 0,
      "start_step": 22,
      "duration_steps": 2,
      "bar": 2,
      "position": 6,
      "track_index": 1,
      "track_name": "track_1",
      "is_drum": false,
      "harmony": "D:maj"
    },
    {
      "pitch": 59,
      "velocity": 96,
      "instrument": 0,
      "channel": 0,
      "start_step": 22,
      "duration_steps": 2,
      "bar": 2,
      "position": 6,
      "track_index": 1,
      "track_name": "track_1",
      "is_drum": false,
      "harmony": "D:maj"
    },
    {
      "pitch": 62,
      "velocity": 96,
      "instrument": 0,
      "channel": 0,
      "start_step": 22,
      "duration_steps": 2,
      "bar": 2,
      "position": 6,
      "track_index": 1,
      "track_name": "track_1",
      "is_drum": false,
      "harmony": "D:maj"
    },
    {
      "pitch": 64,
      "velocity": 96,
      "instrument": 0,
      "channel": 0,
      "start_step": 22,
      "duration_steps": 2,
      "bar": 2,
      "position": 6,
      "track_index": 1,
      "track_name": "track_1",
      "is_drum": false,
      "harmony": "D:maj"
    },
    {
      "pitch": 57,
      "velocity": 96,
      "instrument": 0,
      "channel": 0,
      "start_step": 24,
      "duration_steps": 2,
      "bar": 2,
      "position": 8,
      "track_index": 1,
      "track_name": "track_1",
      "is_drum": false,
      "harmony": "D:maj"
    },
    {
      "pitch": 59,
      "velocity": 96,
      "instrument": 0,
      "channel": 0,
      "start_step": 24,
      "duration_steps": 2,
      "bar": 2,
      "position": 8,
      "track_index": 1,
      "track_name": "track_1",
      "is_drum": false,
      "harmony": "D:maj"
    },
    {
      "pitch": 62,
      "velocity": 96,
      "instrument": 0,
      "channel": 0,
      "start_step": 24,
      "duration_steps": 2,
      "bar": 2,
      "position": 8,
      "track_index": 1,
      "track_name": "track_1",
      "is_drum": false,
      "harmony": "D:maj"
    },
    {
      "pitch": 64,
      "velocity": 96,
      "instrument": 0,
      "channel": 0,
      "start_step": 24,
      "duration_steps": 2,
      "bar": 2,
      "position": 8,
      "track_index": 1,
      "track_name": "track_1",
      "is_drum": false,
      "harmony": "D:maj"
    },
    {
      "pitch": 57,
      "velocity": 96,
      "instrument": 0,
      "channel": 0,
      "start_step": 26,
      "duration_steps": 2,
      "bar": 2,
      "position": 10,
      "track_index": 1,
      "track_name": "track_1",
      "is_drum": false,
      "harmony": "D:maj"
    },
    {
      "pitch": 59,
      "velocity": 96,
      "instrument": 0,
      "channel": 0,
      "start_step": 26,
      "duration_steps": 2,
      "bar": 2,
      "position": 10,
      "track_index": 1,
      "track_name": "track_1",
      "is_drum": false,
      "harmony": "D:maj"
    },
    {
      "pitch": 62,
      "velocity": 96,
      "instrument": 0,
      "channel": 0,
      "start_step": 26,
      "duration_steps": 2,
      "bar": 2,
      "position": 10,
      "track_index": 1,
      "track_name": "track_1",
      "is_drum": false,
      "harmony": "D:maj"
    },
    {
      "pitch": 64,
      "velocity": 96,
      "instrument": 0,
      "channel": 0,
      "start_step": 26,
      "duration_steps": 2,
      "bar": 2,
      "position": 10,
      "track_index": 1,
      "track_name": "track_1",
      "is_drum": false,
      "harmony": "D:maj"
    },
    {
      "pitch": 57,
      "velocity": 96,
      "instrument": 0,
      "channel": 0,
      "start_step": 28,
      "duration_steps": 2,
      "bar": 2,
      "position": 12,
      "track_index": 1,
      "track_name": "track_1",
      "is_drum": false,
      "harmony": "D:maj"
    },
    {
      "pitch": 59,
      "velocity": 96,
      "instrument": 0,
      "channel": 0,
      "start_step": 28,
      "duration_steps": 2,
      "bar": 2,
      "position": 12,
      "track_index": 1,
      "track_name": "track_1",
      "is_drum": false,
      "harmony": "D:maj"
    },
    {
      "pitch": 62,
      "velocity": 96,
      "instrument": 0,
      "channel": 0,
      "start_step": 28,
      "duration_steps": 2,
      "bar": 2,
      "position": 12,
      "track_index": 1,
      "track_name": "track_1",
      "is_drum": false,
      "harmony": "D:maj"
    },
    {
      "pitch": 64,
      "velocity": 96,
      "instrument": 0,
      "channel": 0,
      "start_step": 28,
      "duration_steps": 2,
      "bar": 2,
      "position": 12,
      "track_index": 1,
      "track_name": "track_1",
      "is_drum": false,
      "harmony": "D:maj"
    },
    {
      "pitch": 74,
      "velocity": 96,
      "instrument": 0,
      "channel": 0,
      "start_step": 28,
      "duration_steps": 3,
      "bar": 2,
      "position": 12,
      "track_index": 0,
      "track_name": "track_0",
      "is_drum": false,
      "harmony": "D:maj"
    },
    {
      "pitch": 57,
      "velocity": 96,
      "instrument": 0,
      "channel": 0,
      "start_step": 30,
      "duration_steps": 2,
      "bar": 2,
      "position": 14,
      "track_index": 1,
      "track_name": "track_1",
      "is_drum": false,
      "harmony": "D:maj"
    },
    {
      "pitch": 59,
      "velocity": 96,
      "instrument": 0,
      "channel": 0,
      "start_step": 30,
      "duration_steps": 2,
      "bar": 2,
      "position": 14,
      "track_index": 1,
      "track_name": "track_1",
      "is_drum": false,
      "harmony": "D:maj"
    },
    {
      "pitch": 62,
      "velocity": 96,
      "instrument": 0,
      "channel": 0,
      "start_step": 30,
      "duration_steps": 2,
      "bar": 2,
      "position": 14,
      "track_index": 1,
      "track_name": "track_1",
      "is_drum": false,
      "harmony": "D:maj"
    },
    {
      "pitch": 64,
      "velocity": 96,
      "instrument": 0,
      "channel": 0,
      "start_step": 30,
      "duration_steps": 2,
      "bar": 2,
      "position": 14,
      "track_index": 1,
      "track_name": "track_1",
      "is_drum": false,
      "harmony": "D:maj"
    },
    {
      "pitch": 71,
      "velocity": 96,
      "instrument": 0,
      "channel": 0,
      "start_step": 31,
      "duration_steps": 1,
      "bar": 2,
      "position": 15,
      "track_index": 0,
      "track_name": "track_0",
      "is_drum": false,
      "harmony": "D:maj"
    },
    {
      "pitch": 57,
      "velocity": 96,
      "instrument": 0,
      "channel": 0,
      "start_step": 32,
      "duration_steps": 2,
      "bar": 3,
      "position": 0,
      "track_index": 1,
      "track_name": "track_1",
      "is_drum": false,
      "harmony": "E:maj"
    },
    {
      "pitch": 60,
      "velocity": 96,
      "instrument": 0,
      "channel": 0,
      "start_step": 32,
      "duration_steps": 2,
      "bar": 3,
      "position": 0,
      "track_index": 1,
      "track_name": "track_1",
      "is_drum": false,
      "harmony": "E:maj"
    },
    {
      "pitch": 64,
      "velocity": 96,
      "instrument": 0,
      "channel": 0,
      "start_step": 32,
      "duration_steps": 2,
      "bar": 3,
      "position": 0,
      "track_index": 1,
      "track_name": "track_1",
      "is_drum": false,
      "harmony": "E:maj"
    },
    {
      "pitch": 76,
      "velocity": 96,
      "instrument": 0,
      "channel": 0,
      "start_step": 32,
      "duration_steps": 4,
      "bar": 3,
      "position": 0,
      "track_index": 0,
      "track_name": "track_0",
      "is_drum": false,
      "harmony": "E:maj"
    },
    {
      "pitch": 57,
      "velocity": 96,
      "instrument": 0,
      "channel": 0,
      "start_step": 34,
      "duration_steps": 2,
      "bar": 3,
      "position": 2,
      "track_index": 1,
      "track_name": "track_1",
      "is_drum": false,
      "harmony": "E:maj"
    },
    {
      "pitch": 60,
      "velocity": 96,
      "instrument": 0,
      "channel": 0,
      "start_step": 34,
      "duration_steps": 2,
      "bar": 3,
      "position": 2,
      "track_index": 1,
      "track_name": "track_1",
      "is_drum": false,
      "harmony": "E:maj"
    },
    {
      "pitch": 64,
      "velocity": 96,
      "instrument": 0,
      "channel": 0,
      "start_step": 34,
      "duration_steps": 2,
      "bar": 3,
      "position": 2,
      "track_index": 1,
      "track_name": "track_1",
      "is_drum": false,
      "harmony": "E:maj"
    },
    {
      "pitch": 57,
      "velocity": 96,
      "instrument": 0,
      "channel": 0,
      "start_step": 36,
      "duration_steps": 2,
      "bar": 3,
      "position": 4,
      "track_index": 1,
      "track_name": "track_1",
      "is_drum": false,
      "harmony": "E:maj"
    },
    {
      "pitch": 60,
      "velocity": 96,
      "instrument": 0,
      "channel": 0,
      "start_step": 36,
      "duration_steps": 2,
      "bar": 3,
      "position": 4,
      "track_index": 1,
      "track_name": "track_1",
      "is_drum": false,
      "harmony": "E:maj"
    },
    {
      "pitch": 64,
      "velocity": 96,
      "instrument": 0,
      "channel": 0,
      "start_step": 36,
      "duration_steps": 2,
      "bar": 3,
      "position": 4,
      "track_index": 1,
      "track_name": "track_1",
      "is_drum": false,
      "harmony": "E:maj"
    },
    {
      "pitch": 76,
      "velocity": 96,
      "instrument": 0,
      "channel": 0,
      "start_step": 36,
      "duration_steps": 3,
      "bar": 3,
      "position": 4,
      "track_index": 0,
      "track_name": "track_0",
      "is_drum": false,
      "harmony": "E:maj"
    },
    {
      "pitch": 57,
      "velocity": 96,
      "instrument": 0,
      "channel": 0,
      "start_step": 38,
      "duration_steps": 2,
      "bar": 3,
      "position": 6,
      "track_index": 1,
      "track_name": "track_1",
      "is_drum": false,
      "harmony": "E:maj"
    },
    {
      "pitch": 60,
      "velocity": 96,
      "instrument": 0,
      "channel": 0,
      "start_step": 38,
      "duration_steps": 2,
      "bar": 3,
      "position": 6,
      "track_index": 1,
      "track_name": "track_1",
      "is_drum": false,
      "harmony": "E:maj"
    },
    {
      "pitch": 64,
      "velocity": 96,
      "instrument": 0,
      "channel": 0,
      "start_step": 38,
      "duration_steps": 2,
      "bar": 3,
      "position": 6,
      "track_index": 1,
      "track_name": "track_1",
      "is_drum": false,
      "harmony": "E:maj"
    },
    {
      "pitch": 76,
      "velocity": 96,
      "instrument": 0,
      "channel": 0,
      "start_step": 39,
      "duration_steps": 1,
      "bar": 3,
      "position": 7,
      "track_index": 0,
      "track_name": "track_0",
      "is_drum": false,
      "harmony": "E:maj"
    },
    {
      "pitch": 57,
      "velocity": 96,
      "instrument": 0,
      "channel": 0,
      "start_step": 40,
      "duration_steps": 2,
      "bar": 3,
      "position": 8,
      "track_index": 1,
      "track_name": "track_1",
      "is_drum": false,
      "harmony": "E:maj"
    },
    {
      "pitch": 60,
      "velocity": 96,
      "instrument": 0,
      "channel": 0,
      "start_step": 40,
      "duration_steps": 2,
      "bar": 3,
      "position": 8,
      "track_index": 1,
      "track_name": "track_1",
      "is_drum": false,
      "harmony": "E:maj"
    },
    {
      "pitch": 64,
      "velocity": 96,
      "instrument": 0,
      "channel": 0,
      "start_step": 40,
      "duration_steps": 2,
      "bar": 3,
      "position": 8,
      "track_index": 1,
      "track_name": "track_1",
      "is_drum": false,
      "harmony": "E:maj"
    },
    {
      "pitch": 76,
      "velocity": 96,
      "instrument": 0,
      "channel": 0,
      "start_step": 40,
      "duration_steps": 2,
      "bar": 3,
      "position": 8,
      "track_index": 0,
      "track_name": "track_0",
      "is_drum": false,
      "harmony": "E:maj"
    },
    {
      "pitch": 57,
      "velocity": 96,
      "instrument": 0,
      "channel": 0,
      "start_step": 42,
      "duration_steps": 2,
      "bar": 3,
      "position": 10,
      "track_index": 1,
      "track_name": "track_1",
      "is_drum": false,
      "harmony": "E:maj"
    },
    {
      "pitch": 60,
      "velocity": 96,
      "instrument": 0,
      "channel": 0,
      "start_step": 42,
      "duration_steps": 2,
      "bar": 3,
      "position": 10,
      "track_index": 1,
      "track_name": "track_1",
      "is_drum": false,
      "harmony": "E:maj"
    },
    {
      "pitch": 64,
      "velocity": 96,
      "instrument": 0,
      "channel": 0,
      "start_step": 42,
      "duration_steps": 2,
      "bar": 3,
      "position": 10,
      "track_index": 1,
      "track_name": "track_1",
      "is_drum": false,
      "harmony": "E:maj"
    },
    {
      "pitch": 77,
      "velocity": 96,
      "instrument": 0,
      "channel": 0,
      "start_step": 42,
      "duration_steps": 1,
      "bar": 3,
      "position": 10,
      "track_index": 0,
      "track_name": "track_0",
      "is_drum": false,
      "harmony": "E:maj"
    },
    {
      "pitch": 76,
      "velocity": 96,
      "instrument": 0,
      "channel": 0,
      "start_step": 43,
      "duration_steps": 1,
      "bar": 3,
      "position": 11,
      "track_index": 0,
      "track_name": "track_0",
      "is_drum": false,
      "harmony": "E:maj"
    },
    {
      "pitch": 57,
      "velocity": 96,
      "instrument": 0,
      "channel": 0,
      "start_step": 44,
      "duration_steps": 2,
      "bar": 3,
      "position": 12,
      "track_index": 1,
      "track_name": "track_1",
      "is_drum": false,
      "harmony": "E:maj"
    },
    {
      "pitch": 60,
      "velocity": 96,
      "instrument": 0,
      "channel": 0,
      "start_step": 44,
      "duration_steps": 2,
      "bar": 3,
      "position": 12,
      "track_index": 1,
      "track_name": "track_1",
      "is_drum": false,
      "harmony": "E:maj"
    },
    {
      "pitch": 64,
      "velocity": 96,
      "instrument": 0,
      "channel": 0,
      "start_step": 44,
      "duration_steps": 2,
      "bar": 3,
      "position": 12,
      "track_index": 1,
      "track_name": "track_1",
      "is_drum": false,
      "harmony": "E:maj"
    },
    {
      "pitch": 74,
      "velocity": 96,
      "instrument": 0,
      "channel": 0,
      "start_step": 44,
      "duration_steps": 1,
      "bar": 3,
      "position": 12,
      "track_index": 0,
      "track_name": "track_0",
      "is_drum": false,
      "harmony": "E:maj"
    },
    {
      "pitch": 72,
      "velocity": 96,
      "instrument": 0,
      "channel": 0,
      "start_step": 45,
      "duration_steps": 1,
      "bar": 3,
      "position": 13,
      "track_index": 0,
      "track_name": "track_0",
      "is_drum": false,
      "harmony": "E:maj"
    },
    {
      "pitch": 57,
      "velocity": 96,
      "instrument": 0,
      "channel": 0,
      "start_step": 46,
      "duration_steps": 2,
      "bar": 3,
      "position": 14,
      "track_index": 1,
      "track_name": "track_1",
      "is_drum": false,
      "harmony": "E:maj"
    },
    {
      "pitch": 60,
      "velocity": 96,
      "instrument": 0,
      "channel": 0,
      "start_step": 46,
      "duration_steps": 2,
      "bar": 3,
      "position": 14,
      "track_index": 1,
      "track_name": "track_1",
      "is_drum": false,
      "harmony": "E:maj"
    },
    {
      "pitch": 64,
      "velocity": 96,
      "instrument": 0,
      "channel": 0,
      "start_step": 46,
      "duration_steps": 2,
      "bar": 3,
      "position": 14,
      "track_index": 1,
      "track_name": "track_1",
      "is_drum": false,
      "harmony": "E:maj"
    },
    {
      "pitch": 71,
      "velocity": 96,
      "instrument": 0,
      "channel": 0,
      "start_step": 46,
      "duration_steps": 1,
      "bar": 3,
      "position": 14,
      "track_index": 0,
      "track_name": "track_0",
      "is_drum": false,
      "harmony": "E:maj"
    },
    {
      "pitch": 69,
      "velocity": 96,
      "instrument": 0,
      "channel": 0,
      "start_step": 47,
      "duration_steps": 1,
      "bar": 3,
      "position": 15,
      "track_index": 0,
      "track_name": "track_0",
      "is_drum": false,
      "harmony": "E:maj"
    },
    {
      "pitch": 57,
      "velocity": 96,
      "instrument": 0,
      "channel": 0,
      "start_step": 48,
      "duration_steps": 2,
      "bar": 4,
      "position": 0,
      "track_index": 1,
      "track_name": "track_1",
      "is_drum": false,
      "harmony": "D:maj"
    },
    {
      "pitch": 59,
      "velocity": 96,
      "instrument": 0,
      "channel": 0,
      "start_step": 48,
      "duration_steps": 2,
      "bar": 4,
      "position": 0,
      "track_index": 1,
      "track_name": "track_1",
      "is_drum": false,
      "harmony": "D:maj"
    },
    {
      "pitch": 62,
      "velocity": 96,
      "instrument": 0,
      "channel": 0,
      "start_step": 48,
      "duration_steps": 2,
      "bar": 4,
      "position": 0,
      "track_index": 1,
      "track_name": "track_1",
      "is_drum": false,
      "harmony": "D:maj"
    },
    {
      "pitch": 64,
      "velocity": 96,
      "instrument": 0,
      "channel": 0,
      "start_step": 48,
      "duration_steps": 2,
      "bar": 4,
      "position": 0,
      "track_index": 1,
      "track_name": "track_1",
      "is_drum": false,
      "harmony": "D:maj"
    },
    {
      "pitch": 69,
      "velocity": 96,
      "instrument": 0,
      "channel": 0,
      "start_step": 48,
      "duration_steps": 2,
      "bar": 4,
      "position": 0,
      "track_index": 0,
      "track_name": "track_0",
      "is_drum": false,
      "harmony": "D:maj"
    },
    {
      "pitch": 57,
      "velocity": 96,
      "instrument": 0,
      "channel": 0,
      "start_step": 50,
      "duration_steps": 2,
      "bar": 4,
      "position": 2,
      "track_index": 1,
      "track_name": "track_1",
      "is_drum": false,
      "harmony": "D:maj"
    },
    {
      "pitch": 59,
      "velocity": 96,
      "instrument": 0,
      "channel": 0,
      "start_step": 50,
      "duration_steps": 2,
      "bar": 4,
      "position": 2,
      "track_index": 1,
      "track_name": "track_1",
      "is_drum": false,
      "harmony": "D:maj"
    },
    {
      "pitch": 62,
      "velocity": 96,
      "instrument": 0,
      "channel": 0,
      "start_step": 50,
      "duration_steps": 2,
      "bar": 4,
      "position": 2,
      "track_index": 1,
      "track_name": "track_1",
      "is_drum": false,
      "harmony": "D:maj"
    },
    {
      "pitch": 64,
      "velocity": 96,
      "instrument": 0,
      "channel": 0,
      "start_step": 50,
      "duration_steps": 2,
      "bar": 4,
      "position": 2,
      "track_index": 1,
      "track_name": "track_1",
      "is_drum": false,
      "harmony": "D:maj"
    },
    {
      "pitch": 68,
      "velocity": 96,
      "instrument": 0,
      "channel": 0,
      "start_step": 50,
      "duration_steps": 2,
      "bar": 4,
      "position": 2,
      "track_index": 0,
      "track_name": "track_0",
      "is_drum": false,
      "harmony": "D:maj"
    },
    {
      "pitch": 57,
      "velocity": 96,
      "instrument": 0,
      "channel": 0,
      "start_step": 52,
      "duration_steps": 2,
      "bar": 4,
      "position": 4,
      "track_index": 1,
      "track_name": "track_1",
      "is_drum": false,
      "harmony": "D:maj"
    },
    {
      "pitch": 59,
      "velocity": 96,
      "instrument": 0,
      "channel": 0,
      "start_step": 52,
      "duration_steps": 2,
      "bar": 4,
      "position": 4,
      "track_index": 1,
      "track_name": "track_1",
      "is_drum": false,
      "harmony": "D:maj"
    },
    {
      "pitch": 62,
      "velocity": 96,
      "instrument": 0,
      "channel": 0,
      "start_step": 52,
      "duration_steps": 2,
      "bar": 4,
      "position": 4,
      "track_index": 1,
      "track_name": "track_1",
      "is_drum": false,
      "harmony": "D:maj"
    },
    {
      "pitch": 64,
      "velocity": 96,
      "instrument": 0,
      "channel": 0,
      "start_step": 52,
      "duration_steps": 2,
      "bar": 4,
      "position": 4,
      "track_index": 1,
      "track_name": "track_1",
      "is_drum": false,
      "harmony": "D:maj"
    },
    {
      "pitch": 68,
      "velocity": 96,
      "instrument": 0,
      "channel": 0,
      "start_step": 52,
      "duration_steps": 8,
      "bar": 4,
      "position": 4,
      "track_index": 0,
      "track_name": "track_0",
      "is_drum": false,
      "harmony": "D:maj"
    },
    {
      "pitch": 57,
      "velocity": 96,
      "instrument": 0,
      "channel": 0,
      "start_step": 54,
      "duration_steps": 2,
      "bar": 4,
      "position": 6,
      "track_index": 1,
      "track_name": "track_1",
      "is_drum": false,
      "harmony": "D:maj"
    },
    {
      "pitch": 59,
      "velocity": 96,
      "instrument": 0,
      "channel": 0,
      "start_step": 54,
      "duration_steps": 2,
      "bar": 4,
      "position": 6,
      "track_index": 1,
      "track_name": "track_1",
      "is_drum": false,
      "harmony": "D:maj"
    },
    {
      "pitch": 62,
      "velocity": 96,
      "instrument": 0,
      "channel": 0,
      "start_step": 54,
      "duration_steps": 2,
      "bar": 4,
      "position": 6,
      "track_index": 1,
      "track_name": "track_1",
      "is_drum": false,
      "harmony": "D:maj"
    },
    {
      "pitch": 64,
      "velocity": 96,
      "instrument": 0,
      "channel": 0,
      "start_step": 54,
      "duration_steps": 2,
      "bar": 4,
      "position": 6,
      "track_index": 1,
      "track_name": "track_1",
      "is_drum": false,
      "harmony": "D:maj"
    },
    {
      "pitch": 57,
      "velocity": 96,
      "instrument": 0,
      "channel": 0,
      "start_step": 56,
      "duration_steps": 2,
      "bar": 4,
      "position": 8,
      "track_index": 1,
      "track_name": "track_1",
      "is_drum": false,
      "harmony": "D:maj"
    },
    {
      "pitch": 59,
      "velocity": 96,
      "instrument": 0,
      "channel": 0,
      "start_step": 56,
      "duration_steps": 2,
      "bar": 4,
      "position": 8,
      "track_index": 1,
      "track_name": "track_1",
      "is_drum": false,
      "harmony": "D:maj"
    },
    {
      "pitch": 62,
      "velocity": 96,
      "instrument": 0,
      "channel": 0,
      "start_step": 56,
      "duration_steps": 2,
      "bar": 4,
      "position": 8,
      "track_index": 1,
      "track_name": "track_1",
      "is_drum": false,
      "harmony": "D:maj"
    },
    {
      "pitch": 64,
      "velocity": 96,
      "instrument": 0,
      "channel": 0,
      "start_step": 56,
      "duration_steps": 2,
      "bar": 4,
      "position": 8,
      "track_index": 1,
      "track_name": "track_1",
      "is_drum": false,
      "harmony": "D:maj"
    },
    {
      "pitch": 57,
      "velocity": 96,
      "instrument": 0,
      "channel": 0,
      "start_step": 58,
      "duration_steps": 2,
      "bar": 4,
      "position": 10,
      "track_index": 1,
      "track_name": "track_1",
      "is_drum": false,
      "harmony": "D:maj"
    },
    {
      "pitch": 59,
      "velocity": 96,
      "instrument": 0,
      "channel": 0,
      "start_step": 58,
      "duration_steps": 2,
      "bar": 4,
      "position": 10,
      "track_index": 1,
      "track_name": "track_1",
      "is_drum": false,
      "harmony": "D:maj"
    },
    {
      "pitch": 62,
      "velocity": 96,
      "instrument": 0,
      "channel": 0,
      "start_step": 58,
      "duration_steps": 2,
      "bar": 4,
      "position": 10,
      "track_index": 1,
      "track_name": "track_1",
      "is_drum": false,
      "harmony": "D:maj"
    },
    {
      "pitch": 64,
      "velocity": 96,
      "instrument": 0,
      "channel": 0,
      "start_step": 58,
      "duration_steps": 2,
      "bar": 4,
      "position": 10,
      "track_index": 1,
      "track_name": "track_1",
      "is_drum": false,
      "harmony": "D:maj"
    },
    {
      "pitch": 57,
      "velocity": 96,
      "instrument": 0,
      "channel": 0,
      "start_step": 60,
      "duration_steps": 2,
      "bar": 4,
      "position": 12,
      "track_index": 1,
      "track_name": "track_1",
      "is_drum": false,
      "harmony": "D:maj"
    },
    {
      "pitch": 59,
      "velocity": 96,
      "instrument": 0,
      "channel": 0,
      "start_step": 60,
      "duration_steps": 2,
      "bar": 4,
      "position": 12,
      "track_index": 1,
      "track_name": "track_1",
      "is_drum": false,
      "harmony": "D:maj"
    },
    {
      "pitch": 62,
      "velocity": 96,
      "instrument": 0,
      "channel": 0,
      "start_step": 60,
      "duration_steps": 2,
      "bar": 4,
      "position": 12,
      "track_index": 1,
      "track_name": "track_1",
      "is_drum": false,
      "harmony": "D:maj"
    },
    {
      "pitch": 64,
      "velocity": 96,
      "instrument": 0,
      "channel": 0,
      "start_step": 60,
      "duration_steps": 2,
      "bar": 4,
      "position": 12,
      "track_index": 1,
      "track_name": "track_1",
      "is_drum": false,
      "harmony": "D:maj"
    },
    {
      "pitch": 74,
      "velocity": 96,
      "instrument": 0,
      "channel": 0,
      "start_step": 60,
      "duration_steps": 3,
      "bar": 4,
      "position": 12,
      "track_index": 0,
      "track_name": "track_0",
      "is_drum": false,
      "harmony": "D:maj"
    },
    {
      "pitch": 57,
      "velocity": 96,
      "instrument": 0,
      "channel": 0,
      "start_step": 62,
      "duration_steps": 2,
      "bar": 4,
      "position": 14,
      "track_index": 1,
      "track_name": "track_1",
      "is_drum": false,
      "harmony": "D:maj"
    },
    {
      "pitch": 59,
      "velocity": 96,
      "instrument": 0,
      "channel": 0,
      "start_step": 62,
      "duration_steps": 2,
      "bar": 4,
      "position": 14,
      "track_index": 1,
      "track_name": "track_1",
      "is_drum": false,
      "harmony": "D:maj"
    },
    {
      "pitch": 62,
      "velocity": 96,
      "instrument": 0,
      "channel": 0,
      "start_step": 62,
      "duration_steps": 2,
      "bar": 4,
      "position": 14,
      "track_index": 1,
      "track_name": "track_1",
      "is_drum": false,
      "harmony": "D:maj"
    },
    {
      "pitch": 64,
      "velocity": 96,
      "instrument": 0,
      "channel": 0,
      "start_step": 62,
      "duration_steps": 2,
      "bar": 4,
      "position": 14,
      "track_index": 1,
      "track_name": "track_1",
      "is_drum": false,
      "harmony": "D:maj"
    },
    {
      "pitch": 71,
      "velocity": 96,
      "instrument": 0,
      "channel": 0,
      "start_step": 63,
      "duration_steps": 1,
      "bar": 4,
      "position": 15,
      "track_index": 0,
      "track_name": "track_0",
      "is_drum": false,
      "harmony": "D:maj"
    },
    {
      "pitch": 57,
      "velocity": 96,
      "instrument": 0,
      "channel": 0,
      "start_step": 64,
      "duration_steps": 2,
      "bar": 5,
      "position": 0,
      "track_index": 1,
      "track_name": "track_1",
      "is_drum": false,
      "harmony": "C:maj"
    },
    {
      "pitch": 60,
      "velocity": 96,
      "instrument": 0,
      "channel": 0,
      "start_step": 64,
      "duration_steps": 2,
      "bar": 5,
      "position": 0,
      "track_index": 1,
      "track_name": "track_1",
      "is_drum": false,
      "harmony": "C:maj"
    },
    {
      "pitch": 64,
      "velocity": 96,
      "instrument": 0,
      "channel": 0,
      "start_step": 64,
      "duration_steps": 2,
      "bar": 5,
      "position": 0,
      "track_index": 1,
      "track_name": "track_1",
      "is_drum": false,
      "harmony": "C:maj"
    },
    {
      "pitch": 72,
      "velocity": 96,
      "instrument": 0,
      "channel": 0,
      "start_step": 64,
      "duration_steps": 3,
      "bar": 5,
      "position": 0,
      "track_index": 0,
      "track_name": "track_0",
      "is_drum": false,
      "harmony": "C:maj"
    },
    {
      "pitch": 76,
      "velocity": 96,
      "instrument": 0,
      "channel": 0,
      "start_step": 64,
      "duration_steps": 3,
      "bar": 5,
      "position": 0,
      "track_index": 0,
      "track_name": "track_0",
      "is_drum": false,
      "harmony": "C:maj"
    },
    {
      "pitch": 57,
      "velocity": 96,
      "instrument": 0,
      "channel": 0,
      "start_step": 66,
      "duration_steps": 2,
      "bar": 5,
      "position": 2,
      "track_index": 1,
      "track_name": "track_1",
      "is_drum": false,
      "harmony": "C:maj"
    },
    {
      "pitch": 69,
      "velocity": 96,
      "instrument": 0,
      "channel": 0,
      "start_step": 67,
      "duration_steps": 1,
      "bar": 5,
      "position": 3,
      "track_index": 0,
      "track_name": "track_0",
      "is_drum": false,
      "harmony": "C:maj"
    },
    {
      "pitch": 72,
      "velocity": 96,
      "instrument": 0,
      "channel": 0,
      "start_step": 67,
      "duration_steps": 1,
      "bar": 5,
      "position": 3,
      "track_index": 0,
      "track_name": "track_0",
      "is_drum": false,
      "harmony": "C:maj"
    },
    {
      "pitch": 52,
      "velocity": 96,
      "instrument": 0,
      "channel": 0,
      "start_step": 68,
      "duration_steps": 2,
      "bar": 5,
      "position": 4,
      "track_index": 1,
      "track_name": "track_1",
      "is_drum": false,
      "harmony": "C:maj"
    },
    {
      "pitch": 72,
      "velocity": 96,
      "instrument": 0,
      "channel": 0,
      "start_step": 68,
      "duration_steps": 4,
      "bar": 5,
      "position": 4,
      "track_index": 0,
      "track_name": "track_0",
      "is_drum": false,
      "harmony": "C:maj"
    },
    {
      "pitch": 76,
      "velocity": 96,
      "instrument": 0,
      "channel": 0,
      "start_step": 68,
      "duration_steps": 4,
      "bar": 5,
      "position": 4,
      "track_index": 0,
      "track_name": "track_0",
      "is_drum": false,
      "harmony": "C:maj"
    },
    {
      "pitch": 48,
      "velocity": 96,
      "instrument": 0,
      "channel": 0,
      "start_step": 70,
      "duration_steps": 2,
      "bar": 5,
      "position": 6,
      "track_index": 1,
      "track_name": "track_1",
      "is_drum": false,
      "harmony": "C:maj"
    },
    {
      "pitch": 45,
      "velocity": 96,
      "instrument": 0,
      "channel": 0,
      "start_step": 72,
      "duration_steps": 4,
      "bar": 5,
      "position": 8,
      "track_index": 1,
      "track_name": "track_1",
      "is_drum": false,
      "harmony": "C:maj"
    },
    {
      "pitch": 69,
      "velocity": 70,
      "instrument": 0,
      "channel": 0,
      "start_step": 74,
      "duration_steps": 1,
      "bar": 5,
      "position": 10,
      "track_index": 0,
      "track_name": "track_0",
      "is_drum": false,
      "harmony": "C:maj"
    },
    {
      "pitch": 72,
      "velocity": 70,
      "instrument": 0,
      "channel": 0,
      "start_step": 74,
      "duration_steps": 1,
      "bar": 5,
      "position": 10,
      "track_index": 0,
      "track_name": "track_0",
      "is_drum": false,
      "harmony": "C:maj"
    },
    {
      "pitch": 71,
      "velocity": 70,
      "instrument": 0,
      "channel": 0,
      "start_step": 76,
      "duration_steps": 1,
      "bar": 5,
      "position": 12,
      "track_index": 0,
      "track_name": "track_0",
      "is_drum": false,
      "harmony": "C:maj"
    },
    {
      "pitch": 74,
      "velocity": 70,
      "instrument": 0,
      "channel": 0,
      "start_step": 76,
      "duration_steps": 1,
      "bar": 5,
      "position": 12,
      "track_index": 0,
      "track_name": "track_0",
      "is_drum": false,
      "harmony": "C:maj"
    },
    {
      "pitch": 72,
      "velocity": 70,
      "instrument": 0,
      "channel": 0,
      "start_step": 78,
      "duration_steps": 1,
      "bar": 5,
      "position": 14,
      "track_index": 0,
      "track_name": "track_0",
      "is_drum": false,
      "harmony": "C:maj"
    },
    {
      "pitch": 76,
      "velocity": 70,
      "instrument": 0,
      "channel": 0,
      "start_step": 78,
      "duration_steps": 1,
      "bar": 5,
      "position": 14,
      "track_index": 0,
      "track_name": "track_0",
      "is_drum": false,
      "harmony": "C:maj"
    },
    {
      "pitch": 73,
      "velocity": 70,
      "instrument": 0,
      "channel": 0,
      "start_step": 80,
      "duration_steps": 4,
      "bar": 6,
      "position": 0,
      "track_index": 0,
      "track_name": "track_0",
      "is_drum": false,
      "harmony": "D:min"
    },
    {
      "pitch": 76,
      "velocity": 70,
      "instrument": 0,
      "channel": 0,
      "start_step": 80,
      "duration_steps": 4,
      "bar": 6,
      "position": 0,
      "track_index": 0,
      "track_name": "track_0",
      "is_drum": false,
      "harmony": "D:min"
    }
  ],
  "phrase_boundaries": [
    1,
    4
  ],
  "source_path": "Mozart/Piano_Sonatas/8-1/midi_score.mid",
  "metadata": {
    "ticks_per_beat": 480,
    "midi_format": 1,
    "time_signature_changes": 1,
    "tempo_changes": 1,
    "cadence_bars": [
      3,
      9,
      11,
      62,
      63,
      64,
      74,
      76,
      79,
      80,
      82,
      97,
      99,
      101,
      102,
      103,
      104,
      112,
      113,
      116,
      117,
      120,
      125,
      128
    ],
    "global_harmony_vocab": {
      "unknown": 0,
      "C:maj": 1,
      "C#:maj": 2,
      "D:maj": 3,
      "Eb:maj": 4,
      "E:maj": 5,
      "F:maj": 6,
      "F#:maj": 7,
      "G:maj": 8,
      "Ab:maj": 9,
      "A:maj": 10,
      "Bb:maj": 11,
      "B:maj": 12,
      "C:min": 13,
      "C#:min": 14,
      "D:min": 15,
      "Eb:min": 16,
      "E:min": 17,
      "F:min": 18,
      "F#:min": 19,
      "G:min": 20,
      "Ab:min": 21,
      "A:min": 22,
      "Bb:min": 23,
      "B:min": 24
    },
    "dataset_kind": "asap",
    "dataset_source_mode": "score",
    "asap_piece_group": "mozart::piano_sonatas_8_1",
    "composer": "Mozart",
    "title": "Piano_Sonatas_8-1",
    "folder": "Mozart/Piano_Sonatas/8-1",
    "xml_score": "Mozart/Piano_Sonatas/8-1/xml_score.musicxml",
    "midi_score": "Mozart/Piano_Sonatas/8-1/midi_score.mid",
    "midi_performance": "Mozart/Piano_Sonatas/8-1/Bogdanovitch01.mid",
    "annotated_primary_time_signature": "4/4",
    "annotated_key_signature_tonic": 0,
    "annotated_key_signature_accidentals": 0,
    "annotated_beat_count": 531,
    "annotated_downbeat_count": 133,
    "annotated_downbeats_score_map": [
      0,
      1,
      2,
      3,
      4,
      5,
      6,
      7,
      8,
      9,
      10,
      11,
      12,
      13,
      14,
      15,
      16,
      17,
      18,
      19,
      20,
      21,
      22,
      23,
      24,
      25,
      26,
      27,
      28,
      29,
      30,
      31,
      32,
      33,
      34,
      35,
      36,
      37,
      38,
      39,
      40,
      41,
      42,
      43,
      44,
      45,
      46,
      47,
      48,
      49,
      50,
      51,
      52,
      53,
      54,
      55,
      56,
      57,
      58,
      59,
      60,
      61,
      62,
      63,
      64,
      65,
      66,
      67,
      68,
      69,
      70,
      71,
      72,
      73,
      74,
      75,
      76,
      77,
      78,
      79,
      80,
      81,
      82,
      83,
      84,
      85,
      86,
      87,
      88,
      89,
      90,
      91,
      92,
      93,
      94,
      95,
      96,
      97,
      98,
      99,
      100,
      101,
      102,
      103,
      104,
      105,
      106,
      107,
      108,
      109,
      110,
      111,
      112,
      113,
      114,
      115,
      116,
      117,
      118,
      119,
      120,
      121,
      122,
      123,
      124,
      125,
      126,
      127,
      128,
      129,
      130,
      131,
      132
    ],
    "score_and_performance_aligned": true,
    "source_piece_id": "mozart__piano_sonatas__8_1__midi_score",
    "slice_start_event": 0,
    "slice_event_count": 160
  },
  "key": "A:minor",
  "chords": [
    "E:maj",
    "D:maj",
    "E:maj",
    "D:maj",
    "C:maj",
    "D:min",
    "C:maj",
    "C:maj",
    "E:maj",
    "D:min",
    "E:maj",
    "Bb:maj",
    "A:maj",
    "D:maj",
    "D:min",
    "G:maj",
    "C:min",
    "G:maj",
    "C:min",
    "G:maj",
    "G:maj",
    "G:maj",
    "G:maj",
    "D:min",
    "F:maj",
    "C:maj",
    "C:maj",
    "F:maj",
    "E:min",
    "G:maj",
    "C:maj",
    "F:maj",
    "D:min",
    "E:min",
    "G:maj",
    "G:maj",
    "E:min",
    "F:maj",
    "C:maj",
    "A:min",
    "A:min",
    "C:maj",
    "F:maj",
    "G:maj",
    "C:maj",
    "D:min",
    "C:maj",
    "D:min",
    "C:maj",
    "G:maj",
    "F:maj",
    "G:maj",
    "C#:min",
    "E:min",
    "E:min",
    "C:maj",
    "G:min",
    "B:maj",
    "B:maj",
    "B:maj",
    "A:maj",
    "E:maj",
    "E:maj",
    "E:maj",
    "D:maj",
    "A:maj",
    "A:maj",
    "A:maj",
    "G:maj",
    "D:min",
    "C:maj",
    "B:min",
    "G:maj",
    "E:maj",
    "A:min",
    "E:maj",
    "A:min",
    "F:maj",
    "E:maj",
    "E:maj",
    "D:maj",
    "E:maj",
    "D:maj",
    "C:maj",
    "D:min",
    "C:maj",
    "C:maj",
    "A:min",
    "E:min",
    "F:maj",
    "C:maj",
    "D:min",
    "E:min",
    "A:maj",
    "A:maj",
    "A:min",
    "E:maj",
    "A:min",
    "E:maj",
    "A:min",
    "E:maj",
    "E:maj",
    "E:maj",
    "E:maj",
    "A:maj",
    "B:min",
    "A:min",
    "A:min",
    "D:min",
    "C:maj",
    "B:min",
    "E:maj",
    "E:maj",
    "D:min",
    "C:maj",
    "E:maj",
    "E:maj",
    "A:min",
    "D:min",
    "E:maj",
    "F:maj",
    "F:maj",
    "A:min",
    "D:maj",
    "E:maj",
    "D:min",
    "C:min",
    "E:maj",
    "A:min",
    "B:min",
    "A:min",
    "B:min",
    "A:min"
  ]
}