{
  "piece_id": "beethoven__piano_sonatas__24_2__midi_score__sample",
  "resolution": "sixteenth",
  "steps_per_beat": 4,
  "bar_steps": 8,
  "time_signature": "2/4",
  "tempo_bpm": 151.99993920002433,
  "note_events": [
    {
      "pitch": 50,
      "velocity": 104,
      "instrument": 0,
      "channel": 0,
      "start_step": 0,
      "duration_steps": 6,
      "bar": 1,
      "position": 0,
      "track_index": 0,
      "track_name": "generated",
      "is_drum": false,
      "harmony": "unknown"
    },
    {
      "pitch": 54,
      "velocity": 104,
      "instrument": 0,
      "channel": 0,
      "start_step": 0,
      "duration_steps": 6,
      "bar": 1,
      "position": 0,
      "track_index": 0,
      "track_name": "generated",
      "is_drum": false,
      "harmony": "unknown"
    },
    {
      "pitch": 66,
      "velocity": 104,
      "instrument": 0,
      "channel": 0,
      "start_step": 0,
      "duration_steps": 6,
      "bar": 1,
      "position": 0,
      "track_index": 0,
      "track_name": "generated",
      "is_drum": false,
      "harmony": "unknown"
    },
    {
      "pitch": 72,
      "velocity": 104,
      "instrument": 0,
      "channel": 0,
      "start_step": 0,
      "duration_steps": 6,
      "bar": 1,
      "position": 0,
      "track_index": 0,
      "track_name": "generated",
      "is_drum": false,
      "harmony": "unknown"
    },
    {
      "pitch": 49,
      "velocity": 104,
      "instrument": 0,
      "channel": 0,
      "start_step": 6,
      "duration_steps": 2,
      "bar": 1,
      "position": 6,
      "track_index": 0,
      "track_name": "generated",
      "is_drum": false,
      "harmony": "unknown"
    },
    {
      "pitch": 56,
      "velocity": 104,
      "instrument": 0,
      "channel": 0,
      "start_step": 6,
      "duration_steps": 2,
      "bar": 1,
      "position": 6,
      "track_index": 0,
      "track_name": "generated",
      "is_drum": false,
      "harmony": "unknown"
    },
    {
      "pitch": 65,
      "velocity": 104,
      "instrument": 0,
      "channel": 0,
      "start_step": 6,
      "duration_steps": 2,
      "bar": 1,
      "position": 6,
      "track_index": 0,
      "track_name": "generated",
      "is_drum": false,
      "harmony": "unknown"
    },
    {
      "pitch": 73,
      "velocity": 104,
      "instrument": 0,
      "channel": 0,
      "start_step": 6,
      "duration_steps": 2,
      "bar": 1,
      "position": 6,
      "track_index": 0,
      "track_name": "generated",
      "is_drum": false,
      "harmony": "unknown"
    },
    {
      "pitch": 47,
      "velocity": 104,
      "instrument": 0,
      "channel": 0,
      "start_step": 8,
      "duration_steps": 2,
      "bar": 2,
      "position": 0,
      "track_index": 0,
      "track_name": "generated",
      "is_drum": false,
      "harmony": "unknown"
    },
    {
      "pitch": 49,
      "velocity": 104,
      "instrument": 0,
      "channel": 0,
      "start_step": 8,
      "duration_steps": 2,
      "bar": 2,
      "position": 0,
      "track_index": 0,
      "track_name": "generated",
      "is_drum": false,
      "harmony": "unknown"
    },
    {
      "pitch": 65,
      "velocity": 104,
      "instrument": 0,
      "channel": 0,
      "start_step": 8,
      "duration_steps": 2,
      "bar": 2,
      "position": 0,
      "track_index": 0,
      "track_name": "generated",
      "is_drum": false,
      "harmony": "unknown"
    },
    {
      "pitch": 68,
      "velocity": 104,
      "instrument": 0,
      "channel": 0,
      "start_step": 8,
      "duration_steps": 2,
      "bar": 2,
      "position": 0,
      "track_index": 0,
      "track_name": "generated",
      "is_drum": false,
      "harmony": "unknown"
    },
    {
      "pitch": 46,
      "velocity": 56,
      "instrument": 0,
      "channel": 0,
      "start_step": 14,
      "duration_steps": 2,
      "bar": 2,
      "position": 6,
      "track_index": 0,
      "track_name": "generated",
      "is_drum": false,
      "harmony": "unknown"
    },
    {
      "pitch": 49,
      "velocity": 56,
      "instrument": 0,
      "channel": 0,
      "start_step": 14,
      "duration_steps": 2,
      "bar": 2,
      "position": 6,
      "track_index": 0,
      "track_name": "generated",
      "is_drum": false,
      "harmony": "unknown"
    },
    {
      "pitch": 66,
      "velocity": 56,
      "instrument": 0,
      "channel": 0,
      "start_step": 14,
      "duration_steps": 2,
      "bar": 2,
      "position": 6,
      "track_index": 0,
      "track_name": "generated",
      "is_drum": false,
      "harmony": "unknown"
    },
    {
      "pitch": 70,
      "velocity": 56,
      "instrument": 0,
      "channel": 0,
      "start_step": 14,
      "duration_steps": 2,
      "bar": 2,
      "position": 6,
      "track_index": 0,
      "track_name": "generated",
      "is_drum": false,
      "harmony": "unknown"
    },
    {
      "pitch": 44,
      "velocity": 56,
      "instrument": 0,
      "channel": 0,
      "start_step": 16,
      "duration_steps": 3,
      "bar": 3,
      "position": 0,
      "track_index": 0,
      "track_name": "generated",
      "is_drum": false,
      "harmony": "unknown"
    },
    {
      "pitch": 63,
      "velocity": 56,
      "instrument": 0,
      "channel": 0,
      "start_step": 16,
      "duration_steps": 3,
      "bar": 3,
      "position": 0,
      "track_index": 0,
      "track_name": "generated",
      "is_drum": false,
      "harmony": "unknown"
    },
    {
      "pitch": 71,
      "velocity": 56,
      "instrument": 0,
      "channel": 0,
      "start_step": 16,
      "duration_steps": 3,
      "bar": 3,
      "position": 0,
      "track_index": 0,
      "track_name": "generated",
      "is_drum": false,
      "harmony": "unknown"
    },
    {
      "pitch": 46,
      "velocity": 56,
      "instrument": 0,
      "channel": 0,
      "start_step": 19,
      "duration_steps": 1,
      "bar": 3,
      "position": 3,
      "track_index": 0,
      "track_name": "generated",
      "is_drum": false,
      "harmony": "unknown"
    },
    {
      "pitch": 61,
      "velocity": 56,
      "instrument": 0,
      "channel": 0,
      "start_step": 19,
      "duration_steps": 1,
      "bar": 3,
      "position": 3,
      "track_index": 0,
      "track_name": "generated",
      "is_drum": false,
      "harmony": "unknown"
    },
    {
      "pitch": 70,
      "velocity": 56,
      "instrument": 0,
      "channel": 0,
      "start_step": 19,
      "duration_steps": 1,
      "bar": 3,
      "position": 3,
      "track_index": 0,
      "track_name": "generated",
      "is_drum": false,
      "harmony": "unknown"
    },
    {
      "pitch": 47,
      "velocity": 56,
      "instrument": 0,
      "channel": 0,
      "start_step": 20,
      "duration_steps": 1,
      "bar": 3,
      "position": 4,
      "track_index": 0,
      "track_name": "generated",
      "is_drum": false,
      "harmony": "unknown"
    },
    {
      "pitch": 59,
      "velocity": 56,
      "instrument": 0,
      "channel": 0,
      "start_step": 20,
      "duration_steps": 1,
      "bar": 3,
      "position": 4,
      "track_index": 0,
      "track_name": "generated",
      "is_drum": false,
      "harmony": "unknown"
    },
    {
      "pitch": 68,
      "velocity": 56,
      "instrument": 0,
      "channel": 0,
      "start_step": 20,
      "duration_steps": 1,
      "bar": 3,
      "position": 4,
      "track_index": 0,
      "track_name": "generated",
      "is_drum": false,
      "harmony": "unknown"
    },
    {
      "pitch": 48,
      "velocity": 56,
      "instrument": 0,
      "channel": 0,
      "start_step": 22,
      "duration_steps": 1,
      "bar": 3,
      "position": 6,
      "track_index": 0,
      "track_name": "generated",
      "is_drum": false,
      "harmony": "unknown"
    },
    {
      "pitch": 58,
      "velocity": 56,
      "instrument": 0,
      "channel": 0,
      "start_step": 22,
      "duration_steps": 1,
      "bar": 3,
      "position": 6,
      "track_index": 0,
      "track_name": "generated",
      "is_drum": false,
      "harmony": "unknown"
    },
    {
      "pitch": 66,
      "velocity": 56,
      "instrument": 0,
      "channel": 0,
      "start_step": 22,
      "duration_steps": 1,
      "bar": 3,
      "position": 6,
      "track_index": 0,
      "track_name": "generated",
      "is_drum": false,
      "harmony": "unknown"
    },
    {
      "pitch": 49,
      "velocity": 56,
      "instrument": 0,
      "channel": 0,
      "start_step": 24,
      "duration_steps": 4,
      "bar": 4,
      "position": 0,
      "track_index": 0,
      "track_name": "generated",
      "is_drum": false,
      "harmony": "unknown"
    },
    {
      "pitch": 56,
      "velocity": 56,
      "instrument": 0,
      "channel": 0,
      "start_step": 24,
      "duration_steps": 4,
      "bar": 4,
      "position": 0,
      "track_index": 0,
      "track_name": "generated",
      "is_drum": false,
      "harmony": "unknown"
    },
    {
      "pitch": 65,
      "velocity": 56,
      "instrument": 0,
      "channel": 0,
      "start_step": 24,
      "duration_steps": 4,
      "bar": 4,
      "position": 0,
      "track_index": 0,
      "track_name": "generated",
      "is_drum": false,
      "harmony": "unknown"
    },
    {
      "pitch": 64,
      "velocity": 104,
      "instrument": 0,
      "channel": 0,
      "start_step": 24,
      "duration_steps": 6,
      "bar": 4,
      "position": 0,
      "track_index": 0,
      "track_name": "generated",
      "is_drum": false,
      "harmony": "unknown"
    },
    {
      "pitch": 67,
      "velocity": 104,
      "instrument": 0,
      "channel": 0,
      "start_step": 24,
      "duration_steps": 6,
      "bar": 4,
      "position": 0,
      "track_index": 0,
      "track_name": "generated",
      "is_drum": false,
      "harmony": "unknown"
    },
    {
      "pitch": 70,
      "velocity": 104,
      "instrument": 0,
      "channel": 0,
      "start_step": 24,
      "duration_steps": 6,
      "bar": 4,
      "position": 0,
      "track_index": 0,
      "track_name": "generated",
      "is_drum": false,
      "harmony": "unknown"
    },
    {
      "pitch": 73,
      "velocity": 104,
      "instrument": 0,
      "channel": 0,
      "start_step": 24,
      "duration_steps": 6,
      "bar": 4,
      "position": 0,
      "track_index": 0,
      "track_name": "generated",
      "is_drum": false,
      "harmony": "unknown"
    },
    {
      "pitch": 63,
      "velocity": 104,
      "instrument": 0,
      "channel": 0,
      "start_step": 30,
      "duration_steps": 2,
      "bar": 4,
      "position": 6,
      "track_index": 0,
      "track_name": "generated",
      "is_drum": false,
      "harmony": "unknown"
    },
    {
      "pitch": 66,
      "velocity": 104,
      "instrument": 0,
      "channel": 0,
      "start_step": 30,
      "duration_steps": 2,
      "bar": 4,
      "position": 6,
      "track_index": 0,
      "track_name": "generated",
      "is_drum": false,
      "harmony": "unknown"
    },
    {
      "pitch": 71,
      "velocity": 104,
      "instrument": 0,
      "channel": 0,
      "start_step": 30,
      "duration_steps": 2,
      "bar": 4,
      "position": 6,
      "track_index": 0,
      "track_name": "generated",
      "is_drum": false,
      "harmony": "unknown"
    },
    {
      "pitch": 75,
      "velocity": 104,
      "instrument": 0,
      "channel": 0,
      "start_step": 30,
      "duration_steps": 2,
      "bar": 4,
      "position": 6,
      "track_index": 0,
      "track_name": "generated",
      "is_drum": false,
      "harmony": "unknown"
    },
    {
      "pitch": 61,
      "velocity": 104,
      "instrument": 0,
      "channel": 0,
      "start_step": 32,
      "duration_steps": 4,
      "bar": 5,
      "position": 0,
      "track_index": 0,
      "track_name": "generated",
      "is_drum": false,
      "harmony": "unknown"
    },
    {
      "pitch": 64,
      "velocity": 104,
      "instrument": 0,
      "channel": 0,
      "start_step": 32,
      "duration_steps": 4,
      "bar": 5,
      "position": 0,
      "track_index": 0,
      "track_name": "generated",
      "is_drum": false,
      "harmony": "unknown"
    },
    {
      "pitch": 73,
      "velocity": 104,
      "instrument": 0,
      "channel": 0,
      "start_step": 32,
      "duration_steps": 4,
      "bar": 5,
      "position": 0,
      "track_index": 0,
      "track_name": "generated",
      "is_drum": false,
      "harmony": "unknown"
    },
    {
      "pitch": 76,
      "velocity": 104,
      "instrument": 0,
      "channel": 0,
      "start_step": 32,
      "duration_steps": 4,
      "bar": 5,
      "position": 0,
      "track_index": 0,
      "track_name": "generated",
      "is_drum": false,
      "harmony": "unknown"
    },
    {
      "pitch": 59,
      "velocity": 56,
      "instrument": 0,
      "channel": 0,
      "start_step": 38,
      "duration_steps": 2,
      "bar": 5,
      "position": 6,
      "track_index": 0,
      "track_name": "generated",
      "is_drum": false,
      "harmony": "unknown"
    },
    {
      "pitch": 63,
      "velocity": 56,
      "instrument": 0,
      "channel": 0,
      "start_step": 38,
      "duration_steps": 2,
      "bar": 5,
      "position": 6,
      "track_index": 0,
      "track_name": "generated",
      "is_drum": false,
      "harmony": "unknown"
    },
    {
      "pitch": 75,
      "velocity": 56,
      "instrument": 0,
      "channel": 0,
      "start_step": 38,
      "duration_steps": 2,
      "bar": 5,
      "position": 6,
      "track_index": 0,
      "track_name": "generated",
      "is_drum": false,
      "harmony": "unknown"
    },
    {
      "pitch": 78,
      "velocity": 56,
      "instrument": 0,
      "channel": 0,
      "start_step": 38,
      "duration_steps": 2,
      "bar": 5,
      "position": 6,
      "track_index": 0,
      "track_name": "generated",
      "is_drum": false,
      "harmony": "unknown"
    },
    {
      "pitch": 52,
      "velocity": 56,
      "instrument": 0,
      "channel": 0,
      "start_step": 40,
      "duration_steps": 4,
      "bar": 6,
      "position": 0,
      "track_index": 0,
      "track_name": "generated",
      "is_drum": false,
      "harmony": "unknown"
    },
    {
      "pitch": 56,
      "velocity": 56,
      "instrument": 0,
      "channel": 0,
      "start_step": 40,
      "duration_steps": 3,
      "bar": 6,
      "position": 0,
      "track_index": 0,
      "track_name": "generated",
      "is_drum": false,
      "harmony": "unknown"
    },
    {
      "pitch": 76,
      "velocity": 56,
      "instrument": 0,
      "channel": 0,
      "start_step": 40,
      "duration_steps": 3,
      "bar": 6,
      "position": 0,
      "track_index": 0,
      "track_name": "generated",
      "is_drum": false,
      "harmony": "unknown"
    },
    {
      "pitch": 80,
      "velocity": 56,
      "instrument": 0,
      "channel": 0,
      "start_step": 40,
      "duration_steps": 3,
      "bar": 6,
      "position": 0,
      "track_index": 0,
      "track_name": "generated",
      "is_drum": false,
      "harmony": "unknown"
    },
    {
      "pitch": 61,
      "velocity": 56,
      "instrument": 0,
      "channel": 0,
      "start_step": 43,
      "duration_steps": 1,
      "bar": 6,
      "position": 3,
      "track_index": 0,
      "track_name": "generated",
      "is_drum": false,
      "harmony": "unknown"
    },
    {
      "pitch": 73,
      "velocity": 56,
      "instrument": 0,
      "channel": 0,
      "start_step": 43,
      "duration_steps": 1,
      "bar": 6,
      "position": 3,
      "track_index": 0,
      "track_name": "generated",
      "is_drum": false,
      "harmony": "unknown"
    },
    {
      "pitch": 76,
      "velocity": 56,
      "instrument": 0,
      "channel": 0,
      "start_step": 43,
      "duration_steps": 1,
      "bar": 6,
      "position": 3,
      "track_index": 0,
      "track_name": "generated",
      "is_drum": false,
      "harmony": "unknown"
    },
    {
      "pitch": 54,
      "velocity": 56,
      "instrument": 0,
      "channel": 0,
      "start_step": 44,
      "duration_steps": 2,
      "bar": 6,
      "position": 4,
      "track_index": 0,
      "track_name": "generated",
      "is_drum": false,
      "harmony": "unknown"
    },
    {
      "pitch": 63,
      "velocity": 56,
      "instrument": 0,
      "channel": 0,
      "start_step": 44,
      "duration_steps": 2,
      "bar": 6,
      "position": 4,
      "track_index": 0,
      "track_name": "generated",
      "is_drum": false,
      "harmony": "unknown"
    },
    {
      "pitch": 71,
      "velocity": 56,
      "instrument": 0,
      "channel": 0,
      "start_step": 44,
      "duration_steps": 1,
      "bar": 6,
      "position": 4,
      "track_index": 0,
      "track_name": "generated",
      "is_drum": false,
      "harmony": "unknown"
    },
    {
      "pitch": 75,
      "velocity": 56,
      "instrument": 0,
      "channel": 0,
      "start_step": 44,
      "duration_steps": 1,
      "bar": 6,
      "position": 4,
      "track_index": 0,
      "track_name": "generated",
      "is_drum": false,
      "harmony": "unknown"
    },
    {
      "pitch": 54,
      "velocity": 56,
      "instrument": 0,
      "channel": 0,
      "start_step": 46,
      "duration_steps": 2,
      "bar": 6,
      "position": 6,
      "track_index": 0,
      "track_name": "generated",
      "is_drum": false,
      "harmony": "unknown"
    },
    {
      "pitch": 64,
      "velocity": 56,
      "instrument": 0,
      "channel": 0,
      "start_step": 46,
      "duration_steps": 2,
      "bar": 6,
      "position": 6,
      "track_index": 0,
      "track_name": "generated",
      "is_drum": false,
      "harmony": "unknown"
    },
    {
      "pitch": 70,
      "velocity": 56,
      "instrument": 0,
      "channel": 0,
      "start_step": 46,
      "duration_steps": 1,
      "bar": 6,
      "position": 6,
      "track_index": 0,
      "track_name": "generated",
      "is_drum": false,
      "harmony": "unknown"
    },
    {
      "pitch": 73,
      "velocity": 56,
      "instrument": 0,
      "channel": 0,
      "start_step": 46,
      "duration_steps": 1,
      "bar": 6,
      "position": 6,
      "track_index": 0,
      "track_name": "generated",
      "is_drum": false,
      "harmony": "unknown"
    },
    {
      "pitch": 59,
      "velocity": 56,
      "instrument": 0,
      "channel": 0,
      "start_step": 48,
      "duration_steps": 4,
      "bar": 7,
      "position": 0,
      "track_index": 0,
      "track_name": "generated",
      "is_drum": false,
      "harmony": "unknown"
    },
    {
      "pitch": 63,
      "velocity": 56,
      "instrument": 0,
      "channel": 0,
      "start_step": 48,
      "duration_steps": 4,
      "bar": 7,
      "position": 0,
      "track_index": 0,
      "track_name": "generated",
      "is_drum": false,
      "harmony": "unknown"
    },
    {
      "pitch": 63,
      "velocity": 56,
      "instrument": 0,
      "channel": 0,
      "start_step": 48,
      "duration_steps": 4,
      "bar": 7,
      "position": 0,
      "track_index": 0,
      "track_name": "generated",
      "is_drum": false,
      "harmony": "unknown"
    },
    {
      "pitch": 63,
      "velocity": 56,
      "instrument": 0,
      "channel": 0,
      "start_step": 48,
      "duration_steps": 12,
      "bar": 7,
      "position": 0,
      "track_index": 0,
      "track_name": "generated",
      "is_drum": false,
      "harmony": "unknown"
    },
    {
      "pitch": 68,
      "velocity": 56,
      "instrument": 0,
      "channel": 0,
      "start_step": 48,
      "duration_steps": 12,
      "bar": 7,
      "position": 0,
      "track_index": 0,
      "track_name": "generated",
      "is_drum": false,
      "harmony": "unknown"
    },
    {
      "pitch": 61,
      "velocity": 56,
      "instrument": 0,
      "channel": 0,
      "start_step": 48,
      "duration_steps": 4,
      "bar": 7,
      "position": 0,
      "track_index": 0,
      "track_name": "generated",
      "is_drum": false,
      "harmony": "unknown"
    },
    {
      "pitch": 63,
      "velocity": 56,
      "instrument": 0,
      "channel": 0,
      "start_step": 48,
      "duration_steps": 2,
      "bar": 7,
      "position": 0,
      "track_index": 0,
      "track_name": "generated",
      "is_drum": false,
      "harmony": "unknown"
    },
    {
      "pitch": 75,
      "velocity": 56,
      "instrument": 0,
      "channel": 0,
      "start_step": 48,
      "duration_steps": 2,
      "bar": 7,
      "position": 0,
      "track_index": 0,
      "track_name": "generated",
      "is_drum": false,
      "harmony": "unknown"
    },
    {
      "pitch": 51,
      "velocity": 56,
      "instrument": 0,
      "channel": 0,
      "start_step": 52,
      "duration_steps": 2,
      "bar": 7,
      "position": 4,
      "track_index": 0,
      "track_name": "generated",
      "is_drum": false,
      "harmony": "unknown"
    },
    {
      "pitch": 51,
      "velocity": 56,
      "instrument": 0,
      "channel": 0,
      "start_step": 52,
      "duration_steps": 2,
      "bar": 7,
      "position": 4,
      "track_index": 0,
      "track_name": "generated",
      "is_drum": false,
      "harmony": "unknown"
    },
    {
      "pitch": 58,
      "velocity": 56,
      "instrument": 0,
      "channel": 0,
      "start_step": 54,
      "duration_steps": 2,
      "bar": 7,
      "position": 6,
      "track_index": 0,
      "track_name": "generated",
      "is_drum": false,
      "harmony": "unknown"
    },
    {
      "pitch": 75,
      "velocity": 56,
      "instrument": 0,
      "channel": 0,
      "start_step": 55,
      "duration_steps": 2,
      "bar": 7,
      "position": 7,
      "track_index": 0,
      "track_name": "generated",
      "is_drum": false,
      "harmony": "unknown"
    },
    {
      "pitch": 68,
      "velocity": 56,
      "instrument": 0,
      "channel": 0,
      "start_step": 56,
      "duration_steps": 2,
      "bar": 8,
      "position": 0,
      "track_index": 0,
      "track_name": "generated",
      "is_drum": false,
      "harmony": "unknown"
    },
    {
      "pitch": 68,
      "velocity": 56,
      "instrument": 0,
      "channel": 0,
      "start_step": 58,
      "duration_steps": 2,
      "bar": 8,
      "position": 2,
      "track_index": 0,
      "track_name": "generated",
      "is_drum": false,
      "harmony": "unknown"
    },
    {
      "pitch": 63,
      "velocity": 56,
      "instrument": 0,
      "channel": 0,
      "start_step": 60,
      "duration_steps": 2,
      "bar": 8,
      "position": 4,
      "track_index": 0,
      "track_name": "generated",
      "is_drum": false,
      "harmony": "unknown"
    },
    {
      "pitch": 68,
      "velocity": 56,
      "instrument": 0,
      "channel": 0,
      "start_step": 60,
      "duration_steps": 2,
      "bar": 8,
      "position": 4,
      "track_index": 0,
      "track_name": "generated",
      "is_drum": false,
      "harmony": "unknown"
    },
    {
      "pitch": 63,
      "velocity": 56,
      "instrument": 0,
      "channel": 0,
      "start_step": 60,
      "duration_steps": 2,
      "bar": 8,
      "position": 4,
      "track_index": 0,
      "track_name": "generated",
      "is_drum": false,
      "harmony": "unknown"
    },
    {
      "pitch": 68,
      "velocity": 56,
      "instrument": 0,
      "channel": 0,
      "start_step": 62,
      "duration_steps": 2,
      "bar": 8,
      "position": 6,
      "track_index": 0,
      "track_name": "generated",
      "is_drum": false,
      "harmony": "unknown"
    },
    {
      "pitch": 68,
      "velocity": 56,
      "instrument": 0,
      "channel": 0,
      "start_step": 64,
      "duration_steps": 2,
      "bar": 9,
      "position": 0,
      "track_index": 0,
      "track_name": "generated",
      "is_drum": false,
      "harmony": "unknown"
    },
    {
      "pitch": 63,
      "velocity": 56,
      "instrument": 0,
      "channel": 0,
      "start_step": 66,
      "duration_steps": 2,
      "bar": 9,
      "position": 2,
      "track_index": 0,
      "track_name": "generated",
      "is_drum": false,
      "harmony": "unknown"
    },
    {
      "pitch": 63,
      "velocity": 56,
      "instrument": 0,
      "channel": 0,
      "start_step": 68,
      "duration_steps": 2,
      "bar": 9,
      "position": 4,
      "track_index": 0,
      "track_name": "generated",
      "is_drum": false,
      "harmony": "unknown"
    },
    {
      "pitch": 75,
      "velocity": 56,
      "instrument": 0,
      "channel": 0,
      "start_step": 68,
      "duration_steps": 2,
      "bar": 9,
      "position": 4,
      "track_index": 0,
      "track_name": "generated",
      "is_drum": false,
      "harmony": "unknown"
    },
    {
      "pitch": 51,
      "velocity": 56,
      "instrument": 0,
      "channel": 0,
      "start_step": 68,
      "duration_steps": 2,
      "bar": 9,
      "position": 4,
      "track_index": 0,
      "track_name": "generated",
      "is_drum": false,
      "harmony": "unknown"
    },
    {
      "pitch": 75,
      "velocity": 56,
      "instrument": 0,
      "channel": 0,
      "start_step": 70,
      "duration_steps": 2,
      "bar": 9,
      "position": 6,
      "track_index": 0,
      "track_name": "generated",
      "is_drum": false,
      "harmony": "unknown"
    },
    {
      "pitch": 75,
      "velocity": 56,
      "instrument": 0,
      "channel": 0,
      "start_step": 72,
      "duration_steps": 2,
      "bar": 10,
      "position": 0,
      "track_index": 0,
      "track_name": "generated",
      "is_drum": false,
      "harmony": "unknown"
    },
    {
      "pitch": 39,
      "velocity": 56,
      "instrument": 0,
      "channel": 0,
      "start_step": 72,
      "duration_steps": 2,
      "bar": 10,
      "position": 0,
      "track_index": 0,
      "track_name": "generated",
      "is_drum": false,
      "harmony": "unknown"
    },
    {
      "pitch": 39,
      "velocity": 56,
      "instrument": 0,
      "channel": 0,
      "start_step": 72,
      "duration_steps": 2,
      "bar": 10,
      "position": 0,
      "track_index": 0,
      "track_name": "generated",
      "is_drum": false,
      "harmony": "unknown"
    },
    {
      "pitch": 75,
      "velocity": 56,
      "instrument": 0,
      "channel": 0,
      "start_step": 72,
      "duration_steps": 2,
      "bar": 10,
      "position": 0,
      "track_index": 0,
      "track_name": "generated",
      "is_drum": false,
      "harmony": "unknown"
    },
    {
      "pitch": 51,
      "velocity": 56,
      "instrument": 0,
      "channel": 0,
      "start_step": 74,
      "duration_steps": 2,
      "bar": 10,
      "position": 2,
      "track_index": 0,
      "track_name": "generated",
      "is_drum": false,
      "harmony": "unknown"
    },
    {
      "pitch": 51,
      "velocity": 56,
      "instrument": 0,
      "channel": 0,
      "start_step": 76,
      "duration_steps": 2,
      "bar": 10,
      "position": 4,
      "track_index": 0,
      "track_name": "generated",
      "is_drum": false,
      "harmony": "unknown"
    },
    {
      "pitch": 68,
      "velocity": 56,
      "instrument": 0,
      "channel": 0,
      "start_step": 76,
      "duration_steps": 2,
      "bar": 10,
      "position": 4,
      "track_index": 0,
      "track_name": "generated",
      "is_drum": false,
      "harmony": "unknown"
    },
    {
      "pitch": 51,
      "velocity": 56,
      "instrument": 0,
      "channel": 0,
      "start_step": 78,
      "duration_steps": 2,
      "bar": 10,
      "position": 6,
      "track_index": 0,
      "track_name": "generated",
      "is_drum": false,
      "harmony": "unknown"
    },
    {
      "pitch": 63,
      "velocity": 56,
      "instrument": 0,
      "channel": 0,
      "start_step": 80,
      "duration_steps": 2,
      "bar": 11,
      "position": 0,
      "track_index": 0,
      "track_name": "generated",
      "is_drum": false,
      "harmony": "unknown"
    },
    {
      "pitch": 63,
      "velocity": 56,
      "instrument": 0,
      "channel": 0,
      "start_step": 80,
      "duration_steps": 2,
      "bar": 11,
      "position": 0,
      "track_index": 0,
      "track_name": "generated",
      "is_drum": false,
      "harmony": "unknown"
    },
    {
      "pitch": 63,
      "velocity": 56,
      "instrument": 0,
      "channel": 0,
      "start_step": 80,
      "duration_steps": 2,
      "bar": 11,
      "position": 0,
      "track_index": 0,
      "track_name": "generated",
      "is_drum": false,
      "harmony": "unknown"
    },
    {
      "pitch": 75,
      "velocity": 56,
      "instrument": 0,
      "channel": 0,
      "start_step": 82,
      "duration_steps": 2,
      "bar": 11,
      "position": 2,
      "track_index": 0,
      "track_name": "generated",
      "is_drum": false,
      "harmony": "unknown"
    },
    {
      "pitch": 51,
      "velocity": 56,
      "instrument": 0,
      "channel": 0,
      "start_step": 82,
      "duration_steps": 2,
      "bar": 11,
      "position": 2,
      "track_index": 0,
      "track_name": "generated",
      "is_drum": false,
      "harmony": "unknown"
    },
    {
      "pitch": 51,
      "velocity": 56,
      "instrument": 0,
      "channel": 0,
      "start_step": 84,
      "duration_steps": 2,
      "bar": 11,
      "position": 4,
      "track_index": 0,
      "track_name": "generated",
      "is_drum": false,
      "harmony": "unknown"
    },
    {
      "pitch": 63,
      "velocity": 56,
      "instrument": 0,
      "channel": 0,
      "start_step": 86,
      "duration_steps": 2,
      "bar": 11,
      "position": 6,
      "track_index": 0,
      "track_name": "generated",
      "is_drum": false,
      "harmony": "unknown"
    },
    {
      "pitch": 75,
      "velocity": 56,
      "instrument": 0,
      "channel": 0,
      "start_step": 88,
      "duration_steps": 2,
      "bar": 12,
      "position": 0,
      "track_index": 0,
      "track_name": "generated",
      "is_drum": false,
      "harmony": "unknown"
    },
    {
      "pitch": 75,
      "velocity": 56,
      "instrument": 0,
      "channel": 0,
      "start_step": 88,
      "duration_steps": 2,
      "bar": 12,
      "position": 0,
      "track_index": 0,
      "track_name": "generated",
      "is_drum": false,
      "harmony": "unknown"
    },
    {
      "pitch": 63,
      "velocity": 56,
      "instrument": 0,
      "channel": 0,
      "start_step": 88,
      "duration_steps": 2,
      "bar": 12,
      "position": 0,
      "track_index": 0,
      "track_name": "generated",
      "is_drum": false,
      "harmony": "unknown"
    },
    {
      "pitch": 63,
      "velocity": 56,
      "instrument": 0,
      "channel": 0,
      "start_step": 88,
      "duration_steps": 2,
      "bar": 12,
      "position": 0,
      "track_index": 0,
      "track_name": "generated",
      "is_drum": false,
      "harmony": "unknown"
    },
    {
      "pitch": 75,
      "velocity": 56,
      "instrument": 0,
      "channel": 0,
      "start_step": 88,
      "duration_steps": 2,
      "bar": 12,
      "position": 0,
      "track_index": 0,
      "track_name": "generated",
      "is_drum": false,
      "harmony": "unknown"
    },
    {
      "pitch": 75,
      "velocity": 56,
      "instrument": 0,
      "channel": 0,
      "start_step": 90,
      "duration_steps": 2,
      "bar": 12,
      "position": 2,
      "track_index": 0,
      "track_name": "generated",
      "is_drum": false,
      "harmony": "unknown"
    },
    {
      "pitch": 51,
      "velocity": 56,
      "instrument": 0,
      "channel": 0,
      "start_step": 92,
      "duration_steps": 2,
      "bar": 12,
      "position": 4,
      "track_index": 0,
      "track_name": "generated",
      "is_drum": false,
      "harmony": "unknown"
    },
    {
      "pitch": 51,
      "velocity": 56,
      "instrument": 0,
      "channel": 0,
      "start_step": 92,
      "duration_steps": 2,
      "bar": 12,
      "position": 4,
      "track_index": 0,
      "track_name": "generated",
      "is_drum": false,
      "harmony": "unknown"
    },
    {
      "pitch": 51,
      "velocity": 56,
      "instrument": 0,
      "channel": 0,
      "start_step": 94,
      "duration_steps": 2,
      "bar": 12,
      "position": 6,
      "track_index": 0,
      "track_name": "generated",
      "is_drum": false,
      "harmony": "unknown"
    },
    {
      "pitch": 63,
      "velocity": 56,
      "instrument": 0,
      "channel": 0,
      "start_step": 96,
      "duration_steps": 2,
      "bar": 13,
      "position": 0,
      "track_index": 0,
      "track_name": "generated",
      "is_drum": false,
      "harmony": "unknown"
    },
    {
      "pitch": 63,
      "velocity": 56,
      "instrument": 0,
      "channel": 0,
      "start_step": 98,
      "duration_steps": 2,
      "bar": 13,
      "position": 2,
      "track_index": 0,
      "track_name": "generated",
      "is_drum": false,
      "harmony": "unknown"
    },
    {
      "pitch": 63,
      "velocity": 56,
      "instrument": 0,
      "channel": 0,
      "start_step": 98,
      "duration_steps": 2,
      "bar": 13,
      "position": 2,
      "track_index": 0,
      "track_name": "generated",
      "is_drum": false,
      "harmony": "unknown"
    },
    {
      "pitch": 68,
      "velocity": 56,
      "instrument": 0,
      "channel": 0,
      "start_step": 98,
      "duration_steps": 2,
      "bar": 13,
      "position": 2,
      "track_index": 0,
      "track_name": "generated",
      "is_drum": false,
      "harmony": "unknown"
    },
    {
      "pitch": 56,
      "velocity": 56,
      "instrument": 0,
      "channel": 0,
      "start_step": 100,
      "duration_steps": 2,
      "bar": 13,
      "position": 4,
      "track_index": 0,
      "track_name": "generated",
      "is_drum": false,
      "harmony": "unknown"
    },
    {
      "pitch": 75,
      "velocity": 56,
      "instrument": 0,
      "channel": 0,
      "start_step": 102,
      "duration_steps": 2,
      "bar": 13,
      "position": 6,
      "track_index": 0,
      "track_name": "generated",
      "is_drum": false,
      "harmony": "unknown"
    },
    {
      "pitch": 63,
      "velocity": 56,
      "instrument": 0,
      "channel": 0,
      "start_step": 102,
      "duration_steps": 2,
      "bar": 13,
      "position": 6,
      "track_index": 0,
      "track_name": "generated",
      "is_drum": false,
      "harmony": "unknown"
    },
    {
      "pitch": 51,
      "velocity": 56,
      "instrument": 0,
      "channel": 0,
      "start_step": 104,
      "duration_steps": 2,
      "bar": 14,
      "position": 0,
      "track_index": 0,
      "track_name": "generated",
      "is_drum": false,
      "harmony": "unknown"
    },
    {
      "pitch": 63,
      "velocity": 56,
      "instrument": 0,
      "channel": 0,
      "start_step": 106,
      "duration_steps": 2,
      "bar": 14,
      "position": 2,
      "track_index": 0,
      "track_name": "generated",
      "is_drum": false,
      "harmony": "unknown"
    },
    {
      "pitch": 75,
      "velocity": 56,
      "instrument": 0,
      "channel": 0,
      "start_step": 106,
      "duration_steps": 2,
      "bar": 14,
      "position": 2,
      "track_index": 0,
      "track_name": "generated",
      "is_drum": false,
      "harmony": "unknown"
    },
    {
      "pitch": 51,
      "velocity": 56,
      "instrument": 0,
      "channel": 0,
      "start_step": 106,
      "duration_steps": 2,
      "bar": 14,
      "position": 2,
      "track_index": 0,
      "track_name": "generated",
      "is_drum": false,
      "harmony": "unknown"
    },
    {
      "pitch": 63,
      "velocity": 56,
      "instrument": 0,
      "channel": 0,
      "start_step": 106,
      "duration_steps": 2,
      "bar": 14,
      "position": 2,
      "track_index": 0,
      "track_name": "generated",
      "is_drum": false,
      "harmony": "unknown"
    },
    {
      "pitch": 75,
      "velocity": 56,
      "instrument": 0,
      "channel": 0,
      "start_step": 106,
      "duration_steps": 2,
      "bar": 14,
      "position": 2,
      "track_index": 0,
      "track_name": "generated",
      "is_drum": false,
      "harmony": "unknown"
    },
    {
      "pitch": 75,
      "velocity": 56,
      "instrument": 0,
      "channel": 0,
      "start_step": 106,
      "duration_steps": 2,
      "bar": 14,
      "position": 2,
      "track_index": 0,
      "track_name": "generated",
      "is_drum": false,
      "harmony": "unknown"
    },
    {
      "pitch": 63,
      "velocity": 56,
      "instrument": 0,
      "channel": 0,
      "start_step": 106,
      "duration_steps": 2,
      "bar": 14,
      "position": 2,
      "track_index": 0,
      "track_name": "generated",
      "is_drum": false,
      "harmony": "unknown"
    },
    {
      "pitch": 63,
      "velocity": 56,
      "instrument": 0,
      "channel": 0,
      "start_step": 106,
      "duration_steps": 2,
      "bar": 14,
      "position": 2,
      "track_index": 0,
      "track_name": "generated",
      "is_drum": false,
      "harmony": "unknown"
    },
    {
      "pitch": 56,
      "velocity": 56,
      "instrument": 0,
      "channel": 0,
      "start_step": 108,
      "duration_steps": 2,
      "bar": 14,
      "position": 4,
      "track_index": 0,
      "track_name": "generated",
      "is_drum": false,
      "harmony": "unknown"
    },
    {
      "pitch": 63,
      "velocity": 56,
      "instrument": 0,
      "channel": 0,
      "start_step": 108,
      "duration_steps": 2,
      "bar": 14,
      "position": 4,
      "track_index": 0,
      "track_name": "generated",
      "is_drum": false,
      "harmony": "unknown"
    },
    {
      "pitch": 51,
      "velocity": 56,
      "instrument": 0,
      "channel": 0,
      "start_step": 110,
      "duration_steps": 2,
      "bar": 14,
      "position": 6,
      "track_index": 0,
      "track_name": "generated",
      "is_drum": false,
      "harmony": "unknown"
    },
    {
      "pitch": 51,
      "velocity": 56,
      "instrument": 0,
      "channel": 0,
      "start_step": 112,
      "duration_steps": 2,
      "bar": 15,
      "position": 0,
      "track_index": 0,
      "track_name": "generated",
      "is_drum": false,
      "harmony": "unknown"
    },
    {
      "pitch": 63,
      "velocity": 56,
      "instrument": 0,
      "channel": 0,
      "start_step": 114,
      "duration_steps": 2,
      "bar": 15,
      "position": 2,
      "track_index": 0,
      "track_name": "generated",
      "is_drum": false,
      "harmony": "unknown"
    },
    {
      "pitch": 63,
      "velocity": 56,
      "instrument": 0,
      "channel": 0,
      "start_step": 116,
      "duration_steps": 2,
      "bar": 15,
      "position": 4,
      "track_index": 0,
      "track_name": "generated",
      "is_drum": false,
      "harmony": "unknown"
    },
    {
      "pitch": 63,
      "velocity": 56,
      "instrument": 0,
      "channel": 0,
      "start_step": 118,
      "duration_steps": 2,
      "bar": 15,
      "position": 6,
      "track_index": 0,
      "track_name": "generated",
      "is_drum": false,
      "harmony": "unknown"
    },
    {
      "pitch": 75,
      "velocity": 56,
      "instrument": 0,
      "channel": 0,
      "start_step": 118,
      "duration_steps": 2,
      "bar": 15,
      "position": 6,
      "track_index": 0,
      "track_name": "generated",
      "is_drum": false,
      "harmony": "unknown"
    },
    {
      "pitch": 75,
      "velocity": 56,
      "instrument": 0,
      "channel": 0,
      "start_step": 120,
      "duration_steps": 2,
      "bar": 16,
      "position": 0,
      "track_index": 0,
      "track_name": "generated",
      "is_drum": false,
      "harmony": "unknown"
    },
    {
      "pitch": 39,
      "velocity": 56,
      "instrument": 0,
      "channel": 0,
      "start_step": 122,
      "duration_steps": 2,
      "bar": 16,
      "position": 2,
      "track_index": 0,
      "track_name": "generated",
      "is_drum": false,
      "harmony": "unknown"
    },
    {
      "pitch": 75,
      "velocity": 56,
      "instrument": 0,
      "channel": 0,
      "start_step": 122,
      "duration_steps": 2,
      "bar": 16,
      "position": 2,
      "track_index": 0,
      "track_name": "generated",
      "is_drum": false,
      "harmony": "unknown"
    },
    {
      "pitch": 51,
      "velocity": 56,
      "instrument": 0,
      "channel": 0,
      "start_step": 122,
      "duration_steps": 2,
      "bar": 16,
      "position": 2,
      "track_index": 0,
      "track_name": "generated",
      "is_drum": false,
      "harmony": "unknown"
    },
    {
      "pitch": 51,
      "velocity": 56,
      "instrument": 0,
      "channel": 0,
      "start_step": 124,
      "duration_steps": 2,
      "bar": 16,
      "position": 4,
      "track_index": 0,
      "track_name": "generated",
      "is_drum": false,
      "harmony": "unknown"
    },
    {
      "pitch": 68,
      "velocity": 56,
      "instrument": 0,
      "channel": 0,
      "start_step": 124,
      "duration_steps": 2,
      "bar": 16,
      "position": 4,
      "track_index": 0,
      "track_name": "generated",
      "is_drum": false,
      "harmony": "unknown"
    },
    {
      "pitch": 63,
      "velocity": 56,
      "instrument": 0,
      "channel": 0,
      "start_step": 126,
      "duration_steps": 2,
      "bar": 16,
      "position": 6,
      "track_index": 0,
      "track_name": "generated",
      "is_drum": false,
      "harmony": "unknown"
    },
    {
      "pitch": 63,
      "velocity": 56,
      "instrument": 0,
      "channel": 0,
      "start_step": 128,
      "duration_steps": 2,
      "bar": 17,
      "position": 0,
      "track_index": 0,
      "track_name": "generated",
      "is_drum": false,
      "harmony": "unknown"
    },
    {
      "pitch": 51,
      "velocity": 56,
      "instrument": 0,
      "channel": 0,
      "start_step": 130,
      "duration_steps": 2,
      "bar": 17,
      "position": 2,
      "track_index": 0,
      "track_name": "generated",
      "is_drum": false,
      "harmony": "unknown"
    },
    {
      "pitch": 51,
      "velocity": 56,
      "instrument": 0,
      "channel": 0,
      "start_step": 130,
      "duration_steps": 2,
      "bar": 17,
      "position": 2,
      "track_index": 0,
      "track_name": "generated",
      "is_drum": false,
      "harmony": "unknown"
    },
    {
      "pitch": 75,
      "velocity": 56,
      "instrument": 0,
      "channel": 0,
      "start_step": 132,
      "duration_steps": 2,
      "bar": 17,
      "position": 4,
      "track_index": 0,
      "track_name": "generated",
      "is_drum": false,
      "harmony": "unknown"
    },
    {
      "pitch": 75,
      "velocity": 56,
      "instrument": 0,
      "channel": 0,
      "start_step": 132,
      "duration_steps": 2,
      "bar": 17,
      "position": 4,
      "track_index": 0,
      "track_name": "generated",
      "is_drum": false,
      "harmony": "unknown"
    },
    {
      "pitch": 75,
      "velocity": 56,
      "instrument": 0,
      "channel": 0,
      "start_step": 132,
      "duration_steps": 2,
      "bar": 17,
      "position": 4,
      "track_index": 0,
      "track_name": "generated",
      "is_drum": false,
      "harmony": "unknown"
    },
    {
      "pitch": 75,
      "velocity": 56,
      "instrument": 0,
      "channel": 0,
      "start_step": 134,
      "duration_steps": 2,
      "bar": 17,
      "position": 6,
      "track_index": 0,
      "track_name": "generated",
      "is_drum": false,
      "harmony": "unknown"
    },
    {
      "pitch": 56,
      "velocity": 56,
      "instrument": 0,
      "channel": 0,
      "start_step": 134,
      "duration_steps": 2,
      "bar": 17,
      "position": 6,
      "track_index": 0,
      "track_name": "generated",
      "is_drum": false,
      "harmony": "unknown"
    },
    {
      "pitch": 75,
      "velocity": 56,
      "instrument": 0,
      "channel": 0,
      "start_step": 136,
      "duration_steps": 2,
      "bar": 18,
      "position": 0,
      "track_index": 0,
      "track_name": "generated",
      "is_drum": false,
      "harmony": "unknown"
    },
    {
      "pitch": 51,
      "velocity": 56,
      "instrument": 0,
      "channel": 0,
      "start_step": 138,
      "duration_steps": 2,
      "bar": 18,
      "position": 2,
      "track_index": 0,
      "track_name": "generated",
      "is_drum": false,
      "harmony": "unknown"
    },
    {
      "pitch": 63,
      "velocity": 56,
      "instrument": 0,
      "channel": 0,
      "start_step": 140,
      "duration_steps": 2,
      "bar": 18,
      "position": 4,
      "track_index": 0,
      "track_name": "generated",
      "is_drum": false,
      "harmony": "unknown"
    },
    {
      "pitch": 75,
      "velocity": 56,
      "instrument": 0,
      "channel": 0,
      "start_step": 140,
      "duration_steps": 2,
      "bar": 18,
      "position": 4,
      "track_index": 0,
      "track_name": "generated",
      "is_drum": false,
      "harmony": "unknown"
    },
    {
      "pitch": 63,
      "velocity": 56,
      "instrument": 0,
      "channel": 0,
      "start_step": 140,
      "duration_steps": 2,
      "bar": 18,
      "position": 4,
      "track_index": 0,
      "track_name": "generated",
      "is_drum": false,
      "harmony": "unknown"
    },
    {
      "pitch": 67,
      "velocity": 56,
      "instrument": 0,
      "channel": 0,
      "start_step": 140,
      "duration_steps": 2,
      "bar": 18,
      "position": 4,
      "track_index": 0,
      "track_name": "generated",
      "is_drum": false,
      "harmony": "unknown"
    },
    {
      "pitch": 63,
      "velocity": 56,
      "instrument": 0,
      "channel": 0,
      "start_step": 140,
      "duration_steps": 2,
      "bar": 18,
      "position": 4,
      "track_index": 0,
      "track_name": "generated",
      "is_drum": false,
      "harmony": "unknown"
    },
    {
      "pitch": 63,
      "velocity": 56,
      "instrument": 0,
      "channel": 0,
      "start_step": 140,
      "duration_steps": 2,
      "bar": 18,
      "position": 4,
      "track_index": 0,
      "track_name": "generated",
      "is_drum": false,
      "harmony": "unknown"
    },
    {
      "pitch": 63,
      "velocity": 56,
      "instrument": 0,
      "channel": 0,
      "start_step": 142,
      "duration_steps": 2,
      "bar": 18,
      "position": 6,
      "track_index": 0,
      "track_name": "generated",
      "is_drum": false,
      "harmony": "unknown"
    },
    {
      "pitch": 68,
      "velocity": 56,
      "instrument": 0,
      "channel": 0,
      "start_step": 142,
      "duration_steps": 2,
      "bar": 18,
      "position": 6,
      "track_index": 0,
      "track_name": "generated",
      "is_drum": false,
      "harmony": "unknown"
    },
    {
      "pitch": 75,
      "velocity": 56,
      "instrument": 0,
      "channel": 0,
      "start_step": 142,
      "duration_steps": 2,
      "bar": 18,
      "position": 6,
      "track_index": 0,
      "track_name": "generated",
      "is_drum": false,
      "harmony": "unknown"
    }
  ],
  "phrase_boundaries": [
    1,
    4,
    8,
    9
  ],
  "source_path": null,
  "metadata": {
    "prompt_piece_id": "beethoven__piano_sonatas__24_2__midi_score",
    "generated": true
  },
  "key": "F#:major",
  "chords": []
}