{
  "piece_id": "schubert__impromptu_op_90_d_899__4_no_repeat__midi_score",
  "resolution": "sixteenth",
  "steps_per_beat": 4,
  "bar_steps": 12,
  "time_signature": "3/4",
  "tempo_bpm": 120.0,
  "note_events": [
    {
      "pitch": 44,
      "velocity": 60,
      "instrument": 0,
      "channel": 0,
      "start_step": 0,
      "duration_steps": 2,
      "bar": 1,
      "position": 0,
      "track_index": 1,
      "track_name": "track_1",
      "is_drum": false,
      "harmony": "Ab:min"
    },
    {
      "pitch": 83,
      "velocity": 60,
      "instrument": 0,
      "channel": 0,
      "start_step": 0,
      "duration_steps": 1,
      "bar": 1,
      "position": 0,
      "track_index": 0,
      "track_name": "track_0",
      "is_drum": false,
      "harmony": "Ab:min"
    },
    {
      "pitch": 87,
      "velocity": 60,
      "instrument": 0,
      "channel": 0,
      "start_step": 1,
      "duration_steps": 1,
      "bar": 1,
      "position": 1,
      "track_index": 0,
      "track_name": "track_0",
      "is_drum": false,
      "harmony": "Ab:min"
    },
    {
      "pitch": 83,
      "velocity": 60,
      "instrument": 0,
      "channel": 0,
      "start_step": 2,
      "duration_steps": 1,
      "bar": 1,
      "position": 2,
      "track_index": 0,
      "track_name": "track_0",
      "is_drum": false,
      "harmony": "Ab:min"
    },
    {
      "pitch": 80,
      "velocity": 60,
      "instrument": 0,
      "channel": 0,
      "start_step": 3,
      "duration_steps": 1,
      "bar": 1,
      "position": 3,
      "track_index": 0,
      "track_name": "track_0",
      "is_drum": false,
      "harmony": "Ab:min"
    },
    {
      "pitch": 56,
      "velocity": 60,
      "instrument": 0,
      "channel": 0,
      "start_step": 4,
      "duration_steps": 32,
      "bar": 1,
      "position": 4,
      "track_index": 1,
      "track_name": "track_1",
      "is_drum": false,
      "harmony": "Ab:min"
    },
    {
      "pitch": 59,
      "velocity": 60,
      "instrument": 0,
      "channel": 0,
      "start_step": 4,
      "duration_steps": 32,
      "bar": 1,
      "position": 4,
      "track_index": 1,
      "track_name": "track_1",
      "is_drum": false,
      "harmony": "Ab:min"
    },
    {
      "pitch": 63,
      "velocity": 60,
      "instrument": 0,
      "channel": 0,
      "start_step": 4,
      "duration_steps": 15,
      "bar": 1,
      "position": 4,
      "track_index": 1,
      "track_name": "track_1",
      "is_drum": false,
      "harmony": "Ab:min"
    },
    {
      "pitch": 80,
      "velocity": 60,
      "instrument": 0,
      "channel": 0,
      "start_step": 4,
      "duration_steps": 1,
      "bar": 1,
      "position": 4,
      "track_index": 0,
      "track_name": "track_0",
      "is_drum": false,
      "harmony": "Ab:min"
    },
    {
      "pitch": 83,
      "velocity": 60,
      "instrument": 0,
      "channel": 0,
      "start_step": 5,
      "duration_steps": 1,
      "bar": 1,
      "position": 5,
      "track_index": 0,
      "track_name": "track_0",
      "is_drum": false,
      "harmony": "Ab:min"
    },
    {
      "pitch": 80,
      "velocity": 60,
      "instrument": 0,
      "channel": 0,
      "start_step": 6,
      "duration_steps": 1,
      "bar": 1,
      "position": 6,
      "track_index": 0,
      "track_name": "track_0",
      "is_drum": false,
      "harmony": "Ab:min"
    },
    {
      "pitch": 75,
      "velocity": 60,
      "instrument": 0,
      "channel": 0,
      "start_step": 7,
      "duration_steps": 1,
      "bar": 1,
      "position": 7,
      "track_index": 0,
      "track_name": "track_0",
      "is_drum": false,
      "harmony": "Ab:min"
    },
    {
      "pitch": 75,
      "velocity": 60,
      "instrument": 0,
      "channel": 0,
      "start_step": 8,
      "duration_steps": 1,
      "bar": 1,
      "position": 8,
      "track_index": 0,
      "track_name": "track_0",
      "is_drum": false,
      "harmony": "Ab:min"
    },
    {
      "pitch": 80,
      "velocity": 60,
      "instrument": 0,
      "channel": 0,
      "start_step": 9,
      "duration_steps": 1,
      "bar": 1,
      "position": 9,
      "track_index": 0,
      "track_name": "track_0",
      "is_drum": false,
      "harmony": "Ab:min"
    },
    {
      "pitch": 75,
      "velocity": 60,
      "instrument": 0,
      "channel": 0,
      "start_step": 10,
      "duration_steps": 1,
      "bar": 1,
      "position": 10,
      "track_index": 0,
      "track_name": "track_0",
      "is_drum": false,
      "harmony": "Ab:min"
    },
    {
      "pitch": 71,
      "velocity": 60,
      "instrument": 0,
      "channel": 0,
      "start_step": 11,
      "duration_steps": 1,
      "bar": 1,
      "position": 11,
      "track_index": 0,
      "track_name": "track_0",
      "is_drum": false,
      "harmony": "Ab:min"
    },
    {
      "pitch": 71,
      "velocity": 60,
      "instrument": 0,
      "channel": 0,
      "start_step": 12,
      "duration_steps": 1,
      "bar": 2,
      "position": 0,
      "track_index": 0,
      "track_name": "track_0",
      "is_drum": false,
      "harmony": "Eb:maj"
    },
    {
      "pitch": 75,
      "velocity": 60,
      "instrument": 0,
      "channel": 0,
      "start_step": 13,
      "duration_steps": 1,
      "bar": 2,
      "position": 1,
      "track_index": 0,
      "track_name": "track_0",
      "is_drum": false,
      "harmony": "Eb:maj"
    },
    {
      "pitch": 71,
      "velocity": 60,
      "instrument": 0,
      "channel": 0,
      "start_step": 14,
      "duration_steps": 1,
      "bar": 2,
      "position": 2,
      "track_index": 0,
      "track_name": "track_0",
      "is_drum": false,
      "harmony": "Eb:maj"
    },
    {
      "pitch": 68,
      "velocity": 60,
      "instrument": 0,
      "channel": 0,
      "start_step": 15,
      "duration_steps": 1,
      "bar": 2,
      "position": 3,
      "track_index": 0,
      "track_name": "track_0",
      "is_drum": false,
      "harmony": "Eb:maj"
    },
    {
      "pitch": 68,
      "velocity": 60,
      "instrument": 0,
      "channel": 0,
      "start_step": 16,
      "duration_steps": 1,
      "bar": 2,
      "position": 4,
      "track_index": 0,
      "track_name": "track_0",
      "is_drum": false,
      "harmony": "Eb:maj"
    },
    {
      "pitch": 71,
      "velocity": 60,
      "instrument": 0,
      "channel": 0,
      "start_step": 17,
      "duration_steps": 1,
      "bar": 2,
      "position": 5,
      "track_index": 0,
      "track_name": "track_0",
      "is_drum": false,
      "harmony": "Eb:maj"
    },
    {
      "pitch": 68,
      "velocity": 60,
      "instrument": 0,
      "channel": 0,
      "start_step": 18,
      "duration_steps": 1,
      "bar": 2,
      "position": 6,
      "track_index": 0,
      "track_name": "track_0",
      "is_drum": false,
      "harmony": "Eb:maj"
    },
    {
      "pitch": 63,
      "velocity": 60,
      "instrument": 0,
      "channel": 0,
      "start_step": 19,
      "duration_steps": 3,
      "bar": 2,
      "position": 7,
      "track_index": 0,
      "track_name": "track_0",
      "is_drum": false,
      "harmony": "Eb:maj"
    },
    {
      "pitch": 51,
      "velocity": 60,
      "instrument": 0,
      "channel": 0,
      "start_step": 20,
      "duration_steps": 2,
      "bar": 2,
      "position": 8,
      "track_index": 1,
      "track_name": "track_1",
      "is_drum": false,
      "harmony": "Eb:maj"
    },
    {
      "pitch": 58,
      "velocity": 60,
      "instrument": 0,
      "channel": 0,
      "start_step": 20,
      "duration_steps": 2,
      "bar": 2,
      "position": 8,
      "track_index": 1,
      "track_name": "track_1",
      "is_drum": false,
      "harmony": "Eb:maj"
    },
    {
      "pitch": 67,
      "velocity": 60,
      "instrument": 0,
      "channel": 0,
      "start_step": 20,
      "duration_steps": 1,
      "bar": 2,
      "position": 8,
      "track_index": 0,
      "track_name": "track_0",
      "is_drum": false,
      "harmony": "Eb:maj"
    },
    {
      "pitch": 70,
      "velocity": 60,
      "instrument": 0,
      "channel": 0,
      "start_step": 20,
      "duration_steps": 1,
      "bar": 2,
      "position": 8,
      "track_index": 0,
      "track_name": "track_0",
      "is_drum": false,
      "harmony": "Eb:maj"
    },
    {
      "pitch": 44,
      "velocity": 60,
      "instrument": 0,
      "channel": 0,
      "start_step": 24,
      "duration_steps": 2,
      "bar": 3,
      "position": 0,
      "track_index": 1,
      "track_name": "track_1",
      "is_drum": false,
      "harmony": "Eb:maj"
    },
    {
      "pitch": 83,
      "velocity": 60,
      "instrument": 0,
      "channel": 0,
      "start_step": 24,
      "duration_steps": 1,
      "bar": 3,
      "position": 0,
      "track_index": 0,
      "track_name": "track_0",
      "is_drum": false,
      "harmony": "Eb:maj"
    },
    {
      "pitch": 87,
      "velocity": 60,
      "instrument": 0,
      "channel": 0,
      "start_step": 25,
      "duration_steps": 1,
      "bar": 3,
      "position": 1,
      "track_index": 0,
      "track_name": "track_0",
      "is_drum": false,
      "harmony": "Eb:maj"
    },
    {
      "pitch": 83,
      "velocity": 60,
      "instrument": 0,
      "channel": 0,
      "start_step": 26,
      "duration_steps": 1,
      "bar": 3,
      "position": 2,
      "track_index": 0,
      "track_name": "track_0",
      "is_drum": false,
      "harmony": "Eb:maj"
    },
    {
      "pitch": 80,
      "velocity": 60,
      "instrument": 0,
      "channel": 0,
      "start_step": 27,
      "duration_steps": 1,
      "bar": 3,
      "position": 3,
      "track_index": 0,
      "track_name": "track_0",
      "is_drum": false,
      "harmony": "Eb:maj"
    },
    {
      "pitch": 63,
      "velocity": 60,
      "instrument": 0,
      "channel": 0,
      "start_step": 28,
      "duration_steps": 15,
      "bar": 3,
      "position": 4,
      "track_index": 1,
      "track_name": "track_1",
      "is_drum": false,
      "harmony": "Eb:maj"
    },
    {
      "pitch": 80,
      "velocity": 60,
      "instrument": 0,
      "channel": 0,
      "start_step": 28,
      "duration_steps": 1,
      "bar": 3,
      "position": 4,
      "track_index": 0,
      "track_name": "track_0",
      "is_drum": false,
      "harmony": "Eb:maj"
    },
    {
      "pitch": 83,
      "velocity": 60,
      "instrument": 0,
      "channel": 0,
      "start_step": 29,
      "duration_steps": 1,
      "bar": 3,
      "position": 5,
      "track_index": 0,
      "track_name": "track_0",
      "is_drum": false,
      "harmony": "Eb:maj"
    },
    {
      "pitch": 80,
      "velocity": 60,
      "instrument": 0,
      "channel": 0,
      "start_step": 30,
      "duration_steps": 1,
      "bar": 3,
      "position": 6,
      "track_index": 0,
      "track_name": "track_0",
      "is_drum": false,
      "harmony": "Eb:maj"
    },
    {
      "pitch": 75,
      "velocity": 60,
      "instrument": 0,
      "channel": 0,
      "start_step": 31,
      "duration_steps": 1,
      "bar": 3,
      "position": 7,
      "track_index": 0,
      "track_name": "track_0",
      "is_drum": false,
      "harmony": "Eb:maj"
    },
    {
      "pitch": 75,
      "velocity": 60,
      "instrument": 0,
      "channel": 0,
      "start_step": 32,
      "duration_steps": 1,
      "bar": 3,
      "position": 8,
      "track_index": 0,
      "track_name": "track_0",
      "is_drum": false,
      "harmony": "Eb:maj"
    },
    {
      "pitch": 80,
      "velocity": 60,
      "instrument": 0,
      "channel": 0,
      "start_step": 33,
      "duration_steps": 1,
      "bar": 3,
      "position": 9,
      "track_index": 0,
      "track_name": "track_0",
      "is_drum": false,
      "harmony": "Eb:maj"
    },
    {
      "pitch": 75,
      "velocity": 60,
      "instrument": 0,
      "channel": 0,
      "start_step": 34,
      "duration_steps": 1,
      "bar": 3,
      "position": 10,
      "track_index": 0,
      "track_name": "track_0",
      "is_drum": false,
      "harmony": "Eb:maj"
    },
    {
      "pitch": 71,
      "velocity": 60,
      "instrument": 0,
      "channel": 0,
      "start_step": 35,
      "duration_steps": 1,
      "bar": 3,
      "position": 11,
      "track_index": 0,
      "track_name": "track_0",
      "is_drum": false,
      "harmony": "Eb:maj"
    },
    {
      "pitch": 71,
      "velocity": 60,
      "instrument": 0,
      "channel": 0,
      "start_step": 36,
      "duration_steps": 1,
      "bar": 4,
      "position": 0,
      "track_index": 0,
      "track_name": "track_0",
      "is_drum": false,
      "harmony": "Eb:maj"
    },
    {
      "pitch": 75,
      "velocity": 60,
      "instrument": 0,
      "channel": 0,
      "start_step": 37,
      "duration_steps": 1,
      "bar": 4,
      "position": 1,
      "track_index": 0,
      "track_name": "track_0",
      "is_drum": false,
      "harmony": "Eb:maj"
    },
    {
      "pitch": 71,
      "velocity": 60,
      "instrument": 0,
      "channel": 0,
      "start_step": 38,
      "duration_steps": 1,
      "bar": 4,
      "position": 2,
      "track_index": 0,
      "track_name": "track_0",
      "is_drum": false,
      "harmony": "Eb:maj"
    },
    {
      "pitch": 68,
      "velocity": 60,
      "instrument": 0,
      "channel": 0,
      "start_step": 39,
      "duration_steps": 1,
      "bar": 4,
      "position": 3,
      "track_index": 0,
      "track_name": "track_0",
      "is_drum": false,
      "harmony": "Eb:maj"
    },
    {
      "pitch": 68,
      "velocity": 60,
      "instrument": 0,
      "channel": 0,
      "start_step": 40,
      "duration_steps": 1,
      "bar": 4,
      "position": 4,
      "track_index": 0,
      "track_name": "track_0",
      "is_drum": false,
      "harmony": "Eb:maj"
    },
    {
      "pitch": 71,
      "velocity": 60,
      "instrument": 0,
      "channel": 0,
      "start_step": 41,
      "duration_steps": 1,
      "bar": 4,
      "position": 5,
      "track_index": 0,
      "track_name": "track_0",
      "is_drum": false,
      "harmony": "Eb:maj"
    },
    {
      "pitch": 68,
      "velocity": 60,
      "instrument": 0,
      "channel": 0,
      "start_step": 42,
      "duration_steps": 1,
      "bar": 4,
      "position": 6,
      "track_index": 0,
      "track_name": "track_0",
      "is_drum": false,
      "harmony": "Eb:maj"
    },
    {
      "pitch": 63,
      "velocity": 60,
      "instrument": 0,
      "channel": 0,
      "start_step": 43,
      "duration_steps": 1,
      "bar": 4,
      "position": 7,
      "track_index": 0,
      "track_name": "track_0",
      "is_drum": false,
      "harmony": "Eb:maj"
    },
    {
      "pitch": 51,
      "velocity": 60,
      "instrument": 0,
      "channel": 0,
      "start_step": 44,
      "duration_steps": 2,
      "bar": 4,
      "position": 8,
      "track_index": 1,
      "track_name": "track_1",
      "is_drum": false,
      "harmony": "Eb:maj"
    },
    {
      "pitch": 58,
      "velocity": 60,
      "instrument": 0,
      "channel": 0,
      "start_step": 44,
      "duration_steps": 2,
      "bar": 4,
      "position": 8,
      "track_index": 1,
      "track_name": "track_1",
      "is_drum": false,
      "harmony": "Eb:maj"
    },
    {
      "pitch": 63,
      "velocity": 60,
      "instrument": 0,
      "channel": 0,
      "start_step": 44,
      "duration_steps": 2,
      "bar": 4,
      "position": 8,
      "track_index": 1,
      "track_name": "track_1",
      "is_drum": false,
      "harmony": "Eb:maj"
    },
    {
      "pitch": 67,
      "velocity": 60,
      "instrument": 0,
      "channel": 0,
      "start_step": 44,
      "duration_steps": 1,
      "bar": 4,
      "position": 8,
      "track_index": 0,
      "track_name": "track_0",
      "is_drum": false,
      "harmony": "Eb:maj"
    },
    {
      "pitch": 70,
      "velocity": 60,
      "instrument": 0,
      "channel": 0,
      "start_step": 44,
      "duration_steps": 1,
      "bar": 4,
      "position": 8,
      "track_index": 0,
      "track_name": "track_0",
      "is_drum": false,
      "harmony": "Eb:maj"
    },
    {
      "pitch": 56,
      "velocity": 80,
      "instrument": 0,
      "channel": 0,
      "start_step": 48,
      "duration_steps": 2,
      "bar": 5,
      "position": 0,
      "track_index": 1,
      "track_name": "track_1",
      "is_drum": false,
      "harmony": "E:maj"
    },
    {
      "pitch": 59,
      "velocity": 80,
      "instrument": 0,
      "channel": 0,
      "start_step": 48,
      "duration_steps": 2,
      "bar": 5,
      "position": 0,
      "track_index": 1,
      "track_name": "track_1",
      "is_drum": false,
      "harmony": "E:maj"
    },
    {
      "pitch": 63,
      "velocity": 80,
      "instrument": 0,
      "channel": 0,
      "start_step": 48,
      "duration_steps": 2,
      "bar": 5,
      "position": 0,
      "track_index": 1,
      "track_name": "track_1",
      "is_drum": false,
      "harmony": "E:maj"
    },
    {
      "pitch": 68,
      "velocity": 80,
      "instrument": 0,
      "channel": 0,
      "start_step": 48,
      "duration_steps": 2,
      "bar": 5,
      "position": 0,
      "track_index": 0,
      "track_name": "track_0",
      "is_drum": false,
      "harmony": "E:maj"
    },
    {
      "pitch": 71,
      "velocity": 80,
      "instrument": 0,
      "channel": 0,
      "start_step": 48,
      "duration_steps": 2,
      "bar": 5,
      "position": 0,
      "track_index": 0,
      "track_name": "track_0",
      "is_drum": false,
      "harmony": "E:maj"
    },
    {
      "pitch": 51,
      "velocity": 90,
      "instrument": 0,
      "channel": 0,
      "start_step": 52,
      "duration_steps": 2,
      "bar": 5,
      "position": 4,
      "track_index": 1,
      "track_name": "track_1",
      "is_drum": false,
      "harmony": "E:maj"
    },
    {
      "pitch": 58,
      "velocity": 90,
      "instrument": 0,
      "channel": 0,
      "start_step": 52,
      "duration_steps": 2,
      "bar": 5,
      "position": 4,
      "track_index": 1,
      "track_name": "track_1",
      "is_drum": false,
      "harmony": "E:maj"
    },
    {
      "pitch": 64,
      "velocity": 90,
      "instrument": 0,
      "channel": 0,
      "start_step": 52,
      "duration_steps": 2,
      "bar": 5,
      "position": 4,
      "track_index": 1,
      "track_name": "track_1",
      "is_drum": false,
      "harmony": "E:maj"
    },
    {
      "pitch": 67,
      "velocity": 90,
      "instrument": 0,
      "channel": 0,
      "start_step": 52,
      "duration_steps": 2,
      "bar": 5,
      "position": 4,
      "track_index": 0,
      "track_name": "track_0",
      "is_drum": false,
      "harmony": "E:maj"
    },
    {
      "pitch": 70,
      "velocity": 90,
      "instrument": 0,
      "channel": 0,
      "start_step": 52,
      "duration_steps": 2,
      "bar": 5,
      "position": 4,
      "track_index": 0,
      "track_name": "track_0",
      "is_drum": false,
      "harmony": "E:maj"
    },
    {
      "pitch": 76,
      "velocity": 90,
      "instrument": 0,
      "channel": 0,
      "start_step": 52,
      "duration_steps": 2,
      "bar": 5,
      "position": 4,
      "track_index": 0,
      "track_name": "track_0",
      "is_drum": false,
      "harmony": "E:maj"
    },
    {
      "pitch": 51,
      "velocity": 100,
      "instrument": 0,
      "channel": 0,
      "start_step": 56,
      "duration_steps": 2,
      "bar": 5,
      "position": 8,
      "track_index": 1,
      "track_name": "track_1",
      "is_drum": false,
      "harmony": "E:maj"
    },
    {
      "pitch": 58,
      "velocity": 100,
      "instrument": 0,
      "channel": 0,
      "start_step": 56,
      "duration_steps": 2,
      "bar": 5,
      "position": 8,
      "track_index": 1,
      "track_name": "track_1",
      "is_drum": false,
      "harmony": "E:maj"
    },
    {
      "pitch": 64,
      "velocity": 100,
      "instrument": 0,
      "channel": 0,
      "start_step": 56,
      "duration_steps": 2,
      "bar": 5,
      "position": 8,
      "track_index": 1,
      "track_name": "track_1",
      "is_drum": false,
      "harmony": "E:maj"
    },
    {
      "pitch": 67,
      "velocity": 100,
      "instrument": 0,
      "channel": 0,
      "start_step": 56,
      "duration_steps": 2,
      "bar": 5,
      "position": 8,
      "track_index": 0,
      "track_name": "track_0",
      "is_drum": false,
      "harmony": "E:maj"
    },
    {
      "pitch": 70,
      "velocity": 100,
      "instrument": 0,
      "channel": 0,
      "start_step": 56,
      "duration_steps": 2,
      "bar": 5,
      "position": 8,
      "track_index": 0,
      "track_name": "track_0",
      "is_drum": false,
      "harmony": "E:maj"
    },
    {
      "pitch": 76,
      "velocity": 100,
      "instrument": 0,
      "channel": 0,
      "start_step": 56,
      "duration_steps": 2,
      "bar": 5,
      "position": 8,
      "track_index": 0,
      "track_name": "track_0",
      "is_drum": false,
      "harmony": "E:maj"
    },
    {
      "pitch": 51,
      "velocity": 100,
      "instrument": 0,
      "channel": 0,
      "start_step": 60,
      "duration_steps": 2,
      "bar": 6,
      "position": 0,
      "track_index": 1,
      "track_name": "track_1",
      "is_drum": false,
      "harmony": "Bb:min"
    },
    {
      "pitch": 58,
      "velocity": 100,
      "instrument": 0,
      "channel": 0,
      "start_step": 60,
      "duration_steps": 2,
      "bar": 6,
      "position": 0,
      "track_index": 1,
      "track_name": "track_1",
      "is_drum": false,
      "harmony": "Bb:min"
    },
    {
      "pitch": 64,
      "velocity": 100,
      "instrument": 0,
      "channel": 0,
      "start_step": 60,
      "duration_steps": 2,
      "bar": 6,
      "position": 0,
      "track_index": 1,
      "track_name": "track_1",
      "is_drum": false,
      "harmony": "Bb:min"
    },
    {
      "pitch": 67,
      "velocity": 100,
      "instrument": 0,
      "channel": 0,
      "start_step": 60,
      "duration_steps": 2,
      "bar": 6,
      "position": 0,
      "track_index": 0,
      "track_name": "track_0",
      "is_drum": false,
      "harmony": "Bb:min"
    },
    {
      "pitch": 70,
      "velocity": 100,
      "instrument": 0,
      "channel": 0,
      "start_step": 60,
      "duration_steps": 2,
      "bar": 6,
      "position": 0,
      "track_index": 0,
      "track_name": "track_0",
      "is_drum": false,
      "harmony": "Bb:min"
    },
    {
      "pitch": 76,
      "velocity": 100,
      "instrument": 0,
      "channel": 0,
      "start_step": 60,
      "duration_steps": 2,
      "bar": 6,
      "position": 0,
      "track_index": 0,
      "track_name": "track_0",
      "is_drum": false,
      "harmony": "Bb:min"
    },
    {
      "pitch": 51,
      "velocity": 100,
      "instrument": 0,
      "channel": 0,
      "start_step": 64,
      "duration_steps": 2,
      "bar": 6,
      "position": 4,
      "track_index": 1,
      "track_name": "track_1",
      "is_drum": false,
      "harmony": "Bb:min"
    },
    {
      "pitch": 58,
      "velocity": 100,
      "instrument": 0,
      "channel": 0,
      "start_step": 64,
      "duration_steps": 2,
      "bar": 6,
      "position": 4,
      "track_index": 1,
      "track_name": "track_1",
      "is_drum": false,
      "harmony": "Bb:min"
    },
    {
      "pitch": 63,
      "velocity": 100,
      "instrument": 0,
      "channel": 0,
      "start_step": 64,
      "duration_steps": 2,
      "bar": 6,
      "position": 4,
      "track_index": 1,
      "track_name": "track_1",
      "is_drum": false,
      "harmony": "Bb:min"
    },
    {
      "pitch": 67,
      "velocity": 100,
      "instrument": 0,
      "channel": 0,
      "start_step": 64,
      "duration_steps": 2,
      "bar": 6,
      "position": 4,
      "track_index": 0,
      "track_name": "track_0",
      "is_drum": false,
      "harmony": "Bb:min"
    },
    {
      "pitch": 70,
      "velocity": 100,
      "instrument": 0,
      "channel": 0,
      "start_step": 64,
      "duration_steps": 2,
      "bar": 6,
      "position": 4,
      "track_index": 0,
      "track_name": "track_0",
      "is_drum": false,
      "harmony": "Bb:min"
    },
    {
      "pitch": 75,
      "velocity": 100,
      "instrument": 0,
      "channel": 0,
      "start_step": 64,
      "duration_steps": 2,
      "bar": 6,
      "position": 4,
      "track_index": 0,
      "track_name": "track_0",
      "is_drum": false,
      "harmony": "Bb:min"
    },
    {
      "pitch": 51,
      "velocity": 100,
      "instrument": 0,
      "channel": 0,
      "start_step": 68,
      "duration_steps": 2,
      "bar": 6,
      "position": 8,
      "track_index": 1,
      "track_name": "track_1",
      "is_drum": false,
      "harmony": "Bb:min"
    },
    {
      "pitch": 58,
      "velocity": 100,
      "instrument": 0,
      "channel": 0,
      "start_step": 68,
      "duration_steps": 2,
      "bar": 6,
      "position": 8,
      "track_index": 1,
      "track_name": "track_1",
      "is_drum": false,
      "harmony": "Bb:min"
    },
    {
      "pitch": 61,
      "velocity": 100,
      "instrument": 0,
      "channel": 0,
      "start_step": 68,
      "duration_steps": 2,
      "bar": 6,
      "position": 8,
      "track_index": 1,
      "track_name": "track_1",
      "is_drum": false,
      "harmony": "Bb:min"
    },
    {
      "pitch": 67,
      "velocity": 100,
      "instrument": 0,
      "channel": 0,
      "start_step": 68,
      "duration_steps": 2,
      "bar": 6,
      "position": 8,
      "track_index": 0,
      "track_name": "track_0",
      "is_drum": false,
      "harmony": "Bb:min"
    },
    {
      "pitch": 70,
      "velocity": 100,
      "instrument": 0,
      "channel": 0,
      "start_step": 68,
      "duration_steps": 2,
      "bar": 6,
      "position": 8,
      "track_index": 0,
      "track_name": "track_0",
      "is_drum": false,
      "harmony": "Bb:min"
    },
    {
      "pitch": 73,
      "velocity": 100,
      "instrument": 0,
      "channel": 0,
      "start_step": 68,
      "duration_steps": 2,
      "bar": 6,
      "position": 8,
      "track_index": 0,
      "track_name": "track_0",
      "is_drum": false,
      "harmony": "Bb:min"
    },
    {
      "pitch": 44,
      "velocity": 90,
      "instrument": 0,
      "channel": 0,
      "start_step": 72,
      "duration_steps": 2,
      "bar": 7,
      "position": 0,
      "track_index": 1,
      "track_name": "track_1",
      "is_drum": false,
      "harmony": "Ab:min"
    },
    {
      "pitch": 83,
      "velocity": 90,
      "instrument": 0,
      "channel": 0,
      "start_step": 72,
      "duration_steps": 1,
      "bar": 7,
      "position": 0,
      "track_index": 0,
      "track_name": "track_0",
      "is_drum": false,
      "harmony": "Ab:min"
    },
    {
      "pitch": 87,
      "velocity": 90,
      "instrument": 0,
      "channel": 0,
      "start_step": 73,
      "duration_steps": 1,
      "bar": 7,
      "position": 1,
      "track_index": 0,
      "track_name": "track_0",
      "is_drum": false,
      "harmony": "Ab:min"
    },
    {
      "pitch": 83,
      "velocity": 90,
      "instrument": 0,
      "channel": 0,
      "start_step": 74,
      "duration_steps": 1,
      "bar": 7,
      "position": 2,
      "track_index": 0,
      "track_name": "track_0",
      "is_drum": false,
      "harmony": "Ab:min"
    },
    {
      "pitch": 80,
      "velocity": 90,
      "instrument": 0,
      "channel": 0,
      "start_step": 75,
      "duration_steps": 1,
      "bar": 7,
      "position": 3,
      "track_index": 0,
      "track_name": "track_0",
      "is_drum": false,
      "harmony": "Ab:min"
    },
    {
      "pitch": 56,
      "velocity": 90,
      "instrument": 0,
      "channel": 0,
      "start_step": 76,
      "duration_steps": 16,
      "bar": 7,
      "position": 4,
      "track_index": 1,
      "track_name": "track_1",
      "is_drum": false,
      "harmony": "Ab:min"
    },
    {
      "pitch": 59,
      "velocity": 90,
      "instrument": 0,
      "channel": 0,
      "start_step": 76,
      "duration_steps": 16,
      "bar": 7,
      "position": 4,
      "track_index": 1,
      "track_name": "track_1",
      "is_drum": false,
      "harmony": "Ab:min"
    },
    {
      "pitch": 63,
      "velocity": 90,
      "instrument": 0,
      "channel": 0,
      "start_step": 76,
      "duration_steps": 15,
      "bar": 7,
      "position": 4,
      "track_index": 1,
      "track_name": "track_1",
      "is_drum": false,
      "harmony": "Ab:min"
    },
    {
      "pitch": 80,
      "velocity": 90,
      "instrument": 0,
      "channel": 0,
      "start_step": 76,
      "duration_steps": 1,
      "bar": 7,
      "position": 4,
      "track_index": 0,
      "track_name": "track_0",
      "is_drum": false,
      "harmony": "Ab:min"
    },
    {
      "pitch": 83,
      "velocity": 90,
      "instrument": 0,
      "channel": 0,
      "start_step": 77,
      "duration_steps": 1,
      "bar": 7,
      "position": 5,
      "track_index": 0,
      "track_name": "track_0",
      "is_drum": false,
      "harmony": "Ab:min"
    },
    {
      "pitch": 80,
      "velocity": 90,
      "instrument": 0,
      "channel": 0,
      "start_step": 78,
      "duration_steps": 1,
      "bar": 7,
      "position": 6,
      "track_index": 0,
      "track_name": "track_0",
      "is_drum": false,
      "harmony": "Ab:min"
    },
    {
      "pitch": 75,
      "velocity": 90,
      "instrument": 0,
      "channel": 0,
      "start_step": 79,
      "duration_steps": 1,
      "bar": 7,
      "position": 7,
      "track_index": 0,
      "track_name": "track_0",
      "is_drum": false,
      "harmony": "Ab:min"
    },
    {
      "pitch": 75,
      "velocity": 90,
      "instrument": 0,
      "channel": 0,
      "start_step": 80,
      "duration_steps": 1,
      "bar": 7,
      "position": 8,
      "track_index": 0,
      "track_name": "track_0",
      "is_drum": false,
      "harmony": "Ab:min"
    },
    {
      "pitch": 80,
      "velocity": 90,
      "instrument": 0,
      "channel": 0,
      "start_step": 81,
      "duration_steps": 1,
      "bar": 7,
      "position": 9,
      "track_index": 0,
      "track_name": "track_0",
      "is_drum": false,
      "harmony": "Ab:min"
    },
    {
      "pitch": 75,
      "velocity": 90,
      "instrument": 0,
      "channel": 0,
      "start_step": 82,
      "duration_steps": 1,
      "bar": 7,
      "position": 10,
      "track_index": 0,
      "track_name": "track_0",
      "is_drum": false,
      "harmony": "Ab:min"
    },
    {
      "pitch": 71,
      "velocity": 90,
      "instrument": 0,
      "channel": 0,
      "start_step": 83,
      "duration_steps": 1,
      "bar": 7,
      "position": 11,
      "track_index": 0,
      "track_name": "track_0",
      "is_drum": false,
      "harmony": "Ab:min"
    },
    {
      "pitch": 71,
      "velocity": 90,
      "instrument": 0,
      "channel": 0,
      "start_step": 84,
      "duration_steps": 1,
      "bar": 8,
      "position": 0,
      "track_index": 0,
      "track_name": "track_0",
      "is_drum": false,
      "harmony": "Eb:maj"
    },
    {
      "pitch": 75,
      "velocity": 90,
      "instrument": 0,
      "channel": 0,
      "start_step": 85,
      "duration_steps": 1,
      "bar": 8,
      "position": 1,
      "track_index": 0,
      "track_name": "track_0",
      "is_drum": false,
      "harmony": "Eb:maj"
    },
    {
      "pitch": 71,
      "velocity": 90,
      "instrument": 0,
      "channel": 0,
      "start_step": 86,
      "duration_steps": 1,
      "bar": 8,
      "position": 2,
      "track_index": 0,
      "track_name": "track_0",
      "is_drum": false,
      "harmony": "Eb:maj"
    },
    {
      "pitch": 68,
      "velocity": 90,
      "instrument": 0,
      "channel": 0,
      "start_step": 87,
      "duration_steps": 1,
      "bar": 8,
      "position": 3,
      "track_index": 0,
      "track_name": "track_0",
      "is_drum": false,
      "harmony": "Eb:maj"
    },
    {
      "pitch": 68,
      "velocity": 90,
      "instrument": 0,
      "channel": 0,
      "start_step": 88,
      "duration_steps": 1,
      "bar": 8,
      "position": 4,
      "track_index": 0,
      "track_name": "track_0",
      "is_drum": false,
      "harmony": "Eb:maj"
    },
    {
      "pitch": 71,
      "velocity": 90,
      "instrument": 0,
      "channel": 0,
      "start_step": 89,
      "duration_steps": 1,
      "bar": 8,
      "position": 5,
      "track_index": 0,
      "track_name": "track_0",
      "is_drum": false,
      "harmony": "Eb:maj"
    },
    {
      "pitch": 68,
      "velocity": 90,
      "instrument": 0,
      "channel": 0,
      "start_step": 90,
      "duration_steps": 1,
      "bar": 8,
      "position": 6,
      "track_index": 0,
      "track_name": "track_0",
      "is_drum": false,
      "harmony": "Eb:maj"
    },
    {
      "pitch": 63,
      "velocity": 90,
      "instrument": 0,
      "channel": 0,
      "start_step": 91,
      "duration_steps": 1,
      "bar": 8,
      "position": 7,
      "track_index": 0,
      "track_name": "track_0",
      "is_drum": false,
      "harmony": "Eb:maj"
    },
    {
      "pitch": 51,
      "velocity": 90,
      "instrument": 0,
      "channel": 0,
      "start_step": 92,
      "duration_steps": 2,
      "bar": 8,
      "position": 8,
      "track_index": 1,
      "track_name": "track_1",
      "is_drum": false,
      "harmony": "Eb:maj"
    },
    {
      "pitch": 58,
      "velocity": 90,
      "instrument": 0,
      "channel": 0,
      "start_step": 92,
      "duration_steps": 2,
      "bar": 8,
      "position": 8,
      "track_index": 1,
      "track_name": "track_1",
      "is_drum": false,
      "harmony": "Eb:maj"
    },
    {
      "pitch": 63,
      "velocity": 90,
      "instrument": 0,
      "channel": 0,
      "start_step": 92,
      "duration_steps": 2,
      "bar": 8,
      "position": 8,
      "track_index": 1,
      "track_name": "track_1",
      "is_drum": false,
      "harmony": "Eb:maj"
    },
    {
      "pitch": 67,
      "velocity": 90,
      "instrument": 0,
      "channel": 0,
      "start_step": 92,
      "duration_steps": 1,
      "bar": 8,
      "position": 8,
      "track_index": 0,
      "track_name": "track_0",
      "is_drum": false,
      "harmony": "Eb:maj"
    },
    {
      "pitch": 70,
      "velocity": 90,
      "instrument": 0,
      "channel": 0,
      "start_step": 92,
      "duration_steps": 1,
      "bar": 8,
      "position": 8,
      "track_index": 0,
      "track_name": "track_0",
      "is_drum": false,
      "harmony": "Eb:maj"
    },
    {
      "pitch": 44,
      "velocity": 90,
      "instrument": 0,
      "channel": 0,
      "start_step": 96,
      "duration_steps": 2,
      "bar": 9,
      "position": 0,
      "track_index": 1,
      "track_name": "track_1",
      "is_drum": false,
      "harmony": "Ab:min"
    },
    {
      "pitch": 83,
      "velocity": 90,
      "instrument": 0,
      "channel": 0,
      "start_step": 96,
      "duration_steps": 1,
      "bar": 9,
      "position": 0,
      "track_index": 0,
      "track_name": "track_0",
      "is_drum": false,
      "harmony": "Ab:min"
    },
    {
      "pitch": 87,
      "velocity": 90,
      "instrument": 0,
      "channel": 0,
      "start_step": 97,
      "duration_steps": 1,
      "bar": 9,
      "position": 1,
      "track_index": 0,
      "track_name": "track_0",
      "is_drum": false,
      "harmony": "Ab:min"
    },
    {
      "pitch": 83,
      "velocity": 90,
      "instrument": 0,
      "channel": 0,
      "start_step": 98,
      "duration_steps": 1,
      "bar": 9,
      "position": 2,
      "track_index": 0,
      "track_name": "track_0",
      "is_drum": false,
      "harmony": "Ab:min"
    },
    {
      "pitch": 80,
      "velocity": 90,
      "instrument": 0,
      "channel": 0,
      "start_step": 99,
      "duration_steps": 1,
      "bar": 9,
      "position": 3,
      "track_index": 0,
      "track_name": "track_0",
      "is_drum": false,
      "harmony": "Ab:min"
    },
    {
      "pitch": 56,
      "velocity": 90,
      "instrument": 0,
      "channel": 0,
      "start_step": 100,
      "duration_steps": 16,
      "bar": 9,
      "position": 4,
      "track_index": 1,
      "track_name": "track_1",
      "is_drum": false,
      "harmony": "Ab:min"
    },
    {
      "pitch": 59,
      "velocity": 90,
      "instrument": 0,
      "channel": 0,
      "start_step": 100,
      "duration_steps": 16,
      "bar": 9,
      "position": 4,
      "track_index": 1,
      "track_name": "track_1",
      "is_drum": false,
      "harmony": "Ab:min"
    },
    {
      "pitch": 63,
      "velocity": 90,
      "instrument": 0,
      "channel": 0,
      "start_step": 100,
      "duration_steps": 15,
      "bar": 9,
      "position": 4,
      "track_index": 1,
      "track_name": "track_1",
      "is_drum": false,
      "harmony": "Ab:min"
    },
    {
      "pitch": 80,
      "velocity": 90,
      "instrument": 0,
      "channel": 0,
      "start_step": 100,
      "duration_steps": 1,
      "bar": 9,
      "position": 4,
      "track_index": 0,
      "track_name": "track_0",
      "is_drum": false,
      "harmony": "Ab:min"
    },
    {
      "pitch": 83,
      "velocity": 90,
      "instrument": 0,
      "channel": 0,
      "start_step": 101,
      "duration_steps": 1,
      "bar": 9,
      "position": 5,
      "track_index": 0,
      "track_name": "track_0",
      "is_drum": false,
      "harmony": "Ab:min"
    },
    {
      "pitch": 80,
      "velocity": 90,
      "instrument": 0,
      "channel": 0,
      "start_step": 102,
      "duration_steps": 1,
      "bar": 9,
      "position": 6,
      "track_index": 0,
      "track_name": "track_0",
      "is_drum": false,
      "harmony": "Ab:min"
    },
    {
      "pitch": 75,
      "velocity": 90,
      "instrument": 0,
      "channel": 0,
      "start_step": 103,
      "duration_steps": 1,
      "bar": 9,
      "position": 7,
      "track_index": 0,
      "track_name": "track_0",
      "is_drum": false,
      "harmony": "Ab:min"
    },
    {
      "pitch": 75,
      "velocity": 90,
      "instrument": 0,
      "channel": 0,
      "start_step": 104,
      "duration_steps": 1,
      "bar": 9,
      "position": 8,
      "track_index": 0,
      "track_name": "track_0",
      "is_drum": false,
      "harmony": "Ab:min"
    },
    {
      "pitch": 80,
      "velocity": 90,
      "instrument": 0,
      "channel": 0,
      "start_step": 105,
      "duration_steps": 1,
      "bar": 9,
      "position": 9,
      "track_index": 0,
      "track_name": "track_0",
      "is_drum": false,
      "harmony": "Ab:min"
    },
    {
      "pitch": 75,
      "velocity": 90,
      "instrument": 0,
      "channel": 0,
      "start_step": 106,
      "duration_steps": 1,
      "bar": 9,
      "position": 10,
      "track_index": 0,
      "track_name": "track_0",
      "is_drum": false,
      "harmony": "Ab:min"
    },
    {
      "pitch": 71,
      "velocity": 90,
      "instrument": 0,
      "channel": 0,
      "start_step": 107,
      "duration_steps": 1,
      "bar": 9,
      "position": 11,
      "track_index": 0,
      "track_name": "track_0",
      "is_drum": false,
      "harmony": "Ab:min"
    },
    {
      "pitch": 71,
      "velocity": 90,
      "instrument": 0,
      "channel": 0,
      "start_step": 108,
      "duration_steps": 1,
      "bar": 10,
      "position": 0,
      "track_index": 0,
      "track_name": "track_0",
      "is_drum": false,
      "harmony": "Eb:maj"
    },
    {
      "pitch": 75,
      "velocity": 90,
      "instrument": 0,
      "channel": 0,
      "start_step": 109,
      "duration_steps": 1,
      "bar": 10,
      "position": 1,
      "track_index": 0,
      "track_name": "track_0",
      "is_drum": false,
      "harmony": "Eb:maj"
    },
    {
      "pitch": 71,
      "velocity": 90,
      "instrument": 0,
      "channel": 0,
      "start_step": 110,
      "duration_steps": 1,
      "bar": 10,
      "position": 2,
      "track_index": 0,
      "track_name": "track_0",
      "is_drum": false,
      "harmony": "Eb:maj"
    },
    {
      "pitch": 68,
      "velocity": 90,
      "instrument": 0,
      "channel": 0,
      "start_step": 111,
      "duration_steps": 1,
      "bar": 10,
      "position": 3,
      "track_index": 0,
      "track_name": "track_0",
      "is_drum": false,
      "harmony": "Eb:maj"
    },
    {
      "pitch": 68,
      "velocity": 90,
      "instrument": 0,
      "channel": 0,
      "start_step": 112,
      "duration_steps": 1,
      "bar": 10,
      "position": 4,
      "track_index": 0,
      "track_name": "track_0",
      "is_drum": false,
      "harmony": "Eb:maj"
    },
    {
      "pitch": 71,
      "velocity": 90,
      "instrument": 0,
      "channel": 0,
      "start_step": 113,
      "duration_steps": 1,
      "bar": 10,
      "position": 5,
      "track_index": 0,
      "track_name": "track_0",
      "is_drum": false,
      "harmony": "Eb:maj"
    },
    {
      "pitch": 68,
      "velocity": 90,
      "instrument": 0,
      "channel": 0,
      "start_step": 114,
      "duration_steps": 1,
      "bar": 10,
      "position": 6,
      "track_index": 0,
      "track_name": "track_0",
      "is_drum": false,
      "harmony": "Eb:maj"
    },
    {
      "pitch": 63,
      "velocity": 90,
      "instrument": 0,
      "channel": 0,
      "start_step": 115,
      "duration_steps": 1,
      "bar": 10,
      "position": 7,
      "track_index": 0,
      "track_name": "track_0",
      "is_drum": false,
      "harmony": "Eb:maj"
    },
    {
      "pitch": 51,
      "velocity": 90,
      "instrument": 0,
      "channel": 0,
      "start_step": 116,
      "duration_steps": 2,
      "bar": 10,
      "position": 8,
      "track_index": 1,
      "track_name": "track_1",
      "is_drum": false,
      "harmony": "Eb:maj"
    },
    {
      "pitch": 58,
      "velocity": 90,
      "instrument": 0,
      "channel": 0,
      "start_step": 116,
      "duration_steps": 2,
      "bar": 10,
      "position": 8,
      "track_index": 1,
      "track_name": "track_1",
      "is_drum": false,
      "harmony": "Eb:maj"
    },
    {
      "pitch": 63,
      "velocity": 90,
      "instrument": 0,
      "channel": 0,
      "start_step": 116,
      "duration_steps": 2,
      "bar": 10,
      "position": 8,
      "track_index": 1,
      "track_name": "track_1",
      "is_drum": false,
      "harmony": "Eb:maj"
    },
    {
      "pitch": 67,
      "velocity": 90,
      "instrument": 0,
      "channel": 0,
      "start_step": 116,
      "duration_steps": 1,
      "bar": 10,
      "position": 8,
      "track_index": 0,
      "track_name": "track_0",
      "is_drum": false,
      "harmony": "Eb:maj"
    },
    {
      "pitch": 70,
      "velocity": 90,
      "instrument": 0,
      "channel": 0,
      "start_step": 116,
      "duration_steps": 1,
      "bar": 10,
      "position": 8,
      "track_index": 0,
      "track_name": "track_0",
      "is_drum": false,
      "harmony": "Eb:maj"
    },
    {
      "pitch": 56,
      "velocity": 90,
      "instrument": 0,
      "channel": 0,
      "start_step": 120,
      "duration_steps": 2,
      "bar": 11,
      "position": 0,
      "track_index": 1,
      "track_name": "track_1",
      "is_drum": false,
      "harmony": "E:maj"
    },
    {
      "pitch": 59,
      "velocity": 90,
      "instrument": 0,
      "channel": 0,
      "start_step": 120,
      "duration_steps": 2,
      "bar": 11,
      "position": 0,
      "track_index": 1,
      "track_name": "track_1",
      "is_drum": false,
      "harmony": "E:maj"
    },
    {
      "pitch": 63,
      "velocity": 90,
      "instrument": 0,
      "channel": 0,
      "start_step": 120,
      "duration_steps": 2,
      "bar": 11,
      "position": 0,
      "track_index": 1,
      "track_name": "track_1",
      "is_drum": false,
      "harmony": "E:maj"
    },
    {
      "pitch": 68,
      "velocity": 90,
      "instrument": 0,
      "channel": 0,
      "start_step": 120,
      "duration_steps": 2,
      "bar": 11,
      "position": 0,
      "track_index": 0,
      "track_name": "track_0",
      "is_drum": false,
      "harmony": "E:maj"
    },
    {
      "pitch": 71,
      "velocity": 90,
      "instrument": 0,
      "channel": 0,
      "start_step": 120,
      "duration_steps": 2,
      "bar": 11,
      "position": 0,
      "track_index": 0,
      "track_name": "track_0",
      "is_drum": false,
      "harmony": "E:maj"
    },
    {
      "pitch": 54,
      "velocity": 95,
      "instrument": 0,
      "channel": 0,
      "start_step": 124,
      "duration_steps": 2,
      "bar": 11,
      "position": 4,
      "track_index": 1,
      "track_name": "track_1",
      "is_drum": false,
      "harmony": "E:maj"
    },
    {
      "pitch": 58,
      "velocity": 95,
      "instrument": 0,
      "channel": 0,
      "start_step": 124,
      "duration_steps": 2,
      "bar": 11,
      "position": 4,
      "track_index": 1,
      "track_name": "track_1",
      "is_drum": false,
      "harmony": "E:maj"
    },
    {
      "pitch": 64,
      "velocity": 95,
      "instrument": 0,
      "channel": 0,
      "start_step": 124,
      "duration_steps": 2,
      "bar": 11,
      "position": 4,
      "track_index": 1,
      "track_name": "track_1",
      "is_drum": false,
      "harmony": "E:maj"
    },
    {
      "pitch": 66,
      "velocity": 95,
      "instrument": 0,
      "channel": 0,
      "start_step": 124,
      "duration_steps": 2,
      "bar": 11,
      "position": 4,
      "track_index": 0,
      "track_name": "track_0",
      "is_drum": false,
      "harmony": "E:maj"
    },
    {
      "pitch": 70,
      "velocity": 95,
      "instrument": 0,
      "channel": 0,
      "start_step": 124,
      "duration_steps": 2,
      "bar": 11,
      "position": 4,
      "track_index": 0,
      "track_name": "track_0",
      "is_drum": false,
      "harmony": "E:maj"
    },
    {
      "pitch": 76,
      "velocity": 95,
      "instrument": 0,
      "channel": 0,
      "start_step": 124,
      "duration_steps": 2,
      "bar": 11,
      "position": 4,
      "track_index": 0,
      "track_name": "track_0",
      "is_drum": false,
      "harmony": "E:maj"
    },
    {
      "pitch": 54,
      "velocity": 100,
      "instrument": 0,
      "channel": 0,
      "start_step": 128,
      "duration_steps": 2,
      "bar": 11,
      "position": 8,
      "track_index": 1,
      "track_name": "track_1",
      "is_drum": false,
      "harmony": "E:maj"
    }
  ],
  "phrase_boundaries": [
    1,
    5,
    8,
    10
  ],
  "source_path": "Schubert/Impromptu_op.90_D.899/4_no_repeat/midi_score.mid",
  "metadata": {
    "ticks_per_beat": 480,
    "midi_format": 1,
    "time_signature_changes": 1,
    "tempo_changes": 1,
    "cadence_bars": [
      7,
      9,
      27,
      28,
      121,
      122,
      171,
      179,
      197,
      198
    ],
    "global_harmony_vocab": {
      "unknown": 0,
      "C:maj": 1,
      "C#:maj": 2,
      "D:maj": 3,
      "Eb:maj": 4,
      "E:maj": 5,
      "F:maj": 6,
      "F#:maj": 7,
      "G:maj": 8,
      "Ab:maj": 9,
      "A:maj": 10,
      "Bb:maj": 11,
      "B:maj": 12,
      "C:min": 13,
      "C#:min": 14,
      "D:min": 15,
      "Eb:min": 16,
      "E:min": 17,
      "F:min": 18,
      "F#:min": 19,
      "G:min": 20,
      "Ab:min": 21,
      "A:min": 22,
      "Bb:min": 23,
      "B:min": 24
    },
    "dataset_kind": "asap",
    "dataset_source_mode": "score",
    "asap_piece_group": "schubert::impromptu_op_90_d_899_4",
    "composer": "Schubert",
    "title": "Impromptu_op.90_D.899_4",
    "folder": "Schubert/Impromptu_op.90_D.899/4_no_repeat",
    "xml_score": "Schubert/Impromptu_op.90_D.899/4_no_repeat/xml_score.musicxml",
    "midi_score": "Schubert/Impromptu_op.90_D.899/4_no_repeat/midi_score.mid",
    "midi_performance": "Schubert/Impromptu_op.90_D.899/4_no_repeat/Huang10M.mid",
    "annotated_primary_time_signature": "3/4",
    "annotated_key_signature_tonic": 8,
    "annotated_key_signature_accidentals": -4,
    "annotated_beat_count": 823,
    "annotated_downbeat_count": 275,
    "annotated_downbeats_score_map": [
      0,
      1,
      2,
      3,
      4,
      5,
      6,
      7,
      8,
      9,
      10,
      11,
      12,
      13,
      14,
      15,
      16,
      17,
      18,
      19,
      20,
      21,
      22,
      23,
      24,
      25,
      26,
      27,
      28,
      29,
      30,
      31,
      32,
      33,
      34,
      35,
      36,
      37,
      38,
      39,
      40,
      41,
      42,
      43,
      44,
      45,
      46,
      47,
      48,
      49,
      50,
      51,
      52,
      53,
      54,
      55,
      56,
      57,
      58,
      59,
      60,
      61,
      62,
      63,
      64,
      65,
      66,
      67,
      68,
      69,
      70,
      71,
      72,
      73,
      74,
      75,
      76,
      77,
      78,
      79,
      80,
      81,
      82,
      83,
      84,
      85,
      86,
      87,
      88,
      89,
      90,
      91,
      92,
      93,
      94,
      95,
      96,
      97,
      98,
      99,
      100,
      101,
      102,
      103,
      104,
      105,
      106,
      107,
      108,
      109,
      110,
      111,
      112,
      113,
      114,
      115,
      116,
      117,
      118,
      119,
      120,
      121,
      122,
      123,
      124,
      125,
      126,
      127,
      128,
      129,
      130,
      131,
      132,
      133,
      134,
      135,
      136,
      137,
      138,
      139,
      140,
      141,
      142,
      143,
      144,
      145,
      146,
      147,
      148,
      149,
      150,
      151,
      152,
      153,
      154,
      155,
      156,
      157,
      158,
      159,
      160,
      161,
      162,
      163,
      164,
      165,
      166,
      167,
      168,
      169,
      170,
      171,
      172,
      173,
      174,
      175,
      176,
      177,
      178,
      179,
      180,
      181,
      182,
      183,
      184,
      185,
      186,
      187,
      188,
      189,
      190,
      191,
      192,
      193,
      194,
      195,
      196,
      197,
      198,
      199,
      200,
      201,
      202,
      203,
      204,
      205,
      206,
      207,
      208,
      209,
      210,
      211,
      212,
      213,
      214,
      215,
      216,
      217,
      218,
      219,
      220,
      221,
      222,
      223,
      224,
      225,
      226,
      227,
      228,
      229,
      230,
      231,
      232,
      233,
      234,
      235,
      236,
      237,
      238,
      239,
      240,
      241,
      242,
      243,
      244,
      245,
      246,
      247,
      248,
      249,
      250,
      251,
      252,
      253,
      254,
      255,
      256,
      257,
      258,
      259,
      260,
      261,
      262,
      263,
      264,
      265,
      266,
      267,
      268,
      269,
      270,
      271,
      272,
      273,
      274
    ],
    "score_and_performance_aligned": true,
    "source_piece_id": "schubert__impromptu_op_90_d_899__4_no_repeat__midi_score",
    "slice_start_event": 0,
    "slice_event_count": 160
  },
  "key": "Ab:major",
  "chords": [
    "Ab:min",
    "Eb:maj",
    "Eb:maj",
    "Eb:maj",
    "E:maj",
    "Bb:min",
    "Ab:min",
    "Eb:maj",
    "Ab:min",
    "Eb:maj",
    "E:maj",
    "F#:maj",
    "B:maj",
    "F#:maj",
    "B:maj",
    "F#:maj",
    "C#:min",
    "F#:maj",
    "B:min",
    "F#:maj",
    "B:min",
    "F#:maj",
    "B:min",
    "A:min",
    "D:maj",
    "C#:min",
    "Ab:min",
    "Ab:min",
    "Eb:maj",
    "Eb:maj",
    "Ab:maj",
    "C:min",
    "Eb:maj",
    "Eb:maj",
    "Ab:maj",
    "Eb:maj",
    "Ab:maj",
    "Eb:maj",
    "Ab:maj",
    "C#:maj",
    "Eb:maj",
    "Ab:maj",
    "Ab:maj",
    "C#:maj",
    "Eb:maj",
    "Ab:maj",
    "Ab:maj",
    "C#:maj",
    "Eb:maj",
    "Ab:maj",
    "Ab:maj",
    "C#:maj",
    "Eb:maj",
    "Ab:maj",
    "Eb:maj",
    "Ab:maj",
    "F:maj",
    "Bb:min",
    "F:maj",
    "Bb:min",
    "Ab:maj",
    "C#:maj",
    "Ab:maj",
    "C#:maj",
    "C#:maj",
    "C#:maj",
    "C#:maj",
    "Bb:min",
    "C#:min",
    "C#:maj",
    "Bb:min",
    "Ab:maj",
    "C#:maj",
    "Eb:maj",
    "Eb:maj",
    "Ab:maj",
    "C#:maj",
    "Ab:maj",
    "Eb:maj",
    "Ab:maj",
    "Ab:maj",
    "Eb:maj",
    "C:min",
    "Ab:maj",
    "C#:maj",
    "Eb:maj",
    "C:min",
    "Ab:maj",
    "C#:maj",
    "Eb:maj",
    "Ab:maj",
    "Ab:maj",
    "C#:maj",
    "Eb:maj",
    "Ab:maj",
    "Eb:maj",
    "Ab:maj",
    "Eb:maj",
    "C:min",
    "C:min",
    "C:min",
    "Eb:maj",
    "Ab:maj",
    "Ab:maj",
    "C:min",
    "Ab:maj",
    "Ab:maj",
    "Ab:maj",
    "A:maj",
    "Ab:maj",
    "Ab:maj",
    "C#:min",
    "C#:maj",
    "C:min",
    "C#:min",
    "E:maj",
    "D:maj",
    "D:maj",
    "Eb:maj",
    "Eb:maj",
    "Ab:min",
    "Ab:min",
    "Eb:min",
    "Eb:min",
    "Ab:maj",
    "C#:min",
    "E:min",
    "Eb:maj",
    "Ab:maj",
    "C:min",
    "Eb:min",
    "Eb:min",
    "Ab:maj",
    "C#:min",
    "E:min",
    "C#:min",
    "C#:min",
    "Ab:maj",
    "Ab:maj",
    "Ab:maj",
    "F#:maj",
    "Ab:maj",
    "Ab:maj",
    "C#:maj",
    "C#:maj",
    "C:min",
    "C#:min",
    "E:maj",
    "D:maj",
    "B:min",
    "D:maj",
    "D:maj",
    "G:maj",
    "A:maj",
    "Ab:maj",
    "Ab:maj",
    "C#:min",
    "C#:min",
    "C#:min",
    "C#:min",
    "Ab:maj",
    "C#:maj",
    "G:min",
    "C#:maj",
    "Bb:min",
    "G:min",
    "C#:min",
    "C#:min",
    "C#:maj",
    "C#:maj",
    "Ab:min",
    "C:min",
    "Ab:maj",
    "Eb:maj",
    "E:maj",
    "Bb:min",
    "B:maj",
    "C:min",
    "Ab:min",
    "Eb:maj",
    "E:maj",
    "F#:maj",
    "B:maj",
    "F#:maj",
    "B:maj",
    "F#:maj",
    "C#:min",
    "F#:maj",
    "B:min",
    "F#:maj",
    "B:min",
    "F#:maj",
    "B:min",
    "A:maj",
    "F#:maj",
    "C#:min",
    "Ab:min",
    "Ab:min",
    "Eb:maj",
    "Eb:maj",
    "Ab:maj",
    "Eb:maj",
    "Ab:maj",
    "Eb:maj",
    "Ab:maj",
    "Eb:maj",
    "Ab:maj",
    "Eb:maj",
    "Ab:maj",
    "C#:maj",
    "Eb:maj",
    "C:min",
    "Ab:maj",
    "C#:maj",
    "Eb:maj",
    "C:min",
    "Ab:maj",
    "C#:maj",
    "Eb:maj",
    "Ab:maj",
    "Ab:maj",
    "C#:maj",
    "Eb:maj",
    "Ab:maj",
    "Eb:maj",
    "Ab:maj",
    "F:maj",
    "Bb:min",
    "F:maj",
    "Bb:min",
    "Ab:maj",
    "C#:maj",
    "Ab:maj",
    "C#:maj",
    "C#:maj",
    "C#:maj",
    "C#:maj",
    "C#:min",
    "Bb:min",
    "C#:maj",
    "Bb:min",
    "Ab:maj",
    "C#:maj",
    "Eb:maj",
    "Eb:maj",
    "Ab:maj",
    "C#:maj",
    "Ab:maj",
    "Eb:maj",
    "Ab:maj",
    "C#:maj",
    "Eb:maj",
    "C:min",
    "Ab:maj",
    "C#:maj",
    "Eb:maj",
    "C:min",
    "Ab:maj",
    "C#:maj",
    "Eb:maj",
    "Ab:maj",
    "Ab:maj",
    "C#:maj",
    "Eb:maj",
    "C:min",
    "Eb:maj",
    "Ab:maj",
    "Eb:maj",
    "C:min",
    "C:min",
    "C:min",
    "Eb:maj",
    "Ab:maj",
    "Eb:maj",
    "Ab:maj"
  ]
}