{
  "piece_id": "beethoven__piano_sonatas__26_1__midi_score",
  "resolution": "sixteenth",
  "steps_per_beat": 4,
  "bar_steps": 8,
  "time_signature": "2/4",
  "tempo_bpm": 28.999993233334912,
  "note_events": [
    {
      "pitch": 63,
      "velocity": 49,
      "instrument": 0,
      "channel": 0,
      "start_step": 0,
      "duration_steps": 4,
      "bar": 1,
      "position": 0,
      "track_index": 0,
      "track_name": "track_0",
      "is_drum": false,
      "harmony": "Eb:maj"
    },
    {
      "pitch": 67,
      "velocity": 49,
      "instrument": 0,
      "channel": 0,
      "start_step": 0,
      "duration_steps": 4,
      "bar": 1,
      "position": 0,
      "track_index": 0,
      "track_name": "track_0",
      "is_drum": false,
      "harmony": "Eb:maj"
    },
    {
      "pitch": 58,
      "velocity": 49,
      "instrument": 0,
      "channel": 0,
      "start_step": 4,
      "duration_steps": 4,
      "bar": 1,
      "position": 4,
      "track_index": 0,
      "track_name": "track_0",
      "is_drum": false,
      "harmony": "Eb:maj"
    },
    {
      "pitch": 65,
      "velocity": 49,
      "instrument": 0,
      "channel": 0,
      "start_step": 4,
      "duration_steps": 4,
      "bar": 1,
      "position": 4,
      "track_index": 0,
      "track_name": "track_0",
      "is_drum": false,
      "harmony": "Eb:maj"
    },
    {
      "pitch": 36,
      "velocity": 49,
      "instrument": 0,
      "channel": 0,
      "start_step": 8,
      "duration_steps": 6,
      "bar": 2,
      "position": 0,
      "track_index": 1,
      "track_name": "track_1",
      "is_drum": false,
      "harmony": "C:min"
    },
    {
      "pitch": 48,
      "velocity": 49,
      "instrument": 0,
      "channel": 0,
      "start_step": 8,
      "duration_steps": 6,
      "bar": 2,
      "position": 0,
      "track_index": 1,
      "track_name": "track_1",
      "is_drum": false,
      "harmony": "C:min"
    },
    {
      "pitch": 55,
      "velocity": 49,
      "instrument": 0,
      "channel": 0,
      "start_step": 8,
      "duration_steps": 6,
      "bar": 2,
      "position": 0,
      "track_index": 0,
      "track_name": "track_0",
      "is_drum": false,
      "harmony": "C:min"
    },
    {
      "pitch": 63,
      "velocity": 49,
      "instrument": 0,
      "channel": 0,
      "start_step": 8,
      "duration_steps": 6,
      "bar": 2,
      "position": 0,
      "track_index": 0,
      "track_name": "track_0",
      "is_drum": false,
      "harmony": "C:min"
    },
    {
      "pitch": 48,
      "velocity": 49,
      "instrument": 0,
      "channel": 0,
      "start_step": 14,
      "duration_steps": 2,
      "bar": 2,
      "position": 6,
      "track_index": 1,
      "track_name": "track_1",
      "is_drum": false,
      "harmony": "C:min"
    },
    {
      "pitch": 51,
      "velocity": 49,
      "instrument": 0,
      "channel": 0,
      "start_step": 14,
      "duration_steps": 2,
      "bar": 2,
      "position": 6,
      "track_index": 1,
      "track_name": "track_1",
      "is_drum": false,
      "harmony": "C:min"
    },
    {
      "pitch": 63,
      "velocity": 49,
      "instrument": 0,
      "channel": 0,
      "start_step": 14,
      "duration_steps": 1,
      "bar": 2,
      "position": 6,
      "track_index": 0,
      "track_name": "track_0",
      "is_drum": false,
      "harmony": "C:min"
    },
    {
      "pitch": 46,
      "velocity": 49,
      "instrument": 0,
      "channel": 0,
      "start_step": 16,
      "duration_steps": 2,
      "bar": 3,
      "position": 0,
      "track_index": 1,
      "track_name": "track_1",
      "is_drum": false,
      "harmony": "C:maj"
    },
    {
      "pitch": 52,
      "velocity": 49,
      "instrument": 0,
      "channel": 0,
      "start_step": 16,
      "duration_steps": 2,
      "bar": 3,
      "position": 0,
      "track_index": 1,
      "track_name": "track_1",
      "is_drum": false,
      "harmony": "C:maj"
    },
    {
      "pitch": 67,
      "velocity": 49,
      "instrument": 0,
      "channel": 0,
      "start_step": 16,
      "duration_steps": 2,
      "bar": 3,
      "position": 0,
      "track_index": 0,
      "track_name": "track_0",
      "is_drum": false,
      "harmony": "C:maj"
    },
    {
      "pitch": 68,
      "velocity": 49,
      "instrument": 0,
      "channel": 0,
      "start_step": 16,
      "duration_steps": 1,
      "bar": 3,
      "position": 0,
      "track_index": 0,
      "track_name": "track_0",
      "is_drum": false,
      "harmony": "C:maj"
    },
    {
      "pitch": 46,
      "velocity": 49,
      "instrument": 0,
      "channel": 0,
      "start_step": 18,
      "duration_steps": 2,
      "bar": 3,
      "position": 2,
      "track_index": 1,
      "track_name": "track_1",
      "is_drum": false,
      "harmony": "C:maj"
    },
    {
      "pitch": 52,
      "velocity": 49,
      "instrument": 0,
      "channel": 0,
      "start_step": 18,
      "duration_steps": 2,
      "bar": 3,
      "position": 2,
      "track_index": 1,
      "track_name": "track_1",
      "is_drum": false,
      "harmony": "C:maj"
    },
    {
      "pitch": 67,
      "velocity": 49,
      "instrument": 0,
      "channel": 0,
      "start_step": 18,
      "duration_steps": 1,
      "bar": 3,
      "position": 2,
      "track_index": 0,
      "track_name": "track_0",
      "is_drum": false,
      "harmony": "C:maj"
    },
    {
      "pitch": 45,
      "velocity": 49,
      "instrument": 0,
      "channel": 0,
      "start_step": 20,
      "duration_steps": 2,
      "bar": 3,
      "position": 4,
      "track_index": 1,
      "track_name": "track_1",
      "is_drum": false,
      "harmony": "C:maj"
    },
    {
      "pitch": 53,
      "velocity": 49,
      "instrument": 0,
      "channel": 0,
      "start_step": 20,
      "duration_steps": 2,
      "bar": 3,
      "position": 4,
      "track_index": 1,
      "track_name": "track_1",
      "is_drum": false,
      "harmony": "C:maj"
    },
    {
      "pitch": 72,
      "velocity": 49,
      "instrument": 0,
      "channel": 0,
      "start_step": 20,
      "duration_steps": 2,
      "bar": 3,
      "position": 4,
      "track_index": 0,
      "track_name": "track_0",
      "is_drum": false,
      "harmony": "C:maj"
    },
    {
      "pitch": 73,
      "velocity": 49,
      "instrument": 0,
      "channel": 0,
      "start_step": 20,
      "duration_steps": 1,
      "bar": 3,
      "position": 4,
      "track_index": 0,
      "track_name": "track_0",
      "is_drum": false,
      "harmony": "C:maj"
    },
    {
      "pitch": 44,
      "velocity": 49,
      "instrument": 0,
      "channel": 0,
      "start_step": 22,
      "duration_steps": 2,
      "bar": 3,
      "position": 6,
      "track_index": 1,
      "track_name": "track_1",
      "is_drum": false,
      "harmony": "C:maj"
    },
    {
      "pitch": 54,
      "velocity": 49,
      "instrument": 0,
      "channel": 0,
      "start_step": 22,
      "duration_steps": 2,
      "bar": 3,
      "position": 6,
      "track_index": 1,
      "track_name": "track_1",
      "is_drum": false,
      "harmony": "C:maj"
    },
    {
      "pitch": 70,
      "velocity": 49,
      "instrument": 0,
      "channel": 0,
      "start_step": 22,
      "duration_steps": 1,
      "bar": 3,
      "position": 6,
      "track_index": 0,
      "track_name": "track_0",
      "is_drum": false,
      "harmony": "C:maj"
    },
    {
      "pitch": 72,
      "velocity": 49,
      "instrument": 0,
      "channel": 0,
      "start_step": 22,
      "duration_steps": 1,
      "bar": 3,
      "position": 6,
      "track_index": 0,
      "track_name": "track_0",
      "is_drum": false,
      "harmony": "C:maj"
    },
    {
      "pitch": 72,
      "velocity": 49,
      "instrument": 0,
      "channel": 0,
      "start_step": 22,
      "duration_steps": 1,
      "bar": 3,
      "position": 6,
      "track_index": 0,
      "track_name": "track_0",
      "is_drum": false,
      "harmony": "C:maj"
    },
    {
      "pitch": 73,
      "velocity": 49,
      "instrument": 0,
      "channel": 0,
      "start_step": 22,
      "duration_steps": 1,
      "bar": 3,
      "position": 6,
      "track_index": 0,
      "track_name": "track_0",
      "is_drum": false,
      "harmony": "C:maj"
    },
    {
      "pitch": 74,
      "velocity": 49,
      "instrument": 0,
      "channel": 0,
      "start_step": 22,
      "duration_steps": 1,
      "bar": 3,
      "position": 6,
      "track_index": 0,
      "track_name": "track_0",
      "is_drum": false,
      "harmony": "C:maj"
    },
    {
      "pitch": 71,
      "velocity": 49,
      "instrument": 0,
      "channel": 0,
      "start_step": 23,
      "duration_steps": 1,
      "bar": 3,
      "position": 7,
      "track_index": 0,
      "track_name": "track_0",
      "is_drum": false,
      "harmony": "C:maj"
    },
    {
      "pitch": 72,
      "velocity": 49,
      "instrument": 0,
      "channel": 0,
      "start_step": 23,
      "duration_steps": 1,
      "bar": 3,
      "position": 7,
      "track_index": 0,
      "track_name": "track_0",
      "is_drum": false,
      "harmony": "C:maj"
    },
    {
      "pitch": 72,
      "velocity": 49,
      "instrument": 0,
      "channel": 0,
      "start_step": 23,
      "duration_steps": 1,
      "bar": 3,
      "position": 7,
      "track_index": 0,
      "track_name": "track_0",
      "is_drum": false,
      "harmony": "C:maj"
    },
    {
      "pitch": 43,
      "velocity": 49,
      "instrument": 0,
      "channel": 0,
      "start_step": 24,
      "duration_steps": 6,
      "bar": 4,
      "position": 0,
      "track_index": 1,
      "track_name": "track_1",
      "is_drum": false,
      "harmony": "G:maj"
    },
    {
      "pitch": 55,
      "velocity": 49,
      "instrument": 0,
      "channel": 0,
      "start_step": 24,
      "duration_steps": 2,
      "bar": 4,
      "position": 0,
      "track_index": 1,
      "track_name": "track_1",
      "is_drum": false,
      "harmony": "G:maj"
    },
    {
      "pitch": 63,
      "velocity": 49,
      "instrument": 0,
      "channel": 0,
      "start_step": 24,
      "duration_steps": 2,
      "bar": 4,
      "position": 0,
      "track_index": 0,
      "track_name": "track_0",
      "is_drum": false,
      "harmony": "G:maj"
    },
    {
      "pitch": 74,
      "velocity": 49,
      "instrument": 0,
      "channel": 0,
      "start_step": 24,
      "duration_steps": 1,
      "bar": 4,
      "position": 0,
      "track_index": 0,
      "track_name": "track_0",
      "is_drum": false,
      "harmony": "G:maj"
    },
    {
      "pitch": 75,
      "velocity": 49,
      "instrument": 0,
      "channel": 0,
      "start_step": 24,
      "duration_steps": 3,
      "bar": 4,
      "position": 0,
      "track_index": 0,
      "track_name": "track_0",
      "is_drum": false,
      "harmony": "G:maj"
    },
    {
      "pitch": 57,
      "velocity": 49,
      "instrument": 0,
      "channel": 0,
      "start_step": 26,
      "duration_steps": 2,
      "bar": 4,
      "position": 2,
      "track_index": 1,
      "track_name": "track_1",
      "is_drum": false,
      "harmony": "G:maj"
    },
    {
      "pitch": 63,
      "velocity": 49,
      "instrument": 0,
      "channel": 0,
      "start_step": 26,
      "duration_steps": 2,
      "bar": 4,
      "position": 2,
      "track_index": 0,
      "track_name": "track_0",
      "is_drum": false,
      "harmony": "G:maj"
    },
    {
      "pitch": 66,
      "velocity": 49,
      "instrument": 0,
      "channel": 0,
      "start_step": 26,
      "duration_steps": 2,
      "bar": 4,
      "position": 2,
      "track_index": 0,
      "track_name": "track_0",
      "is_drum": false,
      "harmony": "G:maj"
    },
    {
      "pitch": 72,
      "velocity": 49,
      "instrument": 0,
      "channel": 0,
      "start_step": 27,
      "duration_steps": 1,
      "bar": 4,
      "position": 3,
      "track_index": 0,
      "track_name": "track_0",
      "is_drum": false,
      "harmony": "G:maj"
    },
    {
      "pitch": 59,
      "velocity": 49,
      "instrument": 0,
      "channel": 0,
      "start_step": 28,
      "duration_steps": 2,
      "bar": 4,
      "position": 4,
      "track_index": 1,
      "track_name": "track_1",
      "is_drum": false,
      "harmony": "G:maj"
    },
    {
      "pitch": 62,
      "velocity": 49,
      "instrument": 0,
      "channel": 0,
      "start_step": 28,
      "duration_steps": 2,
      "bar": 4,
      "position": 4,
      "track_index": 0,
      "track_name": "track_0",
      "is_drum": false,
      "harmony": "G:maj"
    },
    {
      "pitch": 67,
      "velocity": 49,
      "instrument": 0,
      "channel": 0,
      "start_step": 28,
      "duration_steps": 2,
      "bar": 4,
      "position": 4,
      "track_index": 0,
      "track_name": "track_0",
      "is_drum": false,
      "harmony": "G:maj"
    },
    {
      "pitch": 71,
      "velocity": 49,
      "instrument": 0,
      "channel": 0,
      "start_step": 28,
      "duration_steps": 2,
      "bar": 4,
      "position": 4,
      "track_index": 0,
      "track_name": "track_0",
      "is_drum": false,
      "harmony": "G:maj"
    },
    {
      "pitch": 79,
      "velocity": 49,
      "instrument": 0,
      "channel": 0,
      "start_step": 30,
      "duration_steps": 1,
      "bar": 4,
      "position": 6,
      "track_index": 0,
      "track_name": "track_0",
      "is_drum": false,
      "harmony": "G:maj"
    },
    {
      "pitch": 87,
      "velocity": 49,
      "instrument": 0,
      "channel": 0,
      "start_step": 31,
      "duration_steps": 1,
      "bar": 4,
      "position": 7,
      "track_index": 0,
      "track_name": "track_0",
      "is_drum": false,
      "harmony": "G:maj"
    },
    {
      "pitch": 55,
      "velocity": 49,
      "instrument": 0,
      "channel": 0,
      "start_step": 32,
      "duration_steps": 6,
      "bar": 5,
      "position": 0,
      "track_index": 1,
      "track_name": "track_1",
      "is_drum": false,
      "harmony": "G:maj"
    },
    {
      "pitch": 67,
      "velocity": 49,
      "instrument": 0,
      "channel": 0,
      "start_step": 32,
      "duration_steps": 2,
      "bar": 5,
      "position": 0,
      "track_index": 1,
      "track_name": "track_1",
      "is_drum": false,
      "harmony": "G:maj"
    },
    {
      "pitch": 75,
      "velocity": 49,
      "instrument": 0,
      "channel": 0,
      "start_step": 32,
      "duration_steps": 2,
      "bar": 5,
      "position": 0,
      "track_index": 0,
      "track_name": "track_0",
      "is_drum": false,
      "harmony": "G:maj"
    },
    {
      "pitch": 87,
      "velocity": 49,
      "instrument": 0,
      "channel": 0,
      "start_step": 32,
      "duration_steps": 3,
      "bar": 5,
      "position": 0,
      "track_index": 0,
      "track_name": "track_0",
      "is_drum": false,
      "harmony": "G:maj"
    },
    {
      "pitch": 69,
      "velocity": 55,
      "instrument": 0,
      "channel": 0,
      "start_step": 34,
      "duration_steps": 2,
      "bar": 5,
      "position": 2,
      "track_index": 1,
      "track_name": "track_1",
      "is_drum": false,
      "harmony": "G:maj"
    },
    {
      "pitch": 75,
      "velocity": 55,
      "instrument": 0,
      "channel": 0,
      "start_step": 34,
      "duration_steps": 2,
      "bar": 5,
      "position": 2,
      "track_index": 0,
      "track_name": "track_0",
      "is_drum": false,
      "harmony": "G:maj"
    },
    {
      "pitch": 78,
      "velocity": 55,
      "instrument": 0,
      "channel": 0,
      "start_step": 34,
      "duration_steps": 2,
      "bar": 5,
      "position": 2,
      "track_index": 0,
      "track_name": "track_0",
      "is_drum": false,
      "harmony": "G:maj"
    },
    {
      "pitch": 84,
      "velocity": 55,
      "instrument": 0,
      "channel": 0,
      "start_step": 35,
      "duration_steps": 1,
      "bar": 5,
      "position": 3,
      "track_index": 0,
      "track_name": "track_0",
      "is_drum": false,
      "harmony": "G:maj"
    },
    {
      "pitch": 71,
      "velocity": 58,
      "instrument": 0,
      "channel": 0,
      "start_step": 36,
      "duration_steps": 2,
      "bar": 5,
      "position": 4,
      "track_index": 1,
      "track_name": "track_1",
      "is_drum": false,
      "harmony": "G:maj"
    },
    {
      "pitch": 74,
      "velocity": 58,
      "instrument": 0,
      "channel": 0,
      "start_step": 36,
      "duration_steps": 2,
      "bar": 5,
      "position": 4,
      "track_index": 0,
      "track_name": "track_0",
      "is_drum": false,
      "harmony": "G:maj"
    },
    {
      "pitch": 79,
      "velocity": 58,
      "instrument": 0,
      "channel": 0,
      "start_step": 36,
      "duration_steps": 2,
      "bar": 5,
      "position": 4,
      "track_index": 0,
      "track_name": "track_0",
      "is_drum": false,
      "harmony": "G:maj"
    },
    {
      "pitch": 83,
      "velocity": 58,
      "instrument": 0,
      "channel": 0,
      "start_step": 36,
      "duration_steps": 2,
      "bar": 5,
      "position": 4,
      "track_index": 0,
      "track_name": "track_0",
      "is_drum": false,
      "harmony": "G:maj"
    },
    {
      "pitch": 67,
      "velocity": 61,
      "instrument": 0,
      "channel": 0,
      "start_step": 38,
      "duration_steps": 2,
      "bar": 5,
      "position": 6,
      "track_index": 1,
      "track_name": "track_1",
      "is_drum": false,
      "harmony": "G:maj"
    },
    {
      "pitch": 70,
      "velocity": 61,
      "instrument": 0,
      "channel": 0,
      "start_step": 38,
      "duration_steps": 2,
      "bar": 5,
      "position": 6,
      "track_index": 1,
      "track_name": "track_1",
      "is_drum": false,
      "harmony": "G:maj"
    },
    {
      "pitch": 74,
      "velocity": 61,
      "instrument": 0,
      "channel": 0,
      "start_step": 38,
      "duration_steps": 2,
      "bar": 5,
      "position": 6,
      "track_index": 0,
      "track_name": "track_0",
      "is_drum": false,
      "harmony": "G:maj"
    },
    {
      "pitch": 79,
      "velocity": 61,
      "instrument": 0,
      "channel": 0,
      "start_step": 38,
      "duration_steps": 2,
      "bar": 5,
      "position": 6,
      "track_index": 0,
      "track_name": "track_0",
      "is_drum": false,
      "harmony": "G:maj"
    },
    {
      "pitch": 82,
      "velocity": 61,
      "instrument": 0,
      "channel": 0,
      "start_step": 38,
      "duration_steps": 2,
      "bar": 5,
      "position": 6,
      "track_index": 0,
      "track_name": "track_0",
      "is_drum": false,
      "harmony": "G:maj"
    },
    {
      "pitch": 65,
      "velocity": 64,
      "instrument": 0,
      "channel": 0,
      "start_step": 40,
      "duration_steps": 2,
      "bar": 6,
      "position": 0,
      "track_index": 1,
      "track_name": "track_1",
      "is_drum": false,
      "harmony": "Bb:maj"
    },
    {
      "pitch": 68,
      "velocity": 64,
      "instrument": 0,
      "channel": 0,
      "start_step": 40,
      "duration_steps": 2,
      "bar": 6,
      "position": 0,
      "track_index": 1,
      "track_name": "track_1",
      "is_drum": false,
      "harmony": "Bb:maj"
    },
    {
      "pitch": 70,
      "velocity": 64,
      "instrument": 0,
      "channel": 0,
      "start_step": 40,
      "duration_steps": 5,
      "bar": 6,
      "position": 0,
      "track_index": 1,
      "track_name": "track_1",
      "is_drum": false,
      "harmony": "Bb:maj"
    },
    {
      "pitch": 74,
      "velocity": 64,
      "instrument": 0,
      "channel": 0,
      "start_step": 40,
      "duration_steps": 2,
      "bar": 6,
      "position": 0,
      "track_index": 0,
      "track_name": "track_0",
      "is_drum": false,
      "harmony": "Bb:maj"
    },
    {
      "pitch": 82,
      "velocity": 64,
      "instrument": 0,
      "channel": 0,
      "start_step": 40,
      "duration_steps": 5,
      "bar": 6,
      "position": 0,
      "track_index": 0,
      "track_name": "track_0",
      "is_drum": false,
      "harmony": "Bb:maj"
    },
    {
      "pitch": 63,
      "velocity": 49,
      "instrument": 0,
      "channel": 0,
      "start_step": 42,
      "duration_steps": 2,
      "bar": 6,
      "position": 2,
      "track_index": 1,
      "track_name": "track_1",
      "is_drum": false,
      "harmony": "Bb:maj"
    },
    {
      "pitch": 67,
      "velocity": 49,
      "instrument": 0,
      "channel": 0,
      "start_step": 42,
      "duration_steps": 2,
      "bar": 6,
      "position": 2,
      "track_index": 1,
      "track_name": "track_1",
      "is_drum": false,
      "harmony": "Bb:maj"
    },
    {
      "pitch": 75,
      "velocity": 59,
      "instrument": 0,
      "channel": 0,
      "start_step": 42,
      "duration_steps": 2,
      "bar": 6,
      "position": 2,
      "track_index": 0,
      "track_name": "track_0",
      "is_drum": false,
      "harmony": "Bb:maj"
    },
    {
      "pitch": 62,
      "velocity": 54,
      "instrument": 0,
      "channel": 0,
      "start_step": 44,
      "duration_steps": 2,
      "bar": 6,
      "position": 4,
      "track_index": 1,
      "track_name": "track_1",
      "is_drum": false,
      "harmony": "Bb:maj"
    },
    {
      "pitch": 65,
      "velocity": 54,
      "instrument": 0,
      "channel": 0,
      "start_step": 44,
      "duration_steps": 2,
      "bar": 6,
      "position": 4,
      "track_index": 1,
      "track_name": "track_1",
      "is_drum": false,
      "harmony": "Bb:maj"
    },
    {
      "pitch": 77,
      "velocity": 54,
      "instrument": 0,
      "channel": 0,
      "start_step": 44,
      "duration_steps": 1,
      "bar": 6,
      "position": 4,
      "track_index": 0,
      "track_name": "track_0",
      "is_drum": false,
      "harmony": "Bb:maj"
    },
    {
      "pitch": 70,
      "velocity": 49,
      "instrument": 0,
      "channel": 0,
      "start_step": 45,
      "duration_steps": 1,
      "bar": 6,
      "position": 5,
      "track_index": 0,
      "track_name": "track_0",
      "is_drum": false,
      "harmony": "Bb:maj"
    },
    {
      "pitch": 72,
      "velocity": 49,
      "instrument": 0,
      "channel": 0,
      "start_step": 45,
      "duration_steps": 1,
      "bar": 6,
      "position": 5,
      "track_index": 0,
      "track_name": "track_0",
      "is_drum": false,
      "harmony": "Bb:maj"
    },
    {
      "pitch": 58,
      "velocity": 49,
      "instrument": 0,
      "channel": 0,
      "start_step": 46,
      "duration_steps": 2,
      "bar": 6,
      "position": 6,
      "track_index": 1,
      "track_name": "track_1",
      "is_drum": false,
      "harmony": "Bb:maj"
    },
    {
      "pitch": 62,
      "velocity": 49,
      "instrument": 0,
      "channel": 0,
      "start_step": 46,
      "duration_steps": 2,
      "bar": 6,
      "position": 6,
      "track_index": 1,
      "track_name": "track_1",
      "is_drum": false,
      "harmony": "Bb:maj"
    },
    {
      "pitch": 69,
      "velocity": 49,
      "instrument": 0,
      "channel": 0,
      "start_step": 46,
      "duration_steps": 1,
      "bar": 6,
      "position": 6,
      "track_index": 0,
      "track_name": "track_0",
      "is_drum": false,
      "harmony": "Bb:maj"
    },
    {
      "pitch": 68,
      "velocity": 49,
      "instrument": 0,
      "channel": 0,
      "start_step": 47,
      "duration_steps": 1,
      "bar": 6,
      "position": 7,
      "track_index": 0,
      "track_name": "track_0",
      "is_drum": false,
      "harmony": "Bb:maj"
    },
    {
      "pitch": 70,
      "velocity": 49,
      "instrument": 0,
      "channel": 0,
      "start_step": 47,
      "duration_steps": 1,
      "bar": 6,
      "position": 7,
      "track_index": 0,
      "track_name": "track_0",
      "is_drum": false,
      "harmony": "Bb:maj"
    },
    {
      "pitch": 58,
      "velocity": 49,
      "instrument": 0,
      "channel": 0,
      "start_step": 48,
      "duration_steps": 4,
      "bar": 7,
      "position": 0,
      "track_index": 0,
      "track_name": "track_0",
      "is_drum": false,
      "harmony": "Bb:maj"
    },
    {
      "pitch": 61,
      "velocity": 49,
      "instrument": 0,
      "channel": 0,
      "start_step": 48,
      "duration_steps": 4,
      "bar": 7,
      "position": 0,
      "track_index": 0,
      "track_name": "track_0",
      "is_drum": false,
      "harmony": "Bb:maj"
    },
    {
      "pitch": 64,
      "velocity": 49,
      "instrument": 0,
      "channel": 0,
      "start_step": 48,
      "duration_steps": 4,
      "bar": 7,
      "position": 0,
      "track_index": 0,
      "track_name": "track_0",
      "is_drum": false,
      "harmony": "Bb:maj"
    },
    {
      "pitch": 67,
      "velocity": 49,
      "instrument": 0,
      "channel": 0,
      "start_step": 48,
      "duration_steps": 4,
      "bar": 7,
      "position": 0,
      "track_index": 0,
      "track_name": "track_0",
      "is_drum": false,
      "harmony": "Bb:maj"
    },
    {
      "pitch": 34,
      "velocity": 49,
      "instrument": 0,
      "channel": 0,
      "start_step": 52,
      "duration_steps": 4,
      "bar": 7,
      "position": 4,
      "track_index": 1,
      "track_name": "track_1",
      "is_drum": false,
      "harmony": "Bb:maj"
    },
    {
      "pitch": 46,
      "velocity": 49,
      "instrument": 0,
      "channel": 0,
      "start_step": 52,
      "duration_steps": 4,
      "bar": 7,
      "position": 4,
      "track_index": 1,
      "track_name": "track_1",
      "is_drum": false,
      "harmony": "Bb:maj"
    },
    {
      "pitch": 56,
      "velocity": 49,
      "instrument": 0,
      "channel": 0,
      "start_step": 52,
      "duration_steps": 4,
      "bar": 7,
      "position": 4,
      "track_index": 0,
      "track_name": "track_0",
      "is_drum": false,
      "harmony": "Bb:maj"
    },
    {
      "pitch": 62,
      "velocity": 49,
      "instrument": 0,
      "channel": 0,
      "start_step": 52,
      "duration_steps": 4,
      "bar": 7,
      "position": 4,
      "track_index": 0,
      "track_name": "track_0",
      "is_drum": false,
      "harmony": "Bb:maj"
    },
    {
      "pitch": 65,
      "velocity": 49,
      "instrument": 0,
      "channel": 0,
      "start_step": 52,
      "duration_steps": 4,
      "bar": 7,
      "position": 4,
      "track_index": 0,
      "track_name": "track_0",
      "is_drum": false,
      "harmony": "Bb:maj"
    },
    {
      "pitch": 35,
      "velocity": 49,
      "instrument": 0,
      "channel": 0,
      "start_step": 56,
      "duration_steps": 6,
      "bar": 8,
      "position": 0,
      "track_index": 1,
      "track_name": "track_1",
      "is_drum": false,
      "harmony": "B:maj"
    },
    {
      "pitch": 47,
      "velocity": 49,
      "instrument": 0,
      "channel": 0,
      "start_step": 56,
      "duration_steps": 6,
      "bar": 8,
      "position": 0,
      "track_index": 1,
      "track_name": "track_1",
      "is_drum": false,
      "harmony": "B:maj"
    },
    {
      "pitch": 54,
      "velocity": 49,
      "instrument": 0,
      "channel": 0,
      "start_step": 56,
      "duration_steps": 6,
      "bar": 8,
      "position": 0,
      "track_index": 0,
      "track_name": "track_0",
      "is_drum": false,
      "harmony": "B:maj"
    },
    {
      "pitch": 63,
      "velocity": 49,
      "instrument": 0,
      "channel": 0,
      "start_step": 56,
      "duration_steps": 6,
      "bar": 8,
      "position": 0,
      "track_index": 0,
      "track_name": "track_0",
      "is_drum": false,
      "harmony": "B:maj"
    },
    {
      "pitch": 47,
      "velocity": 49,
      "instrument": 0,
      "channel": 0,
      "start_step": 62,
      "duration_steps": 2,
      "bar": 8,
      "position": 6,
      "track_index": 1,
      "track_name": "track_1",
      "is_drum": false,
      "harmony": "B:maj"
    },
    {
      "pitch": 54,
      "velocity": 49,
      "instrument": 0,
      "channel": 0,
      "start_step": 62,
      "duration_steps": 2,
      "bar": 8,
      "position": 6,
      "track_index": 1,
      "track_name": "track_1",
      "is_drum": false,
      "harmony": "B:maj"
    },
    {
      "pitch": 63,
      "velocity": 49,
      "instrument": 0,
      "channel": 0,
      "start_step": 62,
      "duration_steps": 2,
      "bar": 8,
      "position": 6,
      "track_index": 0,
      "track_name": "track_0",
      "is_drum": false,
      "harmony": "B:maj"
    },
    {
      "pitch": 66,
      "velocity": 49,
      "instrument": 0,
      "channel": 0,
      "start_step": 62,
      "duration_steps": 1,
      "bar": 8,
      "position": 6,
      "track_index": 0,
      "track_name": "track_0",
      "is_drum": false,
      "harmony": "B:maj"
    },
    {
      "pitch": 49,
      "velocity": 49,
      "instrument": 0,
      "channel": 0,
      "start_step": 64,
      "duration_steps": 2,
      "bar": 9,
      "position": 0,
      "track_index": 1,
      "track_name": "track_1",
      "is_drum": false,
      "harmony": "F#:maj"
    },
    {
      "pitch": 54,
      "velocity": 49,
      "instrument": 0,
      "channel": 0,
      "start_step": 64,
      "duration_steps": 2,
      "bar": 9,
      "position": 0,
      "track_index": 1,
      "track_name": "track_1",
      "is_drum": false,
      "harmony": "F#:maj"
    },
    {
      "pitch": 64,
      "velocity": 49,
      "instrument": 0,
      "channel": 0,
      "start_step": 64,
      "duration_steps": 2,
      "bar": 9,
      "position": 0,
      "track_index": 0,
      "track_name": "track_0",
      "is_drum": false,
      "harmony": "F#:maj"
    },
    {
      "pitch": 71,
      "velocity": 49,
      "instrument": 0,
      "channel": 0,
      "start_step": 64,
      "duration_steps": 1,
      "bar": 9,
      "position": 0,
      "track_index": 0,
      "track_name": "track_0",
      "is_drum": false,
      "harmony": "F#:maj"
    },
    {
      "pitch": 71,
      "velocity": 49,
      "instrument": 0,
      "channel": 0,
      "start_step": 64,
      "duration_steps": 2,
      "bar": 9,
      "position": 0,
      "track_index": 0,
      "track_name": "track_0",
      "is_drum": false,
      "harmony": "F#:maj"
    },
    {
      "pitch": 49,
      "velocity": 49,
      "instrument": 0,
      "channel": 0,
      "start_step": 66,
      "duration_steps": 2,
      "bar": 9,
      "position": 2,
      "track_index": 1,
      "track_name": "track_1",
      "is_drum": false,
      "harmony": "F#:maj"
    },
    {
      "pitch": 54,
      "velocity": 49,
      "instrument": 0,
      "channel": 0,
      "start_step": 66,
      "duration_steps": 2,
      "bar": 9,
      "position": 2,
      "track_index": 1,
      "track_name": "track_1",
      "is_drum": false,
      "harmony": "F#:maj"
    },
    {
      "pitch": 64,
      "velocity": 49,
      "instrument": 0,
      "channel": 0,
      "start_step": 66,
      "duration_steps": 2,
      "bar": 9,
      "position": 2,
      "track_index": 0,
      "track_name": "track_0",
      "is_drum": false,
      "harmony": "F#:maj"
    },
    {
      "pitch": 70,
      "velocity": 49,
      "instrument": 0,
      "channel": 0,
      "start_step": 66,
      "duration_steps": 1,
      "bar": 9,
      "position": 2,
      "track_index": 0,
      "track_name": "track_0",
      "is_drum": false,
      "harmony": "F#:maj"
    },
    {
      "pitch": 47,
      "velocity": 49,
      "instrument": 0,
      "channel": 0,
      "start_step": 68,
      "duration_steps": 2,
      "bar": 9,
      "position": 4,
      "track_index": 1,
      "track_name": "track_1",
      "is_drum": false,
      "harmony": "F#:maj"
    },
    {
      "pitch": 54,
      "velocity": 49,
      "instrument": 0,
      "channel": 0,
      "start_step": 68,
      "duration_steps": 2,
      "bar": 9,
      "position": 4,
      "track_index": 1,
      "track_name": "track_1",
      "is_drum": false,
      "harmony": "F#:maj"
    },
    {
      "pitch": 63,
      "velocity": 49,
      "instrument": 0,
      "channel": 0,
      "start_step": 68,
      "duration_steps": 2,
      "bar": 9,
      "position": 4,
      "track_index": 0,
      "track_name": "track_0",
      "is_drum": false,
      "harmony": "F#:maj"
    },
    {
      "pitch": 75,
      "velocity": 49,
      "instrument": 0,
      "channel": 0,
      "start_step": 68,
      "duration_steps": 2,
      "bar": 9,
      "position": 4,
      "track_index": 0,
      "track_name": "track_0",
      "is_drum": false,
      "harmony": "F#:maj"
    },
    {
      "pitch": 76,
      "velocity": 49,
      "instrument": 0,
      "channel": 0,
      "start_step": 68,
      "duration_steps": 1,
      "bar": 9,
      "position": 4,
      "track_index": 0,
      "track_name": "track_0",
      "is_drum": false,
      "harmony": "F#:maj"
    },
    {
      "pitch": 46,
      "velocity": 49,
      "instrument": 0,
      "channel": 0,
      "start_step": 70,
      "duration_steps": 2,
      "bar": 9,
      "position": 6,
      "track_index": 1,
      "track_name": "track_1",
      "is_drum": false,
      "harmony": "F#:maj"
    },
    {
      "pitch": 54,
      "velocity": 49,
      "instrument": 0,
      "channel": 0,
      "start_step": 70,
      "duration_steps": 4,
      "bar": 9,
      "position": 6,
      "track_index": 1,
      "track_name": "track_1",
      "is_drum": false,
      "harmony": "F#:maj"
    },
    {
      "pitch": 74,
      "velocity": 49,
      "instrument": 0,
      "channel": 0,
      "start_step": 70,
      "duration_steps": 1,
      "bar": 9,
      "position": 6,
      "track_index": 0,
      "track_name": "track_0",
      "is_drum": false,
      "harmony": "F#:maj"
    },
    {
      "pitch": 75,
      "velocity": 49,
      "instrument": 0,
      "channel": 0,
      "start_step": 70,
      "duration_steps": 1,
      "bar": 9,
      "position": 6,
      "track_index": 0,
      "track_name": "track_0",
      "is_drum": false,
      "harmony": "F#:maj"
    },
    {
      "pitch": 75,
      "velocity": 49,
      "instrument": 0,
      "channel": 0,
      "start_step": 70,
      "duration_steps": 1,
      "bar": 9,
      "position": 6,
      "track_index": 0,
      "track_name": "track_0",
      "is_drum": false,
      "harmony": "F#:maj"
    },
    {
      "pitch": 76,
      "velocity": 49,
      "instrument": 0,
      "channel": 0,
      "start_step": 70,
      "duration_steps": 1,
      "bar": 9,
      "position": 6,
      "track_index": 0,
      "track_name": "track_0",
      "is_drum": false,
      "harmony": "F#:maj"
    },
    {
      "pitch": 77,
      "velocity": 49,
      "instrument": 0,
      "channel": 0,
      "start_step": 70,
      "duration_steps": 1,
      "bar": 9,
      "position": 6,
      "track_index": 0,
      "track_name": "track_0",
      "is_drum": false,
      "harmony": "F#:maj"
    },
    {
      "pitch": 74,
      "velocity": 49,
      "instrument": 0,
      "channel": 0,
      "start_step": 71,
      "duration_steps": 1,
      "bar": 9,
      "position": 7,
      "track_index": 0,
      "track_name": "track_0",
      "is_drum": false,
      "harmony": "F#:maj"
    },
    {
      "pitch": 75,
      "velocity": 49,
      "instrument": 0,
      "channel": 0,
      "start_step": 71,
      "duration_steps": 1,
      "bar": 9,
      "position": 7,
      "track_index": 0,
      "track_name": "track_0",
      "is_drum": false,
      "harmony": "F#:maj"
    },
    {
      "pitch": 75,
      "velocity": 49,
      "instrument": 0,
      "channel": 0,
      "start_step": 71,
      "duration_steps": 1,
      "bar": 9,
      "position": 7,
      "track_index": 0,
      "track_name": "track_0",
      "is_drum": false,
      "harmony": "F#:maj"
    },
    {
      "pitch": 45,
      "velocity": 49,
      "instrument": 0,
      "channel": 0,
      "start_step": 72,
      "duration_steps": 4,
      "bar": 10,
      "position": 0,
      "track_index": 1,
      "track_name": "track_1",
      "is_drum": false,
      "harmony": "Bb:min"
    },
    {
      "pitch": 72,
      "velocity": 49,
      "instrument": 0,
      "channel": 0,
      "start_step": 72,
      "duration_steps": 2,
      "bar": 10,
      "position": 0,
      "track_index": 0,
      "track_name": "track_0",
      "is_drum": false,
      "harmony": "Bb:min"
    },
    {
      "pitch": 77,
      "velocity": 49,
      "instrument": 0,
      "channel": 0,
      "start_step": 72,
      "duration_steps": 1,
      "bar": 10,
      "position": 0,
      "track_index": 0,
      "track_name": "track_0",
      "is_drum": false,
      "harmony": "Bb:min"
    },
    {
      "pitch": 78,
      "velocity": 49,
      "instrument": 0,
      "channel": 0,
      "start_step": 72,
      "duration_steps": 3,
      "bar": 10,
      "position": 0,
      "track_index": 0,
      "track_name": "track_0",
      "is_drum": false,
      "harmony": "Bb:min"
    },
    {
      "pitch": 53,
      "velocity": 49,
      "instrument": 0,
      "channel": 0,
      "start_step": 74,
      "duration_steps": 2,
      "bar": 10,
      "position": 2,
      "track_index": 1,
      "track_name": "track_1",
      "is_drum": false,
      "harmony": "Bb:min"
    },
    {
      "pitch": 72,
      "velocity": 49,
      "instrument": 0,
      "channel": 0,
      "start_step": 74,
      "duration_steps": 2,
      "bar": 10,
      "position": 2,
      "track_index": 0,
      "track_name": "track_0",
      "is_drum": false,
      "harmony": "Bb:min"
    },
    {
      "pitch": 75,
      "velocity": 49,
      "instrument": 0,
      "channel": 0,
      "start_step": 75,
      "duration_steps": 1,
      "bar": 10,
      "position": 3,
      "track_index": 0,
      "track_name": "track_0",
      "is_drum": false,
      "harmony": "Bb:min"
    },
    {
      "pitch": 46,
      "velocity": 49,
      "instrument": 0,
      "channel": 0,
      "start_step": 76,
      "duration_steps": 2,
      "bar": 10,
      "position": 4,
      "track_index": 1,
      "track_name": "track_1",
      "is_drum": false,
      "harmony": "Bb:min"
    },
    {
      "pitch": 53,
      "velocity": 49,
      "instrument": 0,
      "channel": 0,
      "start_step": 76,
      "duration_steps": 2,
      "bar": 10,
      "position": 4,
      "track_index": 1,
      "track_name": "track_1",
      "is_drum": false,
      "harmony": "Bb:min"
    },
    {
      "pitch": 70,
      "velocity": 49,
      "instrument": 0,
      "channel": 0,
      "start_step": 76,
      "duration_steps": 2,
      "bar": 10,
      "position": 4,
      "track_index": 0,
      "track_name": "track_0",
      "is_drum": false,
      "harmony": "Bb:min"
    },
    {
      "pitch": 74,
      "velocity": 49,
      "instrument": 0,
      "channel": 0,
      "start_step": 76,
      "duration_steps": 2,
      "bar": 10,
      "position": 4,
      "track_index": 0,
      "track_name": "track_0",
      "is_drum": false,
      "harmony": "Bb:min"
    },
    {
      "pitch": 44,
      "velocity": 49,
      "instrument": 0,
      "channel": 0,
      "start_step": 78,
      "duration_steps": 2,
      "bar": 10,
      "position": 6,
      "track_index": 1,
      "track_name": "track_1",
      "is_drum": false,
      "harmony": "Bb:min"
    },
    {
      "pitch": 52,
      "velocity": 49,
      "instrument": 0,
      "channel": 0,
      "start_step": 78,
      "duration_steps": 4,
      "bar": 10,
      "position": 6,
      "track_index": 1,
      "track_name": "track_1",
      "is_drum": false,
      "harmony": "Bb:min"
    },
    {
      "pitch": 70,
      "velocity": 49,
      "instrument": 0,
      "channel": 0,
      "start_step": 78,
      "duration_steps": 4,
      "bar": 10,
      "position": 6,
      "track_index": 0,
      "track_name": "track_0",
      "is_drum": false,
      "harmony": "Bb:min"
    },
    {
      "pitch": 72,
      "velocity": 49,
      "instrument": 0,
      "channel": 0,
      "start_step": 78,
      "duration_steps": 1,
      "bar": 10,
      "position": 6,
      "track_index": 0,
      "track_name": "track_0",
      "is_drum": false,
      "harmony": "Bb:min"
    },
    {
      "pitch": 73,
      "velocity": 49,
      "instrument": 0,
      "channel": 0,
      "start_step": 78,
      "duration_steps": 1,
      "bar": 10,
      "position": 6,
      "track_index": 0,
      "track_name": "track_0",
      "is_drum": false,
      "harmony": "Bb:min"
    },
    {
      "pitch": 73,
      "velocity": 49,
      "instrument": 0,
      "channel": 0,
      "start_step": 78,
      "duration_steps": 1,
      "bar": 10,
      "position": 6,
      "track_index": 0,
      "track_name": "track_0",
      "is_drum": false,
      "harmony": "Bb:min"
    },
    {
      "pitch": 75,
      "velocity": 49,
      "instrument": 0,
      "channel": 0,
      "start_step": 78,
      "duration_steps": 1,
      "bar": 10,
      "position": 6,
      "track_index": 0,
      "track_name": "track_0",
      "is_drum": false,
      "harmony": "Bb:min"
    },
    {
      "pitch": 75,
      "velocity": 49,
      "instrument": 0,
      "channel": 0,
      "start_step": 78,
      "duration_steps": 1,
      "bar": 10,
      "position": 6,
      "track_index": 0,
      "track_name": "track_0",
      "is_drum": false,
      "harmony": "Bb:min"
    },
    {
      "pitch": 72,
      "velocity": 49,
      "instrument": 0,
      "channel": 0,
      "start_step": 79,
      "duration_steps": 1,
      "bar": 10,
      "position": 7,
      "track_index": 0,
      "track_name": "track_0",
      "is_drum": false,
      "harmony": "Bb:min"
    },
    {
      "pitch": 73,
      "velocity": 49,
      "instrument": 0,
      "channel": 0,
      "start_step": 79,
      "duration_steps": 1,
      "bar": 10,
      "position": 7,
      "track_index": 0,
      "track_name": "track_0",
      "is_drum": false,
      "harmony": "Bb:min"
    }
  ],
  "phrase_boundaries": [
    1,
    5,
    9
  ],
  "source_path": "Beethoven/Piano_Sonatas/26-1/midi_score.mid",
  "metadata": {
    "ticks_per_beat": 480,
    "midi_format": 1,
    "time_signature_changes": 3,
    "tempo_changes": 3,
    "cadence_bars": [
      11,
      22,
      37,
      43,
      117,
      128,
      143,
      149,
      223,
      237,
      241,
      256,
      271,
      285,
      297,
      301,
      303,
      305,
      314,
      329,
      335,
      377,
      385,
      386,
      389,
      390,
      393,
      394,
      397,
      398,
      400,
      401,
      403,
      404,
      469,
      473,
      483,
      484,
      487,
      491,
      492,
      495,
      496,
      499,
      500,
      504,
      507,
      508,
      511,
      515,
      516,
      519,
      520,
      523,
      524,
      528,
      532,
      535,
      539,
      547,
      550,
      552,
      554,
      556,
      558,
      559,
      560,
      561,
      562,
      563,
      564,
      565,
      566,
      568,
      570,
      572,
      575,
      579,
      580,
      581,
      583,
      585,
      587,
      588,
      589,
      591,
      592,
      599
    ],
    "global_harmony_vocab": {
      "unknown": 0,
      "C:maj": 1,
      "C#:maj": 2,
      "D:maj": 3,
      "Eb:maj": 4,
      "E:maj": 5,
      "F:maj": 6,
      "F#:maj": 7,
      "G:maj": 8,
      "Ab:maj": 9,
      "A:maj": 10,
      "Bb:maj": 11,
      "B:maj": 12,
      "C:min": 13,
      "C#:min": 14,
      "D:min": 15,
      "Eb:min": 16,
      "E:min": 17,
      "F:min": 18,
      "F#:min": 19,
      "G:min": 20,
      "Ab:min": 21,
      "A:min": 22,
      "Bb:min": 23,
      "B:min": 24
    },
    "dataset_kind": "asap",
    "dataset_source_mode": "score",
    "asap_piece_group": "beethoven::piano_sonatas_26_1",
    "composer": "Beethoven",
    "title": "Piano_Sonatas_26-1",
    "folder": "Beethoven/Piano_Sonatas/26-1",
    "xml_score": "Beethoven/Piano_Sonatas/26-1/xml_score.musicxml",
    "midi_score": "Beethoven/Piano_Sonatas/26-1/midi_score.mid",
    "midi_performance": "Beethoven/Piano_Sonatas/26-1/Ali02.mid",
    "annotated_primary_time_signature": "2/4",
    "annotated_key_signature_tonic": 3,
    "annotated_key_signature_accidentals": -3,
    "annotated_beat_count": 1197,
    "annotated_downbeat_count": 308,
    "score_and_performance_aligned": true,
    "source_piece_id": "beethoven__piano_sonatas__26_1__midi_score",
    "slice_start_event": 0,
    "slice_event_count": 144
  },
  "key": "Bb:major",
  "chords": [
    "Eb:maj",
    "C:min",
    "C:maj",
    "G:maj",
    "G:maj",
    "Bb:maj",
    "Bb:maj",
    "B:maj",
    "F#:maj",
    "Bb:min",
    "Eb:maj",
    "Bb:maj",
    "Bb:maj",
    "F:min",
    "Ab:min",
    "Ab:maj",
    "Ab:maj",
    "G:maj",
    "G:min",
    "F:min",
    "Ab:maj",
    "Eb:maj",
    "F:maj",
    "Bb:maj",
    "G:min",
    "Bb:maj",
    "Bb:maj",
    "Bb:maj",
    "Bb:maj",
    "G:min",
    "D:min",
    "Bb:maj",
    "Bb:maj",
    "Bb:maj",
    "Bb:maj",
    "Bb:maj",
    "Eb:maj",
    "G:min",
    "E:maj",
    "C:min",
    "Bb:maj",
    "C:min",
    "Eb:maj",
    "G:min",
    "D:min",
    "G:min",
    "D:min",
    "C:min",
    "G:maj",
    "C:min",
    "C:maj",
    "C:maj",
    "C:min",
    "F:maj",
    "Eb:min",
    "A:maj",
    "C:min",
    "F:maj",
    "E:min",
    "A:maj",
    "C:maj",
    "A:maj",
    "F:maj",
    "A:maj",
    "F:maj",
    "F:maj",
    "F:maj",
    "F:maj",
    "C:maj",
    "A:maj",
    "F:maj",
    "A:maj",
    "F:maj",
    "F:maj",
    "F:maj",
    "C:min",
    "F:maj",
    "C:min",
    "F:maj",
    "C:min",
    "F:maj",
    "C:min",
    "D:min",
    "F:maj",
    "C:min",
    "F:maj",
    "Bb:maj",
    "F:maj",
    "F:maj",
    "C:maj",
    "D:min",
    "F:maj",
    "C:min",
    "F:maj",
    "Bb:maj",
    "F:maj",
    "F:maj",
    "C:min",
    "Bb:maj",
    "Bb:maj",
    "F:maj",
    "C:min",
    "Bb:maj",
    "Bb:maj",
    "F:maj",
    "C:min",
    "Bb:maj",
    "F:maj",
    "D:min",
    "D:maj",
    "F:maj",
    "D:min",
    "D:maj",
    "Bb:maj",
    "F:min",
    "unknown",
    "Eb:maj",
    "unknown",
    "F:maj",
    "unknown",
    "C#:maj",
    "unknown",
    "Ab:maj",
    "G:maj",
    "G:min",
    "F:min",
    "Ab:maj",
    "Eb:maj",
    "F:maj",
    "Bb:maj",
    "G:min",
    "Bb:maj",
    "Bb:maj",
    "Bb:maj",
    "Bb:maj",
    "G:min",
    "D:min",
    "Bb:maj",
    "Bb:maj",
    "Bb:maj",
    "Bb:maj",
    "Bb:maj",
    "Eb:maj",
    "G:min",
    "E:maj",
    "C:min",
    "Bb:maj",
    "C:min",
    "Eb:maj",
    "G:min",
    "D:min",
    "G:min",
    "D:min",
    "C:min",
    "G:maj",
    "C:min",
    "C:maj",
    "C:maj",
    "C:min",
    "F:maj",
    "Eb:min",
    "A:maj",
    "C:min",
    "F:maj",
    "E:min",
    "A:maj",
    "C:maj",
    "A:maj",
    "F:maj",
    "A:maj",
    "F:maj",
    "F:maj",
    "F:maj",
    "F:maj",
    "C:maj",
    "A:maj",
    "F:maj",
    "A:maj",
    "F:maj",
    "F:maj",
    "F:maj",
    "C:min",
    "F:maj",
    "C:min",
    "F:maj",
    "C:min",
    "F:maj",
    "C:min",
    "D:min",
    "F:maj",
    "C:min",
    "F:maj",
    "Bb:maj",
    "F:maj",
    "F:maj",
    "C:maj",
    "D:min",
    "F:maj",
    "C:min",
    "F:maj",
    "Bb:maj",
    "F:maj",
    "F:maj",
    "C:min",
    "Bb:maj",
    "Bb:maj",
    "F:maj",
    "C:min",
    "Bb:maj",
    "Bb:maj",
    "F:maj",
    "C:min",
    "Bb:maj",
    "F:maj",
    "D:min",
    "D:maj",
    "F:maj",
    "D:min",
    "D:maj",
    "Bb:maj",
    "F:min",
    "unknown",
    "Eb:maj",
    "unknown",
    "F:maj",
    "unknown",
    "Ab:maj",
    "unknown",
    "G:maj",
    "D:maj",
    "C:maj",
    "C:min",
    "C:min",
    "G:maj",
    "F:maj",
    "unknown",
    "Eb:maj",
    "unknown",
    "F#:min",
    "F#:min",
    "Eb:maj",
    "C#:maj",
    "C#:maj",
    "unknown",
    "C:maj",
    "unknown",
    "D:maj",
    "A:min",
    "C:maj",
    "D:maj",
    "C:maj",
    "unknown",
    "B:maj",
    "unknown",
    "Eb:min",
    "Eb:maj",
    "B:maj",
    "F#:maj",
    "B:maj",
    "unknown",
    "Bb:maj",
    "unknown",
    "F:min",
    "F:maj",
    "D:min",
    "F:min",
    "F:min",
    "F:maj",
    "D:min",
    "D:maj",
    "Eb:maj",
    "F:min",
    "C#:maj",
    "C#:maj",
    "F#:maj",
    "F#:maj",
    "Ab:min",
    "C#:maj",
    "Ab:min",
    "D:min",
    "G:maj",
    "C:min",
    "F:maj",
    "B:min",
    "Eb:maj",
    "C:maj",
    "D:min",
    "C:maj",
    "C:min",
    "C:maj",
    "D:min",
    "C:maj",
    "C:min",
    "C:maj",
    "C:min",
    "C:maj",
    "Eb:maj",
    "C:maj",
    "D:maj",
    "B:maj",
    "Eb:maj",
    "C:maj",
    "Eb:maj",
    "C:maj",
    "Eb:maj",
    "C:maj",
    "Ab:maj",
    "Ab:maj",
    "Ab:maj",
    "G:maj",
    "G:min",
    "F:min",
    "Ab:maj",
    "Eb:maj",
    "F:maj",
    "Bb:maj",
    "G:min",
    "Bb:maj",
    "Bb:maj",
    "Bb:maj",
    "Bb:maj",
    "G:min",
    "D:min",
    "Bb:maj",
    "Bb:maj",
    "Bb:maj",
    "Bb:maj",
    "Bb:maj",
    "Eb:maj",
    "G:min",
    "E:maj",
    "C:min",
    "Bb:maj",
    "C:min",
    "Eb:maj",
    "G:min",
    "F:min",
    "D:maj",
    "D:min",
    "C:maj",
    "Bb:maj",
    "Bb:maj",
    "F:min",
    "Bb:maj",
    "Ab:min",
    "D:maj",
    "F:min",
    "Bb:maj",
    "C:min",
    "D:maj",
    "F:maj",
    "D:maj",
    "Bb:maj",
    "E:maj",
    "Bb:maj",
    "Bb:maj",
    "Bb:maj",
    "Bb:maj",
    "F:maj",
    "D:maj",
    "Bb:maj",
    "E:maj",
    "Bb:maj",
    "Bb:maj",
    "Bb:maj",
    "F:min",
    "Bb:maj",
    "F:min",
    "Bb:maj",
    "C:maj",
    "Bb:maj",
    "F:min",
    "G:min",
    "Bb:maj",
    "F:min",
    "Bb:maj",
    "Eb:maj",
    "C:min",
    "Bb:maj",
    "F:min",
    "G:min",
    "Bb:maj",
    "F:min",
    "Bb:maj",
    "Eb:maj",
    "Eb:maj",
    "Bb:maj",
    "Bb:maj",
    "Eb:maj",
    "Eb:maj",
    "Bb:maj",
    "F:min",
    "Eb:maj",
    "Eb:maj",
    "Bb:maj",
    "F:min",
    "Eb:maj",
    "Eb:maj",
    "G:min",
    "Eb:maj",
    "Eb:maj",
    "G:min",
    "Eb:maj",
    "Eb:maj",
    "C#:maj",
    "unknown",
    "C:maj",
    "unknown",
    "Bb:maj",
    "unknown",
    "C#:maj",
    "unknown",
    "C:maj",
    "C#:maj",
    "C#:maj",
    "C:min",
    "Bb:min",
    "F:min",
    "F:maj",
    "F:min",
    "G:maj",
    "C:maj",
    "C:maj",
    "C:maj",
    "C:maj",
    "C:maj",
    "C:maj",
    "Ab:maj",
    "E:min",
    "C:maj",
    "C:maj",
    "C:maj",
    "C:maj",
    "C:maj",
    "C:maj",
    "Ab:maj",
    "D:min",
    "Bb:maj",
    "Bb:maj",
    "Bb:maj",
    "Bb:maj",
    "Bb:maj",
    "Bb:maj",
    "F#:maj",
    "D:min",
    "Bb:maj",
    "Bb:maj",
    "Bb:maj",
    "Bb:maj",
    "B:maj",
    "B:maj",
    "unknown",
    "Bb:maj",
    "unknown",
    "B:maj",
    "unknown",
    "Bb:maj",
    "unknown",
    "C:maj",
    "unknown",
    "Bb:maj",
    "unknown",
    "C:maj",
    "unknown",
    "Bb:maj",
    "unknown",
    "F:min",
    "unknown",
    "Eb:maj",
    "unknown",
    "F:min",
    "unknown",
    "Eb:maj",
    "unknown",
    "Bb:maj",
    "unknown",
    "Ab:maj",
    "unknown",
    "G:maj",
    "unknown",
    "Bb:maj",
    "F:min",
    "Eb:maj",
    "Eb:maj",
    "F:min",
    "D:min",
    "Eb:maj",
    "C:min",
    "Bb:maj",
    "Bb:maj",
    "Eb:maj",
    "Eb:maj",
    "F:maj",
    "C:maj",
    "Eb:maj",
    "Eb:maj",
    "F:maj",
    "C:maj",
    "Eb:maj",
    "Eb:maj",
    "D:min",
    "Ab:maj",
    "G:min",
    "Eb:maj",
    "F:min",
    "F:min",
    "Eb:maj",
    "Eb:maj",
    "F:min",
    "D:min",
    "Eb:maj",
    "C:min",
    "Bb:maj",
    "Bb:maj",
    "Eb:maj",
    "Eb:maj",
    "F:maj",
    "C:maj",
    "Eb:maj",
    "Eb:maj",
    "F:maj",
    "C:maj",
    "Eb:maj",
    "Eb:maj",
    "F:maj",
    "Ab:maj",
    "G:min",
    "Eb:maj",
    "F:maj",
    "Ab:maj",
    "G:min",
    "Eb:maj",
    "F:maj",
    "Bb:maj",
    "Eb:maj",
    "unknown",
    "Bb:maj",
    "unknown",
    "Eb:maj",
    "unknown",
    "Bb:maj",
    "unknown",
    "G:maj",
    "unknown",
    "F:maj",
    "unknown",
    "Eb:maj",
    "unknown",
    "F:maj",
    "Eb:maj",
    "F:maj",
    "Eb:maj",
    "F:maj",
    "Eb:maj",
    "F:maj",
    "Eb:maj",
    "F:maj",
    "Eb:maj",
    "Eb:maj",
    "Eb:maj",
    "Eb:maj",
    "Eb:maj",
    "Eb:maj",
    "Eb:maj",
    "Eb:maj",
    "Eb:maj",
    "Bb:maj",
    "Eb:maj",
    "Bb:maj",
    "Eb:maj",
    "Bb:maj",
    "Eb:maj",
    "Bb:maj",
    "Bb:maj",
    "Eb:maj",
    "unknown",
    "D:maj",
    "unknown",
    "Eb:maj",
    "Eb:maj",
    "Eb:maj",
    "F:min",
    "Eb:maj",
    "F:min",
    "Eb:maj",
    "Bb:maj",
    "Eb:maj",
    "Eb:maj",
    "Eb:maj",
    "Bb:maj",
    "Eb:maj",
    "Eb:maj",
    "C:min",
    "unknown",
    "Bb:maj",
    "unknown",
    "Bb:maj",
    "unknown",
    "Eb:maj"
  ]
}